<?xml version="1.0" standalone="no"?>
<!DOCTYPE svg PUBLIC "-//W3C//DTD SVG 1.1//EN" "http://www.w3.org/Graphics/SVG/1.1/DTD/svg11.dtd" >
<svg xmlns="http://www.w3.org/2000/svg" xmlns:xlink="http://www.w3.org/1999/xlink" version="1.1">
<metadata></metadata>
<defs>
<font id="sociconregular" horiz-adv-x="2048" >
<font-face units-per-em="2048" ascent="1920" descent="-128" />
<missing-glyph horiz-adv-x="1024" />
<glyph horiz-adv-x="0" />
<glyph horiz-adv-x="682" />
<glyph unicode=" "  horiz-adv-x="1024" />
<glyph unicode="&#x09;" horiz-adv-x="1024" />
<glyph unicode="&#xa0;" horiz-adv-x="1024" />
<glyph unicode="&#x22;" d="M0 780q0 136 89 238t221 120q28 82 79 149t118 116t147 75t168 26q104 0 198 -37t166 -103t117 -155t57 -191q102 -22 170 -105t68 -191q0 -126 -89 -215t-215 -89h-930q-150 0 -257 106t-107 256zM136 780q0 -94 67 -160t161 -66h930q70 0 119 49t49 119q0 52 -30 95 t-78 61q-2 -22 -7 -42t-13 -40q-6 -22 -24 -35t-40 -13q-6 0 -11 1t-11 3q-26 10 -39 35t-3 51q10 30 15 62t5 64q0 84 -32 158t-87 128t-129 86t-156 32q-120 0 -220 -65t-148 -171q46 -12 89 -36t77 -60q20 -20 20 -48t-20 -48t-48 -20t-48 20q-32 32 -74 49t-86 17 q-94 0 -161 -66t-67 -160zM1611 464q-5 28 11 50q30 46 46 99t16 109q0 54 -16 107t-46 99q-16 24 -11 52t29 42q22 16 50 11t44 -29q42 -62 64 -134t22 -148t-22 -148t-64 -136q-10 -14 -25 -22t-31 -8q-10 0 -20 3t-18 9q-24 16 -29 44zM1805 1090q5 28 29 44t52 10 t42 -30q60 -86 90 -186t30 -206t-30 -206t-90 -188q-8 -14 -24 -22t-32 -8q-10 0 -19 3t-19 9q-22 14 -28 42t10 52q46 70 71 151t25 167q0 84 -25 165t-71 153q-16 22 -11 50z" />
<glyph unicode="#" d="M128 760q0 192 63 332t145 236q64 76 128 125t102 73q10 6 18 10t14 8q64 36 119 63t131 87q2 2 5 3t5 3q22 20 41 48t33 72q6 20 11 46t7 58h2q52 -64 111 -129t105 -95q8 -6 16 -11t16 -9q66 -38 132 -65t132 -69q2 0 3 -1t3 -1q24 -16 97 -69t151 -150t140 -241 t62 -340t-72 -356t-194 -273t-283 -175t-339 -62q-106 0 -208 24t-194 68l-2 2q-2 0 -4 1l-6 3l-1 1l-1 0.5t-2 0.5q-1 1 -2 1.5t-2 1.5l-2 1l-6 3t-4 1q0 2 -2 2t-4 2q-2 0 -3 1l-3 3q-2 0 -2 1t-2 1q-102 58 -188 141t-148 185q-56 96 -87 206t-31 232zM516 454 q0 -66 22 -114t66 -78q30 -20 67 -32t125 -12q74 0 154 38t156 83t141 82t109 37q68 -4 159 -116t143 -116q42 -2 70 19t62 73q36 50 52 122t16 118t-26 105t-100 59q-70 0 -188 -97t-192 -99q-44 0 -96 35t-115 78t-137 79t-160 34q-136 0 -231 -92t-97 -206zM928 66 q-2 -12 10 -24q64 -58 160 -64t176 2t140 42t68 40q10 12 9 20t-1 14q-2 6 -9 11t-19 -5q-30 -22 -95 -43t-159 -21q-96 0 -146 16t-80 40q-4 4 -5 4h-11q-8 0 -15 -4t-13 -10q-8 -6 -10 -18zM1117 215q-3 -13 5 -25q10 -10 21 -4t37 26q24 22 48 37t76 15t68 -16t26 -36 q10 -18 15 -23t15 1q12 6 17 16t-1 24q-6 16 -17 38t-29 34t-41 15t-47 3t-41 -1t-43 -11q-24 -12 -49 -32t-41 -34t-19 -27z" />
<glyph unicode="$" d="M28 1514q38 100 164 147t282 21t317 -139t269 -333q2 -4 7 -16t7 -16q-294 -130 -505 -122t-341 84t-179 187t-21 187zM554 194q6 18 23 59t19 45q30 70 77 162t109 188q2 -94 22 -186t58 -178q38 -84 91 -159t119 -139q-112 18 -210 45t-170 51q-4 2 -46 17t-58 21 q-22 8 -32 30t-2 44zM946 730q0 20 5 40t11 40q22 70 72 128t112 98q42 28 88 48t96 32l4 2q2 1 3.5 1.5t2.5 0.5q-14 -30 -24 -61t-12 -65q-10 -118 11 -237t75 -239q52 -118 125 -212t165 -166q26 -20 56 -34t62 -22q-2 -2 -30 -19t-46 -27q-52 -26 -112 -43t-120 -17 q-64 0 -135 21t-115 55q-72 58 -130 132t-98 164q-42 92 -58 189t-8 191zM1149 1513q13 115 65 190t125 104t131 7q42 -16 68 -81t7 -152t-97 -181t-244 -168q-2 2 -5 9t-3 9q-60 148 -47 263zM1488 978q4 58 50 99t102 41q10 0 21 -2t23 -6q106 -38 194 -117t138 -193 t50 -233t-44 -225q-18 -40 -57 -63t-83 -23q-24 0 -47 8t-43 22q-76 58 -134 136t-100 172t-61 191t-9 193z" />
<glyph unicode="&#x26;" d="M15 1574q-12 40 6 78t58 52q38 16 76 0t56 -54l4 -12v-2l338 -858h4l45 120q23 60 48.5 127.5t53.5 142.5q57 150 108 285t65 165v6q0 1 0.5 2.5t0.5 3.5l1 4q14 38 49 55t75 5q38 -12 57 -49t7 -75v-1.5t-1 -1.5l-1 -1q-2 -4 -4 -9t-4 -11q-3 -8 -22.5 -56t-55.5 -137 q-72 -177 -154 -383t-150 -375l-68 -169q-58 -150 -137 -243t-257 -93q-22 0 -48 2t-52 6q-36 10 -54 42t-8 68q8 32 34 50t58 18q2 -2 25 -3t33 -1q96 0 142 54t78 140l26 56l-62 150q-31 75 -65.5 159.5t-73.5 177.5q-77 187 -146 356t-85 209zM1177 634q-2 8 2 14t10 10 q6 6 15 8t21 2q38 0 106 -23t148 -57t160 -74t142 -74q40 -30 47 -76t-17 -86q-18 -26 -44 -40t-58 -14q-8 0 -17 1t-17 3l-16 8q-14 8 -91 60t-163 117t-157 128t-71 93zM1177 1168q0 30 71 93t157 128t163 117t91 60l14 8q10 2 19 4t17 2q32 0 58 -15t44 -41 q24 -40 17 -85t-43 -75q-64 -34 -145 -75t-160 -75t-148 -57t-107 -23q-12 0 -21 3t-15 7t-10 11t-2 13zM1327 892q0 10 4 16q16 26 108 47t199 37t199 24t110 8h14q40 -8 67 -40t29 -72q4 -46 -24 -83t-74 -45q-4 -4 -97 -2t-205 11t-211 29t-117 54q-2 6 -2 16z" />
<glyph unicode="'" d="M0 902q0 212 80 398t219 325t326 220t399 81t399 -81t326 -220t219 -325t80 -398t-80 -399t-219 -326t-326 -219t-399 -80t-399 80t-326 219t-219 326t-80 399zM430 748q26 -102 83 -187t135 -146t175 -95t201 -34t201 34t175 95t135 146t83 187q6 22 -6 43t-36 27 t-44 -6t-28 -36q-20 -82 -66 -150t-110 -118t-142 -77t-162 -27t-162 27t-142 77t-110 118t-68 150q-6 24 -26 36t-44 6t-36 -27t-6 -43z" />
<glyph unicode="(" d="M222 -122v852l154 -2l-6 -688h1022v698h164v-860h-1334zM472 164v164h798v-164h-798zM476 458l16 176l804 -78l-16 -174zM518 812l48 170l776 -220l-46 -168zM664 1224l90 150l692 -418l-92 -150zM1004 1644l144 102l470 -656l-142 -102zM1520 1896l174 30l132 -798 l-172 -28z" />
<glyph unicode=")" d="M0 190v1422q0 30 22 52t52 22h1300l674 -784l-674 -786h-1300q-30 0 -52 22t-22 52zM408 442l92 -7q46 -3 127.5 -5t198.5 -2q118 0 200 2t128 5q46 4 69 5.5l23 1.5l-22 131q-11 66 -38 106.5t-70 56.5q-86 34 -119 40t-63 24h-2l-2 2v66q30 26 52 62t34 80q16 16 25 36 t9 40q0 14 -4 28t-12 26q-6 106 -65 170t-141 64q-84 0 -143 -64t-63 -170q-8 -12 -12 -26t-4 -28q0 -20 8 -40t24 -36q14 -44 36 -80t50 -62v-66q0 -2 -1 -2h-3q-28 -18 -62 -24t-120 -40q-42 -16 -68.5 -56.5t-38.5 -106.5q-11 -65 -17 -98z" />
<glyph unicode="*" d="M30 873q0 21 10 31q4 4 92 7t178 3q54 0 96 -2t56 -4q16 -4 21 -10t9 -22q2 -12 3 -21t-1 -9q-2 -2 -68 -5t-156 -5q-134 -2 -179 -1t-51 7q-10 10 -10 31zM528 918q-2 0 1 11t7 25q28 92 111 173t215 147l56 28l10 -18q30 -64 38 -89t6 -49q-4 -20 -1 -29t15 -19 q18 -18 42 -17t42 21q8 8 14 18t6 16q0 10 -19 33t-27 23q-6 0 -15 18t-23 58q-4 12 -9 25t-7 19q-6 12 23 23t121 33q42 10 106 15t130 5q84 0 148 -8t60 -22q-4 -12 -42 -54t-56 -54q-24 -18 -39 -9t-33 47l-14 28t-8 12q-4 0 -7 -10t-5 -24q-12 -78 -52 -105t-124 -11 l-32 6l24 -22q32 -28 46 -52t14 -52q0 -24 -7 -37t-39 -45l-46 -48l32 6q14 2 38 4t44 2q38 0 49 -4t31 -26q10 -14 18 -28t8 -22q0 -20 9 -39t15 -15q4 2 6 8t2 14q0 22 22 61t40 47q20 8 40 8t56 -10q16 -6 28 -9t14 -1l-4 11q-2 6 -4.5 12.5t-5.5 14.5q-24 50 -10 76 t78 50q52 20 54 26t-44 6q-44 0 -59 9t-9 33q4 12 57 69t61 57q12 0 35 -36t29 -62q10 -44 -3 -104t-41 -90q-2 -4 -11 -15t-17 -21q-32 -46 -120 -108t-172 -98q-130 -56 -281 -83t-269 -13q-92 10 -161 35t-113 65q-24 20 -42 47t-12 33l42 3q21 2 45.5 3t52.5 2 q90 4 116 3t34 -11q20 -20 54 -10t38 38q4 24 -2 36t-24 22q-22 10 -38 8t-34 -18q-8 -8 -37 -9t-119 3q-58 2 -101 5t-45 5zM609 606q5 4 37 -30q14 -18 28 -33t18 -17q2 -4 20 -24t40 -44t42 -46t26 -30q8 -8 25 -28t35 -40t34 -37t18 -21q8 -8 65 -72t85 -94 q28 -32 41 -28t25 52q6 22 13 50t13 44q4 16 15 55t21 75q10 38 19 69t13 35q2 6 6 20t6 28t8 33t10 33l14 30l196 -192q80 -78 139 -134t61 -56q6 0 16 33t26 105q6 34 13 69t11 51t10 45t10 51q4 24 8 43t6 25q4 10 30 136t30 156q2 14 4 20t4 6q4 0 8 -15t6 -47 q2 -24 7 -65t9 -71q4 -32 10 -78t10 -78t10 -83t10 -89q8 -78 4 -122t-24 -84q-16 -34 -29 -50t-63 -66q-62 -62 -131 -103t-169 -73q-98 -32 -213 -40t-201 10q-58 12 -110 38t-88 58q-26 26 -42 53t-46 97q-16 38 -30 71t-22 49q-4 10 -11 26t-13 30q-24 56 -36 83t-20 43 q-4 10 -11 25t-11 27q-6 12 -14 32t-16 36q-20 44 -15 48zM690 1840q-26 52 20 80q32 18 51 -27t25 -65q22 -66 50 -131t50 -131q14 -44 31 -87t31 -87q10 -30 10 -35t-30 -17q-14 -6 -24 19t-14 33q-38 90 -78 181t-80 181q-16 34 -42 86zM732 1753q-6 13 0 1q6 -14 0 -1z M1388 1108q10 36 42 36q10 0 23 10t31 32q28 32 61 71t85 99q18 20 44 50t46 52q20 24 42 50t34 38q12 14 32 37t36 43q54 64 74 85t32 21h12q8 -2 17 -10t13 -16q10 -18 -2 -35t-90 -99q-32 -34 -87 -91t-99 -103t-96 -100t-82 -86q-40 -42 -57 -64t-17 -32q0 -18 -17 -37 t-31 -19q-4 0 -13 4t-17 8q-26 20 -16 56z" />
<glyph unicode="+" d="M430 208v678l586 -332zM430 886v696l594 348v-688l574 340v-680l-580 328zM1024 -118v674l574 346v-674z" />
<glyph unicode="," d="M4 152q0 112 80 192t192 80t192 -80t80 -192q0 -114 -80 -193t-192 -79t-192 79t-80 193zM4 836v394q278 0 524 -107t428 -290t288 -429t106 -526h-392q0 96 -18 189t-54 179t-88 164t-120 146q-66 68 -144 120t-164 88t-178 54t-188 18zM4 1532v394q422 0 794 -162 t649 -440t437 -651t160 -795h-392q0 342 -130 643t-353 526t-523 355t-642 130z" />
<glyph unicode="-" d="M137 -52l298 1890q6 38 35 63t67 25h736q186 0 323 -48t215 -142q72 -84 95 -203t-1 -273q-28 -174 -94 -305t-171 -219t-249 -132t-326 -44h-232q-38 0 -67 -25t-35 -61l-80 -510q-6 -38 -35 -62t-67 -24h-352q-28 0 -46 21t-14 49zM809 970h112q146 0 277 33t161 231 q10 70 2 121t-38 85q-48 56 -136 66t-188 10h-50q-24 0 -41 -15t-21 -37z" />
<glyph unicode="." d="M445 824q22 44 80 66t138 -42q55 -43 116.5 -68t128.5 -33l135 -15l135 15q68 8 129 33t116 68q80 64 138 42t80 -66q38 -76 -1 -124t-137 -110q-82 -54 -184 -77t-176 -31l388 -388q36 -36 36 -85t-36 -83l-14 -14q-34 -36 -83 -36t-85 36l-304 304l-306 -304 q-34 -36 -84 -36t-84 36l-14 14q-34 34 -34 83t34 85l388 388q-74 6 -177 30t-185 78q-98 62 -137 110t-1 124zM525 1406q0 108 41 202t111 165t164 111t202 40t202 -40t164 -111t111 -165t41 -202q0 -106 -41 -201t-111 -165t-164 -111t-202 -41t-202 41t-164 111t-111 165 t-41 201zM787 1406q0 -106 75 -180t181 -74t181 74t75 180t-75 181t-181 75t-181 -75t-75 -181z" />
<glyph unicode="1" d="M12 128v1566l1192 232v-2048zM344 894q0 -78 19 -141t55 -111q38 -48 86 -72t108 -24t110 25t88 75q36 50 55 115t19 147q0 78 -18 142t-54 112q-36 50 -84 74t-108 24q-62 0 -112 -26t-88 -76t-57 -116t-19 -148zM476 902q0 50 9 91t29 71q18 30 44 46t60 16 q32 0 57 -15t43 -45t27 -72t9 -94t-10 -92t-28 -70q-18 -28 -44 -43t-58 -15q-30 0 -56 15t-44 45q-20 30 -29 70t-9 92zM1278 396v544l128 -86q7 -5 14 -6t13 1l13 5q-8 -6 83 55t204 136q57 38 109 72.5t99 65.5l95 63v-736q0 -60 -32 -87t-76 -27h-650zM1278 1090v400 h688q20 0 45 -23t25 -59l-602 -406h-16z" />
<glyph unicode="2" d="M-4 1572q0 106 75 181t181 75t180 -75t74 -181t-74 -180t-180 -74t-181 74t-75 180zM762 902q0 104 74 179t180 75t181 -75t75 -179q0 -106 -75 -181t-181 -75t-180 75t-74 181zM762 1572q0 106 74 181t180 75t181 -75t75 -181t-75 -180t-181 -74t-180 74t-74 180z M1534 230q0 106 75 180t181 74t180 -74t74 -180t-74 -181t-180 -75t-181 75t-75 181zM1534 902q0 104 75 179t181 75t180 -75t74 -179q0 -106 -74 -181t-180 -75t-181 75t-75 181zM1534 1572q0 106 75 181t181 75t180 -75t74 -181t-74 -180t-180 -74t-181 74t-75 180z" />
<glyph unicode="3" d="M0 814q0 88 28 167t76 145q-14 46 -38 100t-58 84h354l119 98q60 49 193.5 73.5t341.5 24.5q378 0 507 -85t141 -107q6 -2 10 -3t8 -1h340q-32 -30 -54 -77t-36 -91q54 -66 85 -150t31 -178q0 -106 -41 -200t-111 -165t-164 -112t-202 -41q-120 0 -224 52t-176 138 l-100 -170l-118 164q-72 -84 -174 -133t-220 -49q-108 0 -202 40t-164 111t-111 165t-41 200zM102 814q0 -86 32 -162t89 -132t133 -89t162 -33t161 33t132 89t89 132t32 162t-32 162t-89 132t-132 89t-161 33t-162 -33t-133 -89t-89 -132t-32 -162zM268 814q0 50 19 95 t55 81q34 34 80 53t96 19q102 0 175 -73t73 -175t-73 -175t-175 -73q-50 0 -96 19t-80 53q-36 36 -55 81t-19 95zM344 814q0 -34 13 -66t39 -56q24 -24 55 -37t67 -13q70 0 121 50t51 122t-51 122t-121 50q-36 0 -67 -13t-55 -37q-26 -24 -39 -56t-13 -66zM434 814 q0 34 24 59t60 25q34 0 59 -25t25 -59t-25 -59t-59 -25q-36 0 -60 25t-24 59zM524 1302l61 3q31 2 67 -5.5t77 -23.5q83 -32 168 -117t133 -259q23 87 56 152t75 107q85 85 168 117t144 29l61 -3l-111 76q-55 38 -149.5 57t-227.5 19h-34q-133 0 -227 -19t-150 -57 q-55 -38 -83 -57zM1116 814q0 -86 32 -162t89 -132t132 -89t161 -33t162 33t133 89t89 132t32 162t-32 162t-89 132t-133 89t-162 33t-161 -33t-132 -89t-89 -132t-32 -162zM1282 814q0 50 19 95t55 81q34 34 79 53t95 19q104 0 177 -73t73 -175t-73 -175t-177 -73 q-50 0 -95 19t-79 53q-36 36 -55 81t-19 95zM1358 814q0 -34 13 -66t37 -56q26 -24 57 -37t65 -13q72 0 123 50t51 122t-51 122t-123 50q-34 0 -65 -13t-57 -37q-24 -24 -37 -56t-13 -66zM1446 814q0 34 25 59t59 25q36 0 60 -25t24 -59t-24 -59t-60 -25q-34 0 -59 25 t-25 59z" />
<glyph unicode="4" d="M-2 128l1026 1546l1026 -1546h-210l-234 358h-1164l-234 -358h-210zM576 664h896l-448 676z" />
<glyph unicode="5" d="M368 1188q0 164 46 300t130 232t202 149t262 53t267 -63t199 -179v204h164v-1396q0 -148 -40 -262t-118 -192t-193 -117t-265 -39q-134 0 -238 32t-176 95t-111 153t-43 206l-2 46h144l2 -48q8 -162 111 -246t305 -84q238 0 349 112t111 344v214q-76 -108 -207 -170 t-283 -62q-150 0 -268 58t-202 168q-70 96 -108 223t-38 269zM532 1188q0 -128 33 -233t95 -179t150 -114t196 -40q132 0 228 49t158 129t92 181t30 207q0 136 -43 254t-123 200q-62 62 -143 95t-177 33q-136 0 -231 -53t-154 -137t-85 -188t-26 -204z" />
<glyph unicode="6" d="M3 773q-3 29 11 55q24 46 81 58t99 -22q12 -10 21 -23t11 -31q0 -6 3 -8t9 -2l734 10q10 0 11 -1t-1 -9q-2 -10 -2 -19t2 -17q0 -8 -2 -9t-8 -1l-726 8q-8 0 -15 -1t-11 -7q-6 -4 -10 -12t-10 -14q-12 -12 -26 -20t-30 -14q-30 -8 -62 -1t-56 29q-20 22 -23 51zM717 1054 q-3 20 5 38q22 38 66 29t48 -53v-4q-6 -12 1 -17t15 -9l168 -120q4 -2 12 -7t2 -11q-8 -6 -13 -13t-11 -15q-2 -4 -4 -5t-6 3l-176 136l-5 5t-7 3t-8 -3t-8 -3q-16 -6 -33 -3t-29 15q-14 14 -17 34zM778 580q0 22 11 39t31 27t40 8t38 -16q4 -2 7 -2t7 2q22 14 43 28t43 28 q4 2 6 2t6 -4q2 -6 7 -11t9 -11q4 -2 7 -6t-3 -6q-24 -16 -48 -30t-50 -28l-4 -4t0 -6q4 -28 -12 -52t-44 -32q-34 -8 -65 14t-29 60zM1024 783q2 37 22 69q34 56 105 70t125 -22q36 -24 50 -65t0 -81q-16 -44 -56 -70t-86 -30h4l-10.5 -1.5l-3.5 -0.5q-8 0 -10 1t0 1 q-34 2 -67 16t-53 44q-22 32 -20 69zM1088 1167q-16 51 18 95q20 26 52 36t64 -2q32 -10 51 -38t19 -62q0 -20 -7 -37t-19 -31q-6 -6 -14 -12t-16 -10t-17 -6t-9 -12q2 -30 3 -59t1 -57q0 -6 -2 -8t-8 -2q-8 2 -17 2t-19 -2q-6 0 -9 2t-1 8l8 114q0 6 -2 9t-6 3 q-54 18 -70 69zM1300 657q0 1 4 5t9 8t9 8q6 6 10 6t8 -6l3 -3l3 -3q8 -8 16 -11t20 -1q22 6 38 -9t16 -39q0 -20 -15 -35t-37 -13q-12 2 -22 9t-16 17q-2 6 -3 12t-1 10q0 6 1 12t-5 10q-10 4 -18 9t-16 11q-4 2 -4 3zM1325 912q-5 4 3 8q62 40 125 78t127 74q6 2 7 5t1 9 q-8 34 14 62t58 28q54 0 71 -51t-25 -85q-16 -12 -39 -14t-43 8q-2 2 -7 5t-9 3l-242 -156q-4 -2 -9 -5t-9 3q-2 6 -6 10t-8 10q-4 4 -9 8zM1372 757q-2 1 0 7t3 12t1 12q0 4 -1 10t3 8l476 -6q4 0 7 2t3 6q10 36 40 54t68 14q34 -6 56 -33t22 -63q0 -34 -23 -61t-57 -31 q-20 -4 -38 1t-32 17q-8 6 -15 13t-11 15q-4 6 -7 17t-11 13l-478 -8q-4 0 -6 1z" />
<glyph unicode="7" d="M81 1740q2 8 13 24t23 24t28 14t38 14q28 14 87 36t123 41t121 29t83 -4q50 -26 81 -132t65 -210q30 -96 56 -192t54 -182l240 -764q14 -8 26 -2t24 10q132 38 271 83t285 91q56 18 106 32t78 -4q20 -12 31 -38t19 -50q4 -12 5 -26t5 -30q2 -10 7 -19t7 -21 q0 -2 -0.5 -3.5t-2.5 -3.5l-3 -3q6 -30 14 -49t10 -47q0 -4 -1 -15t-3 -23q0 -10 -5 -29t-13 -29q-2 -2 -7 -2t-7 -2q0 -2 1 -4t1 -4q-2 0 -7 -1t-7 -3q-10 -28 -115 -56t-151 -42l-636 -200q-96 -32 -177 -57t-123 -9q-62 24 -106 170t-82 262q-28 92 -53 177t-50 167 t-51 162t-56 164q-4 8 -6 17t-6 17q-2 4 -6 7t-6 11q-18 48 -30 107t-38 109q-4 6 -8 9t-6 9q-10 26 -19 58t-19 64q-20 60 -41 110t-41 126q-10 34 -17 65t-3 47z" />
<glyph unicode="8" d="M47 951q22 31 68 -1q6 -4 13 -9t7 -9v794q0 82 59 141t135 59h1436q76 0 125 -59t49 -141v-792q14 4 18 8t10 8q46 32 71 1t-5 -73q-54 -66 -158 -144t-262 -142q84 -288 9 -457t-198 -227t-239 -9t-110 197q0 3 -1 128t-1 244q-12 4 -25 7t-29 7q0 -119 -1 -251t-1 -135 q6 -148 -110 -197t-239 9t-198 227t9 457q-158 64 -264 142t-160 144q-30 42 -8 73zM259 868q92 -54 184 -79t174 -33t152 -6t118 4q40 2 65 -6t39 -24q4 -2 6 -5t6 -5q18 -18 34 -32t34 -26q2 46 30 74t100 24q48 -2 116 -4t150 7t175 35t193 82v762q0 98 -28 142t-120 44 h-1270q-96 0 -127 -41t-31 -145v-768zM529 1078q0 92 70 158t170 66t170 -66t70 -158q0 -94 -70 -160t-170 -66t-170 66t-70 160zM1097 1080q0 94 71 160t171 66t171 -66t71 -160t-71 -160t-171 -66t-171 66t-71 160z" />
<glyph unicode="9" d="M20 348q0 16 13 23t25 13q38 16 75 34t75 36q36 16 73 16t73 -18q74 -34 149 -69t151 -70t151 -70t149 -71q36 -16 71 -16t69 16q76 36 151 71t151 70t151 70t151 71q34 16 69 16t69 -16l80 -36t80 -38l8 -4l8 -4q16 -12 16 -25t-16 -23q-4 -4 -9 -6t-11 -4 q-112 -52 -224 -105t-225 -105t-225 -105t-224 -105q-36 -16 -72 -15t-70 17l-224 104t-223 104t-223 104l-224 104l-24 12t-14 24zM20 900q0 16 13 23t25 13q38 18 75 35t75 35q36 16 73 16t73 -16q74 -36 149 -71t151 -70t151 -70t149 -71q36 -16 71 -16t69 16 q76 36 151 71t151 70t151 70t151 71q34 16 69 16t69 -16l80 -36t80 -38l8 -4l8 -4q16 -12 16 -25t-16 -23q-4 -4 -9 -6t-11 -4q-112 -52 -224 -105t-225 -105t-225 -105t-224 -105q-36 -16 -72 -15t-70 17l-224 104t-223 104t-223 104l-224 104l-24 12t-14 24zM20 1455 q0 11 12 21q6 4 13 8t15 6q110 52 222 104t223 104l222 104t223 104q38 18 75 18t75 -18q110 -52 221 -104l222 -104t222 -103t223 -103q8 -4 15 -8t15 -10q10 -8 10 -19t-10 -19q-8 -6 -15 -10t-15 -8q-112 -52 -223 -104t-223 -104l-224 -104t-222 -104q-36 -16 -73 -16 t-71 16q-112 52 -223 104l-222 104t-223 104t-222 104l-16 8t-14 8q-12 10 -12 21z" />
<glyph unicode=":" d="M0 84l164 404q-44 94 -67 198t-23 216q0 206 78 387t212 316t313 213t385 78q204 0 384 -78t313 -213t211 -316t78 -387t-78 -388t-211 -317t-313 -213t-384 -78q-92 0 -179 16t-168 47t-154 75t-137 98zM676 410h368q132 0 235 37t174 102t108 156t37 199v2 q0 108 -37 198t-107 154t-172 99t-234 35h-372v-982zM942 656v490h110q122 0 201 -62t79 -182v-2q0 -120 -79 -182t-201 -62h-110z" />
<glyph unicode=";" d="M0 1412q34 26 85 25t107 -1q46 0 109 4t97 -14q20 -10 40 -55t36 -79q28 -56 53 -103t53 -91q4 -6 7 -10t5 -8q0 -1 0.5 -1.5t0.5 -1.5l1 -1q4 -4 6 -8t4 -6q0 -2 1 -4t3 -2q2 -4 4 -7t4 -7l3 -3t1 -3q4 -4 7 -9t7 -9q18 -28 48 -68t66 -32q34 6 43 74t9 122q0 4 1 7t1 5 q0 62 -4 124t-22 94q-16 32 -45 40t-59 28q26 52 92 64t152 12q72 0 156 -2t112 -50q30 -50 21 -127t-11 -143v-14t-2 -16v-34v-4t-2 -4v-26l-2 -2v-8q0 -2 1 -3t1 -3v-10v-4t2 -4v-20l1 -1q1 0 1 -1v-2v-8l2 -2v-8l1 -1q1 0 1 -1v-2v-2q0 -1 0.5 -1.5t0.5 -1.5l1 -1v-4 l2 -4v-2q2 -2 2 -3t2 -3v-2l2 -4l2 -2q0 -1 0.5 -1.5t0.5 -1.5l1 -1v-1l0.5 -0.5t1.5 -0.5v-2l2 -2v-1l0.5 -0.5t1.5 -0.5v-1l0.5 -0.5t1.5 -0.5v-2l7 -7q1 0 1 -1v-2h2l6 -6q2 0 3 -1l3 -3q40 4 64 35t46 61q4 4 6 8t6 6q0 2 1 3l3 3q0 2 2 4t4 6l2 2q1 1 1.5 2t0.5 2 q2 2 3 4t3 2q0 2 2 4t2 4l2 2v2q4 4 7 9t7 11l2 2q2 2 3 5t3 5q0 1 0.5 1.5l0.5 0.5h1q2 4 4 7t2 5q24 38 46 80t44 94q16 34 35 81t47 57q44 18 108 12t128 -6q52 0 125 3t89 -33q14 -30 -13 -88t-39 -80q-38 -62 -76 -110t-78 -98q-2 -2 -4 -5t-4 -5l-3 -3t-1 -3l-4 -4 t-2 -4l-4 -4t-4 -6l-2 -2q-1 -1 -1.5 -2t-0.5 -2l-7 -7t-5 -7q-22 -28 -53 -69t-29 -85q2 -34 29 -60t53 -50q56 -52 99 -96t87 -102q18 -22 45 -63t23 -69q-12 -88 -163 -66t-221 -8h-10q-78 14 -134 62t-100 98q-26 30 -64 78t-86 40q-66 -10 -59 -95t-21 -135 q-24 -38 -102 -39t-144 5q-206 22 -327 120t-215 216q-6 10 -13 19t-15 19q-2 2 -4 5t-4 5q-4 6 -9 13t-9 13q-2 4 -5 7t-5 7q-4 6 -9 12t-9 14q-2 2 -4 5t-4 5q-6 10 -12 19t-12 19h-2q-6 10 -12 19t-12 19q-2 2 -4 5t-2 5q-6 8 -10 15t-8 13q-2 4 -4 7t-4 7q-4 6 -8 13 t-8 15q-2 2 -4 5t-4 5q-36 62 -69 125t-65 127q-24 48 -48 100t-24 112z" />
<glyph unicode="=" d="M0 -104v519v259t2 260q0 136 40 264t114 244q60 94 132 170t157 135t182 99t207 62q68 14 135 17t135 -3q86 -6 167 -26t157 -52t146 -77t134 -103q108 -96 183 -214t115 -256q16 -50 25 -102t15 -104q8 -106 -4 -210t-46 -204q-42 -114 -100 -211t-134 -175t-171 -140 t-207 -106q-88 -34 -180 -50t-186 -16q-108 2 -217 1t-217 -1q-20 0 -24 4t-4 24v504q0 126 1 252t1 254q0 80 29 155t80 135t121 102t150 56q96 16 186 -3t163 -68t125 -125t72 -170q22 -96 1 -189t-73 -169t-131 -129t-173 -69q-88 -14 -169 1t-157 59q-2 2 -6 4t-10 4 v-18q-2 -78 -1 -155t-1 -155q0 -10 5 -16t15 -8q108 -32 211 -38t200 16t187 70t176 124q104 92 164 210t80 256q20 144 -12 282t-107 253t-187 200t-254 127q-162 46 -321 23t-292 -101t-230 -206t-137 -292q-10 -42 -15 -86t-5 -86q0 -126 -1 -252t-1 -251t1 -251t1 -250 q0 -20 -4 -24t-22 -4q-50 0 -98 1t-98 -1q-12 0 -16 4t-4 16z" />
<glyph unicode="@" d="M0 218v1228l958 -782q14 -12 31 -18t35 -6t35 6t31 18l958 782v-1228h-2048zM158 1584h1732l-810 -662q-12 -10 -26 -16t-30 -6t-30 6t-26 16z" />
<glyph unicode="A" d="M0 498v778q0 136 50 254t138 206t206 139t254 51h434q102 0 209 -53t193 -138t141 -192t55 -217v-58q0 -48 35 -85t101 -37h90q84 0 113 -41t29 -109v-492q0 -128 -51 -243t-138 -200t-202 -134t-239 -49h-824q-112 0 -219 49t-191 133t-134 197t-50 241zM530 522 q0 -48 35 -80t83 -32h740q48 0 83 32t35 80q0 50 -35 81t-83 31h-740q-48 0 -83 -31t-35 -81zM530 1270q0 -50 35 -87t83 -37h372q50 0 85 37t35 87q0 48 -35 85t-85 37h-372q-48 0 -83 -37t-35 -85z" />
<glyph unicode="B" d="M-8 1308q0 21 1 42t3 42q14 150 85 280t163 254h1804v-1416q-130 -80 -272 -129t-288 -71q-59 -9 -119 -13.5t-121 -4.5q-13 0 -27 0.5t-28 0.5q-74 3 -147.5 10.5t-145.5 20.5q-72 -36 -141 -80t-136 -90t-135 -91t-138 -85q8 110 21 219t25 219q1 22 2.5 46t2.5 49v6 q0 23 -10.5 41t-32.5 30q-90 70 -162 162t-121 196q-24 52 -41.5 106.5t-28.5 110.5q-7 36 -10 72.5t-3 72.5zM403 1226q0 -58 14.5 -113t43.5 -108q32 -57 72.5 -105t90.5 -86q104 -80 230 -124t258 -51q13 0 26 -0.5t25 -0.5q53 0 106 6t106 17q66 15 127.5 38t119.5 55 q126 72 217 195t93 273v15q0 63 -16 122t-48 114q-34 59 -78 107t-98 86q-59 44 -124.5 76t-138.5 51q-63 17 -126 25.5t-126 8.5h-19t-20 -1q-80 -2 -161 -18t-157 -46t-144 -76t-124 -106q-64 -66 -105 -152t-43 -180q0 -5 -0.5 -10.5t-0.5 -11.5z" />
<glyph unicode="C" d="M0 918q0 82 59 141t141 59q46 0 86 -19t68 -53q58 42 128 75t149 58t165 39t178 16l170 498q4 14 17 21t27 3l402 -94q4 -2 7 -3t5 -3q18 42 57 68t87 26q66 0 113 -46t47 -112t-47 -113t-113 -47q-64 0 -110 45t-48 109h-7t-7 2l-370 86l-150 -438q94 -4 183 -18 t170 -39t153 -59t132 -78q26 36 67 56t89 20q82 0 141 -59t59 -141q0 -64 -35 -115t-91 -73q4 -22 7 -44t3 -46q0 -122 -72 -231t-196 -190t-290 -127t-354 -46q-190 0 -356 46t-290 127t-195 190t-71 231q0 24 3 47t7 47q-52 24 -85 73t-33 111zM554 756q0 -60 44 -103 t106 -43q60 0 103 43t43 103t-43 105t-103 45q-62 0 -106 -45t-44 -105zM686 366q0 -10 6 -16q52 -52 134 -77t200 -25q114 0 196 25t134 77q6 6 6 16t-6 18q-8 6 -17 6t-17 -6q-44 -46 -118 -67t-182 -21q-104 0 -178 21t-118 67q-8 6 -17 6t-17 -6q-6 -8 -6 -18zM1198 756 q0 -60 44 -103t104 -43q62 0 105 43t43 103t-43 105t-105 45q-60 0 -104 -45t-44 -105z" />
<glyph unicode="D" d="M-2 894q0 210 81 397t220 326t325 220t398 81t398 -81t325 -220t220 -326t81 -397q0 -212 -81 -399t-220 -326t-325 -219t-398 -80t-398 80t-325 219t-220 326t-81 399zM148 894q0 -86 15 -166t44 -154t71 -141t94 -125l56 84t138 163t219 183t299 148q8 2 16 5t18 5 q-16 38 -34 75t-38 73q-164 -48 -319 -74t-279 -37t-205 -12t-95 -1v-26zM166 1072q14 0 85 1t180 11t249 32t294 62q-54 98 -108 184t-99 154t-77 112t-40 56q-92 -42 -171 -105t-142 -142t-106 -171t-65 -194zM486 204q110 -88 247 -137t289 -49q90 0 176 18t166 52 q-6 28 -18 91t-34 150t-55 195t-81 228q0 -1 -0.5 -1.5t-1.5 -0.5h-2q-186 -66 -314 -154t-209 -172t-120 -146t-43 -74zM816 1744q10 -12 42 -57t77 -113t100 -156t109 -186q232 86 339 192t119 124q-116 102 -265 161t-315 59q-54 0 -105 -6t-101 -18zM1210 1102 q16 -32 30 -64l28 -64q6 -10 10 -22t10 -22q48 6 94.5 9t92.5 3h26q53 -1 100 -3.5t89 -6.5q84 -8 140 -18t66 -12q-2 154 -54 293t-144 251q-6 -10 -38 -46t-91 -86t-148 -107t-211 -105zM1340 792q44 -118 74 -223t51 -187t32 -138t13 -76q74 50 136 113t111 138t81 159 t48 176q-6 2 -21 6t-39 10q-48 12 -122 23t-167 13h-21q-42 0 -86 -3.5t-90 -10.5z" />
<glyph unicode="E" d="M0 576v284h350v-280q0 -44 32 -76t76 -32q46 0 78 32t32 76v662q2 92 39 172t99 140t144 95t174 35q94 0 176 -35t143 -95t98 -141t39 -173v-146l-208 -62l-140 66v126q0 44 -32 76t-76 32t-76 -32t-32 -76v-654q-2 -94 -38 -176t-98 -143t-145 -96t-177 -35 q-96 0 -179 36t-145 98t-98 145t-36 177zM1132 572v286l140 -64l208 62v-288q0 -46 32 -77t78 -31q44 0 76 31t32 77v292h350v-284q0 -94 -36 -177t-98 -145t-146 -98t-178 -36t-177 35t-145 97t-98 144t-38 176z" />
<glyph unicode="F" d="M0 532v696h328v288h204v-984h-532zM204 696h124v368h-124v-368zM614 532v696h206v-696h-206zM614 1310v206h206v-206h-206zM902 286v164h326v82h-326v696h532v-942h-532zM1106 696h122v368h-122v-368zM1516 286v164h328v82h-328v696h532v-942h-532zM1720 696h124v368 h-124v-368z" />
<glyph unicode="G" d="M127 769q0 24 1.5 48.5t3.5 48.5q9 88 36.5 172t73.5 164q38 64 83 117t59 65q6 8 31 -10t13 -38q-23 -78 -34.5 -149t-11.5 -135q0 -22 1.5 -43.5t4.5 -42.5q11 -79 34.5 -153.5t59.5 -144.5q6 -4 25 -10t23 4q8 220 65 399t150 326t215 263t258 208q77 24 145.5 39.5 t128.5 22.5q22 3 41.5 4t36.5 1q29 0 50.5 -3.5t35.5 -11.5q62 -34 131 -215t106 -421q14 -87 20.5 -176t6.5 -181q0 -34 -1 -69t-3 -71q-7 -128 -36 -239t-80 -204q-90 -160 -231 -268t-305 -155q-59 -17 -120 -25.5t-123 -8.5q-24 0 -48 1t-49 4q-88 9 -172 36t-164 72 q-162 90 -271 230t-156 305q-17 60 -25.5 121t-8.5 123z" />
<glyph unicode="H" d="M0 286v1270h594q44 0 85 -7t79 -15t69 -24t59 -34q26 -18 46 -42t36 -56q14 -28 21 -66t7 -82q0 -46 -11 -86t-31 -72q-22 -32 -54 -58t-76 -46q58 -18 102 -47t72 -71t42 -92t14 -110q0 -48 -9 -89t-27 -75q-18 -36 -43 -64t-57 -50q-30 -22 -66 -38t-76 -26t-82 -15 t-84 -5h-610zM266 492h308q20 0 39 3t37 7q20 4 36 11t30 15q14 10 26 23t20 29t12 37t4 47q0 48 -14 82t-40 54q-28 22 -64 31t-82 9h-312v-348zM266 1044h292q36 0 67 6t55 24t36 44t12 66q0 22 -4 40t-12 32t-19 25t-23 19q-14 8 -29 14t-33 10q-18 2 -35 5t-37 3h-270 v-288zM1136 738q0 50 9 98t25 92q18 44 41 83t55 71q30 32 67 57t81 45q42 18 90 27t100 9q58 0 109 -11t93 -33q44 -22 80 -52t62 -68q28 -38 48 -83t34 -93q6 -24 10 -49.5t6 -53.5t2 -53t-2 -48h-658q0 -46 17 -97t45 -77q28 -28 69 -42t93 -14q38 0 71 11t61 31 q26 18 43 36t23 50h220q-26 -92 -66 -148t-96 -92q-54 -36 -120 -56t-144 -20q-54 0 -103 9t-91 25q-44 18 -81 43t-67 57q-30 30 -53 68t-39 84q-16 44 -25 92t-9 102zM1332 1332v122h512v-122h-512zM1388 840h408q-4 46 -20 82t-38 60t-59 37t-83 13q-30 0 -55 -5t-45 -15 q-18 -12 -34 -24t-28 -28q-12 -14 -21 -29t-13 -33q-6 -16 -8 -29t-4 -29z" />
<glyph unicode="I" d="M0 -122v1024h1024v1024h1024v-1024h-1024v-1024h-1024z" />
<glyph unicode="J" d="M0 531q0 21 2 41t6 40q9 45 27 88t45 84q46 66 105 118t129 94q88 54 185 90t199 56q12 4 16 9t4 17q-2 36 -2 74v76v24q78 6 142 13t126 13v-192h48q140 -2 279 -26t269 -76q100 -42 191 -100t161 -144q29 -34 51.5 -70t37.5 -75q14 -34 20.5 -70.5t6.5 -76.5v-20 q-2 -22 -5 -40t-5 -48h-974v526q16 0 45 -1t55 -5q38 -6 73 -13t73 -13q12 -4 17 -9t5 -17q0 -20 -0.5 -40t-0.5 -40v-39q1 -29 1 -59v-60v-26h340q-2 0 -4 12t-4 18q-26 104 -91 175t-161 113q-72 30 -149 45t-155 19q-28 2 -61 1t-63 -1v-586h-972q-6 26 -9 51t-3 50z M378 634h338v344q-122 -14 -226 -125t-112 -219z" />
<glyph unicode="K" d="M170 -122l854 2048l854 -2048h-752v338l346 174l-24 52l-322 -162v158l200 106l-28 54l-172 -90v230h-204v-354l-172 122l-32 -50l204 -142v-436h-752z" />
<glyph unicode="L" d="M80 -6v1820q0 44 17 70t45 42q20 0 44 -1t50 -15l1242 -682l426 -234q64 -36 64 -87t-64 -85l-424 -228l-1244 -690q-26 -14 -51 -19t-45 1q-26 10 -43 37t-17 71z" />
<glyph unicode="M" d="M285 441v33q0 17 0.5 33.5t0.5 32.5q2 12 8 25t14 23l196 232t195 231t195 230t196 231q2 2 5 6t7 8q-26 -4 -49 -8t-45 -8q-34 -5 -68 -8.5t-69 -5.5q-11 0 -22.5 -0.5t-23.5 -0.5q-23 0 -45.5 1.5t-45.5 3.5q-32 2 -61 10t-57 22q-20 10 -33 21t-20 23q-5 11 -8 25 t-3 32v11q2 34 11 68t25 64q18 34 39 65t43 61q12 20 28 23t36 -9q36 -20 73 -32t77 -20q38 -8 77 -13t78 -7q27 -1 53 -2t52 -1q13 0 26 0.5t26 0.5q106 0 210 13t206 33q4 0 9 1t9 1q16 0 24 -8t6 -24q-6 -40 -10 -80t-10 -80q0 -10 -5 -20t-11 -18q-110 -126 -221 -254 l-222 -256t-221 -255t-222 -255q-16 -20 -20 -34t-2 -42q14 0 28 -1t28 -3q68 -8 128 -33t116 -59q48 -28 95 -57t95 -55q44 -26 92 -48t100 -32q30 -7 60.5 -11t60.5 -5h14q27 0 54 3.5t53 10.5q28 8 53 20t49 28q2 2 6 4t10 6q2 -26 4 -51t2 -49q-2 -62 -17 -119t-47 -111 q-32 -50 -76 -83t-106 -39q-9 -2 -17.5 -2.5t-17.5 -0.5q-10 0 -20.5 1t-21.5 3q-19 3 -38 7.5t-37 9.5q-84 28 -161 69t-149 89q-36 26 -72 53t-72 55q-72 52 -150 86t-164 44q-42 6 -83 8t-81 4q-28 2 -55 1t-55 -1q-18 0 -28 9t-10 27v50t-1 49z" />
<glyph unicode="N" d="M0 1504v74l6 2h520v-72q-26 -3 -50.5 -11t-48.5 -22q-17 -10 -25.5 -23.5t-8.5 -31.5q0 -7 1.5 -14.5t3.5 -15.5q48 -110 96 -219t94 -219t93 -219t97 -219l222 416q-64 132 -118 265t-126 261q-22 38 -75 45t-97 9v68l492 -2l2 -66q-17 -2 -33 -6t-32 -11 q-13 -6 -20 -17t-7 -27v-9l140 -308q34 74 71 146t67 148q2 7 2.5 13t0.5 11q0 20 -9.5 32t-29.5 16q-25 6 -48 9.5t-44 4.5l-2 64l440 2v-66q-48 -4 -91 -20t-69 -50q-64 -100 -115 -211t-103 -219q50 -116 102 -232t102 -224l374 864q-18 42 -57 61t-81 29l-4 70l416 -4 v-68q-14 -2 -27 -6t-27 -10q-24 -12 -46 -33t-38 -49l-516 -1188h-86l-246 578l-298 -578h-88q-66 136 -124 275t-115 278t-117 277t-128 272q-34 58 -87 109t-95 67z" />
<glyph unicode="O" d="M150 836q0 122 37 237t106 204t165 143t214 54q70 0 125 -14t103 -38q46 -28 85 -39t81 -11q34 0 72 7t76 23q90 34 152 54t98 20q90 0 163 -29t131 -83q24 -24 49 -56t47 -72q-110 -34 -175 -159t-65 -237q0 -142 76 -273t208 -167q-18 -62 -51 -131t-75 -132t-89 -117 t-93 -88q-40 -28 -87 -40t-103 -12q-38 0 -81 9t-97 31q-46 20 -86 31t-68 11q-22 0 -72 -15t-120 -43q-38 -12 -70 -19t-54 -7q-62 0 -119 25t-115 71q-88 82 -156 180t-115 208t-72 230t-25 244zM1014 1462q0 84 32 159t88 147q60 64 135 104t161 54q0 -88 -30 -172 t-90 -152q-64 -72 -137 -106t-159 -34z" />
<glyph unicode="P" d="M0 24v1096q0 98 13 194t47 188q60 168 179 268t293 136q50 10 100 15t100 5h1170q-4 0 -108.5 -107.5t-705.5 -710.5q-4 -2 -7 -6t-7 -6q-6 -6 -14 -9t-16 3q-6 4 -11 12t-9 14q-2 4 -1 8t1 8v318l-4 2q-70 -2 -141 -3t-143 -3q-16 -2 -32 -6l-32 -8q-78 -24 -121 -79 t-57 -133q-8 -40 -12 -82t-4 -82q0 -45 -0.5 -90t-0.5 -90v-90q1 -67 1 -134v-134q0 -10 -3 -17t-9 -13q-114 -112 -226 -225t-226 -225q-2 -4 -5 -7t-9 -7zM148 -118l108 108t110 108q74 74 148 149t149 149t149 149t148 149l8 8q8 8 17 12t19 -2q12 -4 16 -14t4 -20v-326 q0 -2 4 -2h6q64 0 129 1t131 3q24 2 48 8t46 14q72 24 112 77t54 125q8 38 12 78t4 80v548q0 10 3 17t9 13l448 448q4 4 6 8l4 8q2 0 5 -1t3 -3v-1096q-2 -100 -15 -199t-49 -193q-62 -162 -179 -258t-283 -130q-52 -12 -104 -16t-104 -4h-1166v4z" />
<glyph unicode="Q" d="M104 602q0 5 4.5 8.5t12.5 4.5l49 9q50 -3 88 -20.5t64 -50.5l52 -65q43 -72 92 -108.5t105 -36.5h13q60 5 104.5 13t73.5 20q8 66 32 110t52 68q-110 14 -219 46t-195 105t-139 194t-53 313q0 108 37 198t101 160q-6 12 -12.5 42t-14.5 77q-1 11 -2 21.5t-1 21.5 q0 41 10.5 88.5t31.5 101.5l88 -4q44 -2 113.5 -35.5t164.5 -98.5q80 22 164 34t170 12q84 0 168 -12t164 -34q95 65 164.5 98.5t113.5 35.5l66 3l22 1q21 -54 31.5 -101.5t10.5 -88.5q0 -11 -0.5 -21.5t-2.5 -21.5q-7 -47 -14 -77t-13 -42q64 -70 101 -160t37 -198 q0 -192 -53 -314t-140 -194t-195 -104t-220 -44q36 -32 63 -93t27 -153q0 -134 -1 -267t-1 -165h-658q0 24 -1 127t-1 187q-49 -10 -92.5 -15.5t-81.5 -5.5q-67 0 -114 17.5t-75 51.5l-85 108q-23 58 -47 97t-50 59l-51 40q-29 20 -43.5 34.5t-14.5 23.5zM228 578 q-2 -4 1 -10t11 -10q6 -2 13 -1t9 5q4 6 0 12t-12 8q-6 4 -13 3t-9 -7zM281 524q1 -8 9 -16q6 -6 14 -8t12 2q6 6 5 14t-9 14q-6 8 -14 9t-12 -3q-6 -4 -5 -12zM334 455q0 -9 6 -17q6 -10 14 -13t14 1q8 4 8 14t-6 18q-8 8 -16 12t-14 0q-6 -6 -6 -15zM396 376q2 -10 10 -18 q10 -10 20 -11t14 5q6 6 4 16t-10 18q-10 8 -20 10t-14 -4q-6 -6 -4 -16zM484 326q-2 -8 5 -16t17 -12q12 -4 22 0t12 12q2 6 -4 14t-18 12t-21 1t-13 -11zM592 300q0 -8 8 -14t20 -6t21 6t7 16q0 8 -8 13t-20 5t-20 -6t-8 -14zM694 308q2 -8 11 -12t21 -2t19 9t5 15t-11 12 t-21 2t-19 -9t-5 -15z" />
<glyph unicode="R" d="M366 902q0 210 81 397t220 326t325 220t398 81q38 0 77 -3t69 -9v-140q-30 6 -69 9t-77 3q-182 0 -344 -70t-282 -190t-190 -281t-70 -343q0 -184 70 -345t190 -281t282 -190t344 -70q38 0 77 4t69 10v-142q-30 -6 -69 -8t-77 -2q-212 0 -398 80t-325 219t-220 326 t-81 399zM668 902q0 148 57 280t155 230t229 155t281 57q38 0 77 -4t69 -12v-208q-30 10 -69 16t-77 6q-108 0 -202 -41t-165 -112t-112 -166t-41 -201q0 -108 41 -203t112 -166t165 -112t202 -41q38 0 77 6t69 16v-208q-30 -8 -69 -12t-77 -4q-150 0 -281 57t-229 155 t-155 230t-57 282zM1104 904q0 152 103 242t249 90q56 0 118 -19t108 -65l-130 -136q-14 20 -40 34t-56 14q-74 0 -115 -44t-41 -116t41 -116t115 -44q32 0 56 14t40 34l130 -136q-46 -46 -108 -65t-118 -19q-146 0 -249 90t-103 242z" />
<glyph unicode="S" d="M0 812v360h360v180q0 110 38 209t104 172t154 115t188 42h304v-354h-304q-44 0 -84 -53t-40 -131v-180h540v180q0 110 38 209t103 172t154 115t189 42h304v-354h-304q-44 0 -85 -53t-41 -131v-180h360v-360h-360v-900h-358v900h-540v-900h-360v900h-360z" />
<glyph unicode="T" d="M486 616q0 60 42 102t102 42t103 -42t43 -102q0 -6 -1 -12t-1 -12l180 -130v430l-252 182q-16 -10 -34 -15t-38 -5q-60 0 -102 43t-42 103t42 102t102 42t103 -42t43 -102q0 -6 -1 -12t-1 -12l180 -132v404l-254 184q-14 -8 -32 -13t-38 -5q-60 0 -102 42t-42 102t42 103 t102 43t103 -43t43 -103q0 -6 -1 -13t-1 -13l180 -130v324h140v-614l180 130q-2 6 -2 11v9q0 60 43 103t103 43t102 -43t42 -103t-42 -102t-102 -42q-22 0 -41 5t-35 15l-248 -178v-404l180 130q-2 4 -2 8v10q0 60 43 102t103 42t102 -42t42 -102q0 -62 -42 -104t-102 -42 q-22 0 -42 6t-36 16l-246 -178v-430l180 130q-2 4 -2 8v8q0 60 43 103t103 43t102 -43t42 -103t-42 -102t-102 -42q-22 0 -42 6t-36 16l-246 -176v-142h-140v430l-252 182q-16 -10 -34 -15t-38 -5q-60 0 -102 43t-42 103z" />
<glyph unicode="U" d="M0 956q0 190 74 356t201 289t297 195t364 72q192 0 362 -71t297 -195t200 -290t73 -354q0 -76 -13 -150t-37 -142l230 -732l-704 206q-92 -44 -196 -69t-214 -25q-194 0 -364 72t-297 195t-200 289t-73 354zM300 956q0 -128 50 -240t136 -196t201 -132t247 -48 q78 0 152 18t140 52l320 -102l150 -36l-40 108l-2 -2v0l-10 30l-118 332q20 50 31 105t11 113q0 128 -50 240t-136 196t-201 133t-247 49q-130 0 -246 -49t-202 -133t-136 -197t-50 -241z" />
<glyph unicode="V" d="M102 696v1024q0 86 60 146t146 60q84 0 144 -60t60 -146v-1024q0 -84 32 -159t88 -130t130 -88t160 -33h204q170 0 290 105t120 255t-67 254t-137 104h-410q-86 0 -146 60t-60 144q0 86 60 146t146 60h410q126 0 238 -61t195 -165t132 -244t49 -298q0 -160 -65 -300 t-176 -244t-260 -164t-319 -60h-204q-170 0 -319 64t-260 175t-176 260t-65 319z" />
<glyph unicode="W" d="M136 294q0 18 22 42t66 54q24 56 51 107t29 63t27 136t69 262q42 140 93 210t63 80q10 6 14 11t-6 11q-5 3 -24 27t-52 68q-26 35 -39 85t-13 115q0 18 1 36.5t3 38.5q4 22 12 13t14 -57q6 -50 48 -142t130 -128h3q9 0 35 8t69 24q49 18 153.5 33t265.5 27q1 28 3.5 54.5 t5.5 51.5l7 50l-16 17q-8 9 -13 21.5t-7 29.5q-10 -16 -18 -22t-22 -4q-7 2 -10.5 16t-4.5 40v34q0 17 0.5 33.5t0.5 32.5q4 48 44 69t60 25q14 7 27 10.5t25 3.5h24l56 30q16 9 39 13t53 4q22 0 47.5 -2t54.5 -7h22l63 -3q43 -1 84.5 -15.5t82.5 -41.5q30 2 54 -12t40 -42 q8 -14 16.5 -35.5t16.5 -50.5q4 -12 5.5 -24t1.5 -24q0 -14 -3 -27t-9 -25q-4 -4 -8.5 -0.5t-10.5 14.5l-11 22l-11 -31q-5 -15 -13.5 -27t-19.5 -20v-13q0 -38 -5.5 -70.5t-16.5 -59.5q-12 -28 -20.5 -47.5t-13.5 -29.5q-4 -12 -2 -23t6 -21q2 -6 13 -46t30 -114 q18 -67 26.5 -117.5t8.5 -85.5v-13q-2 -68 -30 -137t-56 -95q1 -7 1.5 -13.5t-0.5 -13.5q0 -20 -3 -38.5t-10 -35.5q-9 -22 -17 -39.5t-15 -29.5q-12 -22 -34 -90t-30 -108t-9 -78t7 -50q8 -14 35 -46t25 -52q-4 -20 -35 -38t-51 -18t-53 13t-43 39q-5 14 -7.5 31.5 t-3.5 37.5v11q0 17 1.5 31t3.5 25q4 14 13.5 60.5t23.5 124.5q7 39 10.5 75t3.5 70q0 35 -3.5 67.5t-11.5 62.5q-35 -16 -74.5 -25t-84.5 -12l-89 -5l-18 -79q-9 -39 -19.5 -74t-22.5 -65q-8 -16 -9 -93t-1 -139q0 -31 4 -65t11 -71l15 -74l19 -19q10 -10 13.5 -21.5 t1.5 -25.5q-4 -26 -33 -41t-59 -15t-62 21t-32 59q0 18 1 45.5t3 63.5t2 70t-2 65q-2 62 -3 105t-11 83q-10 38 -32 126t-24 166q-5 0 -9.5 1.5t-8.5 3.5l-8 5l-37 -42q-18 -21 -36 -39.5t-35 -34.5q4 -20 13 -51t9 -39q0 -10 8 -17t22 -13t46 -27t30 -45q-1 -12 -12.5 -19 t-34.5 -9q-3 0 -6.5 -0.5t-7.5 -0.5q-19 0 -38.5 5t-40.5 14q-12 6 -43 103t-35 115q-6 18 -9 31t5 29q3 8 8 22.5t12 35.5q6 19 9 35t3 29v8q-4 30 -47 66t-81 36q-28 0 -68 -33t-72 -59q-38 -30 -76 -66t-48 -44q-12 -8 -77 -126t-83 -164q-3 -10 -10 -31t-19 -53 q-11 -31 -34.5 -46.5t-59.5 -15.5h-5q-17 2 -28 12t-17 28q0 2 -0.5 4t-0.5 4z" />
<glyph unicode="X" d="M0 330v530l310 -126q48 28 102 43t114 15h21t21 -2l350 502q2 116 46 217t121 177t178 119t217 43t219 -44t179 -120t120 -178t44 -220q0 -116 -44 -218t-120 -178t-178 -120t-220 -44l-538 -394q-8 -80 -43 -149t-91 -120t-129 -80t-153 -29q-152 0 -266 94t-144 236z M252 228q38 -72 111 -118t163 -46q128 0 218 90t90 218q0 130 -90 220t-218 90q-18 0 -35 -2t-33 -6l130 -52q47 -19 80.5 -51.5t53.5 -79.5q11 -24 16 -48t5 -48q0 -22 -4.5 -45t-14.5 -46q-19 -47 -52 -80.5t-80 -53.5l-96 -21q-23 0 -46 5t-46 14q-38 14 -76 30t-76 30z M1104 1286q0 -156 110 -266t266 -110t267 110t111 266t-111 267t-267 111t-266 -111t-110 -267zM1182 1288q0 126 88 214t212 88t213 -88t89 -214q0 -124 -89 -212t-213 -88t-212 88t-88 212z" />
<glyph unicode="Y" d="M-8 910q0 102 19 198t55 184t87 168t115 148l127 -63q64 -31 152 -81.5t201 -119.5q-252 -260 -367 -460t-151 -336q-14 -52 -21 -94.5t-7 -75.5q0 -10 1 -19t2 -17l11 -70q-52 66 -94 140t-71 155t-44 167t-15 176zM276 206l35 84q18 42 48 96t72 120q85 132 226 295 t355 321q119 -88 215 -173t169 -168q146 -165 226 -293t107 -205l27 -77q-70 -72 -153 -131t-177 -100t-197 -64t-213 -23t-213 23t-197 64t-177 99t-153 132zM352 1688q66 58 143 103t161 77t174 49t186 17q94 0 185 -17t175 -49t161 -77t143 -103l-46 19q-23 10 -56 14.5 t-76 4.5q-86 0 -209 -37t-277 -147q-77 56 -146 93t-131 55q-123 36 -209 36t-132 -19zM1286 1344q113 69 201.5 119.5t151.5 81.5l127 63q64 -68 115 -148t86 -168t54 -184t19 -198q0 -90 -15 -176t-44 -167t-70 -155t-95 -140l12 70q2 9 2.5 18.5t0.5 19.5q0 33 -7 75 t-21 93q-37 136 -151 336t-366 460z" />
<glyph unicode="Z" d="M-6 840h846v-790l-842 110zM-6 942l4 700l842 122v-822h-846zM922 38v802h1126v-956zM922 942v836l1126 152v-988h-1126z" />
<glyph unicode="]" d="M2 942q2 158 6 328l4 262q74 22 152 35t164 13q18 0 39 -1t41 -3q74 -106 141 -235t131 -257q36 -74 73 -149t77 -145q36 148 70 290t76 275t98 256t136 229q4 -2 12 -40t16 -38h12q36 0 66 34t58 28q32 -4 63 15t65 19q12 0 24 8t24 8q50 -110 90 -234t74 -257t64 -271 t58 -278q22 -108 45 -216t49 -215t55 -210t65 -201q-8 6 -18 11t-22 5q-24 0 -52 -8t-60 -18q-42 -14 -87 -26t-87 -18q-60 152 -112 302t-98 300t-85 301t-71 303q-62 -106 -74 -240t-14 -270q-2 -148 -12 -293t-56 -249l-32 12q-42 0 -79 -4t-73 -10l-72 -8t-76 -4 q-16 0 -32 1t-34 1q-24 48 -56 99t-66 105q-52 86 -105 169t-113 159q-18 -48 -17 -87t7 -75q12 -72 20 -144t2 -158q-40 -20 -124 -57t-186 -37q-16 0 -32 2l-32 4q-42 138 -64 281t-30 293t-6 308z" />
<glyph unicode="^" d="M4 434q-4 66 47 112t117 68q1 0 2 0.5t2 0.5l2 1l474 160l130 44v860l420 -112q102 -28 183 -68t137 -97t85 -130t29 -165q-2 -216 -102 -300t-294 -28v566q0 52 -64 54t-64 -44v-722l26 8q124 42 249 67t253 15q178 -12 288 -53t126 -113q10 -44 -31 -87t-135 -77l-6 -2 l-480 -168l-288 -100l-2 6v-6l-330 106v98q-92 -32 -193 -41t-211 9q-120 20 -243 45t-127 93zM350 431q44 -41 120 -13l308 102v122l-326 -118l-76 -26q-70 -26 -26 -67zM1108 332l458 158l86 30q130 40 93 72t-171 8l-172 -58l-294 -100v-110z" />
<glyph unicode="_" d="M148 662v494q0 54 36 91t88 37t89 -37t37 -91v-494q0 -52 -37 -89t-89 -37t-88 37t-36 89zM470 1360q10 126 90 228t202 160l-104 148q-4 6 -3 14t7 12t13 2t13 -8l106 -154q52 20 110 31t120 11t120 -11t110 -31l106 154q6 6 13 8t13 -2t7 -11t-3 -15l-104 -148 q122 -58 202 -160t90 -228h-1108zM472 376v904h1108v-904q0 -40 -28 -69t-68 -29h-112v-274q0 -52 -36 -89t-88 -37t-88 37t-36 89v274h-194v-274q0 -52 -37 -89t-89 -37q-50 0 -87 37t-37 89v274h-110q-40 0 -69 29t-29 69zM728 1574q0 -24 18 -42t44 -18t44 18t18 42 q0 26 -18 44t-44 18t-44 -18t-18 -44zM1204 1574q0 -24 18 -42t44 -18q24 0 42 18t18 42q0 26 -18 44t-42 18q-26 0 -44 -18t-18 -44zM1650 662v494q0 54 37 91t89 37t88 -37t36 -91v-494q0 -52 -36 -89t-88 -37t-89 37t-37 89z" />
<glyph unicode="a" d="M0 258q24 -4 49 -5t51 -1q148 0 281 48t241 132q-138 2 -245 84t-147 208q18 -4 38 -6t40 -2q30 0 57 4t55 10q-144 30 -241 145t-97 267v6q42 -24 90 -37t100 -15q-84 56 -135 148t-51 202q0 56 15 110t41 100q78 -94 174 -172t206 -135t233 -91t253 -40q-4 22 -7 46 t-3 50q0 86 33 163t90 134t133 90t164 33q90 0 170 -36t136 -98q72 14 139 40t129 62q-24 -72 -72 -132t-114 -100q64 8 125 25t117 41q-42 -62 -95 -117t-115 -101q0 -12 1 -26t1 -28q0 -208 -78 -421t-230 -385t-375 -281t-513 -109q-88 0 -174 13t-167 37t-157 60 t-146 80z" />
<glyph unicode="b" d="M526 838v346h254v296q0 86 29 167t90 143t154 99t223 37q53 0 97 -1.5t78 -5.5l69 -7l-8 -324l-67 1q-33 1 -72 1h-83q-92 0 -118 -41t-26 -113v-252h376l-16 -346h-360v-960h-366v960h-254z" />
<glyph unicode="c" d="M0 346q0 32 10 68t30 76q18 40 53 75t85 65q58 32 117 54t121 32t113 15t93 5q-14 18 -25 35t-21 37q-10 18 -16 40t-6 48q0 14 2 27t6 23q4 12 8 22t6 18q-20 -2 -38 -3t-36 -1q-94 2 -165 31t-119 85q-50 54 -76 116t-26 134q0 84 36 162t108 148q50 40 102 66t106 40 q52 10 102 14t96 4h466l-144 -82h-144q12 0 24 -13t26 -25q12 -14 25 -30t27 -36q12 -18 22 -40t20 -48q8 -26 12 -56t4 -64q-2 -62 -16 -112t-40 -88q-12 -18 -26 -34t-30 -32t-33 -31t-35 -31l-20 -24t-18 -26q-10 -14 -16 -30t-6 -36q0 -18 6 -33t16 -27t18 -21t18 -19 l78 -64q38 -30 70 -63t60 -71q26 -36 40 -84t14 -108q0 -84 -37 -159t-113 -141q-76 -68 -188 -103t-258 -37q-124 2 -215 28t-151 76q-60 48 -91 105t-31 123zM198 396q0 -62 28 -112t82 -90t126 -61t164 -21q82 0 145 19t107 53q42 34 63 79t21 99q0 46 -14 84t-44 72 q-30 30 -78 69t-114 83q-10 2 -23 2h-29q-8 2 -31 1t-59 -5t-73 -13t-75 -19q-10 -4 -22 -9t-28 -11q-16 -8 -33 -19t-33 -25t-30 -31t-24 -39q-14 -22 -20 -49t-6 -57zM314 1462q0 -64 18 -130t56 -134q18 -32 41 -59t51 -49t60 -33t70 -11q46 2 84 18t68 48q16 22 25 45 t13 45q4 24 5 44t1 36q0 68 -18 137t-52 139q-18 34 -39 62t-49 48t-59 31t-67 11q-48 0 -87 -20t-71 -56q-13 -19 -22.5 -39.5t-16.5 -42.5q-5 -19 -8 -38.5t-3 -39.5v-12zM1146 1250v142h390v390h122v-390h390v-142h-390v-390h-122v390h-390z" />
<glyph unicode="d" d="M204 1166q0 52 9 105t27 107q16 52 43 103t63 101t79 93t93 83q50 38 111 68t133 54q72 22 150 34t162 12t163 -15t151 -45q74 -28 135 -67t109 -87q50 -48 89 -104t67 -118q28 -64 42 -129t14 -131q0 -182 -46 -331t-138 -267t-210 -177t-262 -59q-48 0 -93 11t-87 33 t-72 49t-46 59q-36 -140 -57 -224t-29 -110q-18 -72 -61 -156t-111 -180h-84q-5 52 -7.5 101t-2.5 93v30q1 51 6.5 96.5t15.5 85.5l156 662q-18 40 -28 88t-10 106q0 66 17 122t51 100q34 46 76 69t90 23q40 0 70 -13t50 -39q22 -26 33 -59t11 -73q0 -24 -5 -54t-13 -64 q-10 -36 -21 -76t-27 -88q-14 -46 -25 -83t-17 -65q-3 -13 -5 -25.5t-2 -24.5q0 -10 1.5 -19.5t3.5 -19.5q5 -20 14.5 -39.5t23.5 -37.5q30 -34 69 -51t87 -17q84 0 154 47t124 141t81 209t27 249q0 102 -34 186t-100 150q-66 64 -159 97t-213 33q-134 0 -242 -43t-190 -129 q-84 -84 -125 -187t-41 -223q0 -70 20 -130t60 -110q14 -14 18 -31t0 -35q-4 -14 -10 -39t-14 -59q-4 -12 -10 -19t-14 -11t-18 -4t-20 4q-62 24 -108 68t-78 108q-32 62 -48 134t-16 154z" />
<glyph unicode="e" d="M290 4v1736q0 54 41 120t155 66h1092q60 0 99.5 -16.5t57.5 -50.5q11 -20 16.5 -45t5.5 -55q0 -21 -2.5 -44.5t-8.5 -50.5q-16 -84 -47 -239t-62 -312t-56 -280t-29 -141q-12 -44 -42 -101t-136 -57h-334q-10 0 -13 -2t-13 -12q-2 -2 -23.5 -26.5t-62.5 -72.5 q-82 -95 -180 -208t-178 -207l-80 -94q-30 -34 -72 -34t-60 6q-18 8 -43 34t-25 86zM516 278q0 -2 2 -3t4 3l51 61q26 31 54.5 65.5t60.5 72.5q64 77 122 147t72 86q26 34 45 43t61 9h294q30 0 47 19t19 35q4 14 23 110t23 124q6 28 -14 51t-46 23h-360q-36 0 -59 23t-23 57 v54q0 34 23 57t59 23h426q22 0 43 17t25 35l46 240q6 30 -12 50t-44 20h-876q-30 0 -48 -22t-18 -44v-1356z" />
<glyph unicode="f" d="M0 1544q6 3 23.5 4.5t47.5 1.5q18 0 40.5 -0.5t48.5 -1.5q71 -3 147 -3t157 3q27 1 61 2t74 1q41 1 80.5 1t78.5 -1q78 -1 139 -3t75 -4l-10 -72q-32 -8 -147 -13t-155 -17q52 -76 116 -161t125 -164t112 -145t77 -104q14 20 76 70t131 108t126 112t61 84q-40 8 -139 23 t-119 15l-18 92q12 2 37 3t62 1h40.5t46.5 -1q75 -1 136 -2t108 -1h221t189 -6l-60 -86q-28 -4 -113 -22t-121 -26q-20 -6 -108 -69t-187 -144t-183 -159t-96 -112q-6 -24 -8 -58t-2 -70l-4 -74q0 -40 8 -96t14 -90q9 -2 32.5 -3t60.5 -1h113q38 0 63 -1t37 -3l-4 -96 q-16 2 -73 2h-132h-301q-32 0 -87.5 -1t-134.5 -3q-52 -1 -94.5 -2t-74.5 -1q-16 0 -29 0.5t-24 0.5l16 90q34 4 141 4t139 32q16 18 15 48t-1 126v62q0 20 -1 57t-5 75q-8 20 -80 116t-165 209t-183 215t-130 134q-24 8 -135 21t-149 21z" />
<glyph unicode="g" d="M14 1366q0 116 44 218t120 178t178 120t216 44q82 0 158 -23t140 -63q40 6 81 10t83 4q200 0 376 -76t306 -207t206 -306t76 -375q0 -52 -6 -104t-16 -102q28 -56 43 -119t15 -129q0 -116 -44 -218t-120 -178t-178 -119t-216 -43q-72 0 -139 17t-125 49q-44 -8 -88 -12 t-90 -4q-198 0 -374 75t-307 206t-206 306t-75 375q0 50 5 99t15 95q-38 62 -58 134t-20 148zM460 618q0 -42 15 -86t47 -88q30 -44 70 -79t88 -61q68 -36 154 -54t190 -18q86 0 162 13t140 39t113 64t83 84q32 48 49 102t17 114q0 50 -10 92t-28 78q-20 34 -47 63t-63 51 q-34 22 -75 41t-89 35q-48 14 -101 28t-111 28q-48 10 -81 18t-53 14t-39 13t-39 17q-18 8 -32 19t-26 25q-8 12 -13 25t-5 31q0 26 15 49t45 43t72 30t94 10q56 0 96 -9t66 -27q24 -20 46 -46t40 -62q16 -26 30 -45t26 -31q16 -12 37 -19t47 -7q30 0 55 11t43 31 q20 20 30 43t10 49q0 28 -7 55t-23 55q-14 28 -38 55t-56 51q-30 24 -70 44t-88 36q-48 14 -104 21t-122 7q-80 0 -151 -11t-131 -33t-107 -55t-79 -75q-34 -42 -50 -91t-16 -103q0 -58 16 -106t46 -88q30 -38 72 -68t94 -52q50 -22 114 -41t138 -35q56 -12 100 -23t76 -21 t58 -24t46 -32q18 -18 27 -41t9 -51q0 -36 -17 -66t-53 -54q-38 -26 -86 -38t-108 -12q-44 0 -79 6t-61 18t-47 28t-35 34q-14 20 -28 45t-26 53t-26 49t-32 35q-16 14 -38 21t-46 7q-30 0 -55 -9t-45 -27q-20 -20 -30 -42t-10 -50z" />
<glyph unicode="h" d="M196 595v33l28 348q2 16 15 34t31 28q12 7 27 8t33 -5l36 -11l434 -218l32 -23q16 -11 24 -27t8 -36q-2 -54 -22 -65t-34 -21l-506 -112l-39 -8q-4 -1 -8 -1.5t-8 -0.5q-13 0 -23.5 5.5t-17.5 16.5q-5 11 -7.5 25t-2.5 30zM410 1688q0 9 2.5 17.5t7.5 16.5q8 12 17.5 21 t20.5 14l22 11l404 150q6 1 14 3t17 4q2 1 3.5 1h2.5q10 0 24 -6t33 -18q15 -8 25 -23.5t14 -38.5l9 -46l4 -692l-3 -10l-9 -33q-6 -21 -19.5 -34.5t-34.5 -18.5q-6 -1 -12.5 -2t-12.5 -1q-12 0 -22.5 3.5t-19.5 9.5l-27 20l-420 570l-26 40q-7 11 -10.5 21.5t-3.5 20.5z M522 64q0 11 3.5 22t10.5 23l20 33l338 372l32 20q9 6 18 8.5t18 2.5l28 -7q15 -8 24 -18.5t12 -24.5l6 -27l-8 -504l-2 -37q-1 -19 -9.5 -30t-24.5 -15q-12 -4 -24 -5.5t-25 0.5l-25 3l-340 108q-18 8 -30 22t-20 38q-1 4 -1.5 8t-0.5 8zM1183 866q-2 14 2 27l9 27l274 432 l20 27q10 14 24 19.5t32 3.5q15 -1 26.5 -6t19.5 -14l16 -18l232 -272l9 -27q5 -13 5 -26.5t-4 -26.5q-3 -13 -13 -24t-28 -20l-35 -18l-486 -142l-37 -1h-2q-17 0 -30.5 8t-22.5 23q-9 14 -11 28zM1199 575q0 12 5 23t14 20q12 12 25 17.5t27 4.5l28 -2l486 -156l35 -13 q18 -6 26.5 -18t8.5 -29q-1 -12 -4 -23.5t-8 -23.5l-10 -23l-206 -294l-23 -15q-11 -7 -24 -11t-27 -4t-27.5 7.5t-26.5 21.5l-26 29l-260 434l-10 36l-2 10t-1 9z" />
<glyph unicode="i" d="M308 788q0 150 47 319t124 326t175 288t200 205q-19 -51 -28.5 -96t-9.5 -85q0 -29 5.5 -55t15.5 -49q49 -107 104 -213t61 -247v-11q0 -69 -36 -162.5t-108 -211.5q29 -8 56 -12t53 -4q22 0 43 3t41 8q89 25 149 92t85 173q6 26 9 54t3 57q0 31 -3 64t-10 67 q88 -52 171 -111t146 -140t101 -191t38 -264q0 -67 -16 -132.5t-48 -130.5q-64 -129 -169 -230t-240 -162q-65 -30 -132 -44.5t-136 -14.5h-9q-146 0 -271 65t-216 183t-143 286t-52 376zM487 532q0 -68 12.5 -128t36.5 -112q31 -66 77.5 -117t107.5 -88q59 -34 122.5 -51.5 t131.5 -17.5h15q218 4 356 103t190 236q15 40 22.5 80.5t7.5 81.5q0 31 -4 61.5t-12 61.5q-19 74 -61.5 136t-108.5 112q-24 -100 -60 -187t-87 -151t-118 -100t-149 -36q-37 0 -73 11.5t-71 34.5q-70 46 -119 126t-68 189q-4 22 -6 45t-2 46q0 35 4.5 71.5t12.5 74.5 q-68 -110 -106 -211t-47 -194q-2 -20 -3 -39t-1 -38z" />
<glyph unicode="j" d="M0 1672q0 50 18 94t54 80q38 36 81 55t95 19t95 -19t81 -55q36 -36 54 -80t18 -94q0 -52 -18 -96t-54 -80q-38 -36 -81 -54t-95 -18t-95 18t-81 54q-36 36 -54 80t-18 96zM14 -66v1290q0 10 4 19t10 17q8 8 17 12t21 4h364q12 0 21 -4t17 -12q6 -8 10 -17t4 -19v-1290 q0 -10 -4 -19t-10 -17q-8 -8 -17 -11t-21 -3h-364q-12 0 -21 3t-17 11q-6 8 -10 17t-4 19zM682 -66v1290q0 10 4 19t12 17t17 12t19 4h354q10 0 18 -2t14 -6t10 -10t6 -16t3 -17t1 -11v-32q70 64 161 96t205 32q126 0 226 -32t172 -94q72 -64 108 -159t36 -219v-870 q0 -12 -4 -21t-12 -17t-17 -11t-19 -3h-374q-10 0 -19 3t-17 11t-12 17t-4 21v784q0 54 -10 92t-30 64q-20 24 -55 36t-87 12q-64 0 -110 -19t-72 -57q-28 -38 -41 -92t-13 -122v-700q0 -10 -4 -19t-12 -17q-6 -8 -16 -11t-20 -3h-366q-10 0 -19 3t-17 11t-12 17t-4 19z" />
<glyph unicode="k" d="M144 612q0 146 48 273t142 233q106 118 239 177t293 59q68 0 130 -10t120 -32q-18 -36 -33 -80t-21 -92q-44 18 -94 28t-102 10q-112 0 -207 -42t-175 -124q-80 -84 -120 -185t-40 -219q0 -76 18 -147t56 -137q36 -66 85 -117t111 -87q40 -24 85 -39t91 -23 q198 78 295 277t135 412q18 101 27 193t9 174v17q-1 86 -2 133t-2 56q-8 24 -29 81t-57 138t-85 180t-113 207l38 -32q38 -32 88 -104t96 -187q23 -57 38.5 -127t23.5 -152v-4l4 -12q43 -114 64 -218.5t21 -198.5q0 -34 -2.5 -66.5t-8.5 -63.5q-42 -235 -140 -393t-199 -238 l-101 -80q72 0 139 18t129 52q62 36 111 87t85 117t54 137t18 147q0 62 -11 119t-33 109q38 8 81 24t89 44q28 -66 42 -140t14 -152q0 -148 -51 -276t-151 -238q-102 -110 -232 -165t-288 -55q-160 0 -290 55t-230 165q-102 110 -152 238t-50 276zM864 50l2 -2l2 2h-4z M1248 1382q0 44 22 88t66 88l48 36q24 18 66 34.5t102 31.5l91 40q46 20 85 64.5t72 113.5l26 -44q26 -44 49 -122t29 -184q1 -6 1 -13v-14q0 -47 -9 -98t-28 -105l-41 -83q-20 -41 -52 -74.5t-75 -58.5q-30 -18 -66 -27.5t-78 -9.5h-13q-46 2 -95.5 27.5t-101.5 75.5l65 38 q65 38 144 98t146 134q34 37 52 73.5t21 72.5l-25 -45q-25 -45 -81 -106t-146 -122q-45 -30 -100 -52.5t-120 -36.5l-43 118q-5 16 -8 31.5t-3 30.5z" />
<glyph unicode="l" d="M152 532q0 12 6 24l314 554v2l-200 344q-6 14 -6 25t4 21q6 10 17 14t25 4h294q34 0 53 -18t29 -36l8 -14q8 -13 24 -41q32 -55 70 -122t70 -122l32 -55q-4 -8 -55 -97t-109 -193q-29 -52 -55.5 -99t-50.5 -90l-48 -85q-12 -22 -30 -40t-52 -18h-294q-14 0 -24 6t-16 14 q-6 10 -6 22zM816 704q8 14 111 197t225 399q61 108 116.5 206t105.5 186l100 176q10 22 28 40t50 18h298q14 0 24 -5t16 -15t6 -22t-6 -24l-654 -1156q-2 0 -2 -1t2 -1l416 -760q6 -12 6 -24t-6 -22t-16 -14t-22 -4h-296q-34 0 -53 18t-29 38l-66 120q-66 120 -144 264 t-144 264q-33 60 -49.5 90.5t-16.5 31.5z" />
<glyph unicode="m" d="M0 274v144q0 118 84 202t202 84t202 -84t84 -202v-144h-572zM22 1026q0 110 77 187t187 77t187 -77t77 -187t-77 -187t-187 -77t-187 77t-77 187zM634 274v160q0 132 93 225t225 93t225 -93t93 -225v-160h-636zM658 1110q0 122 86 208t208 86t208 -86t86 -208t-86 -208 t-208 -86t-208 86t-86 208zM1334 274v180q0 148 104 253t252 105t253 -105t105 -253v-180h-714zM1362 1200q0 136 96 232t232 96t232 -96t96 -232t-96 -232t-232 -96t-232 96t-96 232z" />
<glyph unicode="n" d="M0 574v246h40v-246h-40zM102 492v388h42v-388h-42zM184 472v450h42v-450h-42zM266 450v452h42v-452h-42zM368 450v594h42v-594h-42zM450 450v676h42v-676h-42zM552 450v718h42v-718h-42zM634 450v738h42v-738h-42zM738 450v718h40v-718h-40zM820 450v696h40v-696h-40z M902 450v778h40v-778h-40zM1004 450v840h40v-840h-40zM1064 486v800q0 12 6 19t22 11q36 14 77 22t83 8q88 0 166 -31t137 -86t97 -129t46 -160q22 10 47 15t51 5q104 0 178 -74t74 -178t-73 -178t-179 -74h-702q-12 2 -21 10t-9 20z" />
<glyph unicode="o" d="M0 1361q0 16 4 31.5t12 30.5q13 25 33 41.5t47 25.5q95 28 203.5 47.5t230.5 30.5q63 6 126 8.5t127 2.5q61 0 123 -2.5t124 -7.5q256 -21 504 -87t448 -186q24 -14 39.5 -34.5t22.5 -47.5q3 -9 4 -17.5t1 -17.5q0 -17 -4.5 -34t-14.5 -33q-15 -24 -36 -39.5t-48 -22.5 q-8 -2 -16.5 -3t-17.5 -1q-18 0 -35 5t-33 15q-174 102 -394 160t-449 76q-55 5 -110 7t-110 2q-57 0 -113 -2.5t-112 -7.5q-108 -9 -203.5 -26.5t-178.5 -42.5q-10 -3 -20 -4.5t-20 -1.5q-16 0 -31.5 4t-31.5 12q-24 13 -40.5 33t-24.5 47q-3 10 -4.5 20t-1.5 19zM97 897 q0 14 3.5 27t9.5 25q11 21 27.5 34t38.5 19q98 30 201 49t210 27q42 3 84 4.5t83 1.5q65 0 130 -3.5t130 -11.5q212 -25 412 -90t366 -167q20 -12 33 -29.5t18 -40.5q2 -7 2.5 -14t0.5 -14q0 -15 -4 -29t-12 -27q-12 -20 -29.5 -32.5t-40.5 -18.5l-14 -2t-14 -1q-15 0 -29 4 t-27 12q-146 90 -324 147t-367 79q-58 7 -116 10t-116 3q-37 0 -74 -1t-74 -4q-95 -7 -186 -23.5t-177 -42.5q-8 -2 -16.5 -3.5t-17.5 -1.5q-13 0 -25.5 3.5t-25.5 9.5q-20 11 -34 27.5t-21 38.5q-2 9 -3.5 18t-1.5 17zM157 466q0 12 3.5 23t9.5 21q10 16 24 26t32 14 q103 23 202.5 38t194.5 22q38 3 75.5 4.5t74.5 1.5q56 0 110 -3t106 -10q175 -21 334 -74t301 -139q16 -10 26 -24t14 -32q1 -5 1.5 -10.5t0.5 -11.5q0 -12 -3 -23.5t-9 -22.5q-10 -16 -24 -26t-32 -15q-5 -1 -10.5 -2t-11.5 -1q-12 0 -23.5 3.5t-22.5 10.5 q-126 78 -269 125t-301 64q-46 5 -94 7.5t-97 2.5q-34 0 -69.5 -1t-71.5 -4q-87 -6 -177.5 -20t-184.5 -36q-5 -1 -10 -1.5t-10 -0.5q-12 0 -24 3.5t-23 10.5q-15 10 -25 24t-14 32l-2 12t-1 12z" />
<glyph unicode="p" d="M0 902q0 212 80 398t219 325t326 220t399 81t399 -81t326 -220t219 -325t80 -398t-80 -399t-219 -326t-326 -219t-399 -80t-399 80t-326 219t-219 326t-80 399zM234 900q0 -48 11 -98t65 -68q10 -2 19 -4t19 -2h7q23 0 46 6.5t45 18.5q24 14 45 28.5t39 30.5q42 38 74 88 t50 104q32 104 32 213t-12 215q-2 8 -3 17t-1 17q-2 4 -3 10t3 10q4 6 14 3t14 -5q42 -12 84 -27t82 -33q58 -30 113 -69t105 -83q48 -44 95 -91t89 -97q46 -54 88 -110l84 -112q36 -50 83 -96t105 -70q24 -9 44.5 -14t37.5 -5q28 0 48.5 12t32.5 36q21 40 31 83.5t10 91.5 q0 52 -6 104t-18 102q-4 14 -9 30t-11 32h2q-18 46 -40 91t-48 87q-56 82 -129 149t-160 113t-183 71t-196 25q-68 0 -135 -12t-131 -34q-86 -30 -162 -79t-139 -113t-111 -140t-76 -162q-6 -16 -11 -31t-9 -29q-12 -50 -18 -101t-6 -103z" />
<glyph unicode="q" d="M0 882q0 138 34 247t101 185t165 116t228 40q116 0 206 -22t158 -72t117 -130t87 -194l76 -234q44 -128 130 -212t262 -84q120 0 182 29t62 93q0 52 -35 88t-123 58l-160 38q-146 34 -209 110t-63 196q0 192 129 264t289 72q178 0 283 -70t119 -228l-234 -28 q-8 76 -53 110t-129 34q-78 0 -123 -34t-45 -94q0 -52 28 -85t106 -51l150 -32q152 -36 231 -115t79 -221q0 -176 -135 -250t-353 -74q-152 0 -258 32t-177 88t-115 131t-72 159l-74 236q-42 128 -108 216t-222 88q-106 0 -197 -88t-91 -304q0 -168 78 -267t200 -99 q68 0 123 17t97 51l84 68l76 -204l-24 -15.5t-73 -46.5q-48 -31 -122 -46.5t-173 -15.5q-124 0 -219 36t-160 105t-99 172t-34 237z" />
<glyph unicode="r" d="M176 466q0 100 4 203t26 199q16 66 67 112t117 54q158 18 317 21t317 3q160 0 319 -3t315 -21q68 -8 118 -54t66 -112q22 -96 26 -199t4 -203q0 -98 -4 -201t-26 -199q-16 -68 -66 -113t-118 -53q-158 -18 -317 -21t-317 -3t-318 3t-316 21q-68 8 -118 53t-66 113 q-22 96 -26 199t-4 201zM308 758h122v-656h102v656h124v102h-348v-102zM450 1926h120l82 -302l78 302h116l-150 -456v-324h-102v324q-16 42 -29 102t-41 140l-37 111t-37 103zM676 218q0 -30 2 -50t6 -34q8 -22 23 -32t41 -10q28 0 55 17t57 53v-60h102v574h-102v-442 q-16 -24 -31 -36t-29 -12q-12 0 -17 6t-7 18q0 2 1 12t1 28v426h-102v-458zM860 1344v200q0 46 5 80t21 56q22 28 50 43t66 15q40 0 68 -15t48 -43q18 -22 23 -56t5 -80v-200q0 -44 -6 -78t-22 -56q-22 -28 -50 -43t-68 -15q-38 0 -65 15t-49 43q-16 22 -21 56t-5 78z M942 1326q0 -40 13 -60t39 -20q24 0 37 20t13 60v240q0 40 -13 59t-37 19q-26 0 -39 -19t-13 -59v-240zM1064 102h82v52q32 -30 59 -46t55 -16q30 0 51 16t31 48q6 18 8 46t2 68v224q0 40 -2 69t-6 45q-10 32 -33 48t-53 16q-28 0 -54 -15t-58 -47v250h-82v-758zM1146 210 v346q16 12 29 18t27 6q22 0 35 -19t13 -59v-240q0 -38 -13 -57t-35 -19q-14 0 -27 6t-29 18zM1228 1280v440h124v-410q0 -18 -2 -28t-2 -12q2 -12 6 -18t14 -6q16 0 33 12t33 36v426h102v-574h-102v76q-32 -36 -61 -53t-59 -17q-24 0 -44 10t-26 32q-6 14 -11 35t-5 51z M1434 284q0 -46 9 -79t25 -55q22 -28 53 -43t73 -15q40 0 71 15t53 47q10 14 15 29t7 31v72h-100q0 -30 -1 -45t-1 -19q-4 -20 -16 -29t-32 -9q-26 0 -40 20t-14 60v104h204v114q0 44 -6 77t-22 55q-22 30 -52 44t-68 14t-70 -14t-54 -44q-18 -22 -26 -55t-8 -77v-198z M1536 450v52q0 38 13 58t39 20q24 0 37 -20t13 -58v-52h-102z" />
<glyph unicode="s" d="M0 1310q76 68 151 134t147 134q102 86 178 132t126 52q7 1 13.5 1h12.5q51 0 93 -18t75 -54q37 -40 62 -104.5t38 -152.5q30 -188 51 -306t33 -164q34 -156 72 -234t80 -78q32 0 80 51t112 151q64 102 99 179t39 131q1 10 1.5 19.5t0.5 17.5q0 31 -6.5 54.5t-20.5 40.5 q-17 22 -45.5 33t-67.5 11q-36 0 -74 -9t-78 -25q38 124 93 216t127 152q36 30 76.5 52t85.5 36q40 12 82.5 18t87.5 6h26q79 -2 137 -28.5t95 -77.5q34 -46 50.5 -112t16.5 -152v-18.5t-1 -19.5q-4 -76 -32 -164t-80 -191t-129 -219t-177 -246q-106 -136 -202 -238 t-184 -170t-169 -101t-153 -33q-88 0 -164 82t-138 248q-42 152 -83 303t-83 303q-46 166 -95 248t-101 82q-12 0 -52 -24t-110 -72z" />
<glyph unicode="t" d="M296 122l2 6l166 598l28 22l26 108l56 48l144 -32l32 216l30 46l40 -6l-40 -322l-2 -12l-4 -26l-2 -2l4 2l4 38l68 540l-52 38l208 276l18 -10l19 -11l-17 11l22 276h8l14 -304l274 -176l-66 -68l42 -422l130 -50l18 -114l70 28l64 -24l154 -738l-110 -20l2 -14l-78 -16 l-58 16h-2l8 -38l-190 -32l6 -2v-2l-14 2l-4 86l2 -86h2h-2l-40 6l-6 -2v-18l-358 -60l-176 74l2 20l-6 -2l-24 -6l-108 46l8 46l-224 -22l178 850l-178 -844l-2 -4zM822 884l138 98v22l-136 -96zM838 1012l2 -4l126 100v20l-2 2l-124 -102zM850 1108l120 114l2 24 l-120 -112v-16zM855 724l3 -2zM858 688l4 32l-4 -30v-2zM862 1208l112 114l2 26l-110 -112zM876 1332l102 94l2 22l-100 -94zM976 888l8 -2l6 -2l-4 2zM1090 1418l48 -26l-2 76l-46 24v-74zM1092 930l2 -78l50 -14l-2 -38l14 -4v110zM1092 1094l58 -24l-4 94l-54 26v-96z M1092 1216l54 -24l-4 74l-50 26v-76zM1092 1320l50 -26v70l-48 26zM1094 964l62 -22l-4 96l-58 24v-98zM1176 1448l2 -76l44 -24l-4 76zM1180 1342l2 -68l46 -24l-2 70zM1182 1246l4 -74l48 -24l-6 74zM1186 1144l4 -92l52 -22l-6 92zM1190 738l4 -108l46 -16l8 -162 l18 -400l4 -80v10l-4 74l-18 398l-8 160l-4 106zM1190 894l4 -108l38 -14v14l16 8l-6 86zM1192 1018l2 -94l54 -18l-4 92z" />
<glyph unicode="u" d="M126 1618h350q32 -284 87 -500t125 -382t153 -293t171 -235q98 98 189 225t165 275q-88 44 -158 113t-118 157t-74 192t-26 218t33 212t94 171t150 113t201 40q110 0 195 -33t142 -97t87 -156t30 -210q0 -86 -19 -180t-53 -172q-27 -5 -51.5 -8t-46.5 -3q-44 0 -77 11 t-56 33l-67 65q14 40 27 102t13 124q0 110 -37 164t-97 54q-64 0 -104 -59t-40 -175q0 -118 36 -210t98 -155t145 -96t181 -33q34 0 70 4t82 14v-244q-62 -16 -128 -22t-120 -6q-64 -136 -149 -259t-169 -220t-156 -163t-110 -88q-48 -28 -97 -28t-103 32q-46 28 -150 126 t-221 296t-227 512t-170 774z" />
<glyph unicode="v" d="M0 902q0 96 36 180t99 147t148 100t181 37t181 -37t148 -100t99 -147t36 -180q0 -98 -36 -182t-99 -147t-148 -100t-181 -37t-181 37t-148 100t-99 147t-36 182zM1120 902q0 96 36 180t99 147t148 100t181 37t181 -37t148 -100t99 -147t36 -180q0 -98 -36 -182t-99 -147 t-148 -100t-181 -37t-181 37t-148 100t-99 147t-36 182z" />
<glyph unicode="w" d="M0 716h192q2 -6 3 -11t3 -11q10 -42 34 -72t68 -42q13 -3 26 -4.5t25 -1.5q10 0 20 1t19 3q21 5 40 17t36 31q22 23 34.5 52.5t14.5 64.5q1 5 1 9.5v8.5q0 30 -7.5 57t-22.5 50q-19 28 -46.5 45t-63.5 23q-8 2 -16 2.5t-16 0.5q-26 0 -49.5 -7.5t-44.5 -23.5l-16 -12 t-12 -14q-10 -16 -24 -20t-32 -2h-136q24 132 47 263t47 263h532v-158h-20h-177t-179 2q-10 0 -14 -4t-6 -14q-8 -48 -17 -95t-17 -93v-12q27 25 56.5 41t60.5 23q17 4 34.5 6t34.5 2q15 0 30.5 -1.5t31.5 -4.5q72 -12 121 -55t83 -105q4 8 7 15t7 13q24 48 58 83.5t77 57.5 q33 17 69 25.5t75 8.5q12 0 24.5 -0.5t24.5 -2.5q66 -8 121 -36t101 -72q28 -26 55 -55t55 -59l5 5t5 7q30 30 57 60t57 58q40 36 86 60t100 32q13 2 26 3t26 1q36 0 72.5 -7t73.5 -21q51 -19 88.5 -56.5t61.5 -93.5q19 -43 28.5 -85.5t9.5 -85.5v-8q-1 -44 -12.5 -88.5 t-33.5 -88.5q-40 -80 -108 -120t-156 -46q-6 0 -11.5 -0.5t-11.5 -0.5q-28 0 -55.5 4.5t-53.5 12.5q-31 10 -60 26t-56 38q-30 24 -58 53t-58 57l-24 24q-16 -16 -31 -33t-31 -31q-22 -22 -46 -44t-50 -40q-32 -23 -66 -38t-71 -22q-17 -3 -34 -5t-35 -2q-20 0 -40 2.5 t-40 6.5q-76 16 -129 62t-87 114q-2 2 -3 5t-3 7l-2 2q-10 -16 -19 -32t-21 -30q-50 -70 -119 -105t-155 -37h-21l-75 5q-24 4 -47 10.5t-45 16.5q-94 40 -136 113t-44 155zM836 762q0 -31 9 -56.5t27 -46.5q21 -23 49 -35t63 -12q32 2 60 10t54 24q40 22 71 52t63 60 q4 4 4 8t-4 8q-26 24 -50 47t-48 45q-22 20 -47 34t-53 24q-13 4 -26 6t-26 2q-18 0 -35 -4t-34 -13q-27 -14 -45 -38t-26 -57q-4 -10 -5 -20t-1 -20v-8.5v-9.5zM1460 768q30 -28 58 -54t56 -50q32 -26 69 -39t77 -13q56 2 92 31t48 83q4 18 4 37t-2 37q-4 32 -17.5 57.5 t-36.5 43.5q-20 16 -43 24t-49 8h-8.5t-9.5 -1q-40 -4 -72 -21t-60 -43q-26 -24 -52 -49t-54 -51z" />
<glyph unicode="x" d="M0 98v20v1566q0 90 53 155t141 83q10 2 21 2h21q196 2 393 2h393h786q92 0 160 -61t78 -153v-1602q0 -88 -60 -154t-146 -78h-1608q-86 0 -153 58t-77 142q-2 10 -2 20zM226 196q0 -36 24 -59t60 -23h1416q36 0 58 23t22 59q0 106 -1 213t-1 214t-1 213t-1 214v14h-170 q10 -44 15 -85.5t5 -80.5v-16t-1 -16q-2 -46 -12.5 -92.5t-28.5 -93.5q-36 -94 -95 -170t-143 -132q-74 -50 -158 -77t-171 -29h-15q-39 0 -78.5 5t-79.5 14q-43 11 -83.5 27t-78.5 38q-80 46 -140 110t-102 144q-29 53 -46.5 108t-24.5 111q-2 17 -3 34.5t-1 34.5 q0 41 5.5 82.5t15.5 83.5h-186v-868zM628 900q0 -80 31 -152t85 -125t125 -84t153 -31t154 31t125 84t84 125t31 154q0 80 -31 152t-84 125t-125 84t-154 31t-153 -31t-125 -84t-85 -125t-31 -154zM1416 1374q0 -34 23 -57t57 -23h234q34 0 57 23t23 57v234q0 34 -23 57 t-57 23h-234q-34 0 -57 -22t-23 -56v-236z" />
<glyph unicode="y" d="M0 902q0 210 81 397t220 326t325 220t398 81t398 -81t325 -220t220 -326t81 -397q0 -212 -81 -399t-220 -326t-325 -219t-398 -80t-398 80t-325 219t-220 326t-81 399zM104 902q0 -138 38 -263t106 -233t164 -193t210 -141l-438 1204q-40 -86 -60 -180t-20 -194z M254 1406h60q36 0 76 1.5t83 4.5l87 6q36 2 39 -35t-33 -41l-32 -4q-16 -2 -34.5 -3.5t-39.5 -2.5l336 -996l200 604l-142 392q-19 1 -36 2.5t-32 3.5l-30 4q-36 2 -33 40t39 36l88 -6q44 -3 82.5 -4.5t71.5 -1.5q37 0 77 1.5t83 4.5l64.5 4.5l21.5 1.5q38 2 41 -35t-35 -41 l-32 -4q-16 -2 -34.5 -3.5t-39.5 -2.5l334 -988l92 306q30 96 50 167t20 131q0 84 -25 146t-51 108q-36 56 -63 107t-27 109q0 62 43 112t111 50h12q-62 56 -133 101t-150 76t-164 48t-175 17q-120 0 -232 -30t-211 -84t-182 -131t-145 -171zM764 18q62 -18 127 -28t133 -10 q80 0 157 14t149 38q-2 4 -4 7t-2 7l-284 774zM1486 106q104 60 188 144t144 186t93 220t33 246q0 120 -29 231t-83 209q2 -22 4 -45t2 -49q0 -70 -15 -151t-55 -179z" />
<glyph unicode="z" d="M394 1086v290q60 20 111 48t95 64q42 36 77 80t61 96t44 117t28 145h290v-518h486v-322h-486v-526q0 -88 5 -145t15 -83t27 -46t43 -34q34 -20 73 -31t83 -11q78 0 155 26t153 76v-324q-64 -30 -124 -52t-112 -34q-54 -12 -112 -18t-120 -6q-70 0 -132 8t-116 26t-100 43 t-84 59q-38 32 -64 67t-42 73q-14 36 -21 90t-7 124v718h-226z" />
<glyph unicode="{" d="M44 144v1424l134 358h1826v-1248l-534 -534h-402l-266 -266h-268v266h-490zM356 456h402v-266l266 266h490l312 312v980h-1470v-1292zM846 856v534h178v-534h-178zM1336 856v534h178v-534h-178z" />
<glyph unicode="}" d="M0 440q0 116 44 219t120 179t179 120t219 44h924q74 0 140 28t116 76q48 50 76 115t28 141q0 74 -28 140t-76 114q-50 50 -116 78t-140 28q-76 0 -141 -28t-115 -76q-48 -50 -77 -116t-29 -140v-158h-200v158q0 116 44 219t120 179t179 120t219 44t219 -44t179 -120 t120 -179t44 -219t-44 -218t-120 -178t-179 -120t-219 -44h-924q-74 0 -140 -29t-114 -77q-50 -50 -78 -115t-28 -141q0 -74 28 -140t78 -114q48 -50 114 -78t140 -28q76 0 141 28t115 78q48 48 77 114t29 140v160h200v-160q0 -116 -44 -218t-120 -179t-179 -121t-219 -44 t-219 44t-179 121t-120 179t-44 218z" />
<glyph unicode="&#xa3;" d="M10 504q10 14 28 2q108 -62 228 -112t249 -85t264 -53t273 -18q92 0 189 9t196 29t196 50t191 70q30 12 46 -10t-12 -44q-84 -62 -185 -109t-209 -79t-220 -48t-216 -16q-148 0 -287 26t-267 76t-243 122t-215 162q-16 14 -6 28zM552 882q0 122 60 204t154 122 q80 36 184 48t192 22v26q0 36 -2 75t-22 69q-20 28 -51 40t-63 12q-56 0 -102 -29t-58 -91q-2 -12 -12 -24t-22 -12l-194 20q-12 4 -23 14t-7 28q32 176 168 241t278 65q74 0 159 -22t143 -76q74 -68 81 -157t7 -189v-310q0 -70 24 -109t52 -77q10 -14 11 -29t-13 -25 q-30 -24 -76 -65t-76 -67h-2q-8 -8 -22 -9t-24 5q-50 42 -69 68t-45 66q-84 -84 -154 -115t-176 -31q-126 0 -213 78t-87 234zM844 916q0 -64 32 -104t90 -40q42 0 78 24t60 66q30 52 34 103t4 109v44q-110 0 -204 -37t-94 -165zM1670 467q-2 11 14 21q96 68 220 63t142 -29 q18 -22 -9 -144t-117 -198q-14 -12 -24 -7t-4 21q20 50 50 139t8 117q-22 26 -115 20t-147 -12q-16 -2 -18 9z" />
<glyph unicode="&#xa8;" d="M179 885q48 187 178 189q312 6 490 12t302 12t232 17t278 27q276 28 281 -166t-153 -438t-425 -452t-533 -208q-280 0 -438 186t-209 410t-3 411zM329 744q-26 -122 8 -267t150 -266t360 -121q194 0 377 131t304 289t155 289t-70 131q-100 0 -197 -6t-229 -14t-320 -20 t-472 -22q-40 -2 -66 -124zM397 1708q10 70 69 129t155 59q116 0 178 -50t68 -112q10 -76 -57 -144t-209 -70q-118 -2 -166 57t-38 131zM1327 1734q10 68 65 125t153 65q122 10 191 -52t67 -138q0 -68 -62 -125t-198 -65q-120 -8 -173 54t-43 136z" />
<glyph unicode="&#xad;" d="M137 -52l298 1890q6 38 35 63t67 25h736q186 0 323 -48t215 -142q72 -84 95 -203t-1 -273q-28 -174 -94 -305t-171 -219t-249 -132t-326 -44h-232q-38 0 -67 -25t-35 -61l-80 -510q-6 -38 -35 -62t-67 -24h-352q-28 0 -46 21t-14 49zM809 970h112q146 0 277 33t161 231 q10 70 2 121t-38 85q-48 56 -136 66t-188 10h-50q-24 0 -41 -15t-21 -37z" />
<glyph unicode="&#x2000;" horiz-adv-x="967" />
<glyph unicode="&#x2001;" horiz-adv-x="1934" />
<glyph unicode="&#x2002;" horiz-adv-x="967" />
<glyph unicode="&#x2003;" horiz-adv-x="1934" />
<glyph unicode="&#x2004;" horiz-adv-x="644" />
<glyph unicode="&#x2005;" horiz-adv-x="483" />
<glyph unicode="&#x2006;" horiz-adv-x="322" />
<glyph unicode="&#x2007;" horiz-adv-x="322" />
<glyph unicode="&#x2008;" horiz-adv-x="241" />
<glyph unicode="&#x2009;" horiz-adv-x="386" />
<glyph unicode="&#x200a;" horiz-adv-x="107" />
<glyph unicode="&#x2010;" d="M137 -52l298 1890q6 38 35 63t67 25h736q186 0 323 -48t215 -142q72 -84 95 -203t-1 -273q-28 -174 -94 -305t-171 -219t-249 -132t-326 -44h-232q-38 0 -67 -25t-35 -61l-80 -510q-6 -38 -35 -62t-67 -24h-352q-28 0 -46 21t-14 49zM809 970h112q146 0 277 33t161 231 q10 70 2 121t-38 85q-48 56 -136 66t-188 10h-50q-24 0 -41 -15t-21 -37z" />
<glyph unicode="&#x2011;" d="M137 -52l298 1890q6 38 35 63t67 25h736q186 0 323 -48t215 -142q72 -84 95 -203t-1 -273q-28 -174 -94 -305t-171 -219t-249 -132t-326 -44h-232q-38 0 -67 -25t-35 -61l-80 -510q-6 -38 -35 -62t-67 -24h-352q-28 0 -46 21t-14 49zM809 970h112q146 0 277 33t161 231 q10 70 2 121t-38 85q-48 56 -136 66t-188 10h-50q-24 0 -41 -15t-21 -37z" />
<glyph unicode="&#x2012;" d="M137 -52l298 1890q6 38 35 63t67 25h736q186 0 323 -48t215 -142q72 -84 95 -203t-1 -273q-28 -174 -94 -305t-171 -219t-249 -132t-326 -44h-232q-38 0 -67 -25t-35 -61l-80 -510q-6 -38 -35 -62t-67 -24h-352q-28 0 -46 21t-14 49zM809 970h112q146 0 277 33t161 231 q10 70 2 121t-38 85q-48 56 -136 66t-188 10h-50q-24 0 -41 -15t-21 -37z" />
<glyph unicode="&#x2013;" horiz-adv-x="1289" d="M136 -52l172 1890q3 38 20 63t38 25h424q107 0 185.5 -48t123.5 -142q41 -84 54.5 -203t-0.5 -273q-16 -174 -54 -305t-98 -219q-61 -88 -143.5 -132t-187.5 -44h-133q-22 0 -39 -25t-20 -61l-46 -510q-4 -38 -20.5 -62t-38.5 -24h-202q-16 0 -26.5 21t-8.5 49zM523 970 h64q84 0 159.5 33t92.5 231q6 70 1.5 121t-22.5 85q-27 56 -77.5 66t-108.5 10h-29q-14 0 -23.5 -15t-11.5 -37z" />
<glyph unicode="&#x2014;" horiz-adv-x="2313" d="M137 -52l343 1890q6 38 39.5 63t77.5 25h846q214 0 371.5 -48t247.5 -142q83 -84 109.5 -203t-1.5 -273q-32 -174 -108 -305t-197 -219t-286.5 -132t-374.5 -44h-267q-44 0 -77 -25t-40 -61l-92 -510q-7 -38 -40.5 -62t-76.5 -24h-405q-32 0 -53 21t-16 49zM910 970h128 q168 0 319 33t185 231q12 70 2.5 121t-43.5 85q-56 56 -157 66t-216 10h-57q-28 0 -47.5 -15t-24.5 -37z" />
<glyph unicode="&#x202f;" horiz-adv-x="386" />
<glyph unicode="&#x205f;" horiz-adv-x="483" />
<glyph unicode="&#x25fc;" horiz-adv-x="1925" d="M0 0v1925h1925v-1925h-1925z" />
</font>
</defs>
</svg>
