<?xml version="1.0" encoding="utf-8"?>
<!-- (c) ammap.com | SVG map of Iran - Low -->
<svg xmlns="http://www.w3.org/2000/svg" xmlns:amcharts="http://amcharts.com/ammap" xmlns:xlink="http://www.w3.org/1999/xlink" version="1.1">
	<defs>
		<style type="text/css">
			.land
			{
				fill: #CCCCCC;
				fill-opacity: 1;
				stroke:white;
				stroke-opacity: 1;
				stroke-width:0.5;
			}
		</style>

		<amcharts:ammap projection="mercator" leftLongitude="44.032695" topLatitude="39.782056" rightLongitude="63.333337" bottomLatitude="24.809394"></amcharts:ammap>

        <!-- All areas are listed in the line below. You can use this list in your script. --> <!--{id:"IR-AL"},{id:"IR-KE"},{id:"IR-SI"},{id:"IR-NK"},{id:"IR-RK"},{id:"IR-SK"},{id:"IR-KO"},{id:"IR-GI"},{id:"IR-KR"},{id:"IR-EA"},{id:"IR-WA"},{id:"IR-QA"},{id:"IR-ZA"},{id:"IR-HA},{id:"IR-QO"},{id:"IR-MR"},{id:"IR-AR"},{id:"IR-HO"},{id:"IR-IL"},{id:"IR-LO"},{id:"IR-KH"},{id:"IR-CH"},{id:"IR-YA"},{id:"IR-TE"},{id:"IR-SE"},{id:"IR-MA"},{id:"IR-GO"},{id:"IR-FA"},{id:"IR-ES"},{id:"IR-BU"},{id:"IR-KG"}-->

        
	</defs>
	<g>
		<path id="IR-AL" title="Alborz" class="land" d="M-108.52,-1323.99L-108.52,-1323.99L-89.67,-1315.48L-108.6,-1294.07L-112.07,-1291.81L-113.61,-1297.06L-114.99,-1292.82L-126.01,-1296.62L-127.46,-1302.68L-117.56,-1308.96L-114.46,-1317.52L-121.42,-1323.05L-108.52,-1323.99z"/>
		<path id="IR-KE" title="Kerman" class="land" d="M130.09,-1132.37L130.09,-1132.37L168.7,-1114.91L187.1,-1091.53L179.84,-1055.9L184.7,-1042.38L180.24,-1028.29L182.06,-1017.52L165.82,-1008.27L171.08,-1002.24L166.11,-993.64L161.99,-960.61L167.9,-940.56L164.98,-914.35L154.33,-916.25L152.97,-921.52L138.07,-922.18L142.32,-943.72L135.46,-949.57L129.42,-946.04L115.61,-953.62L111.54,-980.47L102.34,-990.26L101.14,-1000.79L95.76,-1002.6L79.29,-994.86L69.86,-1003.57L68.39,-1026.34L53.34,-1019.49L38.32,-1026.81L31.47,-1043.86L20.2,-1046.39L14.59,-1059.6L20.92,-1061.74L20.48,-1079.36L13.59,-1094.25L18.81,-1105.4L57.14,-1111.46L59.6,-1129.94L89.36,-1148.82L130.09,-1132.37z"/>
		<path id="IR-SI" title="Sistan and Baluchestan" class="land" d="M258.04,-1122.48L258.04,-1122.48L262.89,-1119.05L264.69,-1101.02L232.19,-1062.14L248.91,-1043.26L256.69,-1023.72L267.76,-1011.01L297.23,-999.59L296.58,-962.04L314.16,-960.01L314.19,-946.99L310.11,-937.63L285.59,-935.23L280.39,-927.61L265.73,-922.47L258.5,-887.07L251.44,-878.6L225.04,-886.68L222.19,-893.13L216.95,-890.54L219.4,-887.25L178.14,-892.52L164.98,-914.35L167.9,-940.56L161.99,-960.61L166.11,-993.64L171.08,-1002.24L165.82,-1008.27L182.06,-1017.52L180.24,-1028.29L184.7,-1042.38L179.84,-1055.9L187.1,-1091.53L213.63,-1099.27L232.88,-1083.09L238.65,-1083.71L241.72,-1124.88L258.04,-1122.48z"/>
		<path id="IR-NK" title="North Khorasan" class="land" d="M118.61,-1392.22L118.61,-1392.22L126.7,-1391.19L120.37,-1382.39L136.88,-1380.73L142.74,-1371.9L135.99,-1355.41L143.29,-1349.48L141.99,-1339.13L128.75,-1338.73L100.87,-1351.49L90.63,-1337.66L74.78,-1341.94L70.13,-1347.8L73.88,-1358.88L70.89,-1359.34L63.35,-1367.89L78.13,-1379.85L73.36,-1385.7L73.51,-1399.04L82.66,-1406.56L103.08,-1403.64L108.08,-1407.49L118.61,-1392.22z"/>
		<path id="IR-RK" title="Razavi Khorasan" class="land" d="M128.91,-1389.87L128.91,-1389.87L147.84,-1379.82L162.87,-1382.45L180.21,-1375.41L185.28,-1361.63L204.2,-1353.9L215.16,-1337.43L243.09,-1337.39L245.09,-1315.79L241.87,-1309.36L247.31,-1291.7L241.15,-1280.46L239.69,-1261.26L227.28,-1248.96L233.75,-1240.84L225.38,-1240.33L220.12,-1231.08L196.35,-1230.57L186.75,-1239.16L157.4,-1233.83L156.39,-1214.15L163.92,-1206.76L148.85,-1192.38L140.71,-1176.93L128.31,-1186.95L120.77,-1213.6L112.1,-1211.59L103.77,-1214.91L101.94,-1233.6L108.52,-1250.66L125.25,-1263.42L124.54,-1268.68L110.88,-1277.28L74.99,-1265.04L96.87,-1281.62L104.22,-1295.14L93.54,-1309.55L94.59,-1333.65L90.63,-1337.66L100.87,-1351.49L128.75,-1338.73L141.99,-1339.13L143.29,-1349.48L135.99,-1355.41L142.74,-1371.9L136.88,-1380.73L120.37,-1382.39L126.7,-1391.19L128.91,-1389.87z"/>
		<path id="IR-SK" title="South Khorasan" class="land" d="M196.35,-1230.57L196.35,-1230.57L220.12,-1231.08L220.91,-1213L234.78,-1207.94L222.64,-1189.44L231.71,-1156.83L231.42,-1126.7L241.72,-1124.88L238.65,-1083.71L232.88,-1083.09L213.63,-1099.27L187.1,-1091.53L168.7,-1114.91L130.09,-1132.37L143.24,-1158.78L140.71,-1176.93L148.85,-1192.38L163.92,-1206.76L156.39,-1214.15L157.4,-1233.83L186.75,-1239.16L196.35,-1230.57z"/>
		<path id="IR-KO" title="Kordestan" class="land" d="M-195.89,-1297.64L-195.89,-1297.64L-202.1,-1300.03L-200.11,-1295.11L-210.35,-1293.34L-198.41,-1272.98L-201.4,-1266.97L-208.58,-1266.91L-222.52,-1275.98L-240.95,-1258.48L-248.34,-1258.28L-250.15,-1263.18L-267.14,-1280.75L-272.77,-1292.98L-260.55,-1302.93L-280.52,-1302.86L-288.31,-1310.83L-269.82,-1329.44L-243.74,-1329.85L-232.69,-1324.94L-226.2,-1331.96L-208.12,-1327.56L-204.64,-1317.32L-207.28,-1307.06L-195.89,-1297.64z"/>
		<path id="IR-GI" title="Gilan" class="land" d="M-173.89,-1414.31L-173.89,-1414.31L-167.41,-1381.77L-154.64,-1373.89L-129.06,-1369.38L-116.15,-1352.34L-125.37,-1338.83L-148.94,-1335.49L-161.28,-1344.87L-173.61,-1361.43L-188.07,-1390.42L-177.95,-1408.31L-182.75,-1412.64L-173.89,-1414.31z"/>
		<path id="IR-KR" title="Kermanshah" class="land" d="M-250.15,-1263.18L-250.15,-1263.18L-248.34,-1258.28L-240.95,-1258.48L-222.52,-1275.98L-208.58,-1266.91L-217.44,-1255.35L-209.83,-1248.85L-204.59,-1252.74L-203.88,-1245.45L-213.93,-1242.1L-224.37,-1229.31L-231.53,-1228.32L-231.28,-1220.61L-242.37,-1219.37L-277.43,-1228.33L-280.74,-1212.78L-292.41,-1226.68L-286.22,-1239.62L-291.17,-1245.99L-288.33,-1252.06L-281.52,-1250.4L-282.7,-1260.94L-274.34,-1272.55L-266.54,-1273.05L-267.14,-1280.75L-250.15,-1263.18z"/>
		<path id="IR-EA" title="East Azarbaijan" class="land" d="M-242.9,-1435.09L-242.9,-1435.09L-250.3,-1431.92L-251.24,-1425.03L-237.56,-1425.36L-229.39,-1438.1L-219.64,-1442.54L-216.7,-1419.68L-227.23,-1414.73L-229.61,-1406.45L-213.29,-1405.73L-205.06,-1388.35L-205.46,-1376.94L-188.1,-1362.33L-217.62,-1359.38L-230.89,-1342.49L-242.26,-1342.01L-244.5,-1352.07L-249.72,-1355.31L-261.46,-1347.61L-293.21,-1366.73L-302.29,-1407.08L-292.91,-1420.54L-293.25,-1432.09L-288.54,-1438.12L-253.34,-1433.81L-237.01,-1447.08L-234.3,-1439.43L-242.9,-1435.09z"/>
		<path id="IR-WA" title="West Azarbaijan" class="land" d="M-311.87,-1466.97L-311.87,-1466.97L-288.54,-1438.12L-293.25,-1432.09L-292.91,-1420.54L-302.29,-1407.08L-293.21,-1366.73L-261.46,-1347.61L-249.72,-1355.31L-244.5,-1352.07L-242.26,-1342.01L-230.89,-1342.49L-226.2,-1331.96L-232.69,-1324.94L-243.74,-1329.85L-269.82,-1329.44L-288.31,-1310.83L-294.46,-1310.35L-297.21,-1327.54L-302.87,-1328.4L-304.12,-1339.64L-311.04,-1343.98L-309.14,-1353.48L-313.71,-1357.19L-312.05,-1365.26L-319.83,-1371.15L-319.02,-1383.38L-332.39,-1391.14L-323.68,-1410.16L-329.42,-1412.06L-329.91,-1432.09L-338.74,-1455.29L-326.08,-1457.06L-320.05,-1472.53L-311.87,-1466.97z"/>
		<path id="IR-QA" title="Qazvin" class="land" d="M-148.94,-1335.49L-148.94,-1335.49L-125.37,-1338.83L-108.52,-1323.99L-121.42,-1323.05L-114.46,-1317.52L-117.56,-1308.96L-127.46,-1302.68L-126.01,-1296.62L-154.68,-1287.1L-176.32,-1295.36L-183.25,-1304.26L-168.51,-1305.94L-155.91,-1315.18L-169.12,-1338.26L-161.28,-1344.87L-148.94,-1335.49z"/>
		<path id="IR-ZA" title="Zanjan" class="land" d="M-173.61,-1361.43L-173.61,-1361.43L-161.28,-1344.87L-169.12,-1338.26L-155.91,-1315.18L-168.51,-1305.94L-183.25,-1304.26L-176.32,-1295.36L-180.11,-1292.03L-195.89,-1297.64L-207.28,-1307.06L-204.64,-1317.32L-208.12,-1327.56L-226.2,-1331.96L-230.89,-1342.49L-217.62,-1359.38L-188.1,-1362.33L-173.61,-1361.43z"/>
		<path id="IR-HA" title="Hamadan" class="land" d="M-195.89,-1297.64L-195.89,-1297.64L-180.11,-1292.03L-176.32,-1295.36L-154.68,-1287.1L-153.74,-1281.97L-158.73,-1282.28L-156.15,-1275.06L-161.29,-1271.13L-153.61,-1267.75L-150.39,-1259.32L-155.75,-1265L-164.86,-1265.18L-166.17,-1252.46L-173.18,-1252.93L-166.37,-1232.29L-170.61,-1227.32L-196.35,-1230.17L-213.93,-1242.1L-203.88,-1245.45L-204.59,-1252.74L-209.83,-1248.85L-217.44,-1255.35L-208.58,-1266.91L-201.4,-1266.97L-198.41,-1272.98L-210.35,-1293.34L-200.11,-1295.11L-202.1,-1300.03L-195.89,-1297.64z"/>
		<path id="IR-QO" title="Qom" class="land" d="M-71.84,-1263.78L-71.84,-1263.78L-75.01,-1250.01L-99.63,-1244.92L-100.65,-1232.1L-120.73,-1236.97L-133.66,-1251.46L-128.53,-1261.46L-112.16,-1265.45L-109.08,-1277.99L-91.18,-1275.31L-71.84,-1263.78z"/>
		<path id="IR-MR" title="Markazi" class="land" d="M-112.07,-1291.81L-112.07,-1291.81L-108.6,-1294.07L-109.08,-1277.99L-112.16,-1265.45L-128.53,-1261.46L-133.66,-1251.46L-120.73,-1236.97L-100.65,-1232.1L-105.2,-1220.2L-135.65,-1207.31L-141.42,-1214.19L-144.29,-1210.43L-150.16,-1214.73L-153.89,-1223.13L-163.48,-1214.69L-170.49,-1216.2L-170.61,-1227.32L-166.37,-1232.29L-173.18,-1252.93L-166.17,-1252.46L-164.86,-1265.18L-155.75,-1265L-150.39,-1259.32L-153.61,-1267.75L-161.29,-1271.13L-156.15,-1275.06L-158.73,-1282.28L-153.74,-1281.97L-154.68,-1287.1L-126.01,-1296.62L-114.99,-1292.82L-113.61,-1297.06L-112.07,-1291.81z"/>
		<path id="IR-AR" title="Ardebil" class="land" d="M-204.98,-1469.94L-204.98,-1469.94L-192.05,-1455.5L-199.94,-1450.69L-193.58,-1439.11L-203.78,-1432.38L-182.75,-1412.64L-177.95,-1408.31L-188.07,-1390.42L-173.61,-1361.43L-188.1,-1362.33L-205.46,-1376.94L-205.06,-1388.35L-213.29,-1405.73L-229.61,-1406.45L-227.23,-1414.73L-216.7,-1419.68L-219.64,-1442.54L-229.39,-1438.1L-237.56,-1425.36L-251.24,-1425.03L-250.3,-1431.92L-242.9,-1435.09L-234.3,-1439.43L-237.01,-1447.08L-204.98,-1469.94z"/>
		<path id="IR-HO" title="Hormozgan" class="land" d="M35.77,-908.85L35.77,-908.85L34.33,-909.49L35.41,-909.92L35.77,-908.85zM18.77,-910.18L18.77,-910.18L17.29,-910.71L18.54,-911.19L18.77,-910.18zM17.86,-923.48L17.86,-923.48L17.19,-926.1L18.57,-924.94L17.86,-923.48zM1.63,-932.64L1.63,-932.64L-3.3,-934.24L0.64,-934.98L1.63,-932.64zM64.11,-937.57L64.11,-937.57L62.87,-937.46L64.26,-939.68L64.11,-937.57zM-11.56,-939.28L-11.56,-939.28L-13.53,-939.69L-12.58,-940.12L-11.56,-939.28zM-20.96,-944.38L-20.96,-944.38L-26.36,-944.24L-28.86,-946.08L-20.96,-944.38zM80.71,-945.73L80.71,-945.73L78.78,-945.57L81.56,-947.8L80.71,-945.73zM73.66,-948.32L73.66,-948.32L66.05,-940.32L43.61,-935.15L43.58,-938.95L60.19,-944.14L59.64,-950.12L77.33,-950.87L73.66,-948.32zM84.19,-953.63L84.19,-953.63L82.59,-953.96L83.3,-955.78L84.19,-953.63zM53.34,-1019.49L53.34,-1019.49L68.39,-1026.34L69.86,-1003.57L79.29,-994.86L95.76,-1002.6L101.14,-1000.79L102.34,-990.26L111.54,-980.47L115.61,-953.62L129.42,-946.04L135.46,-949.57L142.32,-943.72L138.07,-922.18L152.97,-921.52L154.33,-916.25L164.98,-914.35L178.14,-892.52L149.91,-899.34L140.37,-897L134.45,-902.39L127.95,-900.23L127.41,-904.26L112.34,-905.82L100.87,-951.98L95.29,-957.18L72.05,-957.99L26.83,-932.71L10.45,-941.03L-9.63,-940.79L-18.86,-950.94L-44.82,-964.16L-34.91,-966.44L-4.92,-957.18L1.86,-969.05L31.91,-970.43L52.04,-983.28L48.18,-992.64L50.46,-1004.85L39.35,-1017.18L38.32,-1026.81L53.34,-1019.49z"/>
		<path id="IR-IL" title="Ilam" class="land" d="M-224.37,-1229.31L-224.37,-1229.31L-224.26,-1221.8L-238.71,-1216.22L-243.31,-1209.55L-218.63,-1190.37L-206.98,-1171L-217.79,-1151L-225.82,-1165.25L-234.4,-1165.89L-258.52,-1184.32L-268.1,-1185.23L-270.37,-1191.36L-266.13,-1197.62L-276.39,-1207.13L-275.26,-1212.69L-280.74,-1212.78L-277.43,-1228.33L-242.37,-1219.37L-231.28,-1220.61L-231.53,-1228.32L-224.37,-1229.31z"/>
		<path id="IR-LO" title="Lorestan" class="land" d="M-213.93,-1242.1L-213.93,-1242.1L-196.35,-1230.17L-170.61,-1227.32L-170.49,-1216.2L-163.48,-1214.69L-153.89,-1223.13L-150.16,-1214.73L-144.29,-1210.43L-141.42,-1214.19L-135.65,-1207.31L-140.15,-1193.11L-154.25,-1179.35L-156.73,-1178.83L-184.3,-1188.89L-198.65,-1187.32L-206.98,-1171L-218.63,-1190.37L-243.31,-1209.55L-238.71,-1216.22L-224.26,-1221.8L-224.37,-1229.31L-213.93,-1242.1z"/>
		<path id="IR-KH" title="Khuzestan" class="land" d="M-156.73,-1178.83L-156.73,-1178.83L-154.25,-1179.35L-144.42,-1173.2L-144.65,-1167.17L-123.81,-1132.94L-126.96,-1126.43L-137.91,-1116.62L-137.46,-1102.75L-122.28,-1095.04L-121.12,-1076.28L-133.98,-1075.83L-151.57,-1068.59L-153.34,-1073.81L-161.31,-1073.83L-162.12,-1078.07L-164.15,-1076.47L-172.3,-1082.64L-167.52,-1083.71L-162.74,-1081.3L-162.46,-1087.58L-170.25,-1087.95L-168.36,-1084.67L-171.83,-1084.13L-174.29,-1081.26L-172.49,-1069.35L-187.79,-1067.27L-190.08,-1076.36L-203.08,-1085.91L-203.13,-1106.64L-214.64,-1106.86L-209.07,-1138.24L-217.79,-1151L-206.98,-1171L-198.65,-1187.32L-184.3,-1188.89L-156.73,-1178.83z"/>
		<path id="IR-CH" title="Chahar Mahall and Bakhtiari" class="land" d="M-91.23,-1113.56L-91.23,-1113.56L-103.16,-1111.28L-118.61,-1122.55L-126.96,-1126.43L-123.81,-1132.94L-144.65,-1167.17L-106.74,-1172L-103.49,-1159.98L-91.68,-1148.6L-94.65,-1132.82L-91.23,-1113.56z"/>
		<path id="IR-YA" title="Yazd" class="land" d="M112.1,-1211.59L112.1,-1211.59L120.77,-1213.6L128.31,-1186.95L140.71,-1176.93L143.24,-1158.78L130.09,-1132.37L89.36,-1148.82L59.6,-1129.94L57.14,-1111.46L18.81,-1105.4L13.59,-1094.25L20.48,-1079.36L20.92,-1061.74L14.59,-1059.6L2.43,-1067.08L-20.19,-1117.43L-38.31,-1130.79L-37.87,-1167.12L27.64,-1185.9L33.46,-1200.45L46.13,-1211.22L46.65,-1241.78L62.79,-1244.47L74.99,-1265.04L110.88,-1277.28L124.54,-1268.68L125.25,-1263.42L108.52,-1250.66L101.94,-1233.6L103.77,-1214.91L112.1,-1211.59z"/>
		<path id="IR-TE" title="Tehran" class="land" d="M-64.18,-1300.85L-64.18,-1300.85L-54.33,-1309.6L-32.75,-1303.52L-32.32,-1290.88L-44.95,-1282.88L-72.25,-1292.61L-73.87,-1282.01L-68.51,-1274.12L-71.84,-1263.78L-91.18,-1275.31L-109.08,-1277.99L-108.6,-1294.07L-89.67,-1315.48L-64.18,-1300.85z"/>
		<path id="IR-SE" title="Semnan" class="land" d="M70.89,-1359.34L70.89,-1359.34L73.88,-1358.88L70.13,-1347.8L74.78,-1341.94L90.63,-1337.66L94.59,-1333.65L93.54,-1309.55L104.22,-1295.14L96.87,-1281.62L74.99,-1265.04L62.79,-1244.47L46.65,-1241.78L-37.31,-1241.09L-65.13,-1245.9L-75.01,-1250.01L-71.84,-1263.78L-68.51,-1274.12L-73.87,-1282.01L-72.25,-1292.61L-44.95,-1282.88L-32.32,-1290.88L-32.75,-1303.52L-15.5,-1308.18L-4.71,-1325.74L4.08,-1330.99L15.73,-1331.22L34.3,-1343.69L51.03,-1343.17L63.35,-1367.89L70.89,-1359.34z"/>
		<path id="IR-MA" title="Mazandaran" class="land" d="M-70.93,-1335.13L-70.93,-1335.13L-12.77,-1347.92L-5.77,-1348.88L-0.73,-1349.32L-0.73,-1348.79L-6.25,-1348.11L-10.77,-1347.81L-9.35,-1347.46L-12.49,-1347.76L-13.26,-1347.58L-9.99,-1345.01L4.08,-1330.99L-4.71,-1325.74L-15.5,-1308.18L-32.75,-1303.52L-54.33,-1309.6L-64.18,-1300.85L-89.67,-1315.48L-108.52,-1323.99L-125.37,-1338.83L-116.15,-1352.34L-98.77,-1341.65L-70.93,-1335.13z"/>
		<path id="IR-GO" title="Golestan" class="land" d="M67.12,-1398.4L67.12,-1398.4L73.51,-1399.04L73.36,-1385.7L78.13,-1379.85L63.35,-1367.89L51.03,-1343.17L34.3,-1343.69L15.73,-1331.22L4.08,-1330.99L-9.99,-1345.01L1.12,-1346.26L-2.93,-1367.39L22.18,-1371.5L29.06,-1385.3L48.28,-1398.83L67.12,-1398.4z"/>
		<path id="IR-FA" title="Fars" class="land" d="M-52.47,-1127.42L-52.47,-1127.42L-38.31,-1130.79L-20.19,-1117.43L2.43,-1067.08L14.59,-1059.6L20.2,-1046.39L31.47,-1043.86L38.32,-1026.81L39.35,-1017.18L50.46,-1004.85L48.18,-992.64L52.04,-983.28L31.91,-970.43L1.86,-969.05L-4.92,-957.18L-34.91,-966.44L-60.3,-995.53L-82.14,-1043.2L-90.03,-1049.27L-96.52,-1059.79L-110.61,-1062.6L-115.29,-1073.37L-95.7,-1079.49L-96.74,-1093.94L-80.05,-1090L-80.02,-1098.06L-76.49,-1098.77L-72.2,-1119.76L-79.68,-1128.83L-63.03,-1135.37L-60.02,-1129.1L-52.47,-1127.42z"/>
		<path id="IR-ES" title="Esfahan" class="land" d="M-65.13,-1245.9L-65.13,-1245.9L-37.31,-1241.09L46.65,-1241.78L46.13,-1211.22L33.46,-1200.45L27.64,-1185.9L-37.87,-1167.12L-38.31,-1130.79L-52.47,-1127.42L-60.02,-1129.1L-63.03,-1135.37L-79.68,-1128.83L-72.2,-1119.76L-76.49,-1098.77L-80.02,-1098.06L-91.23,-1113.56L-94.65,-1132.82L-91.68,-1148.6L-103.49,-1159.98L-106.74,-1172L-144.65,-1167.17L-144.42,-1173.2L-154.25,-1179.35L-140.15,-1193.11L-135.65,-1207.31L-105.2,-1220.2L-100.65,-1232.1L-99.63,-1244.92L-75.01,-1250.01L-65.13,-1245.9z"/>
		<path id="IR-BU" title="Bushehr" class="land" d="M-124.62,-1036.83L-124.62,-1036.83L-126.09,-1039.16L-124.34,-1038.76L-124.62,-1036.83zM-90.03,-1049.27L-90.03,-1049.27L-82.14,-1043.2L-60.3,-995.53L-34.91,-966.44L-44.82,-964.16L-52.26,-976.02L-88.21,-987.49L-99.78,-1018.49L-108.39,-1026.14L-104.15,-1030.84L-113.86,-1034.28L-113.47,-1046.17L-130.78,-1065.27L-133.98,-1075.83L-121.12,-1076.28L-115.29,-1073.37L-110.61,-1062.6L-96.52,-1059.79L-90.03,-1049.27z"/>
		<path id="IR-KG" title="Kohgiluyeh and Buyer Ahmad" class="land" d="M-118.61,-1122.55L-118.61,-1122.55L-103.16,-1111.28L-91.23,-1113.56L-80.02,-1098.06L-80.05,-1090L-96.74,-1093.94L-95.7,-1079.49L-115.29,-1073.37L-121.12,-1076.28L-122.28,-1095.04L-137.46,-1102.75L-137.91,-1116.62L-126.96,-1126.43L-118.61,-1122.55z"/>
	</g>
</svg>