<?xml version="1.0" encoding="utf-8"?>
<!-- (c) ammap.com | SVG map of Nicaragua - Low -->
<svg xmlns="http://www.w3.org/2000/svg" xmlns:amcharts="http://amcharts.com/ammap" xmlns:xlink="http://www.w3.org/1999/xlink" version="1.1">
	<defs>
		<style type="text/css">
			.land
			{
				fill: #CCCCCC;
				fill-opacity: 1;
				stroke:white;
				stroke-opacity: 1;
				stroke-width:0.5;
			}
		</style>

		<amcharts:ammap projection="mercator" leftLongitude="-87.690700" topLatitude="15.026286" rightLongitude="-82.737853" bottomLatitude="10.707200"></amcharts:ammap>

		<!-- All areas are listed in the line below. You can use this list in your script. -->
		<!--{id:"NI-AN"},{id:"NI-AS"},{id:"NI-BO"},{id:"NI-CA"},{id:"NI-CI"},{id:"NI-CO"},{id:"NI-ES"},{id:"NI-GR"},{id:"NI-JI"},{id:"NI-LE"},{id:"NI-MD"},{id:"NI-MN"},{id:"NI-MS"},{id:"NI-MT"},{id:"NI-NS"},{id:"NI-RI"},{id:"NI-SJ"}-->

	</defs>
	<g>
		<path id="NI-AN" title="Atlántico Norte" class="land" d="M493.68,171.65l-1.13,-0.18l0.85,-0.96l-0.48,-0.96l2.04,-1.47l0.32,1.34L493.68,171.65zM594.14,76.19l0.31,4.42l-1.75,2.91l-2.75,0.14l-2.21,-1.17l-2.28,0.75l1.82,-1.8l2.59,-5.04L594.14,76.19zM544.87,4.9l-1,1.95l-0.41,-1.32l-0.93,0.67l0.09,-1.07l2.53,-1.34L544.87,4.9zM519.82,3.2l1.23,0.31l0.59,-1.65l4.99,1.99l2.67,-0.53l0.19,0.93l-1.59,1.39l1.07,0.75l1.14,-1.19l4.48,0.4l3.33,-1.54l2.15,0.36l2.15,1.54l-0.12,1.43l-0.99,0.27l0.43,-1.05l-0.61,0.42l-2.74,-1.54l-1.08,1.88l1.24,-0.43l-0.32,1.16l-7.2,7.97l-1.53,6.38l-3.42,7.89l-3.12,-0.26l2.27,-2.6l-0.12,-0.59l-1.52,0.59l0.59,-2.64l3.56,1.03l-1.83,-4.58l-0.49,-4.29l-1.08,-1.47l-2.77,0.2l-2.01,1.21l-3.71,6.39l-3,-0.88l1.29,1.25l0.06,2.44l-2.54,2.06l0.9,0.72l1.17,-1.23l0.28,1.42l1.33,-0.62l1.58,5.86l3.46,2.86l2.92,-0.22l0.31,-1.5l-1.03,-1.64l-3.36,-0.66l0.11,-0.66l3.11,0.2l2.45,2.43l-0.7,-2.98l1.27,-0.87l4.52,22.2l4.99,15.76l-0.82,-1.54l-2.15,0.18l-1.54,-1.23l-0.32,-2.99l-2.31,-3.58l-0.9,-0.04l0.03,1.36l1.36,0.68l-0.33,2.35l1.35,-0.53l0.57,6.3l2.72,-0.71l0.87,-1.07l1.83,2.92l1.22,-0.18l2.2,15.06l-2.42,7.57l-7.32,14.76l2.54,-6.03l-0.02,-2.49l2.45,-7.67l-3.11,-3.87l0.26,-0.72l1.18,1.16l0.22,-0.77l-4.67,-8.15l-1.13,-0.3l-1.04,2.06l2.99,3.68l-5.4,-2.89l2.04,4.27l-1.75,0.28l-0.36,-1.35l-1.54,0.58l-0.27,1.16l1.69,1.99l1.71,-1.55l-0.43,4.32l1.15,2.87l1.46,0.76l0.09,-1.42l2.52,1.69l-0.11,-1.4l0.92,0.39l-0.71,2.42l1.58,1.17l-0.39,1.04l0.18,1.74l-1.44,3.06l-1.35,-0.71l-1.97,2.16l3.34,-0.92l-2.78,7.14l-5.47,5.67l-1.12,2.72l-3.34,3.81l-1.16,0.07l-2.49,2.25l-2.61,4.03l-0.91,3.27l-1.55,-2.59l0.12,-1.82l2.55,-2.15l0.52,-2.06l-2.22,1.75l-3.54,-4.35l1.1,-2.83l-1.81,-1.32l0.18,-1.58l-2.25,-0.28l0.59,-0.75l-0.83,-4.25l-4.44,-1.43l-1.73,-5.77l1.89,-0.37l-0.64,-0.59l1.19,-2.99l-4.73,-3.5l-0.01,-2.45l-1.48,-0.25l-1.48,-4.49l-1.32,-0.23l-1.09,1.14l-2.78,-1.17l-2.68,0.81l-7.77,-3.8l1.07,1.3l2.82,1.21l4.3,2.09l1.74,-0.87l2.73,1.27l1.83,-1.09l0.71,0.67l1.07,3.8l1.51,0.53l0.19,2.22l4.5,3.69l-1.14,2.08l-1.18,0.35l0.41,4.1l1.6,2.85l4.09,1.34l1.11,2.78l-0.63,2.17l1.97,0.42l-0.19,1.37l1.7,1.27l-0.87,2.53l3.62,4.24l-0.48,1.22l-1.57,0.55l-0.58,-1.59l-3.76,-1.57l-1.68,3.2l0.27,1.51l3.34,-0.75l0.87,0.62l-1.2,2.5l0.62,1.81l2.9,-0.56l1.5,0.65l-1.08,5.85l0.54,1.8l-3.33,6.55l-2.26,10.35l-2.88,19.99l-1.47,-4.25l1.47,-5.74l-0.73,-2.2l2.4,-3.94l-1.44,-2.86l-3.88,1.36l0.71,1.41l1.38,0.52l-0.33,0.83l-1.72,0.78l-3.1,-0.61l-1.95,0.72l-0.73,2.71l-3.1,-3.89l-0.66,-3.8l-2.88,-1.15l-2.7,-3.22l-0.43,-2.51l-0.62,0.57l1.24,4.31l4.71,2.83l1,3.75l2.84,3.42l-1.63,0.46l2.35,0.54l2.97,5.2l1.76,0.59l-0.25,1l2.74,0.09l0.36,1.79l-0.94,0.65l-0.92,-1.17l0.04,1.24l3.49,1.71l-0.09,1.26l-1.89,-0.2l2.25,2.04l-2.75,7.07l-2.36,-2.48l-3.06,-0.53l3.88,2.67l-0.87,1.51l1.58,-1.16l-0.89,6.42l-1.06,0.63l0.63,-2.07l-1.69,0.27l-2.24,3.03l-2.1,-0.04l-0.88,2.75l-1.76,-0.42l-4.9,3.41l-0.94,-0.27l-0.44,-3.07l-4.73,-1.36l-3.81,-0.05l-1.07,-2.32l-3.11,-3.2l-2.3,-0.79l-0.19,-2.98l-3.73,-4.24l-0.12,-1.37l2.18,-2.09l-1.06,-3.96l-2.62,-2.94l-4.4,-1.55l-2.76,1.76l-2.38,-0.23l1.84,1.06l3.2,-1.98l4.35,1.65l2.17,3.19l0.51,2.73l-1.55,1.46l-0.35,2.35l4.04,4.27l-0.44,3.85l-2.16,0.55l-3.04,2.25l-2.66,0.77l-2.57,-1.99l-5.89,-0.15l-2.02,0.74l-2.53,-1.88l-2.46,-0.49l-1.7,-1.4l0.68,-1.17l-2.23,-0.37l-0.8,0.72l-0.34,-1.01l-2.18,-0.78l-2.96,0.95l-1.11,-1.43l-2.06,1.45l-2.29,0.29l-7.58,-2.84l-1.79,1.59l-0.57,1.86l1.27,0.14l0.12,-1.63l1.54,-0.95l5.91,2.58l3.47,-0.1l1.8,-1.33l1.35,1.2l3.3,-0.96l1.7,1.48l1.89,-0.66l0.08,1.22l2.52,1.92l5.69,2.55l4.9,-0.96l5.19,2.24l9.06,-4.34l4.15,3.24l1.12,2.81l8.52,0.87l0.51,2.58l1.53,1.2l5.66,-3.16l1.92,-0.01l1.05,-2.81l3.06,3.58l2.84,-4.42l-1.49,17.12l3.55,29.84l0,0l-12.05,-0.49l-21.45,-14.34l-0.59,-1.64l3.81,-7.47l-0.94,-1.3l-3.18,-0.24l-3.01,-2.3l-5.2,0.03l-19.54,-3.3l-3.56,-1.36l-12.53,1.2l-4.25,2.74l-1.12,-0.21l-1.45,-2.12l-2.6,0.79l-1.66,-0.62l-3.65,3.29l-25.39,0.67l-25.33,3.64l-6.78,9.49l-8.8,2.6l-3.78,5l-10.68,-0.68l-5.45,-1.25l-5.99,4.13l0,0l-2,-2.47l-0.5,-2.21l0.75,-1.7l4.34,-2.73l-0.42,-1.02l1.59,-2.47l-0.42,-1.7l-5.09,0.6l-1.25,1.11l-0.42,1.96l-1.75,-1.96l-2.59,0.17l-0.58,3.07l-1.92,-2.6l-1.64,1.67l-1.52,-0.23l-1.23,1.72l-2.18,0.03l-2.06,1.9l-4.34,-2.6l-1,-2.28l-1.89,-0.39l-3,-3.22l-3.35,0.79l-2.8,-1.9l-2.61,-4.38l-2.89,-1.47l-1.73,-3.21l-5.36,-5.76l-2.31,-6.61l0,0l-0.73,-2.19l0.89,-2.53l7.88,-6.46l3.49,-1.17l1.53,-2.51l-0.13,-3.1l1.92,-5.97l-4.09,-5.45l0.63,-1.66l3.69,-2.65l1.43,-6.72l9.23,-0.22l16.5,-10.72l11.78,5.86l24.82,-40.27l-1.53,-7.17l4.67,-23.98l-14.2,-0.84l-6.21,-7.36l-0.14,-1.5l1.96,-1.04l-0.76,-4.27l2.33,-4.5l-1.2,-2.01l-1.84,-0.23l-1.68,-2.02l0.76,-1.67l-0.89,-1.64l2.01,-4.41l-0.42,-1.54l-2.56,-1.79l-1.55,0.09l0,0l-1.74,-0.6l1.92,-2.47l-2.77,-2.64l-0.07,-1.61l2.17,-0.45l1.03,-1.89l-0.58,-1.68l4.84,-4.51l3.16,-2.07l3.91,-0.81l2,-4.85l1.59,-1.5l4.68,0.29l4.85,-2l2.01,0.7l2.47,4.18l3.33,2.14l-0.22,1.85l-1.78,0.53l1.25,1l1.43,-0.69l0.26,4.07l4.15,2.82l0.86,3.33l1.1,0.09l1.78,-3.21l2.57,2.37l2.65,-0.56l0.58,1.27l5.09,0.54l1.01,0.92l1.51,-0.41l1.05,0.88l4.32,-0.93l-1.48,1.52l0.3,1.58l2.81,-0.71l1.55,1.65l3.48,0.8l1.36,-1.94l2.96,-0.2l2.78,-1.41l0.19,-1.29l3.03,-2.89l2.23,-4.25l2.58,1.24l-0.94,1.96l0.32,1.21l2.59,0.62l2.09,-1.32l1.55,2.62l2.11,0.66l2.93,-2.41l-0.95,-0.88l0.37,-1.97l-0.99,-4.25l3.46,-2.74l1.96,0.75l-0.75,2.11l5.83,2.88l4.06,-0.71l2.09,-1.51l3.65,0.44l-0.08,-1.89l-2.28,-4.02l0.56,-1.68l3.18,0.24l0.57,3.52l4.07,-1.38l0.58,2.71l1.97,0.51l2.86,-1.35l2.77,1.15l3.06,-1.3l2.73,0.96l-0.52,-3.14l2.22,-0.49l2.29,1.63l1.11,-0.42l0.47,-2.25l1.02,2.33l3.09,-0.62l1.91,-2.09l4.73,-0.4l-2.67,-1.68l0.4,-0.67l2.39,1l1.19,-2.05l2.62,1.54l0.77,-2.63l2.54,0.96l-0.35,-1.93l4.03,0.7l0.22,-1.49l-1.72,-0.7l2.14,-1.22l-0.12,-1.59l1.34,0.7l5.09,-1.79l1.63,0.27l0.36,1.6l1.1,0.41l-0.36,-1.31l1.19,-1.62l-0.56,-1.21l2.47,-0.73l-0.36,-1.5l4.38,0.37l0.3,-3.22l2.13,-0.44l-0.89,-1.51l2.06,0.37l-1.2,-2.86l0.45,-0.81l1.91,0.85l-0.38,-2.8l1.33,1.18l1.34,-2.29l1.75,-0.64l1,0.49l-0.03,1.6l1.9,1.48l1.5,-0.31l1.9,-1.31l1.78,-0.06l1.96,-1.8L514.43,0l4.6,1.91L519.82,3.2z"/>
		<path id="NI-AS" title="Atlántico Sur" class="land" d="M477.06,388.15l0.11,0.65l-2.9,-2.05l-0.86,-3.56l0.13,-5.78l2.98,-5.13l0.93,0.11l-2.07,3.96l-0.4,4.37l0.47,4.04L477.06,388.15zM312.22,241.42l5.99,-4.13l5.45,1.25l10.68,0.68l3.78,-5l8.81,-2.6l6.79,-9.49l25.33,-3.64l25.39,-0.67l3.65,-3.29l1.66,0.62l2.6,-0.79l1.45,2.12l1.12,0.21l4.25,-2.74l12.53,-1.2l3.56,1.36l19.54,3.3l5.2,-0.03l3.01,2.3l3.18,0.24l0.94,1.3l-3.81,7.47l0.59,1.64l21.45,14.34l12.05,0.5l0,0l3.66,14.46l-1.12,1.72l-1.17,-0.44l0.63,-3.68l-0.54,-1.33l-0.87,0.44l0.85,0.53l-0.91,2.12l0.6,2.85l-7.73,-1.96l-0.21,0.87l1.83,1.14l-0.56,0.51l-3.97,-1.93l-1.77,0.92l-5.28,-1.76l0.4,-1.9l-3.53,-1.54l-0.94,0.67l-0.96,-1.38l-1.55,1.13l-0.45,-1.53l-2.26,-1.61l-0.58,-2.3l-8.32,-3.54l-0.39,-3.13l-3.21,-3.81l1.36,-1.31l-1.75,-4.57l-2.23,-0.5l0.96,-1.21l-0.41,-2.26l-2.07,-0.78l-2.16,-2.56l0.41,-3.08l-8.82,-5.74l0.15,2.75l-4.12,0.31l-2.77,1.96l-3.04,-1.82l-0.48,2.25l-5.85,1.42l-0.82,2.86l3.61,2.12l-1.79,0.47l-1.46,2.88l-10.05,1.21l-8.18,4.27l-4.24,6.18l-4.04,2.88l-2.08,0.45L398,250.25l-2.81,-3.31l-5.79,-1.55l-2.28,-2.25l-6.73,-0.29l-1.42,1.94l1.45,-1.36l5.82,0.09l2.78,2.45l5.35,1.14l1.83,3.26l2.33,0.73l1.29,-1.59l2.3,-0.66l4.09,-3.15l3.36,-5.6l3.67,-1.25l4.89,-3.16l8.39,-0.68l1.93,-1.05l1.14,-2.52l1.62,0.28l0.4,-1.86l-3.35,-1.46l0.65,-2.63l6.3,-0.76l-0.26,-2.47l2.12,1.74l3.62,-2.2l1.44,0.88l0.79,-1.13l2.17,0.05l-0.02,-2.02l7.03,4.28l0.07,3.45l2.69,3.23l1.41,0.04l-0.81,1.45l1.1,0.96l-1.19,1.19l2.4,0.59l1.42,2.38l0.56,1.6l-1.56,1.65l3.31,3.71l0.67,3.84l8.23,3.09l0.43,2.4l3.4,3.88l1.1,-0.88l1.72,1.39l0.89,-1.03l2.5,1.27l-0.48,1.53l0.91,0.76l12.24,2.3l0.23,-0.89l-2.08,-1.63l0.9,0.14l4.73,1.93l2.54,-0.04l0.29,2.2l0.98,-0.18l0.48,-2.66l0.67,-0.47l0.29,0.7l-1.39,4.03l-2.73,17.68l-1.07,12.38l0.45,5.4l2.62,8.7l3.77,5.12l-0.46,9.12l-1.33,0.91l-5.91,-1l-6.03,1.56l-1.82,1.71l-1.23,-1.35l3.65,-5.54l-4.15,-7.86l0.19,-9.38l0.75,-1.37l0.23,2.13l5.22,0.04l2.66,-3.39l-0.56,-11.57l2.19,-6.18l-2.09,-0.22l2.49,-3.42l-0.43,-5.25l-8.09,-2.74l-1.61,1.97l-2.94,0.9l-0.6,-8.26l-3.92,-2.09l-1.65,3.53l1.52,2.44l2.28,0.25l-0.53,0.93l-3.3,0.23l-9.59,-4.13l-4.9,1.95l-0.39,3.01l-2.96,0.1l-1.39,2.31l-1.53,-0.62l-1.6,0.58l-3.97,-2.47l-1.27,-1.71l-1.04,1.09l-2.13,-0.23l-1.89,-2.72l0.16,-1.22l-1.6,-0.42l-2.51,-1.63l-4.66,-1l-1.21,1.94l-2.06,0.3l2.03,0.19l1.4,-2.06l3.84,0.97l3.98,2.04l-0.06,1.48l2.14,2.49l2.58,0.61l0.98,-1.23l2.51,2.77l3.07,1.45l2,-0.74l0.74,0.93l1.8,-2.67l3.32,-0.15l0.31,-3.27l3.63,-1.53l1.76,0.41l6.66,3.12l2.77,0.74l3.32,-0.36l1.32,1.19l-0.13,0.96l-4.44,-0.55l-8.42,-3.6l-1.5,1.09l0.18,2.14l4.51,-1.31l-0.29,2.28l-1.2,0.63l2.17,0.86l-0.4,1.73l3.67,-0.02l1.44,-2.8l1.89,-0.38l3.88,2.21l-0.35,4.25l3.33,0.39l0.75,2.51l-0.72,1.93l2.94,3.62l-0.73,4.11l0.87,3.74l-1.58,-0.23l-1.7,2.39l-2.15,-0.17l-0.1,1.79l-6.74,4.63l-5.77,0.79l-3.02,2.5l0.08,6.64l0.86,0.33l2.11,-1.83l0.36,0.77l1.23,-0.22l0.75,2.56l1.12,6.96l-1.39,3.32l0.78,3.96l2.01,1.84l4.83,-2.05l0.58,0.54l-1.18,7.55l0.66,-0.07l1.51,-7.07l2.84,-2.98l1.26,0.85l-3.82,5.33l-3.77,9.8l-1.35,10.78l0.58,15.04l-3,-2.62l-1.92,-4.95l-0.68,0.27l0.58,-1.07l1.49,-1.55l0.13,0.91l2.22,0.5l0.23,-2.17l-1.1,-1.19l-0.01,-0.84l0.95,0.41l-2.01,-4.49l-3.02,-2.68l-0.65,0.52l2.63,2.13l1.47,3.08l-3.51,7.13l-0.67,-6.25l-2.02,-3.23l1.97,-0.74l-0.25,-1.1l-2.51,1.33l-4.87,-1.18l-4.54,0.45l-0.29,-2.18l-0.96,2.22l-2.35,-1.51l1.56,1.86l1.48,0.2l-0.27,0.72l-4.65,1.76l-0.35,2.05l-4.12,0.19l-3.9,4.46l-3.72,-2.52l-1.76,1.26l-2.04,-1.54l-2.89,1.38l-2.15,-2.49l-3.1,-1.59l-3.87,1.16l-2.11,-4.26l-2.49,-1.12l-1.81,0.6l-0.84,-1.17l-5.1,0.28l-2.04,-2.46l-1.69,-0.06l-1.68,-1.29l-2.08,-3.35l-1.66,-4.07l2.87,-2.53l0.16,-1.44l-4.27,-8.51l-3.68,-0.46l1.11,1.17l2.72,0.2l1.62,4l0.75,0.86l0.96,2.98l-2.93,4.21l2.95,6.55l2.07,1.99l-4.4,0.52l-4.11,3.34l-9.44,2.43l10.41,-1.98l4.04,-2.94l6.07,-0.99l1.6,2.24l1.32,0.44l-0.11,3.16l1.11,1.5l-2.76,5.26l0.09,1.76l-1.49,1.68l2.17,-1.89l1.07,-4.36l1.48,-2.04l-1.11,-2.17l-0.01,-2.46l3.28,-0.95l1.54,1.07l1.41,-0.58l2.44,0.85l1.58,4.17l1.02,0.75l2.33,-1.26l1.6,-0.34l0.47,0.94l2.06,0.52l2.81,3.37l2.64,-1.44l1.42,0.96l2.54,-0.89l4.19,2.48l3.7,-4.94l4.88,-0.26l-0.21,-2.03l3.1,-0.42l5.26,-2.41l2.78,0.07l4.38,2.36l1.15,3.2l0.57,8.11l-0.56,0.36l-0.56,-0.95l-1.06,1.05l-2,-2.04l-3.39,-0.32l2.88,0.48l2.98,3.14l-0.09,4.76l-1.08,1.09l-0.21,2.08l0.8,0.97l-2.31,2.76l-1.56,0.62l-0.64,2.92l-2.85,1.56l-1.45,2.28l2.94,1.41l-0.18,2.79l1.36,1.84l2.48,1l0.64,1.6l4.62,-0.56l-1.15,-2.89l1.3,-5.37l3.67,1.96l3.45,11.76l1.26,7.98l-1.17,-1.46l-1.03,0.43l2.83,2.35l0.57,6.65l1.17,0.55l0.14,1.52l-0.7,1.64l-2.92,-1.36l-1.49,0.45l-3.46,4.31l-4.57,0.46l-2.46,5.66l-2.83,-0.35l0.97,1.08l1.3,-0.36l-0.69,4.44l-2.24,3.94l-3.33,-0.33l-1.85,1.99l-2.86,6.36l-0.55,10.45l2.71,9.83l0.56,5.12l6.35,16.51l7.98,10.97l-3.38,-2.33l-7.03,-10.33l-2.21,0.1l0,0l-3.46,-0.68l-2.11,1.21l-0.67,-0.4l-2.28,-8.45l-2.32,1.17l-2.51,-0.44l0.03,0.88l-2.19,0.65l-2.17,-0.9l-1.33,1.47l-4.68,1.54l-2.17,-2.33l-0.6,-2.2l0.57,-1.1l-1.71,-0.35l-3,1.2l-5.05,-0.6l-6.47,-2.46l-6.26,-9.39l-13.38,-6.43l-0.98,-1.67l0.42,-5.31l-0.79,-2.02l-6.76,-2.81l-8.09,-5.45l-6.85,-1.76l-1.72,-1.22l-1.59,-13.8l0.85,-3.5l2.9,-4.82l0.25,-2.56l-3.94,-6.31l1.25,-7.09l-2.78,-1.2l-3.2,-10.73l0,0l6.93,-0.23l0.48,-1.94l-2.39,-2.91l-0.57,-2.8l-16.26,-6.89l-2.73,-2.67l-1.47,-12.53l-3.27,-5.44l-3.01,-10.6l1.66,-5.29l-4.69,-7.88l-3.38,-3.54l-2.44,-5.88l0.03,-1.36l2.72,-3.74l-0.1,-1.84l1.39,-0.86l-4.5,-2.49l-2.65,-7.18l-1.19,-0.65l-0.47,-2.7l-4.24,-3.49l-2.84,-4.55l0,0l-1.85,-1.23l0.11,-4.26l-1.81,-5.55l-4.37,-4.52l-2.92,-1.41l-5.06,2.51l0,0l-2.41,-2.36l-5.29,0.51l-0.05,-2.81l-2,-5.19l1.17,-5.19l-3.17,-5.96l3.59,-7.15l1.25,-0.09l1.5,3.41l1,-5.62l3,-2.13L312.22,241.42z"/>
		<path id="NI-BO" title="Boaco" class="land" d="M310.88,278.07L315.93,275.56L318.85,276.98L323.22,281.5L325.03,287.05L324.92,291.31L326.78,292.54L326.78,292.54L319.64,304.04L318.69,312.19L313.62,319.16L310.42,319.85L308.53,321.42L305.86,319.91L301.71,321.44L299.29,322.9L295.51,327.17L289.03,331.21L286.89,330.09L284.87,331.67L274.2,333.41L270.46,333.6L268.66,332.41L266.54,333.57L264.36,332.7L259.15,333.08L254.88,334.46L252.11,338.61L251.05,346.3L247.08,348.61L246.36,349.82L246.19,354.51L241.78,362.03L242.64,366.74L242.64,366.74L239.48,365.83L238.34,362.83L234.07,362.84L231.63,361.57L230.02,359.55L228.59,359.87L228.59,359.87L228.11,357.82L221.71,355.82L221.27,352.14L221.94,351.37L220.93,350.05L220.93,350.05L220.66,348.06L221.82,346.97L221.07,345.81L223.58,341.84L214.2,334.24L211.3,330.8L212.18,327.26L213.47,326.1L205.89,317.21L205.44,315.69L206.12,315.07L204.59,312.25L206.21,309.33L206.21,309.33L210.62,305.4L216.45,302.62L217.26,300.02L216.73,296.83L217.75,296.43L230.59,295.63L239.41,293.19L246.77,294.68L249.56,292.77L251.39,293.18L252.87,291.91L255.27,291.9L258.01,288.26L261.56,288.26L263.08,287.24L266.49,287.94L269.44,289.87L270.88,288.07L275.21,285.52L279.39,287.77L280.47,290.57L281.68,289.49L284.4,289.77L285.82,291.37L290.3,292.37L290.11,295.11L292.63,295.27L293.74,294.21L297.18,299.37L299.41,298.58L302.55,298.91L303.2,295.1L305.74,295.41L306.4,294.52L305.57,290.45L309.53,285.92L308.49,282.92L309.68,282.26L309.43,280.76z"/>
		<path id="NI-CA" title="Carazo" class="land" d="M168.82,377.22L179.21,381.19L180.39,383.87L183.73,385.36L182.25,389.35L183.79,389.6L183.31,390.9L190.75,391.65L192.1,393.2L192.1,393.2L190.94,393.8L191.18,396.11L190.26,396.79L191.85,400.94L190.76,402.75L191.02,406.02L190.14,406.86L187.31,407.14L186.85,408.04L187.43,411.77L186.73,415.07L189.28,419.41L189.28,419.41L185.3,423.51L183.45,428.79L181.58,430.15L181.58,430.15L172.32,422.79L161.01,416.81L156.76,411.35L149.8,405.91L149.8,405.91L151.49,404.28L150.03,400.82L150.6,399.65L155.59,396.81L158.02,394.05L158.99,391.11z"/>
		<path id="NI-CI" title="Chinandega" class="land" d="M62.24,314.81l1.89,2.13l8.08,3.51l0,0l4.06,4.5l0,0l-15.05,-9.16L62.24,314.81zM42.28,257.58l-5.15,-0.22l-1.62,-1.55l8.8,-4.76l5.59,0.83l1.66,1.22l-4.3,2.33l-1.42,1.81L42.28,257.58zM111.46,216.18l1.51,0.11l0,0l3.85,0.35l1.11,3.89l-1,3.87l0,0l-1.72,1.71l-1.94,4.23l0.02,3.87l1.05,3.19l0,0l2.25,5.01l0.51,3.98l5.4,8.07l-0.69,5.7l2.22,8.66l-2.03,6.78l-3.62,2.88l-13.24,1.49l-0.99,5.54l-3.29,2.68l-2.93,0.85l-4.36,6.46l-3.36,2.27l-0.24,7.54l-1.09,2.21l-10.32,5.3l-2.72,2.29l-7.12,1.24l0,0l-2.29,0.34l-1.37,-1.09l1.16,-0.78l-2.14,-1.17l-1.58,-5.49l-0.57,1.04L60,308.88l2.4,3.05l-0.57,1.71l-6.01,-8.05l-3.74,-3.12l-3.69,-1.75l3.24,0.12l0.56,-1.19l-3.56,0.17l-1.02,-1.46l-2.27,-0.6l1.94,1.95l-0.4,0.6l-4.36,-3.4l2.02,-0.07l-0.84,-2.96l2.24,-1.64l-0.88,-0.19l0.1,-2.9l-0.91,3.1l-1.85,1.77l-0.43,2.4l-2.62,-1.89l0.22,-1.07l-3.7,-5.84l-4.7,-2.78l0.74,-0.91l-6.62,-4.94L26,278.55l2.38,1.68l3.15,0.12l-3.14,-2.14l1.08,-3.1l-2.46,1.1l-1.73,-2l0.13,-1.01l-1.28,0.4l-1.43,-2.82l0.76,-1.03l-1.02,-0.21l0.64,-3.15l-5.4,1.29l-0.83,1.07l1.37,-0.37l1.93,1.62l-0.18,2.22l2.02,0.71l2.82,3.37l0,1.86l-4.43,-3.83l-15.29,-9.37l-4.69,-4.09l-0.39,-2.08l1.58,-4.98l1.92,-3.09l4,-1.71l2.23,-2.19l3.87,-7.9l-1.25,4.39l3.77,-0.1l4.75,3.39l3.71,3.78l1.35,2.87l-1.29,-0.31l-0.54,1.66l2.44,2.93l7.67,2.39l3.19,-0.72l1.68,3.94l-0.57,-3.94l2.62,-0.13l0.96,1.44l2.44,1.16l0.89,2.58l0.67,-0.11l-0.99,-3.09l-2.5,-1.17l0.89,-1.44l2.61,-0.52l3.28,3.39l5.98,-1.41l1.07,1.95l3.65,-0.09l2.21,3.56l6.18,2.96l1.34,-3.35l3.75,0.45l0.07,-0.57l-3.97,-0.37l-1.26,2.22l-1.2,0.46l-4.42,-2.07l-2.25,-3.84l-3.55,-0.32l-1.22,-2.19l1.12,-2.32l4.9,1.82l1.2,-0.36l0.39,-1.11l-2.59,0.53l-4.13,-1.6l-0.85,0.32l-0.93,2.98l-5.48,1.74l-2.69,-3.98l5.71,-3.72l-3.29,-2.11l23.53,-1.63l2.23,0.17l2.15,1.54l2.53,-0.52l0.7,-2.11l1.15,0.43l2.6,-1.9l1.6,0.29l2.2,-2.02l0.77,-3.26l4.1,-3.73l-1.79,-3.89l1.8,-2.99l-1.29,-4.5l1.51,-2.54l1.03,-6.54l3.72,-2.27l1.48,-2.37l5.45,-1.49L111.46,216.18z"/>
		<path id="NI-CO" title="Chontales" class="land" d="M309.68,416.41l-0.71,1.72l-1.57,-4.5l-2.54,-1.43l-0.02,-2.4l-1.44,-1.74l-1.4,0.45l-1.14,-1l0.05,-1.37l-1.03,-0.89l0,0l-1.16,-2.86l-4.04,-0.92l0,0l-4.25,-2l-6.92,-8.4l-4.53,-2.99l0,0l-2.55,-0.52l0,0l-4.91,-1.48l-1.15,1.91l-2.74,-2.23l-1.5,0.02l-6.84,-10.51l-5.03,-5.45l-4.26,-1.71l-4.68,1.65l-1.76,-1.14l1.03,-1.04l-1.96,-0.82l0,0l-0.86,-4.71l4.41,-7.52l0.17,-4.69l0.72,-1.21l3.97,-2.31l1.06,-7.69l2.77,-4.15l4.28,-1.38l5.21,-0.38l2.17,0.87l2.12,-1.15l1.8,1.18l3.75,-0.19l10.66,-1.74l2.03,-1.58l2.14,1.12l6.48,-4.04l3.79,-4.27l2.42,-1.46l4.15,-1.53l2.67,1.51l1.89,-1.57l3.2,-0.68l5.07,-6.97l0.95,-8.15l7.13,-11.5l0,0l2.84,4.55l4.24,3.49l0.47,2.7l1.19,0.65l2.65,7.18l4.5,2.49l-1.39,0.87l0.11,1.84l-2.72,3.74l-0.03,1.37l2.44,5.89l3.38,3.54l4.69,7.88l-1.66,5.29l3.01,10.6l3.27,5.44l1.47,12.53l2.73,2.67l16.26,6.9l0.57,2.8l2.39,2.91l-0.48,1.94l-6.93,0.23l0,0l-15.32,-1.46l-9.89,2.36l-7.15,3.84l-2.03,2.65l-8.09,2.73l-0.63,1.85l-1.3,0.67l0.55,2.05l-1.14,1.39l-2,0.32l-3.17,3.88l-2.73,-1.07l-0.6,1.75l-2.01,1.65l-2.87,0.49L309.68,416.41z"/>
		<path id="NI-ES" title="Estelí" class="land" d="M116.94,224.4L128.05,213.69L135.66,198.8L138,196.63L140.66,196.52L150.69,199.87L166.84,196.24L171.78,196.57L174.17,197.5L176.38,201.92L176.38,201.92L174.93,204.62L175.12,207.42L174.09,209.14L175.44,218.81L173.52,219.62L174.25,221.76L171.44,227.08L175.04,230.34L176.57,233.51L180.7,237.62L189.12,241.5L189.63,245.34L189.63,245.34L185.51,248.17L186.16,249.63L182.91,256.27L177.49,257.51L171.27,261.06L170.24,267.56L170.24,267.56L160.59,266.1L152.81,262.71L151.22,261.24L150.41,258.48L153.06,252.92L153.91,248.05L145.72,235.86L136.34,235.08L131.62,236.41L125.27,239.74L119.76,237.07L114.35,237.39L114.35,237.39L113.3,234.21L113.28,230.33L115.22,226.11z"/>
		<path id="NI-GR" title="Granada" class="land" d="M221.21,401.71l0.46,0.6l0,0l4.1,0.38l0.23,-1.04l1.01,0.34l1.6,4.23l-0.29,2.17l-1.72,0.63l-5.57,-0.75l-3.03,1.11l-0.03,-1.77l0.64,0.82l0.58,-0.6l-2.14,-2.3l2.03,-2.28l-0.28,-1.27l1.64,-0.65l0,0L221.21,401.71zM206.86,364.77l1.26,-2.4l-0.08,-2.26l4.98,0.18l2.65,-0.8l-0.01,1.19l1.93,0.32l-6.95,14.36l-0.25,2.58l0.69,5.57l3.94,0.98l1.45,2.54l-0.35,0.83l-3.34,-2.13l-0.86,0.7l0.42,3.1l1.33,0.34l3.3,7.63l-1.06,1.29l0.71,3.44l-1.3,1.83l-1.23,-0.17l-1.96,2.04l0.44,2.63l1.1,1.58l1.37,0.24l-0.27,0.95l0,0l-7.61,3.15l-4.71,-0.76l-3.39,4.21l-4.27,0.46l-2.09,1.49l-3.39,-0.48l0,0l-2.56,-4.35l0.7,-3.3l-0.58,-3.73l0.46,-0.9l2.83,-0.28l0.88,-0.84l-0.26,-3.27l1.09,-1.81l-1.59,-4.15l0.92,-0.68l-0.24,-2.31l1.16,-0.59l0,0l2.11,-6.22l2.81,-4.07l0.38,-2.69l2.75,-0.86l6.37,-8.99L206.86,364.77zM202.03,355.25l2.3,-0.02l7.82,-2.68l3.86,-4.49l4.92,1.99l0,0l1.01,1.32l-0.67,0.77l0.44,3.67l6.4,2.01l0.48,2.05l0,0l-2.89,1.57l-1.16,-0.49l-0.34,1.68l-2.5,0.68l-2.48,-0.65l-2.37,-3.5l-8.36,0.11l-4.6,-1.85l0,0L202.03,355.25z"/>
		<path id="NI-JI" title="Jinotega" class="land" d="M319.61,51.81L321.17,51.72L323.72,53.51L324.14,55.05L322.13,59.46L323.02,61.11L322.26,62.78L323.93,64.8L325.77,65.03L326.98,67.04L324.65,71.54L325.41,75.82L323.45,76.86L323.59,78.36L329.8,85.72L344,86.56L339.33,110.54L340.87,117.72L316.04,157.98L304.26,152.13L287.77,162.85L278.54,163.07L277.11,169.79L273.42,172.44L272.79,174.1L276.88,179.55L274.96,185.52L275.09,188.62L273.56,191.13L270.07,192.3L262.19,198.76L261.3,201.29L262.04,203.49L262.04,203.49L255.22,208.9L250.19,209.62L247.47,210.98L242.9,219.42L234.54,227.83L231.02,233.62L226.81,234.84L212.36,248.29L210.09,249.05L203.74,248.02L203.31,250.91L198.85,250.68L196.73,246.09L189.63,245.34L189.63,245.34L189.12,241.5L180.7,237.62L176.57,233.51L175.04,230.34L171.44,227.08L174.25,221.76L173.52,219.62L175.44,218.81L174.09,209.14L175.12,207.42L174.93,204.62L176.38,201.92L176.38,201.92L179.01,197.71L181.32,195.85L188.26,195.92L192.67,193.27L194.08,189.19L195.41,188.31L195.41,188.31L199.93,188.3L201.65,186.08L205.42,186.65L210.19,189.88L211.25,191.56L213.72,192.45L214.59,189.79L217.44,187.15L220.71,187.2L222.9,185.63L224.06,186.41L224.56,185.4L223.43,183.74L225.55,181.28L223.52,180.69L224.49,177.63L223.43,174.38L224.88,172.6L224.88,167.87L227.77,162.25L227.67,159.19L229.02,156.82L227.86,152.48L230.27,150.51L232.26,147.07L232.26,147.07L233.68,146.1L234.26,144.32L233.74,142.76L231.1,140.96L232.45,130.72L234.94,130.15L237.42,127.89L241.02,129.07L242.81,127.62L243.54,124.85L247.06,125.03L249.98,123.3L251.25,121.33L253.05,120.8L253.75,118.74L255.56,118.4L256.15,120.49L260.17,120.71L262.3,115.79L263.53,116.82L263.81,114.93L265.15,116.47L265.5,114.97L266.55,115.12L268.21,112.62L269.81,113.6L271.54,113.36L275.3,109.67L274.93,107.23L277.41,104.83L277.96,100.73L277.38,99L278.46,98.76L278.78,99.93L280.04,100.11L282.29,96.33L284.85,95.1L287.33,95.81L289.52,94.75L299.28,94.79L299.89,95.9L300.91,95.59L303.99,90.31L301.55,88.79L301.21,86.07L300.1,86.4L298.78,85.02L298.47,82.56L295.88,81.29L298.13,78.48L301.55,69.69L304.86,66.2L306.26,63.33L306.07,58.96L304.82,56.68L307.75,55.01L309.27,55.73L311.59,58.73L314.68,58.2L317.54,55.96z"/>
		<path id="NI-LE" title="León" class="land" d="M145.35,329.69l-0.26,0.08l0,0l-0.67,-2.07l2.11,-0.09l-0.49,1.33l0,0L145.35,329.69zM114.35,237.39l5.41,-0.33l5.51,2.67l6.36,-3.33l4.72,-1.33l9.38,0.78l8.19,12.19l-0.85,4.87l-2.65,5.55l0.81,2.76l1.59,1.47l7.78,3.39l9.65,1.46l0,0l0.3,8.71l-1.26,8.89l0.66,3.48l-1.09,5.58l0,0l-4.47,1.09l-1.6,2.27l-1.95,1.1l-2.92,7.74l0.61,1.13l-0.98,0.28l0.98,0.7l-0.62,0.84l0.7,1.11l0,0l0.25,0.32l0,0l1.83,0.86l-0.9,3.15l-2.32,-0.87l-9.64,3.39l-1.78,1.36l-1.95,4.02l-1.92,1.71l-4.12,0.05l-5.77,-2.57l-0.38,-0.72l0.87,-0.45l-0.8,-1.05l-3.56,2.32l0.91,1.95l-0.65,3.66l2.32,4.94l5.54,1.48l3,2.02l4.76,1.5l0,0l-4.13,3.37l0,0l-2.77,6.45l3.87,2.44l-0.49,4.43l-9.41,6.95l-4.33,-0.82l-3.74,1.41l-0.6,1.32l1.38,4.97l-3.3,2.6l0,0l-6.11,-10.21l-1.71,-5.81l-1.03,-0.79l-1.47,-3.91l0.69,-0.1l-0.84,-2.28l-20.35,-12.64l-13.64,-9.96l0,0l-4.06,-4.5l0,0l-3.47,-4.12l0,0l7.12,-1.24l2.72,-2.29l10.32,-5.3l1.09,-2.21l0.24,-7.54l3.36,-2.27l4.36,-6.46l2.93,-0.85l3.29,-2.68l0.99,-5.54l13.24,-1.49l3.62,-2.88l2.03,-6.78l-2.22,-8.66l0.69,-5.7l-5.4,-8.07l-0.51,-3.98L114.35,237.39z"/>
		<path id="NI-MD" title="Madriz" class="land" d="M111.41,169.99L114.34,168.59L124.86,170.24L126.8,171.88L127.02,175.25L127.93,176.4L131.23,178.07L132.97,177.8L134.32,179.1L139.94,176.54L144.47,176.02L156.8,178.28L157.97,179.18L163.64,177.55L169.34,173.75L173.34,173.81L176.83,175.29L181.58,174.04L189.29,180.26L190.41,181.8L190.75,184.47L195.41,188.31L195.41,188.31L194.08,189.19L192.67,193.27L188.26,195.92L181.32,195.85L179.01,197.71L176.38,201.92L176.38,201.92L174.17,197.5L171.78,196.57L166.84,196.24L150.69,199.87L140.66,196.52L138,196.63L135.66,198.8L128.05,213.69L116.94,224.4L116.94,224.4L117.93,220.53L116.82,216.64L112.97,216.29L112.97,216.29L118.09,212.91L118.57,209.3L117.63,203.83L114.52,202.53L113.73,200.95L116.22,195.9L114.4,190.48L113.39,181.59L112.75,180.13L110.68,178.86L112.7,171.14z"/>
		<path id="NI-MN" title="Managua" class="land" d="M144.12,337.68L152.33,342.05L154.95,339.06L157.94,337.19L164.67,337.19L168.41,342.8L168.03,345.79L164.67,348.41L163.54,352.15L172.15,352.52L175.88,350.28L187.1,350.28L187.48,340.56L188.97,337.94L189.72,333.08L184.11,330.83L181.87,331.58L178.13,336.44L175.51,336.82L175.51,331.21L168.78,320.37L167.66,314.01L165.41,310.27L158.8,310.76L158.8,310.76L158.58,310.49L158.58,310.49L157.89,309.38L158.51,308.54L157.54,307.84L158.52,307.55L157.91,306.42L160.83,298.69L162.78,297.59L164.38,295.32L168.85,294.22L168.85,294.22L179.33,295.79L184.13,299.34L186.59,298.63L188.64,299.18L195.04,304.87L206.21,309.33L206.21,309.33L204.59,312.25L206.12,315.07L205.44,315.69L205.89,317.21L213.47,326.1L212.18,327.26L211.3,330.8L214.2,334.24L223.58,341.84L221.07,345.81L221.82,346.97L220.66,348.06L220.93,350.05L220.93,350.05L216.02,348.06L212.16,352.55L204.33,355.23L202.03,355.25L202.03,355.25L202.03,355.25L202.03,355.25L198.42,354.12L194.7,355.87L188.69,356.62L186.31,359.82L182.8,360.95L179,366.27L183.07,370.74L180.94,374.31L175.68,376.64L171.59,372.98L168.82,377.22L168.82,377.22L158.99,391.11L158.02,394.05L155.59,396.81L150.6,399.65L150.03,400.82L151.49,404.28L149.8,405.91L149.8,405.91L140.67,398.71L138.56,393.29L134.02,387.82L129.17,383.79L126.37,377.02L120.75,370.65L120.75,370.65L124.05,368.06L122.67,363.09L123.27,361.77L127.01,360.36L131.35,361.18L140.75,354.24L141.24,349.81L137.37,347.38L140.14,340.93L140.14,340.93z"/>
		<path id="NI-MS" title="Masaya" class="land" d="M202.03,355.25L203.88,357.42L203.88,357.42L205.05,359.77L204.9,361.93L207.19,362.35L205.7,364.05L205.92,364.94L206.86,364.77L206.86,364.77L206.52,370.38L200.15,379.37L197.4,380.22L197.02,382.91L194.21,386.98L192.1,393.2L192.1,393.2L190.75,391.65L183.31,390.9L183.79,389.6L182.25,389.35L183.73,385.36L180.39,383.87L179.21,381.19L168.82,377.22L168.82,377.22L171.59,372.98L175.68,376.64L180.94,374.31L183.07,370.74L179,366.27L182.8,360.95L186.31,359.82L188.69,356.62L194.7,355.87L198.42,354.12z"/>
		<path id="NI-MT" title="Matagalpa" class="land" d="M262.04,203.49L264.35,210.1L269.71,215.86L271.44,219.08L274.33,220.54L276.95,224.92L279.74,226.83L283.09,226.04L286.09,229.25L287.98,229.65L288.98,231.93L293.32,234.53L295.38,232.63L297.56,232.6L298.79,230.88L300.32,231.11L301.95,229.45L303.88,232.05L304.46,228.98L307.05,228.81L308.8,230.77L309.22,228.81L310.47,227.7L315.56,227.11L315.98,228.81L314.4,231.28L314.81,232.3L310.47,235.03L309.72,236.73L310.22,238.95L312.22,241.42L312.22,241.42L309.47,245.51L306.46,247.63L305.46,253.25L303.96,249.85L302.71,249.93L299.12,257.08L302.29,263.04L301.12,268.23L303.12,273.42L303.18,276.23L308.47,275.71L310.88,278.07L310.88,278.07L309.43,280.76L309.68,282.26L308.49,282.92L309.53,285.92L305.57,290.45L306.4,294.52L305.74,295.41L303.2,295.1L302.55,298.91L299.41,298.58L297.18,299.37L293.74,294.21L292.63,295.27L290.11,295.11L290.3,292.37L285.82,291.37L284.4,289.77L281.68,289.49L280.47,290.57L279.39,287.77L275.21,285.52L270.88,288.07L269.44,289.87L266.49,287.94L263.08,287.24L261.56,288.26L258.01,288.26L255.27,291.9L252.87,291.91L251.39,293.18L249.56,292.77L246.77,294.68L239.41,293.19L230.59,295.63L217.75,296.43L216.73,296.83L217.26,300.02L216.45,302.62L210.62,305.4L206.21,309.33L206.21,309.33L195.04,304.87L188.64,299.18L186.59,298.63L184.13,299.34L179.33,295.79L168.85,294.22L168.85,294.22L169.94,288.64L169.28,285.16L170.54,276.27L170.24,267.56L170.24,267.56L171.27,261.06L177.49,257.51L182.91,256.27L186.16,249.63L185.51,248.17L189.63,245.34L189.63,245.34L196.73,246.09L198.85,250.68L203.31,250.91L203.74,248.02L210.09,249.05L212.36,248.29L226.81,234.84L231.02,233.62L234.54,227.83L242.9,219.42L247.47,210.98L250.19,209.62L255.22,208.9z"/>
		<path id="NI-NS" title="Nueva Segovia" class="land" d="M202.13,117.7L202.32,119.13L200.11,125.48L201.05,127.67L209.2,133.94L212.51,137.74L214.79,138.71L216.36,135.99L220.76,137.07L221.65,138.32L221.57,141.51L224.73,145.68L227.98,146.16L230.41,145.5L232.26,147.07L232.26,147.07L230.27,150.51L227.86,152.48L229.02,156.82L227.67,159.19L227.77,162.25L224.88,167.87L224.88,172.6L223.43,174.38L224.49,177.63L223.52,180.69L225.55,181.28L223.43,183.74L224.56,185.4L224.06,186.41L222.9,185.63L220.71,187.2L217.44,187.15L214.59,189.79L213.72,192.45L211.25,191.56L210.19,189.88L205.42,186.65L201.65,186.08L199.93,188.3L195.41,188.31L195.41,188.31L190.75,184.47L190.41,181.8L189.29,180.26L181.58,174.04L176.83,175.29L173.34,173.81L169.34,173.75L163.64,177.55L157.97,179.18L156.8,178.28L144.47,176.02L139.94,176.54L134.32,179.1L132.97,177.8L131.23,178.07L127.93,176.4L127.02,175.25L126.8,171.88L124.86,170.24L114.34,168.59L111.41,169.99L111.41,169.99L108.9,169.02L108.65,167.55L111.32,161.47L110.69,157.15L111.34,154.29L113.89,154.16L117.04,152.58L124.44,153.71L129.55,153.32L137.17,150.94L138.75,151.25L140.18,153.31L143,154.77L146.01,154.51L148.75,153.09L150.96,156.07L155.61,156.02L157.74,154.7L159.13,155.77L161.35,155.69L164.33,153.31L166.74,149.28L166.85,145.41L169.28,144.19L169.8,142.52L172.65,140.65L176.24,135.33L180.59,131.93L180.29,128.94L183.86,128.11L186.41,126.31L186.59,125.37L184.68,123.89L184.85,122.42L191.81,118.55L198.78,117.96L201.45,116.94z"/>
		<path id="NI-RI" title="Rivas" class="land" d="M255.14,425.39l-0.6,2.88l0.5,4.04l2.01,3.37l4.67,-0.52l2.17,0.84l0.61,-1.09l0.99,0.81l1.86,4.31l-0.41,4.24l-2.74,1.91l-3.66,0.93l-3,-1.08l-2.72,-2.92l-0.96,-2.85l0.26,-3.13l-2.38,-1.9l-3.88,-0.4l-0.05,1.21l-1.13,0.55l-1.63,-0.91l-3.42,1.57l-4.97,-3.62l2.43,-6.05l4.63,-2.81l8.67,-1.93L255.14,425.39L255.14,425.39L255.14,425.39zM214.75,411.33l3.57,3.87l-1.32,-5.5l1.68,0.87l1.63,9.41l1.88,5.56l5.18,7.83l1.75,10.1l2.03,4.65l4.26,5.59l2.03,0.86l3.99,5.82l5.34,4.99l1.57,0.08l0.75,-0.87l1.96,0.36l4.8,2.42l2.78,3.07l1.84,0.42l2.71,2.57l2.14,0.02l4.41,2.35l9.67,0.95l2.51,1.33l3.18,-0.42l7.19,4.47l1.8,-0.41l2.56,1.5l3.17,-0.16l0,0l0.39,4.62l0,0l-20.15,-9.81l-6.85,0.03l-12.71,-4.67l-5.12,-4.97l-5.58,-1.63l-1.06,0.43l-9.58,16.95l-1.74,-0.15l-1.5,-1.35l-2.57,-0.05l-2.53,-2.01l-1.62,0.13l-2.44,-2.68l-0.26,-2.8l-2.04,-3.71l-7.3,-7.19l0.41,-1.73l-1.65,-0.32l0.01,-1.4l-1.68,-0.1l-1.65,-3.56l-2.17,-0.8l-2.19,-2.87l-2.34,-1.44l-2.88,-0.25l-1.63,-3l-3.46,-1.7l0.32,-1.28l-3.85,-2.32l-2.19,-3.4l-5.12,-3.87l-3.44,-1.03l-2.03,-4.96l0,0l1.87,-1.35l1.85,-5.29l3.98,-4.09l0,0l3.39,0.48l2.09,-1.49l4.27,-0.46l3.39,-4.21l4.71,0.76L214.75,411.33z"/>
		<path id="NI-SJ" title="Río San Juan" class="land" d="M330.65,476.35L330.65,476.35l-0.39,1.37l1.54,0.77l-0.36,0.68l-1.25,-0.06l-4.11,-4.1l2.05,1.29l0,0L330.65,476.35zM325.15,475.02L325.15,475.02l-2.22,0.02l0.04,-2.24l1.61,-0.79l-0.02,2.32l0,0L325.15,475.02zM314.88,472.85l-0.91,3.05l-0.9,-1.45l0.69,-2.01l1.23,-0.79L314.88,472.85zM318.52,469.65l1.64,1.44l1.1,2.8l-2.2,0.47l-2.7,1.93l-1.23,-2.53l0.93,-1.95l-0.52,-1.64L318.52,469.65zM309.68,416.41l1.7,-3.32l2.87,-0.48l2.01,-1.65l0.6,-1.75l2.73,1.08l3.17,-3.88l2.01,-0.32l1.14,-1.38l-0.55,-2.05l1.3,-0.67l0.63,-1.85l8.09,-2.73l2.03,-2.65l7.15,-3.84l9.89,-2.36l15.32,1.46l0,0l3.2,10.73l2.78,1.2l-1.25,7.09l3.94,6.31l-0.25,2.56l-2.9,4.82l-0.85,3.5l1.59,13.8l1.72,1.22l6.85,1.77l8.09,5.45l6.76,2.81l0.79,2.02l-0.42,5.31l0.98,1.67l13.38,6.43l6.26,9.39l6.47,2.46l5.05,0.6l3,-1.2l1.71,0.35l-0.57,1.1l0.6,2.21l2.17,2.33l4.68,-1.54l1.33,-1.47l2.17,0.9l2.19,-0.65l-0.03,-0.88l2.51,0.44l2.32,-1.17l2.28,8.45l0.67,0.4l2.11,-1.21l3.47,0.68l0,0l3.84,2.44l5.06,7.81l3.76,3.04l0.17,1.55l2.01,0.08l-1.7,-2.38l4.08,0.11l1.93,3.2l-0.45,1.85l1.23,2.22l-0.36,3.71l0.85,4.53l-2.33,2.48l-3.91,0.02l-5.53,2.6l-3.33,-0.06l-2.72,2.82l-3.4,0.32l-2.79,2.94l-4.13,-0.28l-3.26,1.6l-0.9,-0.11l-0.87,-1.66l-3,-0.86l-0.99,-2.07l-3.78,-2.16l-2.04,-3.06l-1.25,0.17l-0.38,1.52l-2.16,-0.46l-1.64,1.91l-3.91,-1.33l-2.84,0.57l-0.78,-2.18l-7.02,0.03l-1.3,1.02l-0.69,-1.77l-2.47,-1l-1.42,-1.8l2.18,-0.91l0,-4.81l-3.42,-2.22l-4,-0.78l-1.81,-2.51l-3.28,-0.45l-2.99,-4.14l0.81,-3.2l-1.63,-2.37l-7.28,4.33l-2.51,0.1l-5.78,-5.38l-8.88,-3.76l-1.21,-2.22l-4.26,1.4l-8.43,-4.92l-28.36,16.71l-33.09,-12.44l0,0l-0.39,-4.62l0,0l1.62,-1.37l5.15,3.01l2.5,-0.64l4.57,0.5l0.88,1.61l2.37,0.64l4.92,-0.62l1.51,2.77l5.52,-1.15l3.04,3.32l6.26,-2.27l3.87,0.13l4.59,-3.47l2.02,0.13l-1.25,-0.75l1.44,-3.53l-2.35,-4.2l0.31,-8.1l-0.59,-0.91l0.82,-1.7l-1.19,-0.98l-1.05,-5.69l-7.71,-3.93l1.02,-0.75l-0.45,-2.17l-3.39,-1.39l-0.78,-1.9l-0.6,-5.57l0.56,-0.94l-0.82,-1.74l-0.63,-0.36l-2.39,2.21l-2.58,-4.55l0.17,-1.59l-4.48,-3.67l-3.11,-4.75l-3.55,-2.36l-1.44,-3.86l-3.03,-4.32l-1.72,-0.29L309.68,416.41z"/>
	</g>
</svg>