<?xml version="1.0" encoding="utf-8"?>
<!-- (c) ammap.com | SVG map of Iraq - High -->
<svg xmlns="http://www.w3.org/2000/svg" xmlns:amcharts="http://amcharts.com/ammap" xmlns:xlink="http://www.w3.org/1999/xlink" version="1.1">
	<defs>
		<style type="text/css">
			.land
			{
				fill: #CCCCCC;
				fill-opacity: 1;
				stroke:white;
				stroke-opacity: 1;
				stroke-width:0.5;
			}
		</style>

		<amcharts:ammap projection="mercator" leftLongitude="38.793603" topLatitude="37.380645" rightLongitude="48.575916" bottomLatitude="29.061208"></amcharts:ammap>

		<!-- All areas are listed in the line below. You can use this list in your script. -->
		<!--{id:"IRQ-1"},{id:"IRQ-2"},{id:"IRQ-3"},{id:"IRQ-4"},{id:"IRQ-5"},{id:"IRQ-6"},{id:"IRQ-7"},{id:"IRQ-8"},{id:"IRQ-9"},{id:"IRQ-10"},{id:"IRQ-11"},{id:"IRQ-12"},{id:"IRQ-13"},{id:"IRQ-14"},{id:"IRQ-15"},{id:"IRQ-16"},{id:"IRQ-17"},{id:"IRQ-18"}-->

	</defs>
	<g>
		<path id="IRQ-1" title="Babil" class="land" d="M42.83,-2096.79L42.83,-2096.79L44.09,-2097.15L45.18,-2098.23L46.96,-2100.74L47.74,-2100.85L48.51,-2100.73L50.04,-2100.3L59.94,-2099.8L59.94,-2099.8L59.91,-2098.96L60.66,-2097.44L61.72,-2094.71L62.19,-2092.96L62.41,-2091.45L62.39,-2088.68L62.04,-2087.69L61.04,-2087.12L61.49,-2085L61.69,-2077.8L62.06,-2076.05L62.45,-2074.93L62.86,-2074.54L63.15,-2074.31L63.51,-2074.18L71.96,-2073.58L72.37,-2073.48L76.16,-2071.3L79.17,-2070.34L81.35,-2070.14L81.87,-2069.96L82.18,-2069.42L84.12,-2068.6L85.65,-2067.73L86.5,-2067.05L87.31,-2066.16L87.68,-2065.39L90.23,-2056.9L92.56,-2051.64L93.6,-2050.32L94.75,-2049.16L95.71,-2048.49L96.71,-2048.2L100.27,-2048.04L101.04,-2048.03L101.21,-2045.81L101.31,-2044.34L100.43,-2044.39L99.92,-2044.25L99.08,-2043.92L96.41,-2042.3L95.7,-2041.76L94.97,-2040.88L94.57,-2040.5L89.44,-2037.06L85.6,-2035.49L82.99,-2033.49L81.24,-2031.82L80.83,-2031.59L80.46,-2031.77L79.78,-2032.47L79.44,-2032.76L79.08,-2032.79L78.64,-2032.59L78.06,-2031.96L77.72,-2031.34L77.54,-2030.85L77.64,-2030.53L77.9,-2030.22L78.38,-2029.8L78.46,-2029.15L78.41,-2028.63L78.16,-2028.25L77.84,-2027.98L76.94,-2027.44L76.59,-2027.16L75.44,-2025.74L75.04,-2025.37L74.54,-2025.09L73.98,-2024.9L73.27,-2024.89L72.49,-2025.18L69.19,-2027.19L67.4,-2027.76L64.37,-2028.76L62.59,-2029.78L61.26,-2030.91L59.63,-2031.77L56.7,-2029.66L56.24,-2029.71L55.74,-2029.61L55.47,-2029.63L54.23,-2028.78L52.11,-2026.75L51.21,-2027.96L50.91,-2028.56L50.47,-2029.25L50.08,-2029.7L48.95,-2031.52L48.48,-2032.83L48.38,-2033.6L48.82,-2034.31L50.26,-2035.12L50.5,-2036.33L50.13,-2036.7L49.73,-2037.38L48.88,-2040.76L48.69,-2041.52L47.45,-2043.97L47.01,-2045.45L47.3,-2046.61L47.87,-2048.02L47.45,-2049.44L44.09,-2054.37L43.11,-2056.77L42.97,-2059.42L45.08,-2067.11L45.63,-2067.7L45.6,-2068.5L45.58,-2068.92L45.34,-2069.48L43.89,-2070.96L43.48,-2071.26L43.12,-2071.41L42.84,-2071.4L42.53,-2071.26L41.89,-2070.91L41.61,-2070.86L41.29,-2070.91L39.21,-2071.47L37.56,-2071.72L38.23,-2078.48L35.63,-2080.29L33.99,-2082.16L33.25,-2084.08L32.19,-2089.4L30.76,-2093.63L28.95,-2095.46L23.14,-2098.39L20.2,-2099.13L19.41,-2100.13L19.11,-2101.63L21.13,-2101.9L23.83,-2101.55L29.12,-2100.15L34.79,-2100.11L36.23,-2099.91L37.71,-2099.46L41.53,-2097.2L42.83,-2096.79z"/>
		<path id="IRQ-2" title="Al-Anbar" class="land" d="M-86.53,-2228.33L-86.53,-2228.33L-78.15,-2229.43L-77.07,-2229.2L-74.98,-2228.21L-73.17,-2227.43L-60.17,-2229.2L-59.74,-2228.17L-59.66,-2212.28L-57.28,-2201.78L-45.7,-2192.24L-43.11,-2190.76L-41.21,-2190.5L-34.07,-2194.58L-32.94,-2188.39L-32.67,-2183.9L-32.2,-2181.74L-30.68,-2179.53L-29.77,-2175.67L-29.18,-2171.87L-26.05,-2164.24L-21.96,-2158.76L-12.4,-2149.12L-4.2,-2141.94L-1.04,-2140.76L5.36,-2139.68L12.69,-2136.73L18.1,-2134.93L28.11,-2135.18L29.91,-2134.64L31.99,-2132.74L32.92,-2131.72L34.02,-2129.67L35.89,-2124.98L37.19,-2122.72L37.79,-2122.06L35.79,-2120.5L38.01,-2119.84L40.03,-2118.43L44.43,-2118.16L46.22,-2114.2L46.4,-2114.25L46.48,-2113.93L46.48,-2113.57L45.92,-2112.18L44.03,-2110.14L43.32,-2108.74L43.08,-2107.37L43.09,-2105.87L43.38,-2104.42L43.97,-2103.19L44.67,-2102.5L46.26,-2101.49L46.96,-2100.74L45.18,-2098.23L44.09,-2097.15L42.83,-2096.79L41.53,-2097.2L37.71,-2099.46L36.23,-2099.91L34.79,-2100.11L29.12,-2100.15L23.83,-2101.55L21.13,-2101.9L19.11,-2101.63L19.41,-2100.13L20.2,-2099.13L23.14,-2098.39L28.95,-2095.46L30.76,-2093.63L32.19,-2089.4L33.25,-2084.08L33.99,-2082.16L35.63,-2080.29L38.23,-2078.48L37.56,-2071.72L27.33,-2074.89L20.5,-2074.88L15.45,-2074.25L10.72,-2071.93L-0.44,-2062.04L-2.05,-2060.98L-2.71,-2060.79L-3.98,-2060.61L-11.28,-2059.58L-14.08,-2058.51L-17.26,-2056.83L-16.84,-2054.68L-15.4,-2052.52L-1.35,-2038.26L8.49,-2030.86L11.37,-2028.4L17.64,-2022.41L17.58,-2021.02L17.27,-2018.91L16.21,-2017.64L15.19,-2016.66L9.64,-2013.57L8.12,-2012.34L7.32,-2011.85L6.36,-2011.49L2.56,-2010.89L1.86,-2010.59L0.08,-2009.42L-0.38,-2009.31L-1.63,-2009.2L-2.59,-2008.74L-3.7,-2007.89L-5.42,-2006.02L-14.7,-1992.21L-15.55,-1990.67L-15.63,-1988.44L-15.96,-1986.48L-16.84,-1983.89L-23.17,-1970.27L-23.73,-1968.58L-23.89,-1967.38L-23.89,-1966.46L-23.78,-1965.86L-23.56,-1965.36L-23.51,-1964.33L-23.77,-1962.83L-26.11,-1956.62L-26.31,-1955.75L-26.72,-1952.34L-27.11,-1950.88L-27.55,-1949.92L-30.91,-1945.16L-32.96,-1941.64L-33.41,-1940.6L-33.61,-1939.91L-34.34,-1933.78L-35.1,-1931.35L-36.88,-1927.07L-40.75,-1919.83L-42.3,-1916.11L-42.74,-1915.41L-43.91,-1916.42L-49.56,-1921.34L-55.21,-1926.26L-60.86,-1931.19L-65.9,-1935.56L-70.94,-1939.94L-75.98,-1944.32L-81.03,-1948.7L-84.98,-1952.14L-90.3,-1955.3L-95.53,-1958.42L-100.77,-1961.54L-105.99,-1964.65L-111.22,-1967.77L-116.46,-1970.89L-121.7,-1974.01L-126.92,-1977.14L-132.15,-1980.26L-137.39,-1983.4L-142.62,-1986.52L-147.85,-1989.65L-153.09,-1992.78L-158.32,-1995.92L-163.55,-1999.05L-168.79,-2002.18L-174.02,-2005.33L-180.15,-2009.01L-183.47,-2010.95L-186.69,-2012.21L-207.02,-2016.14L-207.04,-2016.15L-207.04,-2016.15L-207.06,-2016.15L-211.84,-2016.97L-223.63,-2018.99L-235.42,-2021.02L-247.21,-2023.05L-259.01,-2025.08L-259.18,-2025.03L-259.35,-2024.97L-259.52,-2024.91L-259.69,-2024.85L-259.7,-2025.4L-252.53,-2031.53L-251.01,-2033.76L-252.25,-2038.52L-253.13,-2040.69L-254.36,-2041.41L-265.66,-2038.27L-266.26,-2038.62L-266.71,-2039.68L-269.62,-2049.83L-269.7,-2049.95L-269.72,-2050.03L-269.7,-2050.09L-269.62,-2050.11L-265.01,-2051.56L-269.02,-2066.36L-271.84,-2076.77L-274.56,-2086.86L-276.62,-2094.43L-279.1,-2103.58L-281.87,-2113.76L-275.28,-2117.72L-268.68,-2121.68L-262.08,-2125.64L-255.49,-2129.61L-248.89,-2133.58L-242.29,-2137.55L-235.7,-2141.52L-229.1,-2145.49L-222.51,-2149.47L-215.91,-2153.45L-209.32,-2157.43L-202.72,-2161.42L-198.45,-2164L-196.13,-2165.41L-189.53,-2169.4L-182.93,-2173.39L-176.34,-2177.39L-167.59,-2182.7L-152.94,-2186.64L-151.2,-2187.78L-149.84,-2189.71L-147.69,-2194.46L-147.69,-2194.47L-137.45,-2214.35L-136.94,-2216.14L-136.81,-2218.04L-137.31,-2230.75L-137.65,-2242.76L-136.37,-2242.73L-128.71,-2242.01L-118.63,-2239.1L-114.62,-2238.46L-98.29,-2231.68L-90.41,-2228.58L-86.53,-2228.33z"/>
		<path id="IRQ-3" title="Diyala" class="land" d="M136.97,-2224.13L136.97,-2224.13L135.9,-2224.7L134.52,-2224.63L134.12,-2223.23L134.24,-2221.39L133.94,-2219.61L132.29,-2218.46L130.59,-2218.28L129.83,-2217.96L129.25,-2217.14L129.06,-2216.27L129.2,-2214.8L129.01,-2213.97L127.35,-2212.06L126.9,-2210.89L127.78,-2209.87L128.28,-2209.59L128.81,-2209.17L129.25,-2208.65L129.46,-2208.06L129.65,-2207.28L129.94,-2206.85L130.24,-2206.49L130.49,-2205.98L130.68,-2204.61L130.71,-2203.25L130.9,-2202.02L131.56,-2201.08L131.74,-2200.61L131.72,-2199.83L131.56,-2199.06L131.32,-2198.6L130.97,-2198.52L129.65,-2198.98L125.55,-2199.31L123.71,-2199.76L121.66,-2200.84L119.34,-2201.52L119.09,-2199.53L119.59,-2196.6L119.51,-2194.46L119.22,-2193.89L118.88,-2193.36L118.49,-2192.91L118.06,-2192.51L114.93,-2191.81L114.35,-2190.86L116.19,-2184.91L116.96,-2183.35L118.06,-2182.53L119.25,-2183.49L120.58,-2183.49L121.82,-2182.71L122.73,-2181.29L123.06,-2179.65L122.94,-2177.87L122.14,-2174.4L121.85,-2173.75L121.01,-2172.38L120.89,-2171.72L121.18,-2170.89L121.61,-2170.27L121.96,-2169.65L121.96,-2168.85L121.35,-2168.03L118.94,-2166.05L118.06,-2165.11L116.61,-2163.83L115.94,-2162.23L115.43,-2160.39L114.52,-2158.39L114.52,-2158.39L114.51,-2158.39L114.02,-2157.88L113.44,-2157.48L112.16,-2156.9L113.4,-2155.16L114.75,-2154.4L116.3,-2154.3L118.06,-2154.57L118.21,-2154.55L118.34,-2154.49L118.45,-2154.39L123.76,-2144.71L124.56,-2143.82L125.48,-2143.04L126.26,-2142.18L126.69,-2140.99L126.95,-2139.54L127.36,-2138.27L127.96,-2137.1L128.77,-2135.94L129.68,-2135.03L132.49,-2133.01L132.7,-2132.45L132.9,-2131.92L132.88,-2129.38L133.29,-2128.88L134.33,-2129.14L135.31,-2129.79L137.05,-2131.47L138.14,-2131.94L141.03,-2131.98L142.32,-2132.3L142.09,-2130.1L143.14,-2129.03L144.41,-2128.15L144.82,-2126.57L144.09,-2125.49L141.26,-2123.76L140.33,-2122.53L141.35,-2121.65L143.12,-2121.24L144.93,-2121.46L146.03,-2122.52L146.33,-2122.69L146.63,-2122.74L146.93,-2122.68L147.01,-2122.64L147,-2122.64L146.01,-2121.51L145.06,-2119.88L144.83,-2119.43L144.12,-2116.87L143.69,-2116.33L143.05,-2115.82L141.64,-2114.97L140.93,-2114.68L140.42,-2114.55L140.09,-2114.53L139.74,-2114.4L139.26,-2114.18L136.47,-2112.12L135.83,-2111.34L135.33,-2110.87L134.63,-2110.42L133.72,-2110.01L133.47,-2109.98L133.24,-2110.03L132.99,-2110.15L132.74,-2110.21L132.47,-2110.08L132.13,-2109.71L131.47,-2108.69L129.38,-2106.18L128.81,-2105.35L128.42,-2104.58L128.18,-2103.58L127.63,-2102.08L126.83,-2100.91L125.27,-2099L123.9,-2096.93L123.49,-2096.5L121.2,-2094.55L120.24,-2093.52L119.5,-2092.54L118.81,-2092.16L118.32,-2091.96L114.86,-2092.98L96.16,-2098.39L90.37,-2097.74L88.28,-2097.9L81.4,-2099.59L79.62,-2099.68L78.45,-2098.75L77.12,-2097.12L75.81,-2095.18L73.22,-2093.18L72.16,-2092.13L71.61,-2091.28L71.94,-2090.5L72.13,-2090.16L72.48,-2089.09L72.2,-2088.98L71.53,-2088.41L70.9,-2088.17L70.22,-2088.2L69.55,-2088.41L68.93,-2088.73L68.38,-2089.1L67.92,-2089.53L67.54,-2090.05L67.22,-2090.69L66.71,-2092.09L66.34,-2092.76L65.92,-2092.54L65.49,-2091.53L64.9,-2089.68L64.31,-2088.69L64.02,-2087.99L63.79,-2087.56L63.53,-2087.37L63.36,-2087.29L62.04,-2087.69L62.39,-2088.68L62.41,-2091.45L62.19,-2092.96L61.72,-2094.71L60.66,-2097.44L59.91,-2098.96L59.94,-2099.8L60.03,-2102.88L60.6,-2103.72L60.79,-2103.91L61.16,-2104.35L61.23,-2104.63L61.21,-2104.93L60.97,-2105.43L60.84,-2106.03L61.25,-2107.17L61.25,-2106.53L61.1,-2106.31L61.12,-2106.11L61.34,-2106.09L61.62,-2106.27L61.8,-2106.74L61.95,-2107.27L61.88,-2109.43L61.8,-2111.54L62.1,-2112.24L62.16,-2113.1L62.19,-2113.26L62.23,-2113.37L62.19,-2113.58L61.87,-2114.58L61.72,-2115.23L61.64,-2116.04L61.39,-2116.36L61.19,-2116.56L59.31,-2115.12L57.09,-2117.09L57.09,-2117.1L55.9,-2117.75L55.31,-2117.86L51.03,-2118.04L50.69,-2118.1L50.28,-2117.61L49.5,-2115.1L46.4,-2114.25L46.22,-2114.2L44.43,-2118.16L47.61,-2122.77L48.49,-2123.84L49.89,-2125.14L50.93,-2125.9L53.27,-2128L53.77,-2129.86L53.96,-2131.63L53.27,-2133.28L54.15,-2137.16L54.39,-2137.69L55.23,-2139.02L55.23,-2139.33L55.08,-2139.62L53.9,-2140.83L53.5,-2141.34L53.19,-2141.94L53.04,-2142.59L53.05,-2143.25L53.17,-2143.9L54.28,-2146.97L56.32,-2150.18L56.67,-2151.44L56.72,-2152.78L56.53,-2154.16L56.07,-2155.28L55.36,-2156.17L52.6,-2158.68L52.06,-2158.91L51.7,-2159.07L50.11,-2159.31L48.48,-2159.11L47.99,-2158.97L47.57,-2158.92L47.29,-2158.98L47.1,-2159.17L47.09,-2159.77L47.13,-2160.11L47.79,-2161.07L47.95,-2161.97L48.38,-2163.16L48.3,-2163.51L47.99,-2164.01L48.09,-2164.24L49.36,-2165.13L49.6,-2165.37L49.74,-2165.83L49.75,-2166.13L49.67,-2166.38L49.23,-2167.15L49.15,-2167.42L49.26,-2167.67L49.51,-2167.88L50,-2168L50.7,-2168.02L50.83,-2168.11L50.9,-2168.31L50.85,-2170.02L50.73,-2170.28L50.6,-2170.47L50.59,-2170.65L50.8,-2170.8L51.35,-2170.92L52.07,-2170.88L52.33,-2170.98L52.58,-2171.21L52.75,-2171.67L52.99,-2172.07L53.19,-2172.32L53.54,-2172.38L53.65,-2172.23L53.67,-2172.02L53.52,-2171.68L53.54,-2171.57L53.65,-2171.49L53.85,-2171.48L54.03,-2171.59L54.16,-2171.8L54.31,-2172.39L54.55,-2172.91L55.79,-2174.75L56.02,-2174.91L56.55,-2175.1L57.24,-2175.13L57.45,-2175.17L57.65,-2175.29L57.88,-2175.48L58.13,-2175.62L58.32,-2175.58L58.65,-2175.21L58.83,-2175.06L59,-2175.13L59.12,-2175.43L59.11,-2176.75L59.22,-2177.15L59.67,-2177.44L59.97,-2177.55L60.18,-2177.73L60.23,-2178.01L60.07,-2179.45L60.88,-2179.99L60.19,-2180.85L59.76,-2181.09L59.31,-2181.46L58.76,-2182.08L58.43,-2182.57L58.26,-2182.98L58.26,-2183.3L58.72,-2184.03L59.31,-2185.31L59.71,-2186.66L59.75,-2187.25L59.54,-2187.96L59.4,-2188.32L59.33,-2188.58L59.73,-2189L59.87,-2189.24L60.08,-2189.91L60.19,-2190.16L60.23,-2190.35L60.05,-2190.49L59.86,-2190.46L59.53,-2190.25L59.33,-2190.21L59.1,-2190.25L58.98,-2190.39L58.98,-2190.59L59.26,-2190.93L59.39,-2191.13L59.42,-2191.3L59.22,-2191.42L59.07,-2191.37L58.93,-2191.25L58.81,-2191.18L58.77,-2191.3L58.81,-2191.57L59.09,-2192.06L59.33,-2192.25L59.6,-2192.31L59.84,-2192.33L60.41,-2192.51L60.61,-2192.71L60.68,-2192.98L60.41,-2193.55L60.19,-2193.78L59.97,-2193.88L59.81,-2193.88L59.73,-2193.95L59.81,-2194.14L60.52,-2194.79L60.67,-2195.34L60.69,-2195.74L59.79,-2198.09L59.83,-2198.77L59.88,-2199.05L60.01,-2199.44L60.71,-2200.35L60.95,-2200.48L61.48,-2200.18L62.67,-2199.69L63.59,-2199.47L64.11,-2199.22L64.76,-2198.79L66.93,-2196.82L67.25,-2196.62L67.43,-2196.65L67.73,-2197.52L68.12,-2198.24L68.78,-2199.03L69.79,-2199.9L70.77,-2200.57L71.63,-2201.4L72.38,-2202.43L73.31,-2204.43L73.41,-2205.49L73.21,-2206.34L72.93,-2206.77L72.67,-2207.23L72.55,-2207.68L72.55,-2208.11L72.83,-2208.58L73.41,-2209.1L74.63,-2209.8L76.31,-2210.3L77.04,-2210.61L77.89,-2211.31L79.05,-2212.5L79.85,-2213.84L80.1,-2214.64L80.05,-2215.24L79.98,-2215.71L80.02,-2216.19L80.41,-2216.76L81.11,-2217.32L82.66,-2217.92L84.62,-2218.94L87.44,-2221.54L90.62,-2219.45L91.86,-2218.2L92.43,-2217.43L92.81,-2217.14L93.22,-2217.05L93.57,-2217.15L94.96,-2217.98L95.49,-2218.13L96.17,-2218.2L97.44,-2218.04L98.19,-2217.8L98.78,-2217.49L99.59,-2216.8L100.05,-2216.22L100.55,-2215.45L100.75,-2214.79L100.92,-2212.22L101.17,-2210.59L101.18,-2210.13L101.14,-2209.78L101.16,-2209.44L101.21,-2208.94L101.54,-2207.29L102.22,-2205.44L102.22,-2205.13L102.12,-2204.85L101.86,-2204.47L101.03,-2203.55L100.87,-2203.22L100.79,-2202.88L100.8,-2202.46L100.88,-2202.02L101.24,-2200.94L101.28,-2200.58L101.27,-2200.18L101.18,-2199.74L101.01,-2199.26L100.58,-2198.47L100.59,-2198.19L100.73,-2197.87L100.9,-2197.72L101.36,-2197.57L101.58,-2197.54L101.77,-2197.54L102.01,-2197.49L102.16,-2197.27L102.27,-2196.93L102.44,-2195.81L104.39,-2196.97L110.89,-2204.81L111.69,-2205.5L112.13,-2205.46L112.35,-2205.48L112.95,-2205.62L113.32,-2205.63L113.84,-2205.75L114.45,-2205.99L115.56,-2206.62L115.99,-2206.98L116.28,-2207.35L116.33,-2207.54L116.35,-2207.75L116.55,-2208.43L117.23,-2209.6L117.38,-2209.96L117.54,-2210.5L117.57,-2210.71L117.53,-2210.9L117.47,-2211.1L117.46,-2211.34L117.46,-2211.61L117.53,-2211.91L117.54,-2212.13L117.67,-2212.52L117.88,-2213.05L118.53,-2214.22L119.31,-2216.28L119.59,-2216.65L119.88,-2216.89L120.23,-2217.06L120.36,-2217.29L120.45,-2217.59L120.94,-2218.92L121.15,-2219.77L121.6,-2220.88L122.18,-2221.52L122.44,-2221.97L122.56,-2222.33L122.61,-2222.72L122.76,-2222.87L122.95,-2222.89L123.15,-2222.85L123.32,-2222.86L124.86,-2224.27L125.35,-2224.93L126.72,-2227.13L127.04,-2227.8L127.19,-2228.27L127.19,-2228.46L127.2,-2228.67L127.18,-2228.82L127.09,-2228.95L126.91,-2229.04L126.69,-2229.09L126.12,-2229.13L125.95,-2229.18L125.82,-2229.62L126.41,-2230.14L126.61,-2231.18L126.85,-2231.48L127.36,-2231.8L127.62,-2232.34L127.68,-2232.57L127.59,-2232.69L127.46,-2232.66L127.26,-2232.58L127.1,-2232.62L126.94,-2232.78L126.91,-2233.36L127.06,-2233.75L127.42,-2234.41L127.65,-2234.64L127.85,-2234.72L127.99,-2234.59L128.03,-2234.43L128.02,-2234.22L128.03,-2234.07L128.13,-2234.03L128.28,-2234.1L128.45,-2234.26L128.61,-2234.37L129.09,-2234.6L129.26,-2234.87L129.5,-2235.46L129.81,-2235.94L130.45,-2236.69L130.77,-2237.15L130.99,-2237.52L131.04,-2238.01L131.12,-2238.39L131.65,-2238.96L132,-2239.19L132.39,-2239.2L132.79,-2238.95L133.24,-2238.56L133.52,-2238.27L133.85,-2237.74L137.94,-2233.4L138.58,-2232.35L138.39,-2232.23L138.16,-2232.15L137.89,-2232.08L137.6,-2232.07L137.36,-2232.12L137.1,-2232.22L136.86,-2232.25L136.4,-2232.21L136.23,-2232.24L136.09,-2232.12L136.02,-2231.62L136.59,-2224.94L136.97,-2224.13L136.97,-2224.13z"/>
		<path id="IRQ-4" title="As-Sulaymaniyah" class="land" d="M96.08,-2334.21L96.08,-2334.21L97.82,-2334.35L101.16,-2335.68L102.67,-2335.57L103.72,-2334.24L104.36,-2332.39L104.65,-2330.67L104.8,-2327.48L105.22,-2326.19L106.34,-2324.76L104.89,-2323.82L105.23,-2322.93L106.34,-2322.06L107.21,-2321.19L107.49,-2319.78L107.34,-2316.37L107.64,-2314.81L109.49,-2312.4L110.25,-2310.91L110.01,-2309.43L109.27,-2308.26L108.54,-2306.74L108.19,-2305.22L108.57,-2304.03L108.57,-2304.02L108.57,-2304.02L108.58,-2304.01L108.59,-2304.01L109.64,-2302.93L110.92,-2302.75L112.25,-2303.2L113.43,-2304.01L113.43,-2304.01L113.45,-2304.01L113.45,-2304.02L113.46,-2304.03L114.52,-2304.33L116.5,-2305.31L118.06,-2305.34L119.38,-2304.85L121.68,-2304.01L123.89,-2301.96L124.66,-2301.48L126.28,-2301.17L128.06,-2299.53L130.82,-2295.6L132.35,-2291.81L133.08,-2290.84L134.15,-2290.53L136.4,-2291.21L137.07,-2291.08L138.04,-2290.41L139.27,-2290.5L140.42,-2291.07L141.87,-2292.32L142.47,-2292.29L143.09,-2292.09L143.7,-2292.03L145.62,-2292.69L149.42,-2292.52L150.61,-2292.91L151.77,-2293.57L152.73,-2293.94L153.71,-2293.92L155.55,-2293.21L155.99,-2293.14L156.27,-2292.88L156.57,-2291.38L156.82,-2290.87L157.19,-2290.46L157.68,-2290.06L158.88,-2289.54L160.16,-2289.59L162.69,-2290.15L163.82,-2290.56L164.84,-2291.28L165.91,-2291.81L167.2,-2291.68L168.19,-2290.97L168.63,-2289.98L168.51,-2288.83L167.82,-2287.63L166.87,-2286.78L165.06,-2285.62L164.24,-2284.41L163.31,-2283.52L162.07,-2283.37L159.73,-2283.51L156.74,-2281.91L155.51,-2281.63L151.34,-2281.76L150.11,-2281.33L149.35,-2280.48L148.88,-2279.32L148.67,-2278.03L148.67,-2276.82L149.25,-2274L149.08,-2272.99L147.26,-2273.55L146.97,-2273.55L146.7,-2273.47L147.22,-2271.99L147.89,-2270.6L148.12,-2270.29L148.2,-2269.98L148.12,-2269.68L147.89,-2269.39L147.41,-2269.03L147.1,-2268.54L146.95,-2267.95L146.98,-2267.28L147.75,-2265.16L151.57,-2259.03L154.87,-2256.08L156.29,-2254.42L156.72,-2252.27L156.6,-2251.97L156.29,-2251.23L155.55,-2250.35L155.02,-2249.42L155.18,-2248.27L156.01,-2247.69L158.32,-2247.71L159.22,-2246.95L159,-2245.03L157.7,-2242.82L156.9,-2240.76L158.13,-2239.31L157.66,-2238.43L157.02,-2238.09L156.28,-2237.94L154.76,-2237.43L153.7,-2237.72L153.1,-2237.65L151.5,-2236.68L150.62,-2235.86L149.67,-2235.62L147.89,-2236.39L147.12,-2236.33L146.5,-2236.59L145.24,-2237.41L144.36,-2237.71L143.95,-2237.54L143.12,-2236.18L143.06,-2235.84L143.23,-2234.94L143.1,-2234.6L142.75,-2234.41L141.91,-2234.33L141.52,-2234.2L140.89,-2233.57L140.6,-2232.73L140.58,-2231.77L140.76,-2230.77L140.76,-2230.76L141.31,-2228.88L141.15,-2227.51L140.64,-2226.18L140.19,-2224.4L139.28,-2223.19L137.67,-2223.75L136.97,-2224.13L136.97,-2224.13L136.59,-2224.94L136.02,-2231.62L136.09,-2232.12L136.23,-2232.24L136.4,-2232.21L136.86,-2232.25L137.1,-2232.22L137.36,-2232.12L137.6,-2232.07L137.89,-2232.08L138.16,-2232.15L138.39,-2232.23L138.58,-2232.35L137.94,-2233.4L133.85,-2237.74L133.52,-2238.27L133.24,-2238.56L132.79,-2238.95L132.39,-2239.2L132,-2239.19L131.65,-2238.96L131.12,-2238.39L131.04,-2238.01L130.99,-2237.52L130.77,-2237.15L130.45,-2236.69L129.81,-2235.94L129.5,-2235.46L129.26,-2234.87L129.09,-2234.6L128.61,-2234.37L128.45,-2234.26L128.28,-2234.1L128.13,-2234.03L128.03,-2234.07L128.02,-2234.22L128.03,-2234.43L127.99,-2234.59L127.85,-2234.72L127.65,-2234.64L127.42,-2234.41L127.06,-2233.75L126.91,-2233.36L126.94,-2232.78L127.1,-2232.62L127.26,-2232.58L127.46,-2232.66L127.59,-2232.69L127.68,-2232.57L127.62,-2232.34L127.36,-2231.8L126.85,-2231.48L126.61,-2231.18L126.41,-2230.14L125.82,-2229.62L125.95,-2229.18L126.12,-2229.13L126.69,-2229.09L126.91,-2229.04L127.09,-2228.95L127.18,-2228.82L127.2,-2228.67L127.19,-2228.46L127.19,-2228.27L127.04,-2227.8L126.72,-2227.13L125.35,-2224.93L124.86,-2224.27L123.32,-2222.86L123.15,-2222.85L122.95,-2222.89L122.76,-2222.87L122.61,-2222.72L122.56,-2222.33L122.44,-2221.97L122.18,-2221.52L121.6,-2220.88L121.15,-2219.77L120.94,-2218.92L120.45,-2217.59L120.36,-2217.29L120.23,-2217.06L119.88,-2216.89L119.59,-2216.65L119.31,-2216.28L118.53,-2214.22L117.88,-2213.05L117.67,-2212.52L117.54,-2212.13L117.53,-2211.91L117.46,-2211.61L117.46,-2211.34L117.47,-2211.1L117.53,-2210.9L117.57,-2210.71L117.54,-2210.5L117.38,-2209.96L117.23,-2209.6L116.55,-2208.43L116.35,-2207.75L116.33,-2207.54L116.28,-2207.35L115.99,-2206.98L115.56,-2206.62L114.45,-2205.99L113.84,-2205.75L113.32,-2205.63L112.95,-2205.62L112.35,-2205.48L112.13,-2205.46L111.69,-2205.5L110.89,-2204.81L104.39,-2196.97L102.44,-2195.81L102.27,-2196.93L102.16,-2197.27L102.01,-2197.49L101.77,-2197.54L101.58,-2197.54L101.36,-2197.57L100.9,-2197.72L100.73,-2197.87L100.59,-2198.19L100.58,-2198.47L101.01,-2199.26L101.18,-2199.74L101.27,-2200.18L101.28,-2200.58L101.24,-2200.94L100.88,-2202.02L100.8,-2202.46L100.79,-2202.88L100.87,-2203.22L101.03,-2203.55L101.86,-2204.47L102.12,-2204.85L102.22,-2205.13L102.22,-2205.44L101.54,-2207.29L101.21,-2208.94L101.16,-2209.44L101.14,-2209.78L101.18,-2210.13L101.17,-2210.59L100.92,-2212.22L100.75,-2214.79L100.55,-2215.45L100.05,-2216.22L99.59,-2216.8L98.78,-2217.49L98.19,-2217.8L97.44,-2218.04L96.17,-2218.2L95.49,-2218.13L94.96,-2217.98L93.57,-2217.15L93.22,-2217.05L92.81,-2217.14L92.43,-2217.43L91.86,-2218.2L90.62,-2219.45L87.44,-2221.54L87.3,-2226.71L87.49,-2227.69L87.53,-2228.02L87.48,-2228.3L87.33,-2228.62L86.61,-2229.49L81.48,-2233.09L79.25,-2233.5L72.72,-2233.78L71.69,-2233.41L70.35,-2233.78L69.37,-2234.24L63.35,-2240.59L66,-2242.83L70.64,-2244.3L71.27,-2244.91L71.44,-2245.52L71.03,-2246.53L70.94,-2247.07L70.98,-2247.69L71.21,-2248.36L71.82,-2249.28L72.54,-2249.79L73.09,-2250.09L73.54,-2250.23L73.75,-2250.55L73.91,-2251L74.08,-2251.98L74.73,-2253.53L74.98,-2254.66L74.74,-2255.75L74.37,-2256.99L74.2,-2258.07L74.65,-2259.5L76.83,-2262.46L77.44,-2263.69L77.75,-2264.71L77.68,-2265.55L76.53,-2267.13L75.26,-2268.56L74.86,-2269.3L74.71,-2270.02L74.92,-2272.13L75.11,-2274.76L75.35,-2275.62L75.48,-2277.5L75.72,-2278.27L76.73,-2280.09L76.67,-2281.32L76.18,-2282.77L73.41,-2285.24L72.05,-2287.11L70.53,-2288.77L67.24,-2296.03L68.33,-2296.54L68.51,-2296.51L68.78,-2296.38L68.95,-2296.14L69.19,-2295.9L69.41,-2295.94L70.07,-2296.32L70.32,-2296.31L70.5,-2296.19L70.6,-2296.03L70.62,-2295.86L70.61,-2295.68L70.63,-2295.46L70.85,-2295.16L71.14,-2295.11L71.49,-2295.16L72.91,-2295.6L73.38,-2295.58L73.68,-2295.49L73.99,-2294.99L74.33,-2294.7L74.65,-2294.67L74.99,-2294.8L75.31,-2295.01L75.82,-2295.2L76.19,-2295.17L76.46,-2295.06L76.72,-2294.78L76.94,-2294.44L77.42,-2294.06L77.7,-2294.03L77.88,-2294.19L77.93,-2294.43L77.99,-2294.92L78.09,-2295.15L78.25,-2295.39L78.51,-2295.62L78.69,-2295.63L78.91,-2295.55L79.1,-2295.4L79.21,-2295.2L79.27,-2294.11L79.39,-2293.71L79.54,-2293.61L79.72,-2293.66L80.29,-2294.24L81.21,-2294.56L81.54,-2295.02L81.48,-2295.2L80.83,-2296.4L80.87,-2296.6L81.04,-2296.7L81.51,-2296.79L81.72,-2296.78L82.09,-2296.61L82.3,-2296.59L82.94,-2296.68L83.23,-2296.63L83.43,-2296.51L83.71,-2296.21L83.84,-2296.11L83.97,-2296.02L84.08,-2295.86L84.4,-2295.66L84.97,-2295.49L86.33,-2295.46L86.96,-2295.55L87.39,-2295.7L87.77,-2296.01L87.89,-2296.22L88.02,-2296.65L88.11,-2296.82L88.14,-2296.99L88.12,-2297.19L88.04,-2297.4L87.64,-2297.89L83.6,-2299.91L82.12,-2300.94L80.24,-2302.72L75.87,-2308.01L75.3,-2308.48L74.59,-2308.95L73.23,-2309.54L67.25,-2313.81L66.93,-2314.49L66.67,-2315.42L67.95,-2316.46L68.41,-2316.93L68.75,-2317.43L69.05,-2318.03L69.52,-2318.38L70.9,-2319.03L71.46,-2319.66L71.29,-2320.27L70.95,-2320.83L67.96,-2324.46L67.37,-2324.96L66.74,-2324.98L66.35,-2324.7L65.77,-2324.03L62.34,-2329.29L62.01,-2330.15L62.03,-2331.72L63.99,-2333.47L64.66,-2334.44L65.81,-2335.79L67.63,-2337.18L68.88,-2337.59L69.86,-2337.44L71.57,-2336.94L74.29,-2337.38L76.9,-2338.07L80,-2339.63L81.32,-2339.92L82.54,-2339.95L85.08,-2339.31L87.14,-2339.17L88,-2339.49L88.67,-2339.97L89.47,-2341.2L89.8,-2341.93L90.04,-2342.63L90.04,-2342.64L90.99,-2341.82L91.75,-2340.99L91.81,-2339.94L92.19,-2339.33L92.7,-2338.84L93.18,-2338.12L93.46,-2337.16L93.56,-2336.43L93.79,-2335.76L94.47,-2334.97L96.08,-2334.21z"/>
		<path id="IRQ-5" title="Wasit" class="land" d="M154.44,-2095.5L154.44,-2095.5L153.44,-2095.58L152.13,-2095.46L150.93,-2094.79L150.87,-2093.92L151.7,-2093.21L154.33,-2092.9L155.45,-2092.43L156.31,-2091.66L156.65,-2090.68L156.25,-2089.47L155.37,-2088.55L154.37,-2087.74L153.64,-2086.88L153.64,-2086.86L154.91,-2084.02L158.4,-2083.59L165.43,-2084.39L171.77,-2082.42L177.71,-2079.58L179.39,-2077.89L184.95,-2074.66L184.95,-2074.66L184.02,-2073.03L183.47,-2072.33L182.14,-2071.4L181.7,-2070.71L177.82,-2058.93L177.45,-2055.54L177.53,-2051.23L177.45,-2050.47L177.25,-2049.75L177.05,-2048.73L176.87,-2048.29L176.04,-2046.99L175.67,-2046.18L175.61,-2045.56L176.13,-2045.01L177.11,-2044.21L177.39,-2043.78L177.62,-2043.22L177.53,-2042.61L175.02,-2035.38L174.69,-2034.11L174.88,-2033.06L175.98,-2032.17L183.25,-2029.01L184.42,-2027.26L185.13,-2025.95L183.53,-2015.38L182.27,-2015.23L180.02,-2015.8L177.88,-2016.91L175.5,-2017.2L168.06,-2016.92L152.56,-2016.87L150.57,-2016.19L150.27,-2015.91L150.04,-2015.37L149.78,-2015.23L149.35,-2015.22L148.42,-2015.4L147.87,-2015.57L147.34,-2015.62L146.85,-2015.46L144.78,-2013.91L144.5,-2013.85L144.21,-2014.07L144.05,-2014.24L143.89,-2014.31L143.73,-2014.23L143.47,-2013.94L143.23,-2013.8L143,-2013.79L142.72,-2014.01L142.4,-2014.02L138.74,-2012.48L132.76,-2012.87L129.95,-2019.4L129.92,-2019.84L130.14,-2020.16L130.58,-2020.54L130.4,-2021.39L126.28,-2022.61L122.52,-2024L121.57,-2024.62L121,-2025.49L120.27,-2026.82L119.18,-2028.28L113.24,-2033.9L112.35,-2034.94L112.03,-2036L112.18,-2037L112.97,-2038.9L113.07,-2039.57L112.85,-2040.15L111.54,-2040.55L110.85,-2041.6L106.64,-2042.11L105.14,-2042.75L104.76,-2043.87L101.31,-2044.34L101.21,-2045.81L101.04,-2048.03L100.27,-2048.04L96.71,-2048.2L95.71,-2048.49L94.75,-2049.16L93.6,-2050.32L92.56,-2051.64L90.23,-2056.9L87.68,-2065.39L87.31,-2066.16L86.5,-2067.05L85.65,-2067.73L84.12,-2068.6L82.18,-2069.42L81.87,-2069.96L81.35,-2070.14L79.17,-2070.34L76.16,-2071.3L72.37,-2073.48L71.96,-2073.58L63.51,-2074.18L63.15,-2074.31L62.86,-2074.54L62.45,-2074.93L62.06,-2076.05L61.69,-2077.8L61.49,-2085L61.04,-2087.12L62.04,-2087.69L63.36,-2087.29L63.53,-2087.37L63.79,-2087.56L64.02,-2087.99L64.31,-2088.69L64.9,-2089.68L65.49,-2091.53L65.92,-2092.54L66.34,-2092.76L66.71,-2092.09L67.22,-2090.69L67.54,-2090.05L67.92,-2089.53L68.38,-2089.1L68.93,-2088.73L69.55,-2088.41L70.22,-2088.2L70.9,-2088.17L71.53,-2088.41L72.2,-2088.98L72.48,-2089.09L72.13,-2090.16L71.94,-2090.5L71.61,-2091.28L72.16,-2092.13L73.22,-2093.18L75.81,-2095.18L77.12,-2097.12L78.45,-2098.75L79.62,-2099.68L81.4,-2099.59L88.28,-2097.9L90.37,-2097.74L96.16,-2098.39L114.86,-2092.98L118.32,-2091.96L118.81,-2092.16L119.5,-2092.54L120.24,-2093.52L121.2,-2094.55L123.49,-2096.5L123.9,-2096.93L125.27,-2099L126.83,-2100.91L127.63,-2102.08L128.18,-2103.58L128.42,-2104.58L128.81,-2105.35L129.38,-2106.18L131.47,-2108.69L132.13,-2109.71L132.47,-2110.08L132.74,-2110.21L132.99,-2110.15L133.24,-2110.03L133.47,-2109.98L133.72,-2110.01L134.63,-2110.42L135.33,-2110.87L135.83,-2111.34L136.47,-2112.12L139.26,-2114.18L139.74,-2114.4L140.09,-2114.53L140.42,-2114.55L140.93,-2114.68L141.64,-2114.97L143.05,-2115.82L143.69,-2116.33L144.12,-2116.87L144.83,-2119.43L145.06,-2119.88L146.01,-2121.51L147,-2122.64L147.01,-2122.64L147.23,-2122.52L147.42,-2122.41L147.6,-2122.27L149.6,-2119.76L150.28,-2118.53L150.76,-2117.18L150.94,-2115.72L150.98,-2114.53L151.29,-2113.49L153.28,-2111.56L155.66,-2108.19L157.56,-2106.65L158.39,-2105.8L158.92,-2104.6L158.93,-2103.87L158.57,-2102.5L158.53,-2101.91L158.79,-2101.25L159.49,-2100.81L159.52,-2100.17L159.1,-2099.25L158.28,-2098.25L156.67,-2096.65L155.41,-2095.69L154.44,-2095.5z"/>
		<path id="IRQ-6" title="Maysan" class="land" d="M212.26,-2051.41L212.26,-2051.41L212.27,-2051.41L212.27,-2051.41L214.18,-2050.01L215.99,-2049.05L217.87,-2048.64L219.98,-2048.86L221.03,-2049.26L223.76,-2050.78L224.6,-2050.72L227.98,-2049.56L229.25,-2048.88L230.02,-2048L230.68,-2046.91L231.69,-2045.62L233.28,-2044.4L233.61,-2043.89L233.71,-2043.07L233.49,-2042.61L233.16,-2042.22L232.63,-2040.91L232.39,-2040.64L232.38,-2040.29L232.78,-2039.33L233.05,-2038.93L234.83,-2037.23L235.11,-2036.84L235.34,-2036.45L236.39,-2034.98L236.78,-2034.58L237.35,-2034.29L237.68,-2033.4L238.84,-2032.51L239.15,-2031.59L239.06,-2030.61L238.74,-2029.93L238.38,-2029.31L238.15,-2028.54L238.03,-2027.56L238.08,-2027L238.49,-2026.69L239.42,-2026.42L240.19,-2025.93L240.67,-2025.21L241.2,-2024.6L242.1,-2024.49L243.25,-2024.01L243.38,-2023.82L244.27,-2022.55L245.63,-2019.48L246.54,-2018.43L248.62,-2017.41L249.21,-2016.17L249.21,-2016.15L249.49,-2014.92L251.63,-2011.08L252.03,-2010.52L253.11,-2009.81L253.57,-2009.38L253.9,-2008.75L254.21,-2007.52L254.42,-2006.99L255.38,-2005.92L257.73,-2004.14L258.55,-2002.89L258.72,-2001.4L258.36,-1999.81L249.27,-1975.02L249.12,-1963.06L249.1,-1963.06L240.83,-1965.18L232.32,-1966.03L229.63,-1965.81L221.36,-1963.65L219.29,-1962.67L218.07,-1961.64L216.96,-1959.9L216.3,-1955.62L205.85,-1956.36L199.58,-1956.27L197.24,-1957.49L196.42,-1958.29L193.83,-1960.38L193.42,-1960.92L193.2,-1961.42L193.07,-1962L193,-1962.67L193.01,-1963.4L193.27,-1965.89L193.3,-1966.66L193.24,-1967.28L193.04,-1967.9L192.69,-1968.61L191.93,-1969.64L191.25,-1970.31L190.52,-1970.88L185.21,-1974.2L184.25,-1977.08L184.22,-1977.73L184.29,-1978.64L184.91,-1979.91L185.23,-1980.77L185.46,-1982.19L185.3,-1983.27L184.86,-1984.38L184.23,-1985.15L182.31,-1986.76L181.33,-1987.75L179.48,-1990.75L179.12,-1991.14L177.27,-1992.22L174.93,-1994.86L173.56,-1998.4L173.76,-1999.35L173.84,-2001L169.23,-2008.66L167.67,-2012L168.25,-2013.18L169.24,-2013.77L170.22,-2014.03L170.12,-2014.62L169.39,-2015.59L168.06,-2016.92L175.5,-2017.2L177.88,-2016.91L180.02,-2015.8L182.27,-2015.23L183.53,-2015.38L185.13,-2025.95L184.42,-2027.26L183.25,-2029.01L175.98,-2032.17L174.88,-2033.06L174.69,-2034.11L175.02,-2035.38L177.53,-2042.61L177.62,-2043.22L177.39,-2043.78L177.11,-2044.21L176.13,-2045.01L175.61,-2045.56L175.67,-2046.18L176.04,-2046.99L176.87,-2048.29L177.05,-2048.73L177.25,-2049.75L177.45,-2050.47L177.53,-2051.23L177.45,-2055.54L177.82,-2058.93L181.7,-2070.71L182.14,-2071.4L183.47,-2072.33L184.02,-2073.03L184.95,-2074.66L184.95,-2074.66L185.18,-2074.53L187.92,-2072.3L191.83,-2069.94L194.3,-2067.11L212.26,-2051.41z"/>
		<path id="IRQ-7" title="Dhi-Qar" class="land" d="M199.58,-1956.27L199.58,-1956.27L205.85,-1956.36L216.3,-1955.62L216.81,-1949.84L216.06,-1935.37L214.54,-1927.52L214.17,-1925.54L214.09,-1923.99L214.41,-1918.93L214.05,-1916.99L212.24,-1916.65L203.97,-1918.16L202.88,-1918.2L183.4,-1912.85L181.43,-1912.38L180.63,-1912.41L179.86,-1913.01L179.22,-1913.91L176.75,-1918.99L171.28,-1928.06L161.69,-1931.45L132.41,-1935.29L131.59,-1945L131.93,-1946.52L132.18,-1948.59L132.5,-1949.87L132.79,-1951.66L133.24,-1952.6L134.15,-1952.7L135.35,-1952.27L136.09,-1952.39L136.51,-1953.1L136.86,-1955.24L136.93,-1956.46L136.73,-1957.17L136.38,-1957.35L135.89,-1957.57L135.19,-1958.14L134.96,-1958.39L133.81,-1958.86L133.66,-1959.61L134.34,-1961.85L137.76,-1969.97L134.48,-1970.12L132.81,-1970.41L132.65,-1971.39L133.31,-1972.68L137.42,-1977.85L137.62,-1978.65L137.55,-1979.58L137.14,-1981.72L136.83,-1982.51L136.49,-1982.97L136.14,-1983.05L135.83,-1983.18L135.62,-1983.58L135.61,-1984.21L135.98,-1985.72L136.28,-1986.27L136.62,-1986.53L136.95,-1986.4L137.26,-1986.2L137.86,-1985.73L138.12,-1985.67L138.35,-1985.76L138.48,-1986.11L138.54,-1986.62L138.45,-1987.55L138.49,-1988.53L138.56,-1988.87L138.23,-1989.89L136.34,-1992.08L134.71,-2001.36L132.33,-2008.68L132.27,-2010.13L132.36,-2011.14L132.76,-2012.87L138.74,-2012.48L142.4,-2014.02L142.72,-2014.01L143,-2013.79L143.23,-2013.8L143.47,-2013.94L143.73,-2014.23L143.89,-2014.31L144.05,-2014.24L144.21,-2014.07L144.5,-2013.85L144.78,-2013.91L146.85,-2015.46L147.34,-2015.62L147.87,-2015.57L148.42,-2015.4L149.35,-2015.22L149.78,-2015.23L150.04,-2015.37L150.27,-2015.91L150.57,-2016.19L152.56,-2016.87L168.06,-2016.92L169.39,-2015.59L170.12,-2014.62L170.22,-2014.03L169.24,-2013.77L168.25,-2013.18L167.67,-2012L169.23,-2008.66L173.84,-2001L173.76,-1999.35L173.56,-1998.4L174.93,-1994.86L177.27,-1992.22L179.12,-1991.14L179.48,-1990.75L181.33,-1987.75L182.31,-1986.76L184.23,-1985.15L184.86,-1984.38L185.3,-1983.27L185.46,-1982.19L185.23,-1980.77L184.91,-1979.91L184.29,-1978.64L184.22,-1977.73L184.25,-1977.08L185.21,-1974.2L190.52,-1970.88L191.25,-1970.31L191.93,-1969.64L192.69,-1968.61L193.04,-1967.9L193.24,-1967.28L193.3,-1966.66L193.27,-1965.89L193.01,-1963.4L193,-1962.67L193.07,-1962L193.2,-1961.42L193.42,-1960.92L193.83,-1960.38L196.42,-1958.29L197.24,-1957.49L199.58,-1956.27z"/>
		<path id="IRQ-8" title="Al-Qadisiyah" class="land" d="M101.31,-2044.34L101.31,-2044.34L104.76,-2043.87L105.14,-2042.75L106.64,-2042.11L110.85,-2041.6L111.54,-2040.55L112.85,-2040.15L113.07,-2039.57L112.97,-2038.9L112.18,-2037L112.03,-2036L112.35,-2034.94L113.24,-2033.9L119.18,-2028.28L120.27,-2026.82L121,-2025.49L121.57,-2024.62L122.52,-2024L126.28,-2022.61L130.4,-2021.39L130.58,-2020.54L130.14,-2020.16L129.92,-2019.84L129.95,-2019.4L132.76,-2012.87L132.36,-2011.14L132.27,-2010.13L132.33,-2008.68L134.71,-2001.36L136.34,-1992.08L135.85,-1991.54L134.56,-1991.1L132.01,-1991.07L121.45,-1994.54L106.89,-1997.41L102.6,-1997.55L101.99,-1996.49L92.34,-1994.17L90.96,-1994.01L91.64,-1993.32L92.21,-1993L93.27,-1992.6L93.68,-1992.36L94.05,-1991.74L94.32,-1990.93L94.73,-1990.22L96.04,-1989.61L95.95,-1988.56L95.03,-1986.05L93.18,-1982.39L89.44,-1972.15L88.18,-1964.88L83.34,-1967.49L73.18,-1974.99L61.71,-1979.74L60.6,-1980.46L56.72,-1985.06L55.43,-1987.44L55.73,-1989.08L57.05,-1990.58L58.32,-1990.89L59.95,-1990.26L60.97,-1989.65L62.14,-1991.32L61.34,-1996.56L61.38,-2000.98L61.62,-2003.26L59.62,-2013.21L60.04,-2015.42L60.54,-2017.12L61.02,-2017.83L62.19,-2018.3L64.36,-2019.76L66.08,-2020.42L66.4,-2020.63L66.41,-2020.95L66.05,-2021.41L65.53,-2021.83L65.16,-2022.18L64.89,-2022.62L64.66,-2023.09L64.66,-2023.52L64.81,-2023.89L65.42,-2024.27L65.79,-2024.34L66.07,-2024.35L66.32,-2024.65L66.52,-2024.93L67.4,-2027.76L69.19,-2027.19L72.49,-2025.18L73.27,-2024.89L73.98,-2024.9L74.54,-2025.09L75.04,-2025.37L75.44,-2025.74L76.59,-2027.16L76.94,-2027.44L77.84,-2027.98L78.16,-2028.25L78.41,-2028.63L78.46,-2029.15L78.38,-2029.8L77.9,-2030.22L77.64,-2030.53L77.54,-2030.85L77.72,-2031.34L78.06,-2031.96L78.64,-2032.59L79.08,-2032.79L79.44,-2032.76L79.78,-2032.47L80.46,-2031.77L80.83,-2031.59L81.24,-2031.82L82.99,-2033.49L85.6,-2035.49L89.44,-2037.06L94.57,-2040.5L94.97,-2040.88L95.7,-2041.76L96.41,-2042.3L99.08,-2043.92L99.92,-2044.25L100.43,-2044.39L101.31,-2044.34z"/>
		<path id="IRQ-9" title="Al-Muthannia" class="land" d="M132.01,-1991.07L132.01,-1991.07L134.56,-1991.1L135.85,-1991.54L136.34,-1992.08L138.23,-1989.89L138.56,-1988.87L138.49,-1988.53L138.45,-1987.55L138.54,-1986.62L138.48,-1986.11L138.35,-1985.76L138.12,-1985.67L137.86,-1985.73L137.26,-1986.2L136.95,-1986.4L136.62,-1986.53L136.28,-1986.27L135.98,-1985.72L135.61,-1984.21L135.62,-1983.58L135.83,-1983.18L136.14,-1983.05L136.49,-1982.97L136.83,-1982.51L137.14,-1981.72L137.55,-1979.58L137.62,-1978.65L137.42,-1977.85L133.31,-1972.68L132.65,-1971.39L132.81,-1970.41L134.48,-1970.12L137.76,-1969.97L134.34,-1961.85L133.66,-1959.61L133.81,-1958.86L134.96,-1958.39L135.19,-1958.14L135.89,-1957.57L136.38,-1957.35L136.73,-1957.17L136.93,-1956.46L136.86,-1955.24L136.51,-1953.1L136.09,-1952.39L135.35,-1952.27L134.15,-1952.7L133.24,-1952.6L132.79,-1951.66L132.5,-1949.87L132.18,-1948.59L131.93,-1946.52L131.59,-1945L132.41,-1935.29L161.69,-1931.45L171.28,-1928.06L176.75,-1918.99L179.22,-1913.91L179.86,-1913.01L180.63,-1912.41L181.43,-1912.38L183.4,-1912.85L184.39,-1908.57L185.36,-1902.18L185.86,-1900.23L186.63,-1898.49L192.49,-1889.92L193.01,-1888.62L193.36,-1887.24L193.55,-1885.47L193.54,-1883.5L188.66,-1857.46L187.92,-1850.52L187.87,-1841.73L187.61,-1839.97L185.41,-1836.15L184.71,-1834.58L184.23,-1832.8L182.94,-1819.02L182.63,-1817.34L182.62,-1817.29L180.88,-1815.35L178.27,-1814.79L175.66,-1814.23L174.61,-1814.01L173.05,-1813.68L170.45,-1813.12L164.16,-1813.69L159.62,-1814.1L155.07,-1814.51L150.53,-1814.93L145.98,-1815.34L139.87,-1815.89L133.76,-1816.45L127.64,-1817L121.53,-1817.56L115.42,-1818.11L109.3,-1818.67L103.19,-1819.22L97.08,-1819.78L92.33,-1820.2L87.58,-1820.64L82.84,-1821.07L78.08,-1821.5L72.62,-1821.99L72.23,-1822.14L71.86,-1822.29L71.47,-1822.45L71.09,-1822.59L66.5,-1826.3L60.83,-1830.9L55.13,-1835.5L49.45,-1840.1L43.76,-1844.71L36.93,-1850.25L30.1,-1855.8L23.27,-1861.35L19.33,-1864.55L20.09,-1865.88L33.19,-1888.86L43.93,-1919.86L46.05,-1924.09L48.49,-1927.29L49.43,-1928.24L52.38,-1930.39L55.98,-1931.91L56.39,-1932.2L59.3,-1936.75L61.62,-1939.49L64.39,-1942.01L67.23,-1947.06L68.67,-1950.4L73.18,-1974.99L83.34,-1967.49L88.18,-1964.88L89.44,-1972.15L93.18,-1982.39L95.03,-1986.05L95.95,-1988.56L96.04,-1989.61L94.73,-1990.22L94.32,-1990.93L94.05,-1991.74L93.68,-1992.36L93.27,-1992.6L92.21,-1993L91.64,-1993.32L90.96,-1994.01L92.34,-1994.17L101.99,-1996.49L102.6,-1997.55L106.89,-1997.41L121.45,-1994.54L132.01,-1991.07z"/>
		<path id="IRQ-10" title="Al-Basrah" class="land" d="M249.12,-1963.06L249.12,-1963.06L248.91,-1946.21L268.52,-1946.21L269.15,-1945.82L269.34,-1944.93L269.14,-1911.5L269.14,-1911.5L269.23,-1909.37L275.55,-1908.47L276.21,-1908.24L276.83,-1907.85L277.83,-1906.78L278.59,-1905.42L279.13,-1903.91L279.62,-1900.86L279.88,-1900.2L280.36,-1899.7L281.02,-1899.4L281.72,-1899.29L282.45,-1899.32L284.63,-1899.69L285.38,-1899.65L286.1,-1899.41L286.66,-1898.93L287.87,-1896.9L289.79,-1894.71L292.11,-1892.59L292.5,-1892L292.8,-1891.3L292.92,-1890.55L292.76,-1889.82L292.33,-1889.22L291.75,-1888.71L291.29,-1888.13L291.16,-1887.37L291.27,-1886.89L292.02,-1885.29L293.21,-1883.94L293.55,-1883.23L293.71,-1883.11L294.8,-1879.69L294.92,-1878.79L295.45,-1877.45L295.73,-1876.99L296.12,-1876.6L296.95,-1875.94L297.83,-1875.4L299.68,-1874.88L300.1,-1874.69L300.1,-1874.69L300.08,-1874.65L300.08,-1874.33L301.53,-1874.35L301.78,-1873.67L301.04,-1872.85L299.47,-1872.45L292.99,-1873.11L288.43,-1874.69L286.29,-1876.28L284.21,-1876.93L280.9,-1879.03L278.31,-1879.93L275.53,-1880.45L272.98,-1880.49L270.71,-1879.89L266.57,-1877.63L266.15,-1879.44L265.95,-1881.52L265.54,-1883.43L264.54,-1884.73L265.27,-1882.48L265.35,-1881.64L265.21,-1880.75L264.95,-1879.92L264.9,-1879.18L265.35,-1878.56L265.32,-1876.94L252.4,-1883.45L248.99,-1884.12L233.58,-1884.12L230.14,-1883.7L220.53,-1879.71L217.4,-1877.58L215.36,-1874.66L210.29,-1861.67L208.11,-1857.59L207.8,-1856.6L207.57,-1854.52L207.42,-1853.83L206.26,-1851.26L201.8,-1843.85L200.03,-1839.2L199.14,-1837.86L195.32,-1833.65L191.59,-1827.35L182.62,-1817.29L182.63,-1817.34L182.94,-1819.02L184.23,-1832.8L184.71,-1834.58L185.41,-1836.15L187.61,-1839.97L187.87,-1841.73L187.92,-1850.52L188.66,-1857.46L193.54,-1883.5L193.55,-1885.47L193.36,-1887.24L193.01,-1888.62L192.49,-1889.92L186.63,-1898.49L185.86,-1900.23L185.36,-1902.18L184.39,-1908.57L183.4,-1912.85L202.88,-1918.2L203.97,-1918.16L212.24,-1916.65L214.05,-1916.99L214.41,-1918.93L214.09,-1923.99L214.17,-1925.54L214.54,-1927.52L216.06,-1935.37L216.81,-1949.84L216.3,-1955.62L216.96,-1959.9L218.07,-1961.64L219.29,-1962.67L221.36,-1963.65L229.63,-1965.81L232.32,-1966.03L240.83,-1965.18L249.1,-1963.06L249.12,-1963.06z"/>
		<path id="IRQ-11" title="Baghdad" class="land" d="M59.31,-2115.12L59.31,-2115.12L61.19,-2116.56L61.39,-2116.36L61.64,-2116.04L61.72,-2115.23L61.87,-2114.58L62.19,-2113.58L62.23,-2113.37L62.19,-2113.26L62.16,-2113.1L62.1,-2112.24L61.8,-2111.54L61.88,-2109.43L61.95,-2107.27L61.8,-2106.74L61.62,-2106.27L61.34,-2106.09L61.12,-2106.11L61.1,-2106.31L61.25,-2106.53L61.25,-2107.17L60.84,-2106.03L60.97,-2105.43L61.21,-2104.93L61.23,-2104.63L61.16,-2104.35L60.79,-2103.91L60.6,-2103.72L60.03,-2102.88L59.94,-2099.8L59.94,-2099.8L50.04,-2100.3L48.51,-2100.73L47.74,-2100.85L46.96,-2100.74L46.26,-2101.49L44.67,-2102.5L43.97,-2103.19L43.38,-2104.42L43.09,-2105.87L43.08,-2107.37L43.32,-2108.74L44.03,-2110.14L45.92,-2112.18L46.48,-2113.57L46.48,-2113.93L46.4,-2114.25L49.5,-2115.1L50.28,-2117.61L50.69,-2118.1L51.03,-2118.04L55.31,-2117.86L55.9,-2117.75L57.09,-2117.1L57.09,-2117.09L59.31,-2115.12z"/>
		<path id="IRQ-12" title="Karbala'" class="land" d="M37.56,-2071.72L37.56,-2071.72L39.21,-2071.47L41.29,-2070.91L41.61,-2070.86L41.89,-2070.91L42.53,-2071.26L42.84,-2071.4L43.12,-2071.41L43.48,-2071.26L43.89,-2070.96L45.34,-2069.48L45.58,-2068.92L45.6,-2068.5L45.63,-2067.7L45.08,-2067.11L42.97,-2059.42L43.11,-2056.77L44.09,-2054.37L47.45,-2049.44L47.87,-2048.02L47.3,-2046.61L47.01,-2045.45L47.45,-2043.97L48.69,-2041.52L48.88,-2040.76L48.16,-2038.99L48.06,-2038.56L47.79,-2037.77L47.51,-2037.39L47.01,-2037.69L46.29,-2038.33L44.74,-2038.14L39.17,-2036.4L11.37,-2028.4L8.49,-2030.86L-1.35,-2038.26L-15.4,-2052.52L-16.84,-2054.68L-17.26,-2056.83L-14.08,-2058.51L-11.28,-2059.58L-3.98,-2060.61L-2.71,-2060.79L-2.05,-2060.98L-0.44,-2062.04L10.72,-2071.93L15.45,-2074.25L20.5,-2074.88L27.33,-2074.89L37.56,-2071.72z"/>
		<path id="IRQ-13" title="An-Najaf" class="land" d="M52.11,-2026.75L52.11,-2026.75L54.23,-2028.78L55.47,-2029.63L55.74,-2029.61L56.24,-2029.71L56.7,-2029.66L59.63,-2031.77L61.26,-2030.91L62.59,-2029.78L64.37,-2028.76L67.4,-2027.76L66.52,-2024.93L66.32,-2024.65L66.07,-2024.35L65.79,-2024.34L65.42,-2024.27L64.81,-2023.89L64.66,-2023.52L64.66,-2023.09L64.89,-2022.62L65.16,-2022.18L65.53,-2021.83L66.05,-2021.41L66.41,-2020.95L66.4,-2020.63L66.08,-2020.42L64.36,-2019.76L62.19,-2018.3L61.02,-2017.83L60.54,-2017.12L60.04,-2015.42L59.62,-2013.21L61.62,-2003.26L61.38,-2000.98L61.34,-1996.56L62.14,-1991.32L60.97,-1989.65L59.95,-1990.26L58.32,-1990.89L57.05,-1990.58L55.73,-1989.08L55.43,-1987.44L56.72,-1985.06L60.6,-1980.46L61.71,-1979.74L73.18,-1974.99L68.67,-1950.4L67.23,-1947.06L64.39,-1942.01L61.62,-1939.49L59.3,-1936.75L56.39,-1932.2L55.98,-1931.91L52.38,-1930.39L49.43,-1928.24L48.49,-1927.29L46.05,-1924.09L43.93,-1919.86L33.19,-1888.86L20.09,-1865.88L19.33,-1864.55L16.43,-1866.9L9.6,-1872.46L2.77,-1878.02L-4.07,-1883.59L-10.9,-1889.16L-16.16,-1893.45L-21.42,-1897.74L-26.67,-1902.04L-31.93,-1906.34L-38.23,-1911.5L-38.24,-1911.5L-38.25,-1911.5L-38.25,-1911.51L-42.74,-1915.41L-42.3,-1916.11L-40.75,-1919.83L-36.88,-1927.07L-35.1,-1931.35L-34.34,-1933.78L-33.61,-1939.91L-33.41,-1940.6L-32.96,-1941.64L-30.91,-1945.16L-27.55,-1949.92L-27.11,-1950.88L-26.72,-1952.34L-26.31,-1955.75L-26.11,-1956.62L-23.77,-1962.83L-23.51,-1964.33L-23.56,-1965.36L-23.78,-1965.86L-23.89,-1966.46L-23.89,-1967.38L-23.73,-1968.58L-23.17,-1970.27L-16.84,-1983.89L-15.96,-1986.48L-15.63,-1988.44L-15.55,-1990.67L-14.7,-1992.21L-5.42,-2006.02L-3.7,-2007.89L-2.59,-2008.74L-1.63,-2009.2L-0.38,-2009.31L0.08,-2009.42L1.86,-2010.59L2.56,-2010.89L6.36,-2011.49L7.32,-2011.85L8.12,-2012.34L9.64,-2013.57L15.19,-2016.66L16.21,-2017.64L17.27,-2018.91L17.58,-2021.02L17.64,-2022.41L11.37,-2028.4L39.17,-2036.4L44.74,-2038.14L46.29,-2038.33L47.01,-2037.69L47.51,-2037.39L47.79,-2037.77L48.06,-2038.56L48.16,-2038.99L48.88,-2040.76L49.73,-2037.38L50.13,-2036.7L50.5,-2036.33L50.26,-2035.12L48.82,-2034.31L48.38,-2033.6L48.48,-2032.83L48.95,-2031.52L50.08,-2029.7L50.47,-2029.25L50.91,-2028.56L51.21,-2027.96L52.11,-2026.75z"/>
		<path id="IRQ-14" title="Sala ad-Din" class="land" d="M-8.46,-2264.64L-8.46,-2264.64L-9.55,-2264.04L-10.54,-2262.39L-11.07,-2262.34L-11.43,-2262.49L-11.76,-2263.02L-11.77,-2263.36L-11.82,-2263.68L-12.06,-2264.08L-12.13,-2264.28L-12.17,-2264.52L-12.34,-2264.81L-12.58,-2264.95L-13.49,-2265.26L-13.88,-2264.17L-13.61,-2263.5L-13.64,-2263.08L-13.78,-2262.65L-13.88,-2261.92L-13.75,-2261.22L-13.47,-2260.84L-13.19,-2260.63L-13.06,-2260.44L-12.77,-2259.89L-11.26,-2258.22L-10.58,-2257.63L-8.91,-2256.94L-8.06,-2256.36L-7.7,-2255.43L-7.76,-2255.22L-7.93,-2255.14L-8.14,-2255.07L-8.35,-2254.9L-8.53,-2254.46L-8.41,-2254.17L-8.2,-2253.94L-8.14,-2253.63L-8.36,-2252.56L-8.54,-2252.12L-8.92,-2251.64L-5.86,-2251.12L-4.62,-2250.54L-4.84,-2249.14L-5.36,-2248.79L-6.04,-2248.56L-6.63,-2248.2L-6.88,-2247.4L-6.66,-2246.75L-6.14,-2245.83L-5.54,-2245.01L-5.07,-2244.66L-1.15,-2240.4L-0.36,-2239.25L1.2,-2238.52L2.28,-2237.74L2.85,-2236.87L4.22,-2235.95L8.84,-2233.81L20.75,-2226.65L24.64,-2224.31L28.83,-2222.72L33.89,-2220.45L37.51,-2218.23L42.49,-2213.21L47.03,-2209.7L47.63,-2209.54L48.53,-2209.56L49.88,-2211.17L50.13,-2211.55L50.11,-2211.73L49.49,-2211.81L49.27,-2211.89L49.16,-2212.03L49.14,-2212.21L49.25,-2212.53L49.23,-2212.69L49.01,-2213.16L48.96,-2213.47L49.16,-2214.26L49.21,-2214.65L49.18,-2215.36L49.25,-2215.64L49.43,-2215.92L50.18,-2216.59L50.52,-2217.02L50.73,-2217.43L50.93,-2218.16L51.87,-2219.49L52.56,-2219.87L52.77,-2220.14L52.86,-2220.37L52.87,-2220.56L52.95,-2220.74L53.23,-2221.18L53.27,-2221.43L53.22,-2221.68L53.25,-2221.81L53.27,-2222L53.51,-2222.55L53.71,-2222.91L53.72,-2223.14L53.7,-2223.33L53.72,-2223.46L53.77,-2223.63L53.84,-2224.23L54.76,-2225.66L56.04,-2226.95L57.35,-2228.85L57.8,-2229.3L58.53,-2229.77L59.45,-2230.22L61.08,-2231.45L61.66,-2232.35L61.71,-2233.43L60.51,-2236.28L60.45,-2237.3L60.75,-2238.6L61.24,-2239.38L61.8,-2240.08L62.24,-2240.39L62.6,-2240.56L63.35,-2240.59L69.37,-2234.24L70.35,-2233.78L71.69,-2233.41L72.72,-2233.78L79.25,-2233.5L81.48,-2233.09L86.61,-2229.49L87.33,-2228.62L87.48,-2228.3L87.53,-2228.02L87.49,-2227.69L87.3,-2226.71L87.44,-2221.54L84.62,-2218.94L82.66,-2217.92L81.11,-2217.32L80.41,-2216.76L80.02,-2216.19L79.98,-2215.71L80.05,-2215.24L80.1,-2214.64L79.85,-2213.84L79.05,-2212.5L77.89,-2211.31L77.04,-2210.61L76.31,-2210.3L74.63,-2209.8L73.41,-2209.1L72.83,-2208.58L72.55,-2208.11L72.55,-2207.68L72.67,-2207.23L72.93,-2206.77L73.21,-2206.34L73.41,-2205.49L73.31,-2204.43L72.38,-2202.43L71.63,-2201.4L70.77,-2200.57L69.79,-2199.9L68.78,-2199.03L68.12,-2198.24L67.73,-2197.52L67.43,-2196.65L67.25,-2196.62L66.93,-2196.82L64.76,-2198.79L64.11,-2199.22L63.59,-2199.47L62.67,-2199.69L61.48,-2200.18L60.95,-2200.48L60.71,-2200.35L60.01,-2199.44L59.88,-2199.05L59.83,-2198.77L59.79,-2198.09L60.69,-2195.74L60.67,-2195.34L60.52,-2194.79L59.81,-2194.14L59.73,-2193.95L59.81,-2193.88L59.97,-2193.88L60.19,-2193.78L60.41,-2193.55L60.68,-2192.98L60.61,-2192.71L60.41,-2192.51L59.84,-2192.33L59.6,-2192.31L59.33,-2192.25L59.09,-2192.06L58.81,-2191.57L58.77,-2191.3L58.81,-2191.18L58.93,-2191.25L59.07,-2191.37L59.22,-2191.42L59.42,-2191.3L59.39,-2191.13L59.26,-2190.93L58.98,-2190.59L58.98,-2190.39L59.1,-2190.25L59.33,-2190.21L59.53,-2190.25L59.86,-2190.46L60.05,-2190.49L60.23,-2190.35L60.19,-2190.16L60.08,-2189.91L59.87,-2189.24L59.73,-2189L59.33,-2188.58L59.4,-2188.32L59.54,-2187.96L59.75,-2187.25L59.71,-2186.66L59.31,-2185.31L58.72,-2184.03L58.26,-2183.3L58.26,-2182.98L58.43,-2182.57L58.76,-2182.08L59.31,-2181.46L59.76,-2181.09L60.19,-2180.85L60.88,-2179.99L60.07,-2179.45L60.23,-2178.01L60.18,-2177.73L59.97,-2177.55L59.67,-2177.44L59.22,-2177.15L59.11,-2176.75L59.12,-2175.43L59,-2175.13L58.83,-2175.06L58.65,-2175.21L58.32,-2175.58L58.13,-2175.62L57.88,-2175.48L57.65,-2175.29L57.45,-2175.17L57.24,-2175.13L56.55,-2175.1L56.02,-2174.91L55.79,-2174.75L54.55,-2172.91L54.31,-2172.39L54.16,-2171.8L54.03,-2171.59L53.85,-2171.48L53.65,-2171.49L53.54,-2171.57L53.52,-2171.68L53.67,-2172.02L53.65,-2172.23L53.54,-2172.38L53.19,-2172.32L52.99,-2172.07L52.75,-2171.67L52.58,-2171.21L52.33,-2170.98L52.07,-2170.88L51.35,-2170.92L50.8,-2170.8L50.59,-2170.65L50.6,-2170.47L50.73,-2170.28L50.85,-2170.02L50.9,-2168.31L50.83,-2168.11L50.7,-2168.02L50,-2168L49.51,-2167.88L49.26,-2167.67L49.15,-2167.42L49.23,-2167.15L49.67,-2166.38L49.75,-2166.13L49.74,-2165.83L49.6,-2165.37L49.36,-2165.13L48.09,-2164.24L47.99,-2164.01L48.3,-2163.51L48.38,-2163.16L47.95,-2161.97L47.79,-2161.07L47.13,-2160.11L47.09,-2159.77L47.1,-2159.17L47.29,-2158.98L47.57,-2158.92L47.99,-2158.97L48.48,-2159.11L50.11,-2159.31L51.7,-2159.07L52.06,-2158.91L52.6,-2158.68L55.36,-2156.17L56.07,-2155.28L56.53,-2154.16L56.72,-2152.78L56.67,-2151.44L56.32,-2150.18L54.28,-2146.97L53.17,-2143.9L53.05,-2143.25L53.04,-2142.59L53.19,-2141.94L53.5,-2141.34L53.9,-2140.83L55.08,-2139.62L55.23,-2139.33L55.23,-2139.02L54.39,-2137.69L54.15,-2137.16L53.27,-2133.28L53.96,-2131.63L53.77,-2129.86L53.27,-2128L50.93,-2125.9L49.89,-2125.14L48.49,-2123.84L47.61,-2122.77L44.43,-2118.16L40.03,-2118.43L38.01,-2119.84L35.79,-2120.5L37.79,-2122.06L37.19,-2122.72L35.89,-2124.98L34.02,-2129.67L32.92,-2131.72L31.99,-2132.74L29.91,-2134.64L28.11,-2135.18L18.1,-2134.93L12.69,-2136.73L5.36,-2139.68L-1.04,-2140.76L-4.2,-2141.94L-12.4,-2149.12L-21.96,-2158.76L-26.05,-2164.24L-29.18,-2171.87L-29.77,-2175.67L-30.68,-2179.53L-32.2,-2181.74L-32.67,-2183.9L-32.94,-2188.39L-34.07,-2194.58L-41.21,-2190.5L-43.11,-2190.76L-45.7,-2192.24L-57.28,-2201.78L-59.66,-2212.28L-59.74,-2228.17L-60.17,-2229.2L-58.67,-2236.29L-51.82,-2237.81L-30.56,-2237.94L-28.34,-2238.24L-27.7,-2238.66L-27.6,-2239.12L-27.73,-2239.46L-27.96,-2239.82L-27.97,-2239.99L-27.68,-2240.79L-27.59,-2241.13L-27.64,-2241.41L-27.77,-2241.86L-27.8,-2242.04L-27.88,-2242.24L-28.03,-2242.92L-28.12,-2243.01L-28.34,-2242.99L-28.49,-2243L-28.67,-2243.05L-28.92,-2243.05L-29.13,-2243.08L-29.25,-2243.15L-29.26,-2243.27L-29.14,-2243.45L-29.12,-2243.62L-29.16,-2243.73L-29.36,-2243.72L-29.47,-2243.76L-29.55,-2243.88L-29.55,-2244.14L-29.62,-2244.22L-29.8,-2244.25L-29.97,-2244.33L-30.05,-2244.48L-30.12,-2244.9L-30.6,-2245.76L-30.78,-2246.29L-31.09,-2246.39L-31.24,-2246.4L-31.37,-2246.37L-31.47,-2246.39L-31.53,-2246.5L-31.59,-2246.69L-31.58,-2247.21L-31.37,-2248.42L-31.41,-2248.91L-31.29,-2249.37L-31.05,-2249.93L-31.02,-2250.31L-31.06,-2250.47L-31.16,-2250.5L-31.27,-2250.43L-31.4,-2250.4L-31.55,-2250.47L-31.68,-2250.63L-32.37,-2252.52L-32.45,-2253.09L-32.48,-2253.63L-32.78,-2254.15L-33.05,-2254.52L-33.98,-2255.25L-34.45,-2255.7L-36.08,-2257.82L-36.21,-2258.28L-36.23,-2259.24L-36.53,-2259.73L-36.66,-2260.29L-36.69,-2260.77L-36.52,-2261.75L-36.43,-2261.95L-36.18,-2262.34L-35.85,-2262.97L-35.75,-2263.42L-35.88,-2263.92L-36.47,-2265.33L-37,-2266.18L-36.97,-2266.28L-36.86,-2266.4L-36.66,-2266.56L-36.45,-2266.98L-36.27,-2267.28L-36.08,-2267.49L-35.92,-2267.58L-35.69,-2267.55L-35.47,-2267.56L-35.29,-2267.53L-35.16,-2267.58L-35.06,-2267.65L-34.95,-2267.68L-34.81,-2267.66L-34.6,-2267.68L-32.91,-2268.44L-32.17,-2268.93L-30.78,-2270.11L-30.19,-2270.48L-29.71,-2270.63L-28.68,-2270.72L-21.47,-2275.67L-17.56,-2277.31L-16.42,-2278.12L-15.25,-2278.46L-14.41,-2279.11L-13.52,-2280.73L-13.06,-2281.28L-12.21,-2281.56L-11.41,-2281.63L-10.81,-2281.95L-10.58,-2283.01L-10.46,-2283.56L-9.88,-2284.1L-10.27,-2282.09L-10.4,-2281.77L-10.64,-2281.33L-10.57,-2281.06L-10.41,-2280.81L-10.13,-2280.5L-9.84,-2280.06L-9.55,-2279.35L-9.31,-2278.44L-9.43,-2277.86L-9.59,-2277.38L-9.53,-2277.09L-9.37,-2276.9L-9.09,-2276.78L-8.82,-2276.74L-8.49,-2276.55L-8.12,-2276.15L-7.66,-2275.29L-7.45,-2274.17L-7.19,-2268.47L-7.22,-2267.81L-7.3,-2267.33L-7.55,-2266.36L-7.61,-2265.46L-7.68,-2265.07L-7.83,-2264.84L-7.98,-2264.78L-8.46,-2264.64z"/>
		<path id="IRQ-15" title="Ninawa" class="land" d="M19.57,-2379.54L19.57,-2379.54L23.37,-2377.48L24.73,-2377.17L25.08,-2377.25L25.41,-2377.16L25.73,-2376.92L27.05,-2375.62L28.26,-2374.87L29.09,-2374.21L29.86,-2373.81L30.22,-2373.52L30.52,-2373.06L30.6,-2372.7L30.76,-2372.33L31.04,-2371.86L31,-2371.65L30.86,-2371.53L30.62,-2371.48L30.46,-2371.37L30.45,-2371.23L30.59,-2371.09L31.56,-2371.13L31.78,-2371.19L32.04,-2371.11L32.28,-2370.9L32.66,-2370.31L32.69,-2369.96L32.63,-2369.65L32.55,-2369.45L32.6,-2369.24L33.09,-2368.45L33.32,-2368.31L33.77,-2368.37L34.04,-2368.44L34.3,-2368.45L34.85,-2368.33L36.63,-2368.16L36.84,-2368.07L37.12,-2367.88L37.32,-2367.49L37.6,-2367.18L38.03,-2366.88L43.65,-2364.4L44.65,-2363.61L45.15,-2363.3L45.48,-2362.99L45.59,-2362.69L45.65,-2362.06L45.7,-2361.72L46.32,-2361.07L46.51,-2360.52L46.87,-2359.68L47.03,-2359.61L47.16,-2359.66L47.31,-2359.8L47.45,-2359.87L47.59,-2359.85L47.72,-2359.73L47.83,-2359.5L47.88,-2359.23L47.85,-2358.87L47.54,-2358.22L45.41,-2355.37L43.73,-2353.86L42.79,-2352.37L41.77,-2352.03L41.31,-2351.7L39.68,-2350.23L38.66,-2349.59L37.9,-2348.92L37.28,-2348.81L37.05,-2348.92L36.97,-2349.14L36.99,-2349.34L36.89,-2349.48L36.68,-2349.62L36.34,-2349.71L36.04,-2349.73L35.72,-2349.63L35.12,-2349.35L34.91,-2349.33L34.68,-2349.36L34.48,-2349.28L34.31,-2349.09L34.22,-2348.69L34.2,-2348.4L34.11,-2348.14L33.93,-2348.05L33.53,-2348.18L33.35,-2348.4L33.29,-2348.66L33.35,-2348.95L33.46,-2349.23L33.54,-2349.48L33.5,-2349.66L33.37,-2349.74L33.11,-2349.75L32.83,-2349.7L32.5,-2349.59L32.22,-2349.55L31.94,-2349.61L31.69,-2349.75L31.51,-2349.95L31.43,-2350.16L31.36,-2350.41L31.25,-2350.62L31.13,-2350.64L30.99,-2350.51L30.97,-2350.13L31.05,-2349.86L31.26,-2349.51L31.2,-2349.33L30.91,-2349.3L30.73,-2349.37L30.57,-2349.5L30.25,-2349.33L29.75,-2348.92L28.24,-2347.18L28,-2346.55L27.83,-2346.25L27.6,-2345.9L27,-2345.41L26.59,-2344.87L25.75,-2344.23L25.38,-2344.11L25.08,-2344.2L24.92,-2344.46L24.73,-2344.66L24.54,-2344.82L24.36,-2344.79L24.21,-2344.59L24.14,-2344.05L24.19,-2343.15L24.07,-2342.69L23.79,-2342.27L23.25,-2342.08L22.88,-2342.06L21.37,-2342.25L21.13,-2342.1L20.99,-2341.78L21.02,-2341.06L21.15,-2340.74L21.28,-2340.49L21.37,-2340.23L21.39,-2339.95L21.39,-2339.63L21.32,-2339.24L21.12,-2338.88L20.55,-2338.44L20.08,-2338.18L19.65,-2338.03L19.22,-2338.03L18.55,-2338.15L18.34,-2338.13L18.18,-2337.94L18.14,-2337.66L18.4,-2336.98L18.49,-2336.31L18.55,-2335.22L18.12,-2333.74L17.1,-2332L14.6,-2328.99L13.64,-2328.09L12.53,-2327.38L12.07,-2327.16L11.22,-2326.15L9.87,-2325.56L9.4,-2325.13L8.93,-2324.48L8.23,-2323.27L7.69,-2322.54L5.81,-2320.83L5.5,-2320.35L5.18,-2319.49L4.49,-2318.04L3.34,-2317.18L2.84,-2317.11L2.63,-2316.88L2.32,-2316.22L2.19,-2315.69L2.03,-2315.21L0.75,-2312.83L0.62,-2312.21L0.6,-2311.72L0.7,-2310.26L0.62,-2309.9L0.45,-2309.52L-0.39,-2308.26L-1.04,-2307.65L-8.77,-2304.39L-9.26,-2303.63L-8.89,-2301.77L-8.25,-2301.12L-7.28,-2300.99L-6.51,-2300.98L-6.31,-2300.46L-6.3,-2299.09L-6.84,-2293.98L-7.48,-2292.51L-7.92,-2292.07L-8.39,-2291.97L-8.82,-2291.98L-9.15,-2291.77L-9.46,-2291.29L-10.75,-2288.32L-10.99,-2287.45L-10.94,-2286.83L-10.86,-2286.41L-9.88,-2284.1L-10.46,-2283.56L-10.58,-2283.01L-10.81,-2281.95L-11.41,-2281.63L-12.21,-2281.56L-13.06,-2281.28L-13.52,-2280.73L-14.41,-2279.11L-15.25,-2278.46L-16.42,-2278.12L-17.56,-2277.31L-21.47,-2275.67L-28.68,-2270.72L-29.71,-2270.63L-30.19,-2270.48L-30.78,-2270.11L-32.17,-2268.93L-32.91,-2268.44L-34.6,-2267.68L-34.81,-2267.66L-34.95,-2267.68L-35.06,-2267.65L-35.16,-2267.58L-35.29,-2267.53L-35.47,-2267.56L-35.69,-2267.55L-35.92,-2267.58L-36.08,-2267.49L-36.27,-2267.28L-36.45,-2266.98L-36.66,-2266.56L-36.86,-2266.4L-36.97,-2266.28L-37,-2266.18L-36.47,-2265.33L-35.88,-2263.92L-35.75,-2263.42L-35.85,-2262.97L-36.18,-2262.34L-36.43,-2261.95L-36.52,-2261.75L-36.69,-2260.77L-36.66,-2260.29L-36.53,-2259.73L-36.23,-2259.24L-36.21,-2258.28L-36.08,-2257.82L-34.45,-2255.7L-33.98,-2255.25L-33.05,-2254.52L-32.78,-2254.15L-32.48,-2253.63L-32.45,-2253.09L-32.37,-2252.52L-31.68,-2250.63L-31.55,-2250.47L-31.4,-2250.4L-31.27,-2250.43L-31.16,-2250.5L-31.06,-2250.47L-31.02,-2250.31L-31.05,-2249.93L-31.29,-2249.37L-31.41,-2248.91L-31.37,-2248.42L-31.58,-2247.21L-31.59,-2246.69L-31.53,-2246.5L-31.47,-2246.39L-31.37,-2246.37L-31.24,-2246.4L-31.09,-2246.39L-30.78,-2246.29L-30.6,-2245.76L-30.12,-2244.9L-30.05,-2244.48L-29.97,-2244.33L-29.8,-2244.25L-29.62,-2244.22L-29.55,-2244.14L-29.55,-2243.88L-29.47,-2243.76L-29.36,-2243.72L-29.16,-2243.73L-29.12,-2243.62L-29.14,-2243.45L-29.26,-2243.27L-29.25,-2243.15L-29.13,-2243.08L-28.92,-2243.05L-28.67,-2243.05L-28.49,-2243L-28.34,-2242.99L-28.12,-2243.01L-28.03,-2242.92L-27.88,-2242.24L-27.8,-2242.04L-27.77,-2241.86L-27.64,-2241.41L-27.59,-2241.13L-27.68,-2240.79L-27.97,-2239.99L-27.96,-2239.82L-27.73,-2239.46L-27.6,-2239.12L-27.7,-2238.66L-28.34,-2238.24L-30.56,-2237.94L-51.82,-2237.81L-58.67,-2236.29L-60.17,-2229.2L-73.17,-2227.43L-74.98,-2228.21L-77.07,-2229.2L-78.15,-2229.43L-86.53,-2228.33L-90.41,-2228.58L-98.29,-2231.68L-114.62,-2238.46L-118.63,-2239.1L-128.71,-2242.01L-136.37,-2242.73L-137.65,-2242.76L-137.7,-2244.46L-137.11,-2248.9L-134.62,-2257.93L-134.1,-2265.07L-133.55,-2267.28L-133.54,-2267.28L-133.54,-2267.28L-133.54,-2267.29L-130.72,-2271.53L-128.71,-2274.57L-127.77,-2276.79L-127.44,-2279.09L-127.69,-2289.19L-127.98,-2291.61L-128.63,-2293.97L-133.24,-2304.03L-133.24,-2304.04L-133.24,-2304.03L-134.77,-2307.63L-135.01,-2308.9L-135.01,-2310.13L-133.09,-2328.68L-132.6,-2330.67L-127.34,-2340.98L-127.34,-2340.99L-127.33,-2340.99L-127.33,-2341L-126.13,-2342.65L-124.38,-2343.47L-120.51,-2344.12L-102,-2348.07L-100.37,-2348.84L-98.79,-2350.19L-90.75,-2358.8L-78.83,-2371.59L-72.68,-2378.21L-72.66,-2378.21L-72.66,-2378.21L-72.66,-2378.22L-68.84,-2381.86L-67,-2383.29L-66.58,-2381.7L-65.76,-2379.93L-64.74,-2378.33L-62.48,-2376.08L-61.4,-2375.29L-60.36,-2375.31L-59.2,-2376.65L-59.18,-2375.51L-59.45,-2374.02L-59.41,-2372.82L-58.42,-2372.57L-58.86,-2370.94L-58.73,-2370.25L-58.22,-2369.69L-57.57,-2368.45L-59.13,-2368.35L-59.41,-2367.56L-58.76,-2366.97L-57.57,-2367.43L-55.71,-2366.47L-54.71,-2365.72L-53.89,-2363.44L-52.94,-2362.95L-50.42,-2362.9L-50.13,-2363.05L-49.87,-2363.38L-49.55,-2363.72L-49.02,-2363.87L-48.3,-2363.71L-47.77,-2363.32L-45.95,-2361.26L-44.9,-2360.31L-44.34,-2360.03L-43.86,-2359.98L-43.39,-2359.84L-42.87,-2359.29L-44.21,-2358.78L-44.76,-2358.34L-44.9,-2357.77L-44.5,-2357.15L-43.88,-2357.2L-41.77,-2358.25L-41.28,-2358.22L-40.42,-2357.77L-39.98,-2357.38L-39.68,-2356.9L-39.17,-2355.74L-38.67,-2356.64L-38.1,-2357.07L-37.41,-2357.21L-36.54,-2357.22L-35.82,-2357.05L-30.93,-2359.78L-23.12,-2360.86L-20.73,-2361.07L-18.74,-2362.1L-17.84,-2362.73L-17.58,-2363.91L-17.03,-2365.24L-16.51,-2366.92L-14.76,-2369.82L-12.93,-2372.05L-12.49,-2372.8L-11.65,-2373.45L-10.7,-2373.77L-8.43,-2373.51L-7.51,-2373.02L-6.58,-2372.27L-5.78,-2371.41L-3.98,-2370.11L-2.92,-2369.13L-1.02,-2368.2L7.63,-2365.86L8.48,-2365.69L8.88,-2365.72L9.04,-2366.05L9.1,-2366.42L9.1,-2366.84L9.2,-2367.22L9.4,-2367.49L9.83,-2367.73L10.38,-2367.82L11.4,-2367.48L11.61,-2367.34L11.83,-2367.35L12.03,-2367.56L12.29,-2368.39L12.36,-2368.86L12.38,-2369.25L12.33,-2369.52L12.28,-2369.73L12.26,-2370.1L12.22,-2370.29L12.21,-2370.47L12.21,-2370.71L12.18,-2370.96L12.07,-2371.41L12.11,-2371.58L12.44,-2371.71L12.71,-2371.89L12.99,-2372.2L13.49,-2373.23L13.59,-2373.6L13.61,-2373.94L13.56,-2374.31L13.49,-2374.68L13.34,-2375.03L13.15,-2375.26L12.82,-2375.4L12.45,-2375.48L11.44,-2375.8L10.94,-2376.07L10.48,-2376.17L9.65,-2376.2L9.29,-2376.3L8.99,-2376.45L8.38,-2376.9L8.22,-2377.14L8.15,-2377.35L8.12,-2377.56L7.95,-2377.91L7.93,-2378.14L7.92,-2378.4L7.95,-2378.68L8.1,-2379.24L8.32,-2379.83L8.4,-2380.45L8.39,-2380.72L8.45,-2380.92L8.73,-2381.54L8.91,-2381.8L9.17,-2382.08L9.38,-2382.23L9.57,-2382.29L9.83,-2382.27L10.11,-2382.19L11.17,-2381.6L11.85,-2381.41L16.03,-2380.66L17.69,-2380L19.57,-2379.54z"/>
		<path id="IRQ-16" title="Arbil" class="land" d="M46.81,-2376.36L46.81,-2376.36L47.55,-2376.41L48.12,-2376.96L48.67,-2378.21L48.67,-2378.21L48.68,-2378.21L48.68,-2378.22L49.61,-2379.81L49.82,-2380.99L50.29,-2381.83L55.36,-2383.5L56.93,-2384.36L58.41,-2385.53L59.85,-2387.38L62,-2389.4L64.32,-2391.1L66.23,-2392L67.34,-2392.05L73.59,-2391.16L74.79,-2390.56L75.52,-2389.27L74.71,-2387.12L74.72,-2386.38L75.2,-2385.06L75.55,-2384.56L75.97,-2384.36L76.42,-2384.22L76.85,-2383.91L77.08,-2383.42L77.38,-2382.28L77.66,-2381.91L78.21,-2381.79L79.39,-2382.16L79.97,-2382.19L80.38,-2381.95L81.06,-2381.21L82.36,-2380.52L82.76,-2379.85L82.66,-2379.04L82,-2378.21L81.67,-2376.22L82.01,-2374.9L82.56,-2373.68L82.84,-2372.01L82.52,-2370.21L81.7,-2368.88L79.58,-2366.28L78.94,-2364.44L79.41,-2363.14L80.6,-2362.34L82.15,-2361.99L84,-2362.09L84.86,-2361.95L85.61,-2361.29L86.16,-2360.63L86.78,-2360.19L87.47,-2359.97L88.25,-2359.94L89.25,-2359.4L90.13,-2358.2L91.58,-2355.52L92.21,-2353.92L92.12,-2352.53L90.96,-2349.84L90.32,-2347.3L90.26,-2345.74L90.09,-2345.59L89.35,-2345.3L89.08,-2345.12L88.96,-2343.94L89.83,-2342.82L90.04,-2342.64L90.04,-2342.63L89.8,-2341.93L89.47,-2341.2L88.67,-2339.97L88,-2339.49L87.14,-2339.17L85.08,-2339.31L82.54,-2339.95L81.32,-2339.92L80,-2339.63L76.9,-2338.07L74.29,-2337.38L71.57,-2336.94L69.86,-2337.44L68.88,-2337.59L67.63,-2337.18L65.81,-2335.79L64.66,-2334.44L63.99,-2333.47L62.03,-2331.72L62.01,-2330.15L62.34,-2329.29L65.77,-2324.03L66.35,-2324.7L66.74,-2324.98L67.37,-2324.96L67.96,-2324.46L70.95,-2320.83L71.29,-2320.27L71.46,-2319.66L70.9,-2319.03L69.52,-2318.38L69.05,-2318.03L68.75,-2317.43L68.41,-2316.93L67.95,-2316.46L66.67,-2315.42L66.93,-2314.49L67.25,-2313.81L73.23,-2309.54L74.59,-2308.95L75.3,-2308.48L75.87,-2308.01L80.24,-2302.72L82.12,-2300.94L83.6,-2299.91L87.64,-2297.89L88.04,-2297.4L88.12,-2297.19L88.14,-2296.99L88.11,-2296.82L88.02,-2296.65L87.89,-2296.22L87.77,-2296.01L87.39,-2295.7L86.96,-2295.55L86.33,-2295.46L84.97,-2295.49L84.4,-2295.66L84.08,-2295.86L83.97,-2296.02L83.84,-2296.11L83.71,-2296.21L83.43,-2296.51L83.23,-2296.63L82.94,-2296.68L82.3,-2296.59L82.09,-2296.61L81.72,-2296.78L81.51,-2296.79L81.04,-2296.7L80.87,-2296.6L80.83,-2296.4L81.48,-2295.2L81.54,-2295.02L81.21,-2294.56L80.29,-2294.24L79.72,-2293.66L79.54,-2293.61L79.39,-2293.71L79.27,-2294.11L79.21,-2295.2L79.1,-2295.4L78.91,-2295.55L78.69,-2295.63L78.51,-2295.62L78.25,-2295.39L78.09,-2295.15L77.99,-2294.92L77.93,-2294.43L77.88,-2294.19L77.7,-2294.03L77.42,-2294.06L76.94,-2294.44L76.72,-2294.78L76.46,-2295.06L76.19,-2295.17L75.82,-2295.2L75.31,-2295.01L74.99,-2294.8L74.65,-2294.67L74.33,-2294.7L73.99,-2294.99L73.68,-2295.49L73.38,-2295.58L72.91,-2295.6L71.49,-2295.16L71.14,-2295.11L70.85,-2295.16L70.63,-2295.46L70.61,-2295.68L70.62,-2295.86L70.6,-2296.03L70.5,-2296.19L70.32,-2296.31L70.07,-2296.32L69.41,-2295.94L69.19,-2295.9L68.95,-2296.14L68.78,-2296.38L68.51,-2296.51L68.33,-2296.54L67.24,-2296.03L66.89,-2296.65L66.89,-2297.36L66.71,-2297.63L66.51,-2297.66L65.87,-2297.34L65.59,-2297.15L65.42,-2296.91L65.2,-2296.35L64.98,-2295.99L64.48,-2295.58L64.13,-2295.2L63.89,-2294.86L63.59,-2294.55L63.35,-2294.59L62.72,-2295L62.49,-2294.94L62.26,-2294.78L62.22,-2294.54L62.28,-2294.3L62.35,-2294.06L62.39,-2293.81L62.28,-2293.47L62.06,-2293.42L61.84,-2293.57L61.45,-2294.13L61.21,-2294.39L60.77,-2294.55L60.41,-2294.45L59.89,-2294.16L59.62,-2294.12L59.45,-2294.21L59.29,-2294.42L57.98,-2294.83L56.7,-2294.08L56.18,-2294.08L55.44,-2294.2L54.99,-2294.15L54.68,-2293.93L54.42,-2293.67L54.09,-2293.47L52.97,-2292.99L52.77,-2292.83L52.46,-2292.2L52.28,-2292.16L52.09,-2292.21L51.83,-2292.33L50.89,-2292.49L50.53,-2292.59L49.8,-2292.97L49.57,-2292.96L49.28,-2292.5L48.94,-2292.19L48.08,-2291.72L47.5,-2291.57L47.01,-2291.54L46.66,-2291.61L45.54,-2292.19L44.23,-2292.44L40.95,-2293.08L39.96,-2292.88L38.58,-2292.35L37.71,-2290.01L37.19,-2288.92L36.63,-2288.57L35.36,-2288.33L33.13,-2288.24L26.84,-2292.76L25.49,-2293.27L24.57,-2293.09L23.97,-2291.47L19.67,-2286.79L16.02,-2283.69L15.65,-2283.06L15.69,-2282.59L16.07,-2282.25L17.39,-2280.76L17.76,-2280.1L18,-2279.43L17.96,-2278.61L17.45,-2277.94L16.68,-2277.22L15.78,-2276.1L15.37,-2275.24L15.04,-2273.42L14.43,-2271.23L13.83,-2270.44L13.19,-2270.17L11.92,-2270.06L9.98,-2268.89L7.99,-2268.72L6.66,-2268.75L5.85,-2268.38L5.27,-2267.59L4.58,-2265.47L4.06,-2264.6L3.11,-2264.06L1.95,-2263.87L-0.6,-2263.75L-1.52,-2263.47L-2.71,-2262.4L-3.31,-2262.29L-3.94,-2262.31L-5.2,-2262.65L-5.77,-2262.93L-8.46,-2264.64L-7.98,-2264.78L-7.83,-2264.84L-7.68,-2265.07L-7.61,-2265.46L-7.55,-2266.36L-7.3,-2267.33L-7.22,-2267.81L-7.19,-2268.47L-7.45,-2274.17L-7.66,-2275.29L-8.12,-2276.15L-8.49,-2276.55L-8.82,-2276.74L-9.09,-2276.78L-9.37,-2276.9L-9.53,-2277.09L-9.59,-2277.38L-9.43,-2277.86L-9.31,-2278.44L-9.55,-2279.35L-9.84,-2280.06L-10.13,-2280.5L-10.41,-2280.81L-10.57,-2281.06L-10.64,-2281.33L-10.4,-2281.77L-10.27,-2282.09L-9.88,-2284.1L-10.86,-2286.41L-10.94,-2286.83L-10.99,-2287.45L-10.75,-2288.32L-9.46,-2291.29L-9.15,-2291.77L-8.82,-2291.98L-8.39,-2291.97L-7.92,-2292.07L-7.48,-2292.51L-6.84,-2293.98L-6.3,-2299.09L-6.31,-2300.46L-6.51,-2300.98L-7.28,-2300.99L-8.25,-2301.12L-8.89,-2301.77L-9.26,-2303.63L-8.77,-2304.39L-1.04,-2307.65L-0.39,-2308.26L0.45,-2309.52L0.62,-2309.9L0.7,-2310.26L0.6,-2311.72L0.62,-2312.21L0.75,-2312.83L2.03,-2315.21L2.19,-2315.69L2.32,-2316.22L2.63,-2316.88L2.84,-2317.11L3.34,-2317.18L4.49,-2318.04L5.18,-2319.49L5.5,-2320.35L5.81,-2320.83L7.69,-2322.54L8.23,-2323.27L8.93,-2324.48L9.4,-2325.13L9.87,-2325.56L11.22,-2326.15L12.07,-2327.16L12.53,-2327.38L13.64,-2328.09L14.6,-2328.99L17.1,-2332L18.12,-2333.74L18.55,-2335.22L18.49,-2336.31L18.4,-2336.98L18.14,-2337.66L18.18,-2337.94L18.34,-2338.13L18.55,-2338.15L19.22,-2338.03L19.65,-2338.03L20.08,-2338.18L20.55,-2338.44L21.12,-2338.88L21.32,-2339.24L21.39,-2339.63L21.39,-2339.95L21.37,-2340.23L21.28,-2340.49L21.15,-2340.74L21.02,-2341.06L20.99,-2341.78L21.13,-2342.1L21.37,-2342.25L22.88,-2342.06L23.25,-2342.08L23.79,-2342.27L24.07,-2342.69L24.19,-2343.15L24.14,-2344.05L24.21,-2344.59L24.36,-2344.79L24.54,-2344.82L24.73,-2344.66L24.92,-2344.46L25.08,-2344.2L25.38,-2344.11L25.75,-2344.23L26.59,-2344.87L27,-2345.41L27.6,-2345.9L27.83,-2346.25L28,-2346.55L28.24,-2347.18L29.75,-2348.92L30.25,-2349.33L30.57,-2349.5L30.73,-2349.37L30.91,-2349.3L31.2,-2349.33L31.26,-2349.51L31.05,-2349.86L30.97,-2350.13L30.99,-2350.51L31.13,-2350.64L31.25,-2350.62L31.36,-2350.41L31.43,-2350.16L31.51,-2349.95L31.69,-2349.75L31.94,-2349.61L32.22,-2349.55L32.5,-2349.59L32.83,-2349.7L33.11,-2349.75L33.37,-2349.74L33.5,-2349.66L33.54,-2349.48L33.46,-2349.23L33.35,-2348.95L33.29,-2348.66L33.35,-2348.4L33.53,-2348.18L33.93,-2348.05L34.11,-2348.14L34.2,-2348.4L34.22,-2348.69L34.31,-2349.09L34.48,-2349.28L34.68,-2349.36L34.91,-2349.33L35.12,-2349.35L35.72,-2349.63L36.04,-2349.73L36.34,-2349.71L36.68,-2349.62L36.89,-2349.48L36.99,-2349.34L36.97,-2349.14L37.05,-2348.92L37.28,-2348.81L37.9,-2348.92L38.66,-2349.59L39.68,-2350.23L41.31,-2351.7L41.77,-2352.03L42.79,-2352.37L43.73,-2353.86L45.41,-2355.37L47.54,-2358.22L47.85,-2358.87L47.88,-2359.23L47.83,-2359.5L47.72,-2359.73L47.59,-2359.85L47.45,-2359.87L47.31,-2359.8L47.16,-2359.66L47.03,-2359.61L46.87,-2359.68L46.51,-2360.52L46.32,-2361.07L45.7,-2361.72L45.65,-2362.06L45.59,-2362.69L45.48,-2362.99L45.15,-2363.3L44.65,-2363.61L43.65,-2364.4L38.03,-2366.88L37.6,-2367.18L37.32,-2367.49L37.12,-2367.88L36.84,-2368.07L36.63,-2368.16L34.85,-2368.33L34.3,-2368.45L34.04,-2368.44L33.77,-2368.37L33.32,-2368.31L33.09,-2368.45L32.6,-2369.24L32.55,-2369.45L32.63,-2369.65L32.69,-2369.96L32.66,-2370.31L32.28,-2370.9L32.04,-2371.11L31.78,-2371.19L31.56,-2371.13L30.59,-2371.09L30.45,-2371.23L30.46,-2371.37L30.62,-2371.48L30.86,-2371.53L31,-2371.65L31.04,-2371.86L30.76,-2372.33L30.6,-2372.7L30.52,-2373.06L30.22,-2373.52L29.86,-2373.81L29.09,-2374.21L28.26,-2374.87L27.05,-2375.62L25.73,-2376.92L25.41,-2377.16L25.08,-2377.25L24.73,-2377.17L23.37,-2377.48L19.57,-2379.54L20.76,-2380.87L21.57,-2381.28L22.06,-2381.4L22.34,-2381.67L22.57,-2382.04L22.83,-2382.85L23.03,-2383.3L23.38,-2383.6L24.42,-2384.2L26.65,-2385.1L26.92,-2385.29L26.94,-2385.44L26.81,-2385.6L26.71,-2385.83L26.97,-2386.01L27.48,-2386.19L28.55,-2386.7L29.03,-2387L29.38,-2387.32L29.6,-2387.73L30.49,-2389L30.83,-2389.3L32.06,-2389.97L32.84,-2390.28L33.15,-2390.51L33.27,-2390.73L33,-2391.24L33.04,-2391.54L33.22,-2391.96L33.94,-2392.92L34.4,-2393.38L35.05,-2393.91L35.7,-2394.19L35.76,-2394.39L35.75,-2394.69L35.59,-2395.54L35.5,-2395.65L35.39,-2395.7L35.02,-2395.71L34.8,-2395.79L34.64,-2395.92L34.53,-2396.13L34.48,-2396.58L34.37,-2397.01L34.35,-2397.29L34.39,-2397.59L34.56,-2398.08L35.09,-2399.17L35.09,-2399.42L35.01,-2399.61L34.83,-2399.71L34.72,-2399.81L34.59,-2399.88L34.46,-2399.95L34.37,-2400.05L34.33,-2400.17L34.2,-2400.49L34.06,-2400.61L33.86,-2400.7L33.66,-2401.07L33.94,-2402.14L35.08,-2401.95L40.83,-2399.55L42.17,-2398.68L43.14,-2397.67L43.84,-2396.37L44.35,-2394.65L44.65,-2393.01L44.72,-2392.08L44.64,-2391.35L44.15,-2390.47L43.56,-2390.2L42.87,-2390.07L42.11,-2389.62L41.11,-2388.32L40.6,-2386.8L40.56,-2385.21L41.01,-2383.66L43.41,-2378.22L43.8,-2377.44L44.34,-2377L46.81,-2376.36z"/>
		<path id="IRQ-17" title="At-Ta'mim" class="land" d="M67.24,-2296.03L67.24,-2296.03L70.53,-2288.77L72.05,-2287.11L73.41,-2285.24L76.18,-2282.77L76.67,-2281.32L76.73,-2280.09L75.72,-2278.27L75.48,-2277.5L75.35,-2275.62L75.11,-2274.76L74.92,-2272.13L74.71,-2270.02L74.86,-2269.3L75.26,-2268.56L76.53,-2267.13L77.68,-2265.55L77.75,-2264.71L77.44,-2263.69L76.83,-2262.46L74.65,-2259.5L74.2,-2258.07L74.37,-2256.99L74.74,-2255.75L74.98,-2254.66L74.73,-2253.53L74.08,-2251.98L73.91,-2251L73.75,-2250.55L73.54,-2250.23L73.09,-2250.09L72.54,-2249.79L71.82,-2249.28L71.21,-2248.36L70.98,-2247.69L70.94,-2247.07L71.03,-2246.53L71.44,-2245.52L71.27,-2244.91L70.64,-2244.3L66,-2242.83L63.35,-2240.59L62.6,-2240.56L62.24,-2240.39L61.8,-2240.08L61.24,-2239.38L60.75,-2238.6L60.45,-2237.3L60.51,-2236.28L61.71,-2233.43L61.66,-2232.35L61.08,-2231.45L59.45,-2230.22L58.53,-2229.77L57.8,-2229.3L57.35,-2228.85L56.04,-2226.95L54.76,-2225.66L53.84,-2224.23L53.77,-2223.63L53.72,-2223.46L53.7,-2223.33L53.72,-2223.14L53.71,-2222.91L53.51,-2222.55L53.27,-2222L53.25,-2221.81L53.22,-2221.68L53.27,-2221.43L53.23,-2221.18L52.95,-2220.74L52.87,-2220.56L52.86,-2220.37L52.77,-2220.14L52.56,-2219.87L51.87,-2219.49L50.93,-2218.16L50.73,-2217.43L50.52,-2217.02L50.18,-2216.59L49.43,-2215.92L49.25,-2215.64L49.18,-2215.36L49.21,-2214.65L49.16,-2214.26L48.96,-2213.47L49.01,-2213.16L49.23,-2212.69L49.25,-2212.53L49.14,-2212.21L49.16,-2212.03L49.27,-2211.89L49.49,-2211.81L50.11,-2211.73L50.13,-2211.55L49.88,-2211.17L48.53,-2209.56L47.63,-2209.54L47.03,-2209.7L42.49,-2213.21L37.51,-2218.23L33.89,-2220.45L28.83,-2222.72L24.64,-2224.31L20.75,-2226.65L8.84,-2233.81L4.22,-2235.95L2.85,-2236.87L2.28,-2237.74L1.2,-2238.52L-0.36,-2239.25L-1.15,-2240.4L-5.07,-2244.66L-5.54,-2245.01L-6.14,-2245.83L-6.66,-2246.75L-6.88,-2247.4L-6.63,-2248.2L-6.04,-2248.56L-5.36,-2248.79L-4.84,-2249.14L-4.62,-2250.54L-5.86,-2251.12L-8.92,-2251.64L-8.54,-2252.12L-8.36,-2252.56L-8.14,-2253.63L-8.2,-2253.94L-8.41,-2254.17L-8.53,-2254.46L-8.35,-2254.9L-8.14,-2255.07L-7.93,-2255.14L-7.76,-2255.22L-7.7,-2255.43L-8.06,-2256.36L-8.91,-2256.94L-10.58,-2257.63L-11.26,-2258.22L-12.77,-2259.89L-13.06,-2260.44L-13.19,-2260.63L-13.47,-2260.84L-13.75,-2261.22L-13.88,-2261.92L-13.78,-2262.65L-13.64,-2263.08L-13.61,-2263.5L-13.88,-2264.17L-13.49,-2265.26L-12.58,-2264.95L-12.34,-2264.81L-12.17,-2264.52L-12.13,-2264.28L-12.06,-2264.08L-11.82,-2263.68L-11.77,-2263.36L-11.76,-2263.02L-11.43,-2262.49L-11.07,-2262.34L-10.54,-2262.39L-9.55,-2264.04L-8.46,-2264.64L-5.77,-2262.93L-5.2,-2262.65L-3.94,-2262.31L-3.31,-2262.29L-2.71,-2262.4L-1.52,-2263.47L-0.6,-2263.75L1.95,-2263.87L3.11,-2264.06L4.06,-2264.6L4.58,-2265.47L5.27,-2267.59L5.85,-2268.38L6.66,-2268.75L7.99,-2268.72L9.98,-2268.89L11.92,-2270.06L13.19,-2270.17L13.83,-2270.44L14.43,-2271.23L15.04,-2273.42L15.37,-2275.24L15.78,-2276.1L16.68,-2277.22L17.45,-2277.94L17.96,-2278.61L18,-2279.43L17.76,-2280.1L17.39,-2280.76L16.07,-2282.25L15.69,-2282.59L15.65,-2283.06L16.02,-2283.69L19.67,-2286.79L23.97,-2291.47L24.57,-2293.09L25.49,-2293.27L26.84,-2292.76L33.13,-2288.24L35.36,-2288.33L36.63,-2288.57L37.19,-2288.92L37.71,-2290.01L38.58,-2292.35L39.96,-2292.88L40.95,-2293.08L44.23,-2292.44L45.54,-2292.19L46.66,-2291.61L47.01,-2291.54L47.5,-2291.57L48.08,-2291.72L48.94,-2292.19L49.28,-2292.5L49.57,-2292.96L49.8,-2292.97L50.53,-2292.59L50.89,-2292.49L51.83,-2292.33L52.09,-2292.21L52.28,-2292.16L52.46,-2292.2L52.77,-2292.83L52.97,-2292.99L54.09,-2293.47L54.42,-2293.67L54.68,-2293.93L54.99,-2294.15L55.44,-2294.2L56.18,-2294.08L56.7,-2294.08L57.98,-2294.83L59.29,-2294.42L59.45,-2294.21L59.62,-2294.12L59.89,-2294.16L60.41,-2294.45L60.77,-2294.55L61.21,-2294.39L61.45,-2294.13L61.84,-2293.57L62.06,-2293.42L62.28,-2293.47L62.39,-2293.81L62.35,-2294.06L62.28,-2294.3L62.22,-2294.54L62.26,-2294.78L62.49,-2294.94L62.72,-2295L63.35,-2294.59L63.59,-2294.55L63.89,-2294.86L64.13,-2295.2L64.48,-2295.58L64.98,-2295.99L65.2,-2296.35L65.42,-2296.91L65.59,-2297.15L65.87,-2297.34L66.51,-2297.66L66.71,-2297.63L66.89,-2297.36L66.89,-2296.65L67.24,-2296.03z"/>
		<path id="IRQ-18" title="Dihok" class="land" d="M-33.58,-2402.62L-33.58,-2402.62L-31.04,-2403.5L-29.52,-2404.65L-27.23,-2405.63L-24.83,-2406.27L-22.98,-2406.45L-21.95,-2406.16L-14.11,-2401.91L-13.7,-2401.76L-13.2,-2401.69L-12.67,-2401.8L-12.12,-2402.37L-11.59,-2402.61L-10.49,-2402.78L-9.77,-2402.63L-8.2,-2401.4L-7.39,-2400.77L-4.97,-2399.55L-2.19,-2397.26L-1.22,-2396.86L-0.45,-2396.97L1.02,-2397.53L1.76,-2397.65L2.53,-2397.53L3.02,-2397.27L4.11,-2396.44L5.62,-2395.82L7.06,-2395.64L13.17,-2396.06L14.73,-2395.91L16.14,-2395.55L16.74,-2395.14L18.02,-2393.88L18.46,-2393.59L19.21,-2393.79L20.28,-2394.9L23.48,-2395.48L25.3,-2397.59L27.07,-2400.17L29.25,-2402.05L31.95,-2402.48L33.94,-2402.14L33.66,-2401.07L33.86,-2400.7L34.06,-2400.61L34.2,-2400.49L34.33,-2400.17L34.37,-2400.05L34.46,-2399.95L34.59,-2399.88L34.72,-2399.81L34.83,-2399.71L35.01,-2399.61L35.09,-2399.42L35.09,-2399.17L34.56,-2398.08L34.39,-2397.59L34.35,-2397.29L34.37,-2397.01L34.48,-2396.58L34.53,-2396.13L34.64,-2395.92L34.8,-2395.79L35.02,-2395.71L35.39,-2395.7L35.5,-2395.65L35.59,-2395.54L35.75,-2394.69L35.76,-2394.39L35.7,-2394.19L35.05,-2393.91L34.4,-2393.38L33.94,-2392.92L33.22,-2391.96L33.04,-2391.54L33,-2391.24L33.27,-2390.73L33.15,-2390.51L32.84,-2390.28L32.06,-2389.97L30.83,-2389.3L30.49,-2389L29.6,-2387.73L29.38,-2387.32L29.03,-2387L28.55,-2386.7L27.48,-2386.19L26.97,-2386.01L26.71,-2385.83L26.81,-2385.6L26.94,-2385.44L26.92,-2385.29L26.65,-2385.1L24.42,-2384.2L23.38,-2383.6L23.03,-2383.3L22.83,-2382.85L22.57,-2382.04L22.34,-2381.67L22.06,-2381.4L21.57,-2381.28L20.76,-2380.87L19.57,-2379.54L17.69,-2380L16.03,-2380.66L11.85,-2381.41L11.17,-2381.6L10.11,-2382.19L9.83,-2382.27L9.57,-2382.29L9.38,-2382.23L9.17,-2382.08L8.91,-2381.8L8.73,-2381.54L8.45,-2380.92L8.39,-2380.72L8.4,-2380.45L8.32,-2379.83L8.1,-2379.24L7.95,-2378.68L7.92,-2378.4L7.93,-2378.14L7.95,-2377.91L8.12,-2377.56L8.15,-2377.35L8.22,-2377.14L8.38,-2376.9L8.99,-2376.45L9.29,-2376.3L9.65,-2376.2L10.48,-2376.17L10.94,-2376.07L11.44,-2375.8L12.45,-2375.48L12.82,-2375.4L13.15,-2375.26L13.34,-2375.03L13.49,-2374.68L13.56,-2374.31L13.61,-2373.94L13.59,-2373.6L13.49,-2373.23L12.99,-2372.2L12.71,-2371.89L12.44,-2371.71L12.11,-2371.58L12.07,-2371.41L12.18,-2370.96L12.21,-2370.71L12.21,-2370.47L12.22,-2370.29L12.26,-2370.1L12.28,-2369.73L12.33,-2369.52L12.38,-2369.25L12.36,-2368.86L12.29,-2368.39L12.03,-2367.56L11.83,-2367.35L11.61,-2367.34L11.4,-2367.48L10.38,-2367.82L9.83,-2367.73L9.4,-2367.49L9.2,-2367.22L9.1,-2366.84L9.1,-2366.42L9.04,-2366.05L8.88,-2365.72L8.48,-2365.69L7.63,-2365.86L-1.02,-2368.2L-2.92,-2369.13L-3.98,-2370.11L-5.78,-2371.41L-6.58,-2372.27L-7.51,-2373.02L-8.43,-2373.51L-10.7,-2373.77L-11.65,-2373.45L-12.49,-2372.8L-12.93,-2372.05L-14.76,-2369.82L-16.51,-2366.92L-17.03,-2365.24L-17.58,-2363.91L-17.84,-2362.73L-18.74,-2362.1L-20.73,-2361.07L-23.12,-2360.86L-30.93,-2359.78L-35.82,-2357.05L-36.54,-2357.22L-37.41,-2357.21L-38.1,-2357.07L-38.67,-2356.64L-39.17,-2355.74L-39.68,-2356.9L-39.98,-2357.38L-40.42,-2357.77L-41.28,-2358.22L-41.77,-2358.25L-43.88,-2357.2L-44.5,-2357.15L-44.9,-2357.77L-44.76,-2358.34L-44.21,-2358.78L-42.87,-2359.29L-43.39,-2359.84L-43.86,-2359.98L-44.34,-2360.03L-44.9,-2360.31L-45.95,-2361.26L-47.77,-2363.32L-48.3,-2363.71L-49.02,-2363.87L-49.55,-2363.72L-49.87,-2363.38L-50.13,-2363.05L-50.42,-2362.9L-52.94,-2362.95L-53.89,-2363.44L-54.71,-2365.72L-55.71,-2366.47L-57.57,-2367.43L-58.76,-2366.97L-59.41,-2367.56L-59.13,-2368.35L-57.57,-2368.45L-58.22,-2369.69L-58.73,-2370.25L-58.86,-2370.94L-58.42,-2372.57L-59.41,-2372.82L-59.45,-2374.02L-59.18,-2375.51L-59.2,-2376.65L-60.36,-2375.31L-61.4,-2375.29L-62.48,-2376.08L-64.74,-2378.33L-65.76,-2379.93L-66.58,-2381.7L-67,-2383.29L-66.98,-2383.31L-66.99,-2384.39L-67.33,-2385.23L-67.78,-2385.99L-68.17,-2386.88L-65.5,-2387.19L-62.09,-2388.33L-56.95,-2389.19L-56,-2389.62L-55.79,-2390.03L-55.06,-2392.06L-47.58,-2403.01L-47.35,-2403.6L-47.28,-2404.12L-47.16,-2404.65L-46.79,-2405.26L-46.4,-2405.53L-43.45,-2406.73L-42.92,-2406.77L-42.2,-2406.69L-41.69,-2406.29L-41.43,-2405L-40.92,-2404.62L-35.98,-2402.98L-33.58,-2402.62z"/>
	</g>
</svg>