<?xml version="1.0" encoding="utf-8"?>
<!-- (c) ammap.com | SVG map of Nicaragua - High -->
<svg xmlns="http://www.w3.org/2000/svg" xmlns:amcharts="http://amcharts.com/ammap" xmlns:xlink="http://www.w3.org/1999/xlink" version="1.1">
	<defs>
		<style type="text/css">
			.land
			{
				fill: #CCCCCC;
				fill-opacity: 1;
				stroke:white;
				stroke-opacity: 1;
				stroke-width:0.5;
			}
		</style>

		<amcharts:ammap projection="mercator" leftLongitude="-87.690700" topLatitude="15.026288" rightLongitude="-82.737853" bottomLatitude="10.707073"></amcharts:ammap>

		<!-- All areas are listed in the line below. You can use this list in your script. -->
		<!--{id:"NI-AN"},{id:"NI-AS"},{id:"NI-BO"},{id:"NI-CA"},{id:"NI-CI"},{id:"NI-CO"},{id:"NI-ES"},{id:"NI-GR"},{id:"NI-JI"},{id:"NI-LE"},{id:"NI-MD"},{id:"NI-MN"},{id:"NI-MS"},{id:"NI-MT"},{id:"NI-NS"},{id:"NI-RI"},{id:"NI-SJ"}-->

	</defs>
	<g>
		<path id="NI-AN" title="Atlántico Norte" class="land" d="M493.68,171.65l-0.85,0.21l-0.28,-0.39l0.85,-0.96l-0.48,-0.96l2.04,-1.47l0.29,0.18l0.03,1.16L493.68,171.65zM594.14,76.19l0.31,4.42l-1.75,2.91l-2.75,0.14l-0.61,-0.77l-1.6,-0.4l-2.28,0.75l-0.19,-0.29l0.5,-0.75l1.51,-0.76l0.33,-1.07l1.31,-1.67l0.17,-1.44l0.78,-0.86l1.11,-0.43l1.46,0.43l1.23,-0.43L594.14,76.19zM543,8.5l-1.68,0.36l-1.8,-0.23l-0.21,-0.31l0.21,-0.21l1.87,0.4l1.85,-0.49L543,8.5zM544.87,4.9l-1,1.95l-0.36,-0.23l0.18,-0.92l-0.23,-0.17l-0.34,0.78l-0.59,-0.11l0.09,-1.07l2.53,-1.34l0.21,0.55L544.87,4.9zM519.82,3.2l0.52,0.48l0.71,-0.17l0.25,-1.54l0.34,-0.11l1.69,0.4l3.31,1.59l2.67,-0.53l0.29,0.23l-0.11,0.71l-1.59,1.39l1.07,0.75l0.39,0.01l0.75,-1.19l2.52,-0.08l1.97,0.48l3.33,-1.54l2.15,0.36l2.15,1.54l-0.12,1.43l-0.99,0.27l-0.19,-0.21l0.76,-0.61l-0.15,-0.23l-0.61,0.42l-0.43,-0.74l-0.94,0.08l-0.92,-0.89l-0.44,0l-1.08,1.88l0.5,0.09l0.42,-0.56l0.32,0.04l0.14,0.39l-0.46,0.77l-3.15,3.6l-0.69,0.32l-3.36,4.05l-1.12,2.67l-0.4,3.71l-3.42,7.89l-2.75,0.16l-0.37,-0.42l0.95,-0.55l-0.12,-0.88l1.44,-1.17l-0.12,-0.59l-1.23,0.78l-0.29,-0.19l-0.15,-1.57l0.74,-1.08l0.7,-0.34l0.46,0.51l1.41,0.31l0.75,0.82l0.25,-0.27l-0.28,-1.61l-1.55,-2.96l-0.49,-4.29l-0.41,-0.99l-0.67,-0.49l-2.77,0.2l-2.01,1.21l-1.1,1.32l-2.61,5.07l-0.65,0.09l-1.76,-1.07l-0.59,0.09l1.29,1.25l0.06,2.44l-0.47,0.7l-1.52,0.5l-0.55,0.86l0.08,0.58l0.82,0.14l0.85,-1.27l0.31,0.05l0.28,1.42l1.33,-0.62l0.44,2.61l1.16,2.04l-0.01,1.21l3.46,2.86l2.92,-0.22l0.31,-1.5l-1.03,-1.64l-3.36,-0.66l0.11,-0.66l3.11,0.2l1.08,1l0.68,1.22l0.69,0.21l0.01,-0.48l-0.83,-0.99l0.38,-0.56l-0.26,-0.94l0.72,-0.95l0.55,0.08l2.6,13.87l1.39,4.73l0.53,3.61l3.89,12.35l0.72,0.86l0.37,2.54l-0.82,-1.54l-2.15,0.18l-1.54,-1.23l-0.1,-0.63l0.41,-0.47l-0.63,-1.89l-2.31,-3.58l-0.9,-0.04l0.35,0.91l-0.32,0.45l0.08,0.29l1.28,0.38l-0.33,2.35l0.23,0.11l0.58,-0.86l0.55,0.22l-0.29,1.02l1.05,3.35l-0.19,1.94l0.73,0.12l1.13,-0.87l0.86,0.04l0.48,-1.06l0.4,-0.01l0.51,1l0.69,0.29l0.63,1.63l0.42,0.26l0.43,-0.5l0.37,0.06l0.3,0.77l-0.2,1.47l2.1,12.83l-2.42,7.57l-4.2,9.17l-3.12,5.59l0.06,-0.9l1.26,-2.11l0.09,-1.42l1.14,-1.61l-0.02,-2.49l0.82,-1.33l1.65,-4.69l-0.02,-1.65l-1.49,-2.49l-1.62,-1.38l0.26,-0.72l1.18,1.16l0.22,-0.77l-2.12,-4.47l-2.55,-3.68l-1.13,-0.3l-1.04,2.06l1.5,1l1.49,2.67l-1.04,-0.38l-1.2,-1.27l-1.78,-0.32l-0.7,-0.92l-0.67,0l2.04,4.27l-1.75,0.28l-0.36,-1.35l-0.66,0.48l-0.88,0.1l-0.27,1.16l0.77,0.38l0.92,1.61l0.84,-1.37l0.87,-0.18l0.24,1.91l-0.67,2.42l0.88,1.34l0.27,1.53l1.46,0.76l0.19,-0.18l-0.55,-1l0.45,-0.24l0.94,0.36l1.59,1.32l-0.11,-1.4l0.92,0.39l0.16,1.32l-0.6,0.27l-0.27,0.82l1.91,1.42l-0.73,0.79l0.18,1.74l-1.44,3.06l-1.35,-0.71l-0.78,1.5l-1.02,0.32l-0.17,0.35l0.9,0.2l1.71,-1.43l0.73,0.3l-1.37,2.33l-0.14,2.62l-0.62,0.39l-0.65,1.8l-2.38,1.99l-3.09,3.68l-1.12,2.72l-2.21,2.19l-1.13,1.62l-1.16,0.07l-2.49,2.25l-1.16,1.82l-0.42,1.35l-1.03,0.86l0.3,0.88l-1.2,2.39l-0.28,-1.1l-1.28,-1.48l0.12,-1.82l0.35,-0.7l2.19,-1.45l0.52,-2.06l-2.22,1.75l-0.96,-1.84l-2.58,-2.51l1.1,-2.83l-1.81,-1.32l0.18,-1.58l-2.25,-0.28l-0.16,-0.39l0.66,0.02l0.09,-0.38l-0.24,-1.65l-0.7,-1.13l0.11,-1.47l-0.45,-0.5l-2.46,-0.18l-1.52,-0.76l-0.26,-1.8l-1.08,-0.85l0.07,-1.95l-0.65,-1.77l0.62,0.46l0.34,-0.28l1.11,0.06l-0.64,-0.59l1.19,-2.99l-4.73,-3.5l-0.36,-0.93l0.35,-1.52l-1.48,-0.25l-1.26,-2.89l-0.22,-1.59l-1.32,-0.23l-1.09,1.14l-0.69,-0.62l-2.1,-0.55l-1.78,0.91l-0.89,-0.1l-2.56,-1.52l-2.2,-0.62l-3.01,-1.66l0.35,0.88l0.72,0.42l3.26,0.89l3.86,2.42l0.91,0.01l0.83,-0.88l1.55,0.28l1.18,0.99l1.83,-1.09l0.71,0.67l0.06,1.54l1,2.26l0.75,0.51l0.77,0.02l-0.3,1.29l0.49,0.93l3.23,2.19l1.27,1.5l-1.14,2.08l-0.83,0.01l-0.35,0.35l0.4,1.75l0,2.35l1.08,1.13l0.52,1.72l4.09,1.34l1.11,2.78l-0.78,1.2l0.15,0.97l0.37,0.37l1.6,0.05l-0.19,1.37l1.7,1.27l-0.06,0.73l-0.91,1.29l0.1,0.52l1.48,1.89l2.26,2.04l-0.12,0.94l-0.47,0.59l-1.57,0.55l-0.17,-1.25l-0.41,-0.35l-3.19,-1.61l-0.57,0.03l-0.8,0.97l-0.88,2.23l-0.11,1.15l0.37,0.35l3.34,-0.75l0.87,0.62l0.09,0.71l-1.3,1.79l0,1.01l0.62,0.81l1.28,0.05l1.61,-0.61l1.09,0.21l0.41,0.44l-0.55,2.52l0.17,1.38l-0.7,1.96l-0.05,0.86l0.59,0.93l-1.51,2.32l-1.82,4.23l-2.26,10.35l-2.88,19.99l-0.79,-0.64l-0.68,-3.61l0.12,-1.71l1.35,-4.03l-0.73,-2.2l0.57,-1.34l1.64,-1.88l0.18,-0.72l-1.44,-2.86l-0.84,-0.23l0.44,0.71l-2.9,0.31l-0.58,0.57l0.71,1.41l1.38,0.52l-0.33,0.83l-1.72,0.78l-3.1,-0.61l-1.95,0.72l-0.43,0.59l0.09,1.61l-0.39,0.51l-1.72,-1.6l-1.38,-2.3l-0.31,-1.14l0.12,-1.69l-0.46,-0.97l-0.89,-0.81l-1.99,-0.34l-2.7,-3.22l-0.43,-2.51l-0.62,0.57l0.14,1.52l1.1,2.78l4.71,2.83l0.27,2.13l0.73,1.62l2.84,3.42l-0.05,0.28l-1.41,-0.22l-0.18,0.41l1.15,0.51l0.53,-0.33l0.67,0.35l1.76,2.28l1.2,2.92l1.76,0.59l-0.44,0.72l0.18,0.28l1.01,-0.07l0.73,0.44l0.68,-0.59l0.31,0.31l0.36,1.79l-0.94,0.65l-0.38,-0.89l-0.54,-0.29l0.04,1.24l0.41,0.48l1.54,-0.08l1.54,1.31l-0.09,1.26l-0.78,-0.44l-0.87,-0.07l-0.23,0.31l1.9,1.41l0.36,0.63l-0.83,1.11l-0.16,1.21l-1.64,3.64l-0.12,1.11l-1.34,-1.81l-1.02,-0.66l-1.67,-0.8l-1.4,0.27l1.15,1.18l2.73,1.49l-1.01,1.03l0.14,0.47l0.27,0.18l1.31,-1.34l-0.89,6.42l-0.73,0.76l-0.33,-0.13l0.63,-2.07l-1.69,0.27l-1.64,1.75l-0.6,1.27l-1.23,-0.39l-0.87,0.35l-0.88,2.75l-1.76,-0.42l-1.01,1l-3.89,2.41l-0.94,-0.27l-0.55,-1.79l0.37,-0.66l-0.26,-0.63l-3.34,-0.61l-1.4,-0.75l-2.52,0.65l-1.01,-0.1l-0.82,-0.96l-0.52,-1.96l-1.91,-1.49l-1.21,-1.71l-2.3,-0.79l-0.28,-0.5l0.1,-2.49l-3.73,-4.24l-0.12,-1.37l2.18,-2.09l-1.06,-3.96l-2.62,-2.94l-1.52,-0.19l-2.89,-1.35l-1.29,0.37l-1.46,1.39l-2.38,-0.23l0.74,1.02l1.1,0.04l1.51,-0.68l1.35,-1.42l1.17,0.42l0.71,0.86l1.66,0.61l1.14,-0.11l2.17,3.19l0.09,1.85l0.43,0.89l-0.14,0.62l-1.41,0.84l0.13,0.95l-0.47,1.41l1.61,1.83l0.34,0.88l1.11,0.17l-0.37,0.72l1.12,0.17l0.24,0.5l0.06,3.07l-0.5,0.79l-2.16,0.55l-2.93,2.59l-1.33,-0.06l-1.44,0.49l-1.59,-1.72l-0.98,-0.27l-2.14,0.18l-3.75,-0.33l-1.09,0.78l-0.93,-0.03l-1.55,-0.69l-0.18,-0.62l-0.81,-0.57l-2.46,-0.49l-0.38,-0.88l-1.32,-0.51l0.68,-1.17l-2.23,-0.37l-0.8,0.72l-0.27,-0.09l-0.06,-0.92l-2.18,-0.78l-0.8,0.76l-1.1,-0.23l-1.07,0.42l-1.11,-1.43l-2.06,1.45l-2.29,0.29l-6.38,-2.63l-1.2,-0.21l-0.41,0.68l-1.37,0.91l-0.57,1.86l0.71,0.31l0.55,-0.17l0.12,-1.63l1.54,-0.95l5.91,2.58l3.47,-0.1l1.8,-1.33l0.66,1l0.69,0.2l0.9,-0.5l2.4,-0.46l1.7,1.48l1.89,-0.66l0.08,1.22l1.73,1.01l0.78,0.91l2.39,0.72l3.3,1.83l2.04,-0.72l2.85,-0.24l2.63,0.55l2.56,1.69l1.3,-0.64l0.93,0.02l2.89,-2.01l2.83,-0.9l0.65,-0.76l0.47,-0.04l1.55,0.65l2.6,2.59l1.12,2.81l2.01,0.63l2.21,-0.71l2.44,0.96l1.85,-0.01l0.51,2.58l1.53,1.2l1.29,-0.17l1.39,-0.77l1.4,-1.5l1.58,-0.72l1.02,0.38l0.89,-0.39l0.59,-0.95l-0.09,-1.4l0.56,-0.46l0.67,0.33l2.39,3.24l1.65,-1.95l0.88,-2.47l0.32,0.01l0.24,0.61l-0.52,1.58l-1.22,14.94l1.44,15.57l2.1,14.27l0,0l-5.02,-0.73l-7.03,0.24l-21.45,-14.34l-0.67,-0.93l0.08,-0.71l1.27,-3.03l2.53,-4.44l-0.21,-0.86l-0.73,-0.44l-1.51,-0.35l-1.67,0.1l-3.01,-2.3l-5.2,0.03l-11.76,-2.39l-7.79,-0.91l-3.56,-1.36l-8.48,0.48l-1.51,0.6l-2.54,0.12l-3.27,2.47l-0.98,0.27l-1.12,-0.21l-0.81,-1.71l-0.65,-0.42l-1.03,0.57l-0.95,-0.14l-0.62,0.36l-0.94,-0.61l-0.72,-0.01l-1.13,0.61l-2.51,2.68l-25.39,0.67l-25.33,3.64l-6.78,9.49l-1.35,0.56l-5.23,0.91l-2.23,1.13l-2.11,3.52l-1.67,1.48l-10.68,-0.68l-5.45,-1.25l-5.99,4.13l0,0l-0.75,-1.36l-1.25,-1.11l-0.5,-1.19v-1.02l0.75,-1.7l3.76,-1.87l0.58,-0.85l-0.42,-1.02l1.59,-2.47l0.08,-1.02l-0.5,-0.68l-2.5,-0.17l-2.59,0.77l-1.25,1.11l-0.42,1.96l-0.83,-0.43l-0.92,-1.53l-2.59,0.17l-0.25,2.64l-0.33,0.43l-1.92,-2.6l-1.64,1.67l-1.52,-0.23l-1.23,1.72l-2.18,0.03l-0.47,0.27l-0.78,1.56l-0.81,0.07l-1.23,-0.94l-1.02,-0.1l-0.67,-1.21l-1.42,-0.34l-1,-2.28l-1.89,-0.39l-0.92,-1.34l-1.31,-0.78l-0.76,-1.1l-0.51,-0.22l-1.07,0.82l-1.77,0.2l-2.8,-1.9l-1.75,-2.31l-0.86,-2.08l-2.89,-1.47l-1.73,-3.21l-1.76,-1.23l-3.6,-4.53l-1.16,-2.81l-0.35,-2.17l-0.8,-1.63l0,0l-0.73,-2.19l0.11,-1.19l0.78,-1.34l1.52,-1.53l2.66,-1.65l3.69,-3.27l3.49,-1.17l1.53,-2.51l-0.13,-3.1l1.21,-2.6l0.7,-3.38l-0.59,-1.43l-2.15,-1.7l-1.19,-1.56l-0.17,-0.76l0.63,-1.66l2.9,-1.72l0.8,-0.93l1.43,-6.72l9.23,-0.22l16.5,-10.72l11.78,5.86l24.82,-40.27l-1.53,-7.17l4.67,-23.98l-14.2,-0.84l-0.61,-1.51l-1.26,-0.23l-0.86,-2.01l-1.55,-0.89l-0.65,-1.99l-1.28,-0.72l-0.34,-0.76l0.2,-0.74l1.07,-0.28l0.89,-0.76l-0.06,-3.32l-0.7,-0.95l0.46,-1.75l0.52,-0.15l1.25,-1.37l0.1,-1.23l-1.2,-2.01l-1.84,-0.23l-1.68,-2.02l0.76,-1.67l-0.91,-0.78l0.03,-0.86l0.81,-1.52l0.16,-1.33l1.04,-1.56l-0.42,-1.54l-1.92,-0.88l-0.63,-0.9l-1.55,0.09l0,0l-1.52,-0.17l-0.22,-0.43l1.63,-1.65l0.29,-0.82l-0.55,-1.14l-2.22,-1.5l-0.3,-0.94l0.23,-0.68l0.8,-0.58l1.37,0.14l1.03,-1.89l-0.65,-0.55l0.07,-1.13l1.98,-1.99l1.65,-1l1.21,-1.52l1.28,-0.33l1.89,-1.74l3.91,-0.81l0.3,-1.73l1.2,-1.71l0.51,-1.41l1.59,-1.5l2.2,-0.1l2.48,0.39l2.58,-1.56l2.27,-0.44l1.14,0.69l0.87,0.01l0.54,0.84l0.67,0.17l0.41,1.94l0.85,1.24l3.33,2.14l0.3,1.11l-0.52,0.74l-1.06,-0.21l-0.72,0.74l0.58,0.84l0.67,0.17l1.43,-0.69l0.38,0.88l-0.57,1.45l0.45,1.74l2.89,2.53l1.26,0.29l0.86,3.33l1.1,0.09l1.78,-3.21l0.67,0.21l-0.13,0.67l0.7,0.76l1.33,0.73l2.65,-0.56l0.58,1.27l2.09,0.11l2,0.82l0.99,-0.38l1.01,0.92l1.51,-0.41l1.05,0.88l0.8,-0.54l3.52,-0.38l0.15,0.44l-0.56,0.74l-1.07,0.34l0.3,1.58l1.58,-0.17l1.23,-0.53l0.47,0.13l0.15,0.83l0.94,0.7l3.48,0.8l0.36,-0.12l1,-1.81l2.96,-0.2l2.78,-1.41l0.19,-1.29l3.03,-2.89l0.7,-1.67l1.18,-1.38l-0.08,-0.82l0.44,-0.38l1.29,0.93l1.3,0.31l-0.94,1.96l-0.01,0.82l0.33,0.39l0.86,0.45l1.73,0.17l0.73,-0.23l0.45,-0.76l0.92,-0.32l0.71,0.59l0.36,1.55l0.48,0.49l2.11,0.66l2.93,-2.41l-0.95,-0.88l0.37,-1.97l-1.16,-2.62l0.17,-1.63l0.49,-0.67l2.97,-2.07l1.15,0.11l0.81,0.64l-0.75,2.11l1.2,0.55l1.52,1.37l3.12,0.96l4.06,-0.71l0.79,-0.95l1.31,-0.56l3.65,0.44l-0.08,-1.89l-0.89,-0.68l-1.39,-3.34l0.06,-1.01l0.49,-0.67l1.74,-0.17l1.44,0.41l0.28,0.44l0.01,2.75l0.28,0.34l0.58,0.11l3.06,-1.54l0.43,0.06l0.58,2.71l1.97,0.51l2.86,-1.35l2.77,1.15l3.06,-1.3l0.58,0.01l1.19,0.89l0.96,0.06l0.2,-0.48l-0.97,-2.33l0.25,-0.33l1.54,0.07l0.68,-0.57l2.29,1.63l1.11,-0.42l-0.33,-0.58l0.41,-1.58l0.39,-0.09l0.57,0.54l0.45,1.79l1.65,-0.74l1.44,0.12l1.91,-2.09l4.73,-0.4l-2.67,-1.68l-0.14,-0.39l0.53,-0.28l2.39,1l0.83,-0.52l0.02,-1.2l0.34,-0.33l1.33,1.32l1.3,0.21l0.25,-0.62l-0.17,-1.11l0.69,-0.9l2.54,0.96l-0.08,-0.87l-0.66,-0.88l0.39,-0.19l1.25,0.17l0.97,-0.27l1.1,0.79l0.72,0.01l-0.13,-0.63l0.35,-0.86l-1.72,-0.7l0.44,-0.57l0.97,-0.08l0.73,-0.57l-0.12,-1.59l0.44,-0.09l0.9,0.79l2.19,-1.31l1.44,0.07l0.64,-0.57l0.82,0.01l1.63,0.27l0.43,0.44l-0.07,1.16l0.66,0.64l0.44,-0.23l-0.36,-1.31l1.19,-1.62l-0.57,-0.68l0.01,-0.53l2.47,-0.73l-0.36,-1.5l1.16,-0.07l1,0.6l1.07,-0.61l1.15,0.45l0.3,-3.22l0.49,-0.28l1.39,0.31l0.25,-0.48l-0.89,-1.51l0.29,-0.19l1.48,0.8l0.29,-0.24l-0.75,-0.98l-0.45,-1.89l0.45,-0.81l1.43,0.99l0.48,-0.14l-0.56,-1.07l-0.17,-1.3l0.35,-0.43l1.33,1.18l0.51,-1.29l0.84,-1l1.75,-0.64l1,0.49l-0.03,1.6l1.9,1.48l1.5,-0.31l1.9,-1.31l1.78,-0.06l1.96,-1.8L514.43,0l0.91,0.17l0.97,1.17l1.44,0.03l1.29,0.54L519.82,3.2z"/>
		<path id="NI-AS" title="Atlántico Sur" class="land" d="M477.06,388.15l0.11,0.65l-0.78,-0.91l-2.12,-1.14l-0.86,-3.56l0.6,-2.59l-0.62,-2.19l0.15,-0.99l1.35,-1.52l0.2,-2.17l1.43,-1.44l0.93,0.11l-2.07,3.96l-0.4,4.37l0.47,4.04l0.57,1.41l0.99,1.22L477.06,388.15zM312.22,241.42l5.99,-4.13l5.45,1.25l10.68,0.68l1.67,-1.48l2.11,-3.52l2.23,-1.13l5.23,-0.91l1.35,-0.56l6.79,-9.49l25.33,-3.64l25.39,-0.67l2.52,-2.68l1.14,-0.61l0.72,0.01l0.94,0.61l0.62,-0.36l0.95,0.14l1.03,-0.57l0.65,0.42l0.81,1.71l1.12,0.21l0.98,-0.27l3.27,-2.47l2.54,-0.12l1.52,-0.6l8.48,-0.48l3.56,1.36l7.79,0.91l11.76,2.39l5.2,-0.03l3.01,2.3l1.67,-0.1l1.51,0.35l0.73,0.44l0.21,0.86l-2.53,4.44l-1.27,3.03l-0.08,0.71l0.67,0.93l21.45,14.34l7.03,-0.23l5.02,0.73l0,0l2.29,8.78l0.4,3.16l0.97,2.52l-0.23,0.91l-0.89,0.82l-0.64,0.08l-0.54,-0.52l-0.09,-1.69l0.72,-2l-0.13,-0.96l-0.41,-0.37l-0.46,-0.03l-0.41,0.46l0.85,0.53l-0.91,2.12l0.39,0.75l0.21,2.1l-1.11,-0.44l-2.13,-0.05l-2.98,-1.64l-1.5,0.17l-0.39,0.32l0.18,0.56l1.83,1.14l0.03,0.36l-0.59,0.14l-1.2,-0.27l-2.77,-1.66l-0.74,0.1l-1.03,0.82l-0.97,-0.8l-4.31,-0.96l0.59,-0.83l-0.19,-1.07l-3.53,-1.54l-0.94,0.67l-0.96,-1.38l-0.57,0.06l-0.61,1.02l-0.36,0.06l-0.45,-1.53l-2.26,-1.61l-0.58,-2.3l-4.34,-1.51l-3.99,-2.02l-0.32,-0.77l-0.07,-2.36l-3.21,-3.81l1.36,-1.31l-1.09,-2.18l-0.66,-2.39l-0.65,-0.4l-1.58,-0.11l-0.08,-0.3l0.85,-0.42l0.18,-0.49l-0.67,-1.12l0.26,-1.13l-0.71,-0.5l-0.95,0.03l-0.42,-0.3l-0.56,-1.29l-1.6,-1.26l0.41,-3.08l-2.95,-2.2l-1.61,-0.68l-2.32,-2.14l-1.94,-0.72l-0.16,0.64l0.66,1.6l-0.35,0.51l-1.9,-0.09l-1.11,0.61l-1.11,-0.21l-2.77,1.96l-0.86,-0.35l-1.17,-1.48l-1.01,0.01l-0.52,0.47l0.36,0.97l-0.31,0.81l-5.85,1.42l-0.82,1.75l0,1.12l0.99,1.15l2.29,0.5l0.33,0.48l-0.47,0.36l-0.88,-0.31l-0.43,0.42l-1.46,2.88l-1.16,0.56l-3.95,0.02l-4.94,0.63l-2.75,1.96l-5.42,2.3l-4.24,6.18l-4.04,2.88l-2.08,0.45l-1.2,1.83l-1.23,-0.83l-1.52,-2.91l-5.79,-1.55l-2.28,-2.25l-4.28,0.2l-2.45,-0.49l-0.92,0.55l-0.5,1.39l1.45,-1.36l3.06,0.56l1.45,-0.43l1.31,-0.04l1.21,0.72l1.57,1.73l1.19,0.01l2.5,1.07l1.67,0.06l1.83,3.26l1.04,0.76l1.29,-0.03l1.29,-1.59l2.3,-0.66l4.09,-3.15l3.36,-5.6l3.67,-1.25l3.98,-2.83l0.92,-0.33l8.39,-0.68l1.93,-1.05l1.14,-2.52l1.62,0.28l0.4,-1.86l-2.35,-0.69l-1,-0.76l-0.07,-0.73l0.72,-1.9l3.49,-0.79l2.81,0.03l-0.65,-1.96l0.39,-0.51l0.74,0.03l0.59,1.17l0.79,0.55l2.37,-0.98l1.25,-1.23l1.44,0.88l0.36,-0.94l0.43,-0.19l2.17,0.05l0.29,-0.58l-0.66,-1.57l0.35,-0.38l1.47,1.52l2.76,1.3l1.3,1.26l1.51,0.71l0.37,0.58l-0.39,1.5l0.1,1.37l2.69,3.23l1.41,0.04l0.14,0.3l-0.96,1.15l0.4,0.37l0.61,-0.04l0.09,0.62l-1.19,1.19l0.23,0.32l2.17,0.27l0.52,1.38l0.9,1l0.56,1.6l-1.25,0.95l-0.31,0.7l1.63,1.29l1.69,2.42l-0.13,2.1l0.81,1.75l0.95,0.76l2.3,1l1.35,0.04l3.62,1.29l0.43,2.4l2.21,1.98l1.18,1.9l0.59,-0.08l0.19,-0.7l0.32,-0.1l1.72,1.39l0.89,-1.03l2.5,1.27l-0.48,1.53l0.91,0.76l3.52,0.37l0.95,0.83l2.48,-0.24l3.54,1.31l1.75,0.05l0.23,-0.89l-2.08,-1.63l0.83,-0.12l4.81,2.18l2.54,-0.04l0.29,2.2l0.98,-0.18l0.48,-2.66l0.67,-0.47l0.29,0.7l-1.39,4.03l-2.73,17.68l-0.71,5.64l-0.36,6.74l0.45,5.4l2.62,8.7l2.54,2.8l1.23,2.32l0.19,3.77l-0.65,5.35l-0.66,0.86l-0.67,0.05l-3.69,-0.88l-2.22,-0.12l-6.03,1.56l-0.98,1.36l-0.84,0.35l-0.95,-0.61l-0.28,-0.74l3.12,-4.28l0.54,-1.27l-2.36,-5.44l-1.3,-1.37l-0.48,-1.05l-0.3,-5.53l0.49,-3.85l0.75,-1.37l0.31,0.43l-0.28,1.17l0.2,0.53l2.31,-0.44l2.91,0.48l0.92,-0.54l0.39,-1.4l1.34,-1.45l0.27,-4.38l-0.83,-7.19l1.13,-2.39l0.28,-2.23l0.78,-1.55l-0.05,-0.53l-0.4,-0.05l-1.14,0.69l-0.5,-0.33l0.56,-1.38l1.44,-1.15l0.49,-0.89l0.24,-3.11l-0.67,-2.14l-3.21,-0.98l-2.44,-1.27l-2.44,-0.48l-0.58,0.31l-1.03,1.65l-1.46,0.02l-0.49,1.13l-0.99,-0.25l0.24,-3.95l-0.85,-4.31l-2.77,-1.79l-1.15,-0.29l-0.73,0.31l-0.92,3.22l0.34,0.94l1.19,1.49l2.28,0.25l-0.53,0.93l-1.51,0.34l-1.79,-0.11l-7.93,-3.81l-1.66,-0.32l-1.42,0.3l-3.48,1.64l-0.42,3.2l-2.93,-0.1l-1.39,2.31l-1.53,-0.62l-1.6,0.58l-0.62,-0.65l-1.51,-0.53l-1.85,-1.29l-0.64,-1.25l-0.62,-0.46l-0.7,0.1l-0.34,0.99l-2.13,-0.23l-0.22,-1.07l-1.67,-1.65l0.16,-1.22l-1.59,-0.08l-2.52,-1.96l-2.09,-0.11l-2.58,-0.89l-0.73,0.44l0.06,0.86l-0.54,0.64l-1.02,0.44l-1.03,-0.14l0.81,0.56l1.21,-0.37l0.69,-0.53l0.72,-1.53l0.76,0.14l0.66,0.74l2.43,0.09l1.18,1.17l0.95,0.06l0.69,0.61l1.17,0.21l-0.06,1.48l0.92,0.44l1.22,2.05l2.58,0.61l0.98,-1.23l0.81,1.34l1.7,1.43l1.47,0.4l1.6,1.05l2,-0.74l0.74,0.93l0.47,-0.27l1.33,-2.4l1.64,0.37l1.68,-0.51l0.22,-0.3l-0.26,-1.27l0.53,-0.96l-0.17,-0.75l3.63,-1.53l2,0.26l6.42,3.27l2.77,0.74l3.32,-0.36l1.32,1.19l-0.13,0.96l-4.44,-0.55l-4.38,-2.11l-2.33,-0.46l-0.88,-1.17l-0.83,0.14l-1.5,1.09l0.18,2.14l0.69,0.14l1.82,-1.24l1.99,-0.21l0.37,0.48l-0.66,1.81l-1.02,0.18l-0.18,0.45l2.17,0.86l0.17,0.64l-0.57,1.08l3.67,-0.02l0.85,-2.15l0.59,-0.65l1.89,-0.38l2.21,1.31l1.3,0.34l0.37,0.56l0.22,1.63l-0.66,1.98l0.09,0.64l2.06,0.52l0.65,-0.67l0.62,0.54l0.75,2.51l-0.72,0.87l0,1.07l1.99,1.73l0.95,1.89l-0.73,4.11l0.84,1.33l-0.21,1l0.24,1.41l-1.13,-0.46l-0.45,0.23l-1.7,2.39l-2.15,-0.17l0.16,1.28l-0.26,0.51l-3.27,2.56l-1.85,0.55l-1.62,1.51l-1.06,0.31l-2.3,-0.26l-2.41,0.74l-3.02,2.5l-0.19,3.87l0.27,2.77l0.86,0.33l1.41,-1.67l0.7,-0.16l0.36,0.77l1.23,-0.22l0.75,2.56l0.15,3.83l0.97,3.13l-1.39,3.32l0.2,2.49l0.58,1.47l2.01,1.84l1,-0.1l0.97,-0.94l1.53,-0.26l1.33,-0.75l0.58,0.54l-0.11,2.18l-1.01,2.75l-0.06,2.62l0.66,-0.07l0.1,-2.15l0.97,-1.92l0.04,-1.78l0.41,-1.23l1.91,-2.36l0.92,-0.63l0.54,-0.06l0.72,0.91l-1.04,1.81l-2.06,2.13l-0.72,1.39l-3.77,9.8l-0.19,5.25l-0.51,0.36l-0.12,0.56l-0.01,2.22l-0.51,2.4l-0.09,4.01l0.85,4.59l-0.29,3.95l0.33,2.28l-0.23,0.22l-1.33,-1.47l-1.66,-1.15l-1.61,-2.86l-0.3,-2.09l-0.68,0.27l0.26,-1.24l1.81,-1.38l0.13,0.91l1.4,-0.05l0.82,0.55l-0.24,-1.65l0.48,-0.52l-1.1,-1.19l-0.01,-0.84l0.58,0.74l0.4,0.02l-0.04,-0.36l-2.01,-4.49l-3.02,-2.68l-0.47,-0.05l-0.18,0.57l0.86,1.36l1,0.09l0.77,0.68l0.07,0.57l1.36,1.93l0.03,0.57l-1.36,2.17l-0.55,2.15l-0.95,0.94l-0.65,1.87l-0.5,-0.62l-0.17,-1.08l0,-4.56l-0.38,-1.08l-1.63,-2.15l0.09,-0.27l1.88,-0.47l0.23,-0.65l-0.48,-0.45l-0.65,0.86l-1.85,0.47l-4.87,-1.18l-4.54,0.45l-0.29,-0.49l-0.01,-1.69l-0.53,0.21l-0.01,1.4l-0.42,0.61l-0.84,-0.11l-1.51,-1.39l0.15,0.54l1.41,1.32l1.48,0.2l-0.27,0.72l-1.52,0.96l-2.48,0.4l-0.64,0.4l-0.39,2.26l-2.69,-0.17l-1.62,0.39l-0.99,1.77l-0.6,0.23l-0.33,0.82l-0.81,0.14l-0.47,1.24l-0.49,0.02l-2.24,-2.09l-1.1,-0.05l-0.37,-0.38l-0.47,0.15l-0.18,0.78l-0.73,-0.05l-0.39,0.38l-0.78,-0.03l-1.26,-1.51l-0.63,0.84l-1.54,-0.07l-0.71,0.61l-2.15,-2.49l-1.04,-0.64l-1.14,0.03l-0.91,-0.98l-2.31,0.3l-1.56,0.86l-0.52,-0.45l-0.69,-2.31l-0.9,-1.49l-2.49,-1.12l-1.81,0.6l-0.3,-0.83l-0.54,-0.34l-3.69,0.5l-1.41,-0.22l-2.04,-2.46l-1.69,-0.06l-1.68,-1.29l-2.08,-3.35l-0.77,-3.24l-0.89,-0.84l1.55,-1.03l0.59,-1.01l0.73,-0.48l0.16,-1.44l-1.44,-3.31l-0.76,-0.79l-0.21,-1.83l-1.09,-1.97l-0.77,-0.6l-2.75,0.06l-0.93,-0.53l1.11,1.17l1.46,-0.22l1.26,0.42l1.34,2.27l0.27,1.73l0.99,0.66l0.72,3.19l-2.93,4.21l1.05,1.22l0.2,1.47l1.71,3.86l1.93,1.42l0.13,0.57l-0.49,0.34l-3.91,0.18l-4.11,3.34l-5.02,0.75l-1.84,1.03l-2.58,0.66l1.1,0.3l3.09,-1.27l6.21,-1.01l1.8,-0.98l2.24,-1.96l4.99,-1.04l1.08,0.05l1.6,2.24l1.32,0.44l-0.32,1.29l0.38,1.13l-0.16,0.74l1.11,1.5l-1.37,1.9l-0.12,1.42l-1.27,1.94l0.09,1.76l-1.44,1.22l-0.05,0.47l2.17,-1.89l1.07,-4.36l1.48,-2.04l-0.02,-0.95l-1.09,-1.22l-0.01,-2.46l3.28,-0.95l1.54,1.07l1.41,-0.58l2.44,0.85l0.69,1.13l0.89,3.04l1.02,0.75l0.87,-0.29l1.43,-1.26l1.62,-0.05l0.47,0.94l2.06,0.52l2.81,3.37l0.34,-0.04l0.23,-0.82l1.33,0.07l0.73,-0.65l1.42,0.96l1.49,-0.12l1.05,-0.78l0.69,0.64l0.28,-0.48l0.38,0.07l1.16,1.49l1.68,0.77l0.73,-0.44l0.23,-0.91l1.09,-0.65l0.08,-0.7l0.84,-0.65l0.23,-1.12l0.5,-0.48l1.5,0.31l3.38,-0.57l0.29,-0.63l-0.74,-0.85l0.24,-0.55l3.1,-0.42l5.26,-2.41l2.78,0.07l3.28,1.25l1.1,1.11l1.15,3.2l-0.27,2.93l0.54,1.8l0.3,3.38l-0.56,0.36l-0.56,-0.95l-0.42,0.93l-0.64,0.12l-2,-2.04l-1.9,-0.56l-1.49,0.24l0.29,0.42l2.59,0.06l2.98,3.14l0.31,2.24l-0.37,0.99l-0.02,1.54l-1.08,1.09l-0.21,2.08l0.8,0.97l-2.31,2.76l-1.56,0.62l-0.19,2.17l-0.45,0.76l-2.85,1.56l-1.35,1.34l-0.09,0.94l0.32,0.68l2.62,0.73l-0.41,2.01l0.23,0.78l1.36,1.84l2.48,1l0.1,1.24l0.53,0.36l1.78,-0.45l2.5,0.17l0.34,-0.27l-0.15,-0.97l-1,-1.92l1.3,-5.37l0.56,0l0.34,0.57l2.77,1.38l0.69,4.04l2.77,7.72l0.37,4.68l0.89,3.29l-1.09,-0.68l-0.08,-0.78l-1.05,0.1l0.02,0.34l1.46,1.34l1.01,0.33l0.36,0.68l-0.23,2.04l1,4.16l-0.2,0.45l0.58,0.51l0.59,0.04l-0.16,0.98l0.3,0.54l-0.7,1.64l-1.22,-0.66l-0.81,0.07l-0.88,-0.77l-1.49,0.45l-1.15,1.63l-0.82,0.41l-1.49,2.27l-1,-0.32l-3.57,0.78l-2.46,5.66l-2.83,-0.35l-0.11,0.4l0.72,0.01l0.36,0.68l1.3,-0.36l0.13,1.85l-0.82,2.59l-0.53,-0.06l-1.71,4l-0.44,-0.37l-2.88,0.04l-0.21,0.78l-1.64,1.21l-0.49,1.36l-1.05,0.91l0.04,0.84l-1.03,1.44l-0.33,1.81l-0.46,6.29l0.2,3.25l-0.29,0.92l0.56,1.6l0.58,4.2l1.56,4.02l0.67,3.87l-0.1,1.26l1.59,3.88l2.38,7.5l2.38,5.12l5.96,8.53l2.14,2.21l-0.12,0.22l-0.87,-0.24l-2.52,-2.09l-3.4,-5.57l-3.62,-4.76l-1.16,-0.43l-1.05,0.53l0,0l-3.46,-0.68l-1.09,0.36l-1.03,0.85l-0.67,-0.4l-0.54,-0.86l0.05,-1.71l-1.25,-1.87l0.38,-2.63l-0.91,-1.37l-0.91,-0.07l-1.41,1.24l-1.24,-0.74l-1.27,0.3l0.03,0.88l-2.19,0.65l-0.33,-0.48l-1.15,0.16l-0.33,-0.61l-0.36,0.04l-1.33,1.47l-1.04,-0.11l-0.79,0.68l-2,0.4l-0.85,0.58l-0.97,-0.51l-1.2,-1.81l-0.6,-2.2l0.68,-0.41l-0.12,-0.69l-1.19,0.22l-0.52,-0.57l-1.13,0.72l-1.87,0.48l-3.71,-0.92l-1.34,0.32l-1.26,-0.77l-0.53,0.29l-0.86,-0.55l-0.57,0.12l-0.6,-0.74l-0.98,0.03l-1.66,-0.83l-4.8,-8.02l-1.46,-1.37l-7.67,-3.9l-4.77,-1.74l-0.93,-0.8l-0.98,-1.67l-0.08,-2.23l0.5,-3.08l-0.04,-0.71l-0.74,-1.31l-6.76,-2.81l-4.24,-2.57l-3.85,-2.88l-6.85,-1.76l-1.72,-1.22l-0.54,-1.42l-0.06,-4.26l-0.96,-4.46l-0.02,-3.67l0.85,-3.5l2.9,-4.82l0.25,-2.56l-0.57,-1.49l-2.95,-3.7l-0.42,-1.12l0.09,-2.32l1.19,-3.57l-0.02,-1.2l-0.73,-0.61l-1.48,0.12l-0.58,-0.7l-2.18,-6.07l-1.02,-4.65l0,0l6.93,-0.23l0.48,-1.94l-2.39,-2.91l-0.57,-2.8l-5.51,-2.68l-10.75,-4.21l-1.76,-1.37l-0.96,-1.3l-1.47,-12.53l-3.27,-5.44l-1.72,-5.2l-0.34,-2.7l-0.95,-2.69l-0.06,-1.28l1.71,-2.86l0.01,-1.15l-2.82,-3.92l-1.87,-3.96l-1.95,-1.44l-1.43,-2.1l-1.52,-2.85l-0.92,-3.04l0.03,-1.36l1.56,-2.64l1.16,-1.1l-0.1,-1.84l1.39,-0.86l-1.58,-0.99l-1.82,-0.5l-1.1,-0.99l-2,-4.18l-0.65,-3l-1.19,-0.65l-0.47,-2.7l-4.24,-3.49l-1.64,-2.49l-0.74,-1.91l-0.46,-0.15l0,0l-1.38,-0.54l-0.47,-0.69l0.11,-4.26l-1.81,-5.55l-0.97,-1.31l-1.71,-1.08l-1.69,-2.13l-1.93,-1.17l-0.99,-0.24l-4.63,2.05l-0.43,0.46l0,0l-2.41,-2.36l-2.5,-0.08l-2.78,0.6l-0.05,-2.81l-0.33,-1.28l-1,-1.28l-0.67,-2.64l0.67,-1.36l0.5,-3.83l-0.42,-1.62l-1.92,-2.55l-0.83,-1.79l1.67,-2.64l0.83,-2.55l1.09,-1.96l1.25,-0.09l1.5,3.41l0.75,-2.04l0.25,-3.57l1.17,-1.11l1.84,-1.02l2.84,-3.32L312.22,241.42z"/>
		<path id="NI-BO" title="Boaco" class="land" d="M310.88,278.07L311.31,277.62L315.93,275.56L316.93,275.8L318.85,276.98L320.54,279.11L322.26,280.19L323.22,281.5L325.03,287.05L324.92,291.31L325.39,292L326.78,292.54L326.78,292.54L321.6,301.32L319.64,304.04L318.96,306.39L319.05,310.25L318.69,312.19L313.62,319.16L310.42,319.85L308.53,321.42L307.71,321.33L305.86,319.91L301.71,321.44L299.29,322.9L295.51,327.17L289.03,331.21L287.81,330.94L286.89,330.09L284.87,331.67L274.2,333.41L270.46,333.6L269.46,332.53L268.66,332.41L266.54,333.57L264.36,332.7L262.29,333.18L259.15,333.08L257.63,333.25L254.88,334.46L253.07,336.54L252.11,338.61L251.05,346.3L247.08,348.61L246.36,349.82L245.91,351.96L246.31,353.59L246.19,354.51L243.65,358.71L243.01,360.45L241.78,362.03L242.64,366.74L242.64,366.74L239.48,365.83L238.38,363.93L238.34,362.83L236.17,363.25L234.07,362.84L231.63,361.57L230.02,359.55L229.36,359.5L229.27,360.22L228.84,360.36L228.59,359.87L228.59,359.87L228.51,358.29L228.11,357.82L226.46,357.38L224.56,356.21L222.86,356.28L221.71,355.82L221.28,355.04L221.27,352.14L221.94,351.37L220.93,350.05L220.93,350.05L220.66,348.06L220.86,347.5L221.82,346.97L221.07,345.81L223.58,341.84L214.2,334.24L211.3,330.8L212.18,327.26L213.47,326.1L212.39,325.15L212.05,323.6L209.82,322.38L207.27,318.2L205.89,317.21L205.44,315.69L206.12,315.07L204.59,312.25L204.61,311.83L205.49,311.56L205.13,310.78L206.21,309.33L206.21,309.33L207.07,308.83L208.54,306.88L210.62,305.4L214.75,303.89L216.45,302.62L217.05,301.53L217.26,300.02L216.73,296.83L217.75,296.43L223.05,295.75L230.59,295.63L234.24,295.01L237.45,293.61L239.41,293.19L240.88,293.38L242.35,294.13L243.5,294.12L244.32,294.68L244.81,294.71L245.35,294.19L246.77,294.68L247.16,293.76L248.85,293.35L249.56,292.77L250.07,292.61L251.39,293.18L251.77,292.52L252.87,291.91L255.27,291.9L255.94,291.19L256.83,288.99L258.01,288.26L260.18,287.88L261.56,288.26L263.08,287.24L266.49,287.94L268.43,289.59L269.44,289.87L270.88,288.07L272.5,287.43L273.6,286.03L275.21,285.52L277.55,287.03L279.39,287.77L280.47,290.57L281.68,289.49L284.4,289.77L284.89,289.97L285.82,291.37L290.3,292.37L290.66,292.97L289.7,294.85L290.11,295.11L292.63,295.27L293.31,294.14L293.74,294.21L295.21,295.76L297.18,299.37L297.73,299.55L298.75,298.69L299.41,298.58L302.55,298.91L303.21,298.14L303.35,297.38L303.2,295.1L303.55,294.85L304.96,295.46L305.74,295.41L306.4,294.52L306.5,293.41L305.57,290.45L306.58,289.49L307.3,287.92L309.53,285.92L309.57,284.7L308.65,283.61L308.49,282.92L309.68,282.26L309.43,280.76z"/>
		<path id="NI-CA" title="Carazo" class="land" d="M168.82,377.22L172.86,379.3L179.21,381.19L180.39,383.87L183.73,385.36L183.91,385.53L182.69,387.12L182.91,388.54L182.25,389.35L183.79,389.6L183.31,390.9L186.54,391.03L187.94,391.71L190.2,392.02L190.75,391.65L191.3,391.89L192.1,393.2L192.1,393.2L191.65,393.93L190.94,393.8L191.18,396.11L190.26,396.79L191.3,398.27L190.99,399.02L191.85,400.94L191.24,402.42L190.76,402.75L191.3,404.77L191.02,406.02L190.14,406.86L187.31,407.14L186.85,408.04L187.43,411.77L186.73,415.07L188.19,417L189.28,419.41L189.28,419.41L185.3,423.51L184.82,425.4L184,426.05L184.19,427.04L183.47,427.85L183.45,428.79L181.58,430.15L181.58,430.15L178.87,427.96L177.42,426.32L173.77,424.42L172.32,422.79L168.99,421.59L161.01,416.81L160.63,415.83L159.57,415.01L156.76,411.35L153.08,407.97L151.27,407.12L149.8,405.91L149.8,405.91L151.27,404.96L151.49,404.28L150.03,400.82L150.6,399.65L152.74,397.84L155.59,396.81L158.02,394.05L158.99,391.11z"/>
		<path id="NI-CI" title="Chinandega" class="land" d="M62.24,314.81l1.38,1.35l0.28,1.1l1.21,0.2l1.64,1.2l5.09,2.19l0.37,-0.41l0,0l0.22,0.73l1.73,1.17l2.11,2.61l0,0l-2.33,-0.84l-7.87,-5.57l-2,-0.82l-2.86,-1.92l0.41,-0.47l0.53,0.29l-0.38,-0.75l0.16,-0.25L62.24,314.81zM42.28,257.58l-5.15,-0.22l-1.29,-0.65l-0.33,-0.9l4.03,-2.77l3.26,-1.12l1.51,-0.87l5.59,0.83l2.04,1.38l-0.33,0.39l-2.59,0.81l-1.77,0.97l-1.42,1.81L42.28,257.58zM111.46,216.18l1.51,0.11l0,0l1.28,0.51l1.92,-0.55l0.66,0.39l1.11,3.89l-1.22,3.27l0.23,0.59l0,0l-1.72,1.71l-1.94,4.23l0.02,3.87l1.05,3.19l0,0l0.82,2.7l1.42,2.31l0.51,3.98l2.03,2.13l3.37,5.94l-0.69,2.49l0,3.21l2.22,8.66l-0.56,3.51L122,275.59l-1.05,1.31l-2.57,1.57l-4.04,-0.08l-3.81,0.43l-2.31,0.75l-2.22,-0.06l-0.87,0.45l-0.57,0.95l0.24,3.05l-0.65,1.53l-1.5,0.86l-1.78,1.82l-2.93,0.85l-4.36,6.46l-3.36,2.27l-0.24,7.54l-1.09,2.21l-5.07,3.17l-5.25,2.13l-2.72,2.29l-3.71,0.68l-1.02,-0.33l-2.39,0.88l0,0l-0.95,0.26l-0.81,-0.22l-0.54,0.31l-1.37,-1.09l0.03,-0.31l1.14,-0.46l-1.74,-0.66l-0.4,-0.51l-1.24,-2.62l0.04,-1.06l-0.38,-1.8l-0.51,0l-0.06,1.04l-1.57,-0.51L60,308.88l1.71,1.46l0.7,1.59l0.1,1.03l-0.25,0.63l-0.43,0.04l-0.64,-0.49l-2.59,-3.86l-1.83,-1.79l-0.94,-1.91l-3.74,-3.12l-3.69,-1.75l3.24,0.12l0.56,-1.19l-3.56,0.17l-1.02,-1.46l-0.28,0.28l-0.83,-0.16l-1.16,-0.73l-0.39,0.32l0.2,0.24l2.13,1.4l0.14,0.3l-0.54,0.3l-4.36,-3.4l1.75,0.32l0.27,-0.39l0.04,-0.88l-0.88,-1.05l0.01,-1.03l1.28,-0.63l0.96,-1l-0.16,-0.32l-0.62,0.39l-0.1,-0.26l-0.25,-1.77l0.35,-1.13l-0.7,0.49l0.09,1.88l-0.31,0.74l-1.85,1.77l-0.43,2.4l-2.62,-1.89l-0.15,-0.44l0.37,-0.63l-0.93,-0.86l-0.77,-2.34l-1.99,-2.64l-1.56,-1.19l-3.14,-1.59l0.04,-0.35l0.8,-0.1l-0.09,-0.46l-6.62,-4.94L26,278.55l1.92,0.86l0.46,0.82l2.41,0.46l0.74,-0.34l-0.4,-0.42l-1.61,-0.48l-1.13,-1.24l-0.01,-1.24l1.22,-1.33l-0.12,-0.53l-2.46,1.1l-1.02,-1.62l-0.71,-0.37l0.13,-1.01l-1.02,0.61l-0.26,-0.21l-1.43,-2.82l0.76,-1.03l-1.02,-0.21l0.09,-0.83l0.85,-1.45l-0.3,-0.87l-0.37,-0.04l-0.38,0.49l-0.37,-0.4l-0.35,0.54l-1.33,0.07l-1.24,0.68l-1.36,-0.05l-0.83,1.07l0.45,0.39l0.92,-0.76l1.93,1.62l-0.18,2.22l2.02,0.71l1.08,1.92l1.73,1.45l0.37,1.19l-0.37,0.67l-4.43,-3.83l-15.29,-9.37l-4.69,-4.09l-0.39,-2.08l0.56,-0.39l-0.31,-0.87l1.33,-3.71l1.35,-1.43l0.56,-1.66l4,-1.71l2.23,-2.19l1.5,-2.61l1.02,-3.54l0.68,-1.24l0.68,-0.51l0.39,0.51l-0.28,0.93l-0.59,0.28l-0.06,1.13l-0.71,1.55l1.69,-0.47l2.08,0.37l4.75,3.39l3.71,3.78l1.35,2.87l-1.29,-0.31l-0.34,0.31l-0.2,1.35l2.44,2.93l1.72,0.26l2.98,1.41l2.98,0.72l1.1,-0.54l2.09,-0.18l1.68,3.94l0.34,-0.49l-0.04,-0.99l-0.87,-2.45l2.62,-0.13l0.9,0.55l0.06,0.89l2.44,1.16l-0.09,0.77l0.98,1.82l0.67,-0.11l-0.82,-1.35l0.18,-0.56l-0.45,-0.58l0.1,-0.58l-2.5,-1.17l0.89,-1.44l1.54,-0.54l1.07,0.02l3.28,3.39l2.18,-0.26l1.64,-1.04l2.16,-0.11l1.07,1.95l1.13,0.16l1.52,-0.51l1,0.26l2.21,3.56l3.94,2.13l2.23,0.83l0.74,-0.82l0.1,-2.13l0.3,-0.43l3.96,0.47l0.28,-0.1l-0.21,-0.47l-0.81,-0.56l-1.83,0.42l-1.32,-0.22l-0.59,0.43l-0.67,1.79l-1.2,0.46l-4.42,-2.07l-0.65,-1.65l-1.61,-2.18l-3.55,-0.32l-1.22,-2.19l0.62,-1.85l0.5,-0.47l1.23,0.25l1.33,1.06l2.34,0.5l1.2,-0.36l0.52,-0.76l-0.13,-0.34l-1.8,0.65l-0.79,-0.11l-2.27,-1.2l-1.86,-0.4l-0.85,0.32l-0.31,2.27l-0.61,0.71l-4.18,1.84l-1.3,-0.1l-0.53,-1.31l-1.91,-1.78l-0.24,-0.89l0.78,-0.97l4.15,-1.6l0.78,-1.14l-3.29,-2.11l19.03,-1.6l4.5,-0.03l2.23,0.17l2.15,1.54l2.53,-0.52l0.7,-2.11l1.15,0.43l2.6,-1.9l1.6,0.29l-0.03,-0.53l2.23,-1.48l0.77,-3.26l4.1,-3.73l-1.79,-3.89l1.19,-1.54l-0.31,-0.96l0.92,-0.49l-1.23,-3.09l-0.05,-1.41l1.51,-2.54l0.01,-1.53l0.65,-0.84l0.68,-2.93l-0.31,-1.24l3.72,-2.27l0.76,-1.68l0.72,-0.68l5.45,-1.49l2.82,1.56L111.46,216.18z"/>
		<path id="NI-CO" title="Chontales" class="land" d="M309.68,416.41l-0.49,0.59l0.17,1.14l-0.38,0l-1.57,-4.5l-2.54,-1.43l-0.02,-2.4l-1.44,-1.74l-0.54,-0.24l-0.85,0.69l-0.57,-0.85l-0.56,-0.15l0.05,-1.37l-1.03,-0.89l-0.28,-1.67l-0.88,-1.19l-1.06,-0.75l-1.05,-0.24l-1.93,0.07l-1.91,-1.41l-2.34,-0.59l-2.66,-2.85l-2.51,-3.76l-1.75,-1.79l-3.12,-1.78l-1.41,-1.22l0,0l-0.87,-0.47l-1.68,-0.05l0,0l-1.78,-0.18l-3.14,-1.3l-0.45,0.24l-0.31,1.37l-0.39,0.3l-2.74,-2.23l-1.5,0.02l-1.12,-1.17l-5.72,-9.34l-5.03,-5.45l0,0l-1.9,-1.24l0,0l-2.36,-0.47l-1.77,0.97l0,0l-0.98,0.26l0,0l-1.1,-0.22l-0.83,0.64l-1.76,-1.14l0.98,-0.43l0.05,-0.61l-1.96,-0.82l0,0l-0.86,-4.71l1.23,-1.58l0.64,-1.74l2.54,-4.2l0.12,-0.92l-0.4,-1.62l0.45,-2.14l0.72,-1.21l3.97,-2.31l1.06,-7.69l0.96,-2.07l1.81,-2.08l2.75,-1.21l1.53,-0.17l3.13,0.1l2.08,-0.48l2.17,0.87l2.12,-1.15l0.81,0.12l0.99,1.07l3.75,-0.19l10.66,-1.74l2.03,-1.58l0.92,0.85l1.22,0.27l6.48,-4.04l3.79,-4.27l2.42,-1.46l4.15,-1.53l1.85,1.42l0.82,0.09l1.89,-1.57l3.2,-0.68l5.07,-6.97l0.36,-1.94l-0.09,-3.87l0.68,-2.35l1.96,-2.72l5.18,-8.78l0,0l0.46,0.15l0.74,1.91l1.64,2.49l4.24,3.49l0.47,2.7l1.19,0.65l0.65,3l2,4.18l1.1,0.99l1.83,0.5l1.58,1l-1.39,0.87l0.11,1.84l-1.16,1.1l-1.56,2.64l-0.03,1.37l0.92,3.04l1.52,2.85l1.43,2.1l1.95,1.44l1.87,3.96l2.82,3.92l-0.01,1.15l-1.71,2.86l0.06,1.28l0.95,2.69l0.34,2.71l1.72,5.2l3.27,5.44l1.47,12.53l0.96,1.3l1.76,1.37l10.75,4.21l5.51,2.69l0.57,2.8l2.39,2.91l-0.48,1.94l-6.93,0.23l0,0l-4.07,-0.13l-5.12,-1.24l-2.43,0.39l-1.11,-0.37l-2.59,-0.1l-3.63,1.29l-3.05,-0.02l-3.2,1.1l-7.15,3.84l-2.03,2.65l-1.08,0.12l-0.94,0.56l-0.99,-0.18l-0.92,0.97l-4.17,1.26l-0.63,1.85l-1.3,0.67l0.55,2.05l-0.98,0.82l-0.16,0.57l-2,0.32l-1.48,2.65l-1.14,0.18l-0.55,1.05l-1.31,-0.87l-1.43,-0.2l0.01,0.65l-0.61,0.08l0,1.01l-2.01,1.65l-2.87,0.49l-0.26,1.45l-0.98,0.71l0.09,0.8L309.68,416.41z"/>
		<path id="NI-ES" title="Estelí" class="land" d="M116.94,224.4L118.2,223.59L128.05,213.69L131.22,206.49L135.66,198.8L136.89,197.26L138,196.63L140.66,196.52L146.59,198.43L149.43,199.72L150.69,199.87L166.84,196.24L171.78,196.57L174.17,197.5L176.38,201.92L176.38,201.92L176.29,203.03L174.93,204.62L175.33,205.65L174.64,206.22L175.12,207.42L174.09,209.14L175.03,214.37L174.88,217.2L175.44,218.81L173.52,219.62L174.34,221.16L174.25,221.76L171.49,226.4L171.44,227.08L172.81,228.93L175.04,230.34L175.31,231.47L176.57,233.51L180.7,237.62L184.97,239.86L189.12,241.5L189.77,243L189.63,245.34L189.63,245.34L189.17,245.88L187.7,246.2L186.88,247.57L185.51,248.17L186.16,249.63L183.99,254.95L182.91,256.27L180.79,257.02L177.49,257.51L171.27,261.06L170.24,267.56L170.24,267.56L167.85,267.67L160.59,266.1L152.81,262.71L151.22,261.24L150.67,260.28L150.41,258.48L153.06,252.92L153.91,248.05L152.2,245.4L149.38,242.18L147.26,237.37L145.72,235.86L138,234.91L136.34,235.08L131.62,236.41L127.64,238.99L125.27,239.74L123.46,239.44L121.06,237.55L119.76,237.07L117.49,236.87L115.46,237.45L114.35,237.39L114.35,237.39L113.3,234.21L113.28,230.33L115.22,226.11z"/>
		<path id="NI-GR" title="Granada" class="land" d="M221.21,401.71l0.46,0.6l0.99,0.32l3.11,0.06l0.23,-1.04l1.01,0.34l0.74,1.09l-0.03,1.8l0.89,1.35l-0.29,2.17l-1.72,0.63l-5.57,-0.75l-2.12,1.14l-0.91,-0.03l-0.35,-0.43l0.32,-1.34l0.32,0.04l0.33,0.78l0.62,-0.17l-0.04,-0.43l-0.66,-1.11l-1.48,-1.19l0.73,-0.5l0.07,-0.55l1.23,-1.23l-0.28,-1.27l1,-0.01l0.65,-0.65L221.21,401.71zM206.86,364.77l1.26,-2.4l-0.43,-1.46l0.35,-0.8l4.98,0.18l2.65,-0.8l0.36,0.12l-0.37,1.07l1.45,-0.04l0.48,0.36l0.05,0.94l-4.17,6.93l-2.83,6.48l-0.25,2.58l-0.06,3.15l0.75,2.42l0.61,0.53l1.37,-0.37l1.96,0.82l1.45,2.54l-0.35,0.83l-0.65,-0.12l-1.3,-1.35l-1.39,-0.67l-0.66,0.17l-0.2,0.53l0.42,3.1l0.34,0.29l0.37,-0.44l0.63,0.49l1.32,2.57l0.52,2.24l1.12,1.32l0.34,1.51l-1.06,1.29l0.83,2.52l-0.12,0.92l-0.77,0.68l-0.53,1.15l-1.23,-0.17l-0.22,0.56l-1.74,1.47l0.7,1.05l-0.26,1.59l1.1,1.58l1.37,0.24l0.17,0.36l-0.43,0.59l0,0l-2.23,1.48l-3.1,0.36l-1.96,0.63l-0.33,0.68l-1.88,-0.15l-1.66,-0.81l-1.17,0.2l-1.46,1.07l-0.95,2.49l-0.98,0.66l-4.27,0.46l-2.09,1.49l-1.8,-0.65l-1.59,0.17l0,0l-1.09,-2.41l-1.46,-1.94l0.7,-3.3l-0.58,-3.73l0.46,-0.9l2.83,-0.28l0.88,-0.84l0.28,-1.25l-0.55,-2.02l0.48,-0.33l0.61,-1.49l-0.85,-1.92l0.31,-0.74l-1.04,-1.49l0.92,-0.68l-0.24,-2.31l0.72,0.14l0.44,-0.73l0,0l2.11,-6.22l2.81,-4.07l0.38,-2.69l1.01,-0.59l1.75,-0.27l0.83,-1.8l5.54,-7.19L206.86,364.77zM202.03,355.25l2.3,-0.02l2.48,-1.08l5.34,-1.59l1.48,-1.07l0.56,-0.77l0.21,-1.33l1.61,-1.32l0.49,0.4l1.77,0.03l0.59,0.84l2.08,0.72l0,0l1.01,1.32l-0.67,0.77l0.01,2.9l0.44,0.78l1.14,0.47l1.7,-0.07l1.9,1.17l1.65,0.44l0.4,0.47l0.09,1.58l0,0l-2.09,0.62l-0.8,0.95l-0.49,0.04l-0.67,-0.53l-0.24,0.28l0.46,0.78l-0.56,0.63l-2.5,0.68l-2.48,-0.65l-0.43,-0.55l0.03,-0.96l-1.97,-1.99l-5.17,0.36l-3.19,-0.25l-2.31,-0.69l-2.28,-1.17l0,0L202.03,355.25z"/>
		<path id="NI-JI" title="Jinotega" class="land" d="M319.61,51.81L321.17,51.72L321.8,52.63L323.72,53.51L324.14,55.05L323.1,56.61L322.94,57.94L322.13,59.46L322.1,60.33L323.02,61.11L322.26,62.78L323.93,64.8L325.77,65.03L326.98,67.04L326.88,68.26L325.63,69.64L325.11,69.79L324.65,71.54L325.35,72.49L325.41,75.82L324.52,76.58L323.45,76.86L323.25,77.6L323.59,78.36L324.87,79.08L325.51,81.07L327.07,81.96L327.93,83.98L329.19,84.21L329.8,85.72L344,86.56L339.33,110.54L340.87,117.72L316.04,157.98L304.26,152.13L287.77,162.85L278.54,163.07L277.11,169.79L276.31,170.71L273.42,172.44L272.79,174.1L272.95,174.86L274.14,176.42L276.29,178.11L276.88,179.55L276.17,182.92L274.96,185.52L275.09,188.62L273.56,191.13L270.07,192.3L266.38,195.58L263.72,197.23L262.19,198.76L261.42,200.1L261.3,201.29L262.04,203.49L262.04,203.49L255.22,208.9L250.19,209.62L247.47,210.98L242.9,219.42L240.25,222.49L234.54,227.83L231.02,233.62L230.1,234.21L227.95,234.31L226.81,234.84L217.09,243.42L212.36,248.29L210.09,249.05L205.72,248.63L203.74,248.02L203.28,248.38L203.31,250.91L198.85,250.68L197.93,247.41L196.73,246.09L195.41,245.6L193.66,245.44L193.14,246.05L191.93,245.52L190.93,245.72L189.63,245.34L189.63,245.34L189.77,243L189.12,241.5L184.97,239.86L180.7,237.62L176.57,233.51L175.31,231.47L175.04,230.34L172.81,228.93L171.44,227.08L171.49,226.4L174.25,221.76L174.34,221.16L173.52,219.62L175.44,218.81L174.88,217.2L175.03,214.37L174.09,209.14L175.12,207.42L174.64,206.22L175.33,205.65L174.93,204.62L176.29,203.03L176.38,201.92L176.38,201.92L179.01,197.71L181.32,195.85L188.26,195.92L192.67,193.27L193.08,191.81L193.71,191.07L194.08,189.19L195.41,188.31L195.41,188.31L196.09,188.68L199.93,188.3L200.53,187.79L200.94,186.51L201.65,186.08L203.03,186.77L205.42,186.65L210.19,189.88L211.25,191.56L211.61,191.8L212.66,191.59L213.72,192.45L214.45,191.59L214.59,189.79L216.67,188.36L217.33,187.74L217.44,187.15L218.64,187.49L219.32,187.17L220.71,187.2L221.8,186.02L222.9,185.63L224.06,186.41L224.56,185.4L223.43,183.74L223.91,182.85L225.16,182.26L225.55,181.28L225.16,180.78L224.39,180.98L223.52,180.69L223.81,178.81L224.3,178.42L224.49,177.63L224.39,176.94L223.33,175.26L223.43,174.38L224.88,172.6L224.88,167.87L227.77,162.25L228.06,160.97L227.67,159.19L229.02,156.82L227.77,153.27L227.86,152.48L228.83,151.2L230.27,150.51L232.26,147.07L232.26,147.07L233.68,146.1L234.26,144.32L233.74,142.76L231.1,140.96L231.97,137.1L231.82,131.54L232.45,130.72L233.97,130.65L234.94,130.15L236.56,128.36L237.42,127.89L239,128.1L241.02,129.07L242.81,127.62L243.54,124.85L244.52,124.58L247.06,125.03L248.31,123.79L249.98,123.3L251.25,121.33L252.38,121.24L253.05,120.8L253.75,118.74L255.56,118.4L255.5,120.01L256.15,120.49L260.17,120.71L260.58,119L261.43,118.78L261.84,116.38L262.3,115.79L262.86,116.7L263.53,116.82L263.81,114.93L265.15,116.47L265.5,114.97L266.55,115.12L266.84,114.02L267.92,113.47L268.21,112.62L268.86,112.52L269.81,113.6L270.55,113.21L271.54,113.36L271.94,112.26L272.79,112.22L273.16,111.57L274.3,111.07L274.56,110.14L275.3,109.67L274.93,107.23L277.41,104.83L277.61,104.32L277.2,103.21L277.83,102.43L277.96,100.73L277.12,99.71L277.38,99L278.46,98.76L278.78,99.93L280.04,100.11L281.96,97.84L282.29,96.33L283.52,96L284.85,95.1L286.05,95.11L287.33,95.81L289.52,94.75L293.33,94.7L295.05,95.27L296.34,94.85L297.69,95.31L299.28,94.79L299.89,95.9L300.51,95.96L300.91,95.59L303.99,90.31L303.26,89.41L301.77,89.1L301.55,88.79L301.21,86.07L300.1,86.4L298.78,85.02L298.47,82.56L296.58,82.2L295.88,81.29L298.13,78.48L299.49,74.87L300.42,73.58L301.55,69.69L304.86,66.2L305.52,64.11L306.26,63.33L306.22,61.48L305.63,60.21L306.07,58.96L304.82,56.68L305.08,56.23L306.44,56.1L307.75,55.01L309.27,55.73L311.59,58.73L312.18,58.82L313.18,58.07L314.68,58.2L315.71,56.85L317.54,55.96L319.93,52.31z"/>
		<path id="NI-LE" title="León" class="land" d="M145.35,329.69l-0.26,0.08l0,0l-0.62,-1.17l0,0l-0.05,-0.9l0,0l0.79,-0.42l1.32,0.33l0.3,0.66l-0.79,0.67l0,0L145.35,329.69zM114.35,237.39l1.11,0.06l2.03,-0.58l2.28,0.2l1.29,0.48l2.41,1.89l1.81,0.3l2.37,-0.75l3.98,-2.58l4.72,-1.33l1.66,-0.17l7.72,0.95l1.54,1.5l2.11,4.81l2.83,3.22l1.7,2.65l-0.85,4.87l-2.65,5.55l0.26,1.8l0.55,0.96l1.59,1.47l7.78,3.39l7.26,1.57l2.39,-0.12l0,0l-0.2,4.06l0.5,4.65l-0.77,6.22l0.17,0.6l-0.66,2.08l0.12,1.8l0.54,1.68l-1.07,3.26l-0.02,2.32l0,0l-4.47,1.09l-1.6,2.27l-1.95,1.1l-0.98,2.01l-1.43,5.05l-0.52,0.68l0.61,1.13l-0.98,0.28l-0.02,0.35l1,0.35l-0.62,0.84l0.7,1.11l0,0l0.25,0.32l0,0l1.47,0.38l0.36,0.47l-0.62,0.9l0.47,0.71l-0.75,0.71l0.27,0.62l-0.26,0.22l-2.32,-0.87l-3.64,1.27l-0.28,0.39l-3.46,0.69l-2.26,1.03l-1.78,1.36l-0.88,1.3l-1.07,2.72l-1.92,1.71l-0.7,0.25l-3.42,-0.2l-5.77,-2.57l-0.5,-0.44l0.11,-0.29l0.77,-0.1l0.1,-0.35l-0.8,-1.05l-1.84,0.7l-1.72,1.62l0.2,1.03l0.71,0.92l-0.65,3.66l1.52,2.24l0.8,2.7l1.15,0.7l1.94,0.12l2.46,0.66l3,2.02l2.35,0.51l2.42,1l0,0l-4.13,3.37l0,0l-2.77,6.45l0.48,0.71l2.54,0.69l0.85,1.03l0.03,1l-0.81,1.63l0.29,1.8l-2.4,1.14l-1.08,1.7l-2.41,1.01l-1.98,1.37l-1.53,1.73l-4.33,-0.82l-2.14,1.07l-1.6,0.34l-0.6,1.32l1.39,3.52l-0.01,1.45l-3.3,2.6l0,0l-2.93,-5.6l-3.18,-4.61l-0.25,-0.62l0.26,-0.78l-1,-1.35l0.03,-1.01l-0.75,-2.05l-1.03,-0.79l0.06,-1.29l-1.53,-2.62l0.69,-0.1l-0.84,-2.28l-0.9,-0.03l-0.84,-0.9l-2.58,-1.36l-2.38,-1.89l-13.67,-8.45l-8.91,-6.04l-0.39,-0.34l0.11,-0.39l-0.84,-0.26l-3.62,-2.93l0,0l-2.11,-2.61l-1.73,-1.17l-0.22,-0.73l0,0l-3.21,-3.13l-0.26,-0.98l0,0l2.39,-0.88l1.02,0.33l3.71,-0.68l2.72,-2.29l5.25,-2.13l5.07,-3.17l1.09,-2.21l0.24,-7.54l3.36,-2.27l4.36,-6.46l2.93,-0.85l1.78,-1.82l1.5,-0.86l0.66,-1.53l-0.24,-3.05l0.57,-0.95l0.87,-0.45l2.22,0.07l2.31,-0.75l3.81,-0.43l4.04,0.08l2.57,-1.57l1.05,-1.31l1.47,-3.27l0.56,-3.51l-2.22,-8.66l0,-3.21l0.69,-2.49l-3.37,-5.94l-2.03,-2.13l-0.51,-3.98l-1.42,-2.31L114.35,237.39z"/>
		<path id="NI-MD" title="Madriz" class="land" d="M111.41,169.99L114.34,168.59L117.4,169.14L122.11,169.38L124.86,170.24L126.8,171.88L127.02,175.25L127.93,176.4L131.23,178.07L132.97,177.8L134.32,179.1L135.76,178.77L137.32,177.5L139.94,176.54L142.2,176.05L144.47,176.02L156.8,178.28L157.97,179.18L159.89,178.18L162.27,178.08L163.64,177.55L167.66,174.52L169.34,173.75L173.34,173.81L176.12,174.52L176.83,175.29L177.79,174.72L179.98,174.94L181.58,174.04L185.05,177.14L189.29,180.26L190.41,181.8L190.75,184.47L194.14,186.98L195.41,188.31L195.41,188.31L194.08,189.19L193.71,191.07L193.08,191.81L192.67,193.27L188.26,195.92L181.32,195.85L179.01,197.71L176.38,201.92L176.38,201.92L174.17,197.5L171.78,196.57L166.84,196.24L150.69,199.87L149.43,199.72L146.59,198.43L140.66,196.52L138,196.63L136.89,197.26L135.66,198.8L131.22,206.49L128.05,213.69L118.2,223.59L116.94,224.4L116.94,224.4L116.71,223.81L117.93,220.53L116.82,216.64L116.17,216.26L114.25,216.8L112.97,216.29L112.97,216.29L114.01,215.89L118.09,212.91L118.56,211.36L118.57,209.3L117.63,203.83L117.32,203.46L114.52,202.53L113.73,200.95L114.08,199.75L116.19,196.98L116.22,195.9L115.84,193.72L114.4,190.48L113.39,181.59L112.75,180.13L110.83,179.21L110.68,178.86L110.79,177.5L112.7,171.14z"/>
		<path id="NI-MN" title="Managua" class="land" d="M144.12,337.68L146.35,338.31L149.71,340.93L152.33,342.05L154.95,339.06L157.94,337.19L161.3,336.82L164.67,337.19L167.28,342.05L168.41,342.8L168.03,345.79L166.16,347.66L164.67,348.41L163.54,352.15L172.15,352.52L175.88,350.28L187.1,350.28L187.48,340.56L188.97,337.94L188.97,335.7L189.72,333.08L186.73,332.33L184.11,330.83L181.87,331.58L179.62,334.95L178.88,335.32L178.13,336.44L175.51,336.82L175.51,331.21L173.27,327.84L171.77,324.48L168.78,320.37L167.66,314.01L165.41,310.27L158.8,310.76L158.8,310.76L158.58,310.49L158.58,310.49L157.89,309.38L158.51,308.54L157.51,308.19L157.54,307.84L158.52,307.55L157.91,306.42L158.43,305.75L159.85,300.69L160.83,298.69L162.78,297.59L164.38,295.32L168.85,294.22L168.85,294.22L171.2,295.03L175.22,294.75L179.33,295.79L181.37,296.85L184.13,299.34L185.05,299.32L186.59,298.63L188.64,299.18L191.15,300.84L195.04,304.87L197.3,305.66L201.68,307.92L206.21,309.33L206.21,309.33L205.13,310.78L205.49,311.56L204.61,311.83L204.59,312.25L206.12,315.07L205.44,315.69L205.89,317.21L207.27,318.2L209.82,322.38L212.05,323.6L212.39,325.15L213.47,326.1L212.18,327.26L211.3,330.8L214.2,334.24L223.58,341.84L221.07,345.81L221.82,346.97L220.86,347.5L220.66,348.06L220.93,350.05L220.93,350.05L218.86,349.33L218.27,348.49L216.5,348.46L216.02,348.06L214.41,349.38L214.2,350.71L213.64,351.48L212.16,352.55L206.81,354.15L204.33,355.23L202.03,355.25L202.03,355.25L202.03,355.25L202.03,355.25L198.42,354.12L197.04,354.43L194.7,355.87L193.44,356.13L191.14,355.94L188.69,356.62L186.31,359.82L182.8,360.95L179,366.27L183.07,370.74L180.94,374.31L175.68,376.64L171.59,372.98L168.82,377.22L168.82,377.22L158.99,391.11L158.02,394.05L155.59,396.81L152.74,397.84L150.6,399.65L150.03,400.82L151.49,404.28L151.27,404.96L149.8,405.91L149.8,405.91L144.76,402.43L140.67,398.71L140.28,396.49L138.56,393.29L134.02,387.82L129.17,383.79L128.47,382.1L128.29,380.36L126.37,377.02L122.88,373.5L122.8,372.91L121.37,372.06L120.75,370.65L120.75,370.65L124.05,368.06L124.06,366.61L122.67,363.09L123.27,361.77L124.87,361.43L127.01,360.36L131.35,361.18L132.88,359.46L134.86,358.09L137.26,357.08L138.35,355.38L140.75,354.24L140.46,352.44L141.27,350.81L141.24,349.81L140.39,348.78L137.85,348.08L137.37,347.38L140.14,340.93L140.14,340.93z"/>
		<path id="NI-MS" title="Masaya" class="land" d="M202.03,355.25L203.88,357.42L203.88,357.42L204.55,358.21L204.42,358.72L205.05,359.77L204.9,361.93L205.44,362.31L206.96,362.11L207.19,362.35L205.7,364.05L205.92,364.94L206.86,364.77L206.86,364.77L206.52,370.38L200.98,377.56L200.15,379.37L198.4,379.63L197.4,380.22L197.02,382.91L194.21,386.98L192.1,393.2L192.1,393.2L191.3,391.89L190.75,391.65L190.2,392.02L187.94,391.71L186.54,391.03L183.31,390.9L183.79,389.6L182.25,389.35L182.91,388.54L182.69,387.12L183.91,385.53L183.73,385.36L180.39,383.87L179.21,381.19L172.86,379.3L168.82,377.22L168.82,377.22L171.59,372.98L175.68,376.64L180.94,374.31L183.07,370.74L179,366.27L182.8,360.95L186.31,359.82L188.69,356.62L191.14,355.94L193.44,356.13L194.7,355.87L197.04,354.43L198.42,354.12z"/>
		<path id="NI-MT" title="Matagalpa" class="land" d="M262.04,203.49L262.84,205.12L263.19,207.29L264.35,210.1L267.95,214.63L269.71,215.86L271.44,219.08L274.33,220.54L275.19,222.62L276.95,224.92L279.74,226.83L281.51,226.63L282.58,225.81L283.09,226.04L283.85,227.14L285.17,227.91L286.09,229.25L287.98,229.65L288.98,231.93L290.4,232.27L291.07,233.48L292.09,233.58L293.32,234.53L294.13,234.46L294.91,232.9L295.38,232.63L297.56,232.6L298.79,230.88L300.32,231.11L301.95,229.45L303.88,232.05L304.21,231.62L304.46,228.98L307.05,228.81L307.97,230.34L308.8,230.77L309.22,228.81L310.47,227.7L313.06,226.94L315.56,227.11L316.06,227.79L315.98,228.81L314.4,231.28L314.81,232.3L314.23,233.16L310.47,235.03L309.72,236.73L309.72,237.76L310.22,238.95L311.47,240.06L312.22,241.42L312.22,241.42L312.31,242.18L309.47,245.51L307.63,246.53L306.46,247.63L306.21,251.21L305.46,253.25L303.96,249.85L302.71,249.93L301.62,251.89L300.79,254.44L299.12,257.08L299.95,258.87L301.87,261.42L302.29,263.04L301.79,266.87L301.12,268.23L301.79,270.87L302.79,272.14L303.12,273.42L303.18,276.23L305.96,275.63L308.47,275.71L310.88,278.07L310.88,278.07L309.43,280.76L309.68,282.26L308.49,282.92L308.65,283.61L309.57,284.7L309.53,285.92L307.3,287.92L306.58,289.49L305.57,290.45L306.5,293.41L306.4,294.52L305.74,295.41L304.96,295.46L303.55,294.85L303.2,295.1L303.35,297.38L303.21,298.14L302.55,298.91L299.41,298.58L298.75,298.69L297.73,299.55L297.18,299.37L295.21,295.76L293.74,294.21L293.31,294.14L292.63,295.27L290.11,295.11L289.7,294.85L290.66,292.97L290.3,292.37L285.82,291.37L284.89,289.97L284.4,289.77L281.68,289.49L280.47,290.57L279.39,287.77L277.55,287.03L275.21,285.52L273.6,286.03L272.5,287.43L270.88,288.07L269.44,289.87L268.43,289.59L266.49,287.94L263.08,287.24L261.56,288.26L260.18,287.88L258.01,288.26L256.83,288.99L255.94,291.19L255.27,291.9L252.87,291.91L251.77,292.52L251.39,293.18L250.07,292.61L249.56,292.77L248.85,293.35L247.16,293.76L246.77,294.68L245.35,294.19L244.81,294.71L244.32,294.68L243.5,294.12L242.35,294.13L240.88,293.38L239.41,293.19L237.45,293.61L234.24,295.01L230.59,295.63L223.05,295.75L217.75,296.43L216.73,296.83L217.26,300.02L217.05,301.53L216.45,302.62L214.75,303.89L210.62,305.4L208.54,306.88L207.07,308.83L206.21,309.33L206.21,309.33L201.68,307.92L197.3,305.66L195.04,304.87L191.15,300.84L188.64,299.18L186.59,298.63L185.05,299.32L184.13,299.34L181.37,296.85L179.33,295.79L175.22,294.75L171.2,295.03L168.85,294.22L168.85,294.22L168.87,291.9L169.94,288.64L169.39,286.96L169.28,285.16L169.93,283.09L169.77,282.49L170.54,276.27L170.04,271.62L170.24,267.56L170.24,267.56L171.27,261.06L177.49,257.51L180.79,257.02L182.91,256.27L183.99,254.95L186.16,249.63L185.51,248.17L186.88,247.57L187.7,246.2L189.17,245.88L189.63,245.34L189.63,245.34L190.93,245.72L191.93,245.52L193.14,246.05L193.66,245.44L195.41,245.6L196.73,246.09L197.93,247.41L198.85,250.68L203.31,250.91L203.28,248.38L203.74,248.02L205.72,248.63L210.09,249.05L212.36,248.29L217.09,243.42L226.81,234.84L227.95,234.31L230.1,234.21L231.02,233.62L234.54,227.83L240.25,222.49L242.9,219.42L247.47,210.98L250.19,209.62L255.22,208.9z"/>
		<path id="NI-NS" title="Nueva Segovia" class="land" d="M202.13,117.7L202.32,119.13L201.77,120.97L200.38,123.59L200.11,125.48L201.05,127.67L209.2,133.94L211.51,136.14L212.51,137.74L214.79,138.71L215.39,138.27L215.57,136.94L216.36,135.99L219.27,136.32L220.76,137.07L221.65,138.32L221.57,141.51L222.98,142.82L223.53,144.35L224.23,144.63L224.73,145.68L225.58,146.06L227.98,146.16L230.41,145.5L231.34,145.82L232.26,147.07L232.26,147.07L230.27,150.51L228.83,151.2L227.86,152.48L227.77,153.27L229.02,156.82L227.67,159.19L228.06,160.97L227.77,162.25L224.88,167.87L224.88,172.6L223.43,174.38L223.33,175.26L224.39,176.94L224.49,177.63L224.3,178.42L223.81,178.81L223.52,180.69L224.39,180.98L225.16,180.78L225.55,181.28L225.16,182.26L223.91,182.85L223.43,183.74L224.56,185.4L224.06,186.41L222.9,185.63L221.8,186.02L220.71,187.2L219.32,187.17L218.64,187.49L217.44,187.15L217.33,187.74L216.67,188.36L214.59,189.79L214.45,191.59L213.72,192.45L212.66,191.59L211.61,191.8L211.25,191.56L210.19,189.88L205.42,186.65L203.03,186.77L201.65,186.08L200.94,186.51L200.53,187.79L199.93,188.3L196.09,188.68L195.41,188.31L195.41,188.31L194.14,186.98L190.75,184.47L190.41,181.8L189.29,180.26L185.05,177.14L181.58,174.04L179.98,174.94L177.79,174.72L176.83,175.29L176.12,174.52L173.34,173.81L169.34,173.75L167.66,174.52L163.64,177.55L162.27,178.08L159.89,178.18L157.97,179.18L156.8,178.28L144.47,176.02L142.2,176.05L139.94,176.54L137.32,177.5L135.76,178.77L134.32,179.1L132.97,177.8L131.23,178.07L127.93,176.4L127.02,175.25L126.8,171.88L124.86,170.24L122.11,169.38L117.4,169.14L114.34,168.59L111.41,169.99L111.41,169.99L108.9,169.02L108.65,167.55L111.32,161.47L111.45,160.72L110.69,157.15L111.34,154.29L113.89,154.16L115.95,152.88L117.04,152.58L122.85,153.1L124.44,153.71L125.88,153.62L127.1,153.02L129.55,153.32L133.63,152.38L135.59,150.9L137.17,150.94L138.75,151.25L140.18,153.31L143,154.77L146.01,154.51L148.75,153.09L149.51,153.55L150.25,155.63L150.96,156.07L152.55,155.7L155.61,156.02L156.45,155.83L157.74,154.7L158.2,154.75L159.13,155.77L160.64,155.96L161.35,155.69L164.33,153.31L165.34,150.89L166.74,149.28L167.08,147.69L166.56,145.89L166.85,145.41L169.28,144.19L169.8,142.52L172.65,140.65L173.83,138.48L175.33,137.35L176.24,135.33L178.65,134.09L179.45,132.53L180.59,131.93L180.1,129.72L180.29,128.94L180.57,128.61L183.86,128.11L186.41,126.31L186.59,125.37L184.68,123.89L184.85,122.42L188.28,120.98L190.57,119.13L191.81,118.55L194.27,118.37L195.24,117.9L198.78,117.96L201.45,116.94z"/>
		<path id="NI-RI" title="Rivas" class="land" d="M265.48,435.72l0.19,1.28l1.28,1.4l0.39,1.62l0.16,1.89l-0.56,2.35l-1.05,1.15l-1.69,0.76l-2.19,0.84l-1.47,0.09l-1.61,-0.33l-1.39,-0.75l-1.06,-1.52l-1.66,-1.4l-0.96,-2.85l0.65,-2.35l-0.39,-0.78l-2.38,-1.9l-1.28,-0.46l-2.6,0.06l-0.05,1.21l-1.13,0.55l-0.72,-0.78l-0.9,-0.13l-2.32,1.45l-1.1,0.12l-2.82,-1.6l-2.15,-2.01l0.15,-0.89l2.14,-3.42l0.14,-1.74l1.1,-1.02l3.53,-1.78l3.46,-1l1.65,0.05l1.28,-0.87l2.29,-0.1l2.42,1.92l0.32,0.65l0,0l0.02,0.76l0,0l-0.62,2.12l0,0l0.5,4.04l0,0l0.52,1.84l1.49,1.52l1.77,-0.21l0.94,0.35l1.96,-0.65l2.17,0.84l0.55,-0.37l0.05,-0.71l0.71,0.2l0,0L265.48,435.72zM214.75,411.33l0.12,0.5l1.77,1.47l1.28,1.84l0.4,0.06l-0.01,-0.8l-0.8,-1.17l-0.51,-3.52l1.68,0.87l0.56,4.96l1.06,4.45l1.88,5.56l5.18,7.83l0.39,1.6l0.05,2.52l1.1,3.92l0.21,2.06l2.03,4.65l1.92,3.01l2.35,2.58l2.03,0.86l3.99,5.82l2.39,1.92l2.95,3.08l1.57,0.08l0.33,-0.81l0.42,-0.06l1.96,0.36l1.47,1.19l3.33,1.23l2.78,3.07l0.75,0.45l1.09,-0.03l0.76,1.06l1.95,1.51l1,0.41l1.14,-0.39l0.52,0.24l0,0l0.77,0.57l0,0l3.12,1.54l3.11,-0.12l6.56,1.07l2.51,1.33l1.75,-0.51l1.43,0.09l7.19,4.47l0.74,0.11l1.06,-0.52l2.56,1.5l2.62,0.17l0.55,-0.33l0,0l0.77,3.17l-0.38,1.45l0,0l-2.05,-0.74l-18.1,-9.07l-6.85,0.03l-12.71,-4.67l-0.64,-0.41l-3.94,-5.14l-6.12,-1.05l-1.06,0.43l-0.9,2.48l-8.68,14.47l-1.74,-0.15l-1.5,-1.35l-2.57,-0.05l-0.55,-0.9l-1.28,-0.07l-0.69,-1.04l-0.62,0.25l-0.78,-0.48l-0.23,0.36l-1.42,-1.02l-0.13,-0.76l-0.89,-0.9l0.15,-1.17l-0.13,-0.78l-0.42,-0.28l0.14,-0.56l-2.04,-3.71l-2.44,-2.76l-0.56,0.08l-0.71,-1.68l-0.59,-0.11l-1.27,-1.58l-0.59,0l-0.41,-0.84l-0.72,-0.28l-0.19,-0.87l0.48,-0.14l0.12,-0.73l-1.65,-0.32l-0.5,-0.56l0.62,-0.47l-0.11,-0.36l-1.68,-0.1l-0.29,-1.74l-0.5,-0.87l-0.84,-0.29l-0.02,-0.67l-0.61,-0.53l-0.33,-0.11l-0.29,0.36l-0.95,-0.51l-0.08,-0.73l-0.59,-0.2l-1.52,-1.94l-2.34,-1.44l-0.61,-0.2l-0.51,0.39l-0.69,-0.73l-0.73,0.47l-0.33,-0.17l-0.1,-0.78l-1.44,-1.33l-0.08,-0.9l-1.25,-0.68l-0.67,0.08l-1.53,-1.1l0.59,-0.64l-0.28,-0.64l-1.58,-1.52l-2.26,-0.8l-2.19,-3.4l-5.12,-3.87l-3.44,-1.03l-1.3,-2l0.18,-1.62l-0.9,-1.34l0,0l1.87,-1.35l0.02,-0.94l0.73,-0.81l-0.19,-0.99l0.83,-0.65l0.48,-1.89l3.98,-4.09l0,0l1.59,-0.17l1.8,0.65l2.09,-1.49l4.27,-0.46l0.98,-0.66l0.95,-2.48l1.46,-1.06l1.17,-0.2l1.66,0.81l1.89,0.15l0.33,-0.68l1.96,-0.63l3.1,-0.36L214.75,411.33z"/>
		<path id="NI-SJ" title="Río San Juan" class="land" d="M330.65,476.35L330.65,476.35l-0.39,1.37l1.54,0.77l-0.36,0.68l-1.25,-0.06l-3.46,-2.82l-0.65,-1.28l2.05,1.29l0,0L330.65,476.35zM324.98,474.77l0.17,0.25l0,0L325,475.23l0,0l-1.33,-0.25l0,0l-0.59,0.31l-0.15,-0.25l0.37,-0.87l-0.33,-1.37l1.17,-0.29l0.45,-0.5l-0.02,2.32l0,0L324.98,474.77zM314.88,472.85l-0.48,1.35l0.01,1.56l-0.44,0.15l-0.9,-1.45l0.62,-1.04l0.07,-0.98l1.23,-0.79l0,0L314.88,472.85zM318.52,469.65l0.98,1.41l0.66,0.02l0.35,1.56l0.75,1.25l-0.64,0.39l-1.57,0.08l-2.7,1.93l-1.23,-2.53l0.93,-1.95l-0.52,-1.64l0.51,-0.27l1.88,0.38l0.15,-0.56L318.52,469.65zM309.68,416.41l0.55,-0.35l-0.09,-0.8l0.98,-0.71l0.26,-1.45l2.87,-0.48l2.01,-1.65l0,-1.01l0.61,-0.08l-0.01,-0.65l1.43,0.2l1.31,0.87l0.55,-1.05l1.14,-0.18l1.48,-2.65l2.01,-0.32l0.16,-0.57l0.98,-0.82l-0.55,-2.05l1.3,-0.67l0.63,-1.85l4.17,-1.26l0.92,-0.96l0.99,0.18l0.94,-0.56l1.08,-0.12l2.03,-2.65l7.15,-3.84l3.2,-1.1l3.05,0.02l3.63,-1.29l2.59,0.1l1.11,0.37l2.43,-0.38l5.12,1.24l4.07,0.13l0,0l1.02,4.66l2.18,6.07l0.58,0.7l1.48,-0.12l0.73,0.62l0.02,1.2l-1.19,3.58l-0.09,2.32l0.42,1.12l2.95,3.7l0.57,1.5l-0.25,2.56l-2.9,4.82l-0.85,3.5l0.03,3.67l0.96,4.46l0.06,4.26l0.54,1.42l1.72,1.22l6.85,1.77l3.85,2.88l4.24,2.57l6.76,2.81l0.74,1.31l0.04,0.71l-0.5,3.08l0.08,2.23l0.98,1.67l0.94,0.8l4.77,1.74l7.67,3.9l1.46,1.37l4.81,8.02l1.66,0.84l0.98,-0.03l0.6,0.74l0.57,-0.12l0.86,0.55l0.53,-0.29l1.26,0.77l1.34,-0.32l3.71,0.92l1.87,-0.48l1.13,-0.72l0.52,0.57l1.19,-0.22l0.12,0.69l-0.68,0.41l0.6,2.21l1.2,1.81l0.97,0.51l0.86,-0.58l2,-0.4l0.79,-0.68l1.04,0.12l1.33,-1.47l0.36,-0.04l0.33,0.61l1.15,-0.15l0.33,0.48l2.19,-0.65l-0.03,-0.88l1.27,-0.3l1.24,0.75l1.42,-1.24l0.91,0.07l0.91,1.37l-0.37,2.63l1.25,1.87l-0.05,1.72l0.54,0.86l0.67,0.4l1.03,-0.85l1.09,-0.36l3.47,0.68l0,0l1.02,0.09l2.83,2.35l5.06,7.81l2.1,2.05l1.66,1l0.14,0.67l-0.32,0.52l0.36,0.36l2.01,0.08l-0.14,-0.94l-1.56,-1.44l1.15,0.1l0.93,-0.35l2.01,0.35l-0.1,0.72l2.03,2.48l-0.45,1.85l1.08,1.37l0.15,0.85l-0.36,3.71l1.13,3.27l-0.28,1.26l-1.32,1.96l-1.01,0.51l-2.12,0.41l-1.79,-0.39l-0.82,0.69l-1.54,0.12l-1.27,0.57l-1.9,1.23l-3.33,-0.06l-2.72,2.82l-1.99,-0.16l-1.41,0.48l-0.4,0.87l-2.38,2.07l-4.13,-0.28l-0.79,0.73l-2.47,0.86l-0.9,-0.11l-0.87,-1.66l-3,-0.86l-0.6,-0.64l-0.39,-1.43l-3.78,-2.16l-2.04,-3.06l-1.25,0.17l-0.38,1.52l-1.11,-0.49l-1.05,0.03l-0.57,0.57l-0.34,1.13l-0.73,0.21l-1.2,-0.09l-2.71,-1.25l-1.76,0.8l-1.08,-0.24l-0.78,-2.18l-5.03,0.5l-1.98,-0.47l-1.3,1.02l-0.69,-1.77l-1.03,-0.66l-1.44,-0.34l-0.31,-0.65l-0.88,-0.41l-0.23,-0.74l2.18,-0.91l-0.02,-0.65l0.53,-0.87l-0.54,-1.69l0.32,-0.73l-0.29,-0.87l-0.51,-0.64l-2.04,-0.69l-0.87,-0.9l-4,-0.78l-1.81,-2.51l-2.08,-0.51l-1.2,0.06l-0.61,-0.61l-1.2,-2.7l-1.19,-0.82l-0.07,-0.64l0.89,-2.56l-1.63,-2.37l-0.65,0.02l-1.79,1.79l-3.03,0.89l-1.81,1.62l-0.85,0.29l-1.66,-0.19l-1.74,-0.96l-4.04,-4.42l-2.33,-1.29l-6.56,-2.47l-1.21,-2.22l-4.26,1.4l-8.43,-4.92l-0.37,-0.06l-27.98,16.77l-8.97,-3.74l-24.12,-8.69l0,0l0.38,-1.45l-0.77,-3.17l0,0l1.12,-0.52l0.49,-0.85l1.32,0.81l1.54,0.27l1.32,1.47l0.97,0.46l1.74,-0.18l0.76,-0.45l1.35,0.58l3.22,-0.08l0.48,0.43l0.4,1.18l1.48,-0.06l0.89,0.7l4.92,-0.62l0.68,0.5l0.1,1.69l0.74,0.58l1.57,-0.06l3.95,-1.09l1.77,1.96l0.48,1.03l0.78,0.33l1.98,-0.24l4.28,-2.02l3.87,0.13l1.75,-1.03l1.11,-1.42l1.73,-1.01l2.02,0.13l-1.25,-0.75l1.44,-3.53l-0.96,-1.84l-0.96,-0.58l-0.42,-1.78l0.18,-2.79l-0.45,-4l0.58,-1.31l-0.59,-0.91l0.82,-1.7l-1.19,-0.98l-1.05,-5.69l-2.16,-1.19l-1.56,-0.23l-1.7,-1.69l-2.28,-0.82l0.01,-0.52l1.02,-0.23l-0.45,-2.17l-2.25,-1.32l-1.14,-0.07l-0.78,-1.9l0.1,-1.15l-0.7,-4.42l0.56,-0.94l-0.82,-1.74l-0.63,-0.36l-1.09,1l-0.67,1.25l-0.63,-0.05l-1.46,-2.06l0,-1.09l-1.11,-1.39l0.17,-1.59l-0.82,-0.13l-0.98,-1.41l-2.68,-2.12l-3.11,-4.75l-0.96,-0.43l-0.99,-1.25l-1.6,-0.69l-1,-1.46l-0.44,-2.4l-2.33,-2.65l-0.7,-1.67l-1.72,-0.29L309.68,416.41z"/>
	</g>
</svg>