<?xml version="1.0" encoding="utf-8"?>
<!-- Generator: Adobe Illustrator 18.1.1, SVG Export Plug-In . SVG Version: 6.00 Build 0)  -->
<svg version="1.1" id="Calque_1" xmlns="http://www.w3.org/2000/svg" xmlns:xlink="http://www.w3.org/1999/xlink" x="0px" y="0px"
	 viewBox="0 0 100 100" enable-background="new 0 0 100 100" xml:space="preserve">
<path d="M99.952,60.933c-0.007,6.521-0.78,12.94-3.111,19.088c-3.99,10.521-11.651,16.709-22.568,19.008
	c-3.323,0.7-6.691,0.976-10.086,0.974C45.462,99.994,26.739,100,8.015,100c-0.25,0-0.501,0-0.751,0
	c-0.024,0-0.047-0.139-0.071-0.207c3.543-3.525,7.096-7.047,10.63-10.582c9.703-9.706,19.398-19.419,29.097-29.129
	c0.11-0.11,0.221-0.222,0.331-0.332c0.507-0.506,1.063-0.866,1.81-0.533c0.744,0.332,0.946,0.956,0.945,1.725
	C49.993,65.915,50,70.889,50,75.863c0,0.311,0,0.623,0,0.969c0,0.042,0.311,0.111,0.453,0.109c4.242-0.072,8.486-0.068,12.721-0.273
	c1.558-0.076,3.141-0.506,4.627-1.021c4.664-1.619,7.128-5.193,8.047-9.839c0.502-2.537,0.762-5.159,0.789-7.746
	c0.093-8.931,0.045-17.864,0.027-26.796c-0.002-0.598,0.188-1.008,0.605-1.425c7.295-7.289,14.587-14.592,21.861-21.901
	c0.212-0.212,0.345-0.523,0.503-0.789C99.742,7.225,100,7.301,100,7.375c0,0.274,0,0.549,0,0.823
	C100,25.775,99.97,43.354,99.952,60.933z M23.319,68.734c-0.017-8.75-0.068-17.5,0.023-26.248c0.028-2.693,0.25-5.421,0.748-8.064
	c0.945-5.033,3.666-8.733,8.765-10.3c1.015-0.312,2.07-0.642,3.117-0.68c4.6-0.17,9.218-0.235,13.821-0.336
	C49.834,23.105,50,23.152,50,23.216c0,0.244,0,0.524,0,0.806c0,4.896-0.014,9.791-0.013,14.687c0,0.261-0.091,0.571,0.021,0.771
	c0.264,0.471,0.543,0.989,0.959,1.3c0.488,0.364,1.049,0.116,1.495-0.265c0.237-0.203,0.452-0.43,0.673-0.651
	C66.164,26.818,79.192,13.773,92.22,0.729C92.402,0.545,92.576,0,92.913,0c-0.457,0-0.707,0-0.957,0C73.234,0,54.511-0.002,35.788,0
	c-3.314,0-6.605,0.275-9.855,0.942C14.621,3.265,6.821,9.705,2.901,20.661C0.742,26.695,0.039,32.959,0.04,39.323
	C0.041,56.822,0,74.32,0,91.819c0,0.273,0,0.546,0,0.99c0.4-0.298,0.547-0.463,0.724-0.64c7.32-7.337,14.656-14.678,21.988-22.004
	C23.132,69.746,23.32,69.326,23.319,68.734z"/>
</svg>
