<?xml version="1.0" encoding="utf-8"?>
<!-- Generator: Adobe Illustrator 18.1.1, SVG Export Plug-In . SVG Version: 6.00 Build 0)  -->
<svg version="1.1" id="Calque_1" xmlns="http://www.w3.org/2000/svg" xmlns:xlink="http://www.w3.org/1999/xlink" x="0px" y="0px"
	 viewBox="0 0 100 100" enable-background="new 0 0 100 100" xml:space="preserve">
<g>
	<path d="M98.289,75.884c-0.266-0.186-0.566-0.326-0.861-0.465c-2.576-1.205-5.146-2.422-7.732-3.604
		c-2.27-1.037-4.562-1.041-6.83,0.016c-9.812,4.572-19.619,9.155-29.432,13.727c-2.268,1.056-4.568,1.067-6.832,0.014
		c-9.785-4.551-19.562-9.119-29.342-13.688c-2.371-1.108-4.738-1.108-7.104-0.012C7.725,73,5.295,74.134,2.877,75.287
		c-0.805,0.384-1.871,0.612-1.856,1.765c0.016,1.09,1.033,1.328,1.814,1.693c14.543,6.801,29.086,13.605,43.649,20.367
		c2.264,1.054,4.643,1.116,6.91,0.06c14.652-6.801,29.281-13.647,43.916-20.485c0.326-0.151,0.658-0.302,0.953-0.503
		C99.262,77.503,99.271,76.568,98.289,75.884z"/>
	<path d="M1.551,23.947c0.434,0.333,0.951,0.569,1.453,0.804C17.49,31.523,31.975,38.3,46.48,45.033
		c2.264,1.054,4.729,1.074,6.996,0.019c14.535-6.744,29.053-13.532,43.57-20.316c0.5-0.234,1.012-0.483,1.441-0.824
		c0.713-0.566,0.715-1.346,0-1.912c-0.428-0.341-0.941-0.589-1.441-0.823C82.588,14.424,68.123,7.68,53.664,0.927
		c-2.434-1.136-4.854-1.153-7.287-0.018c-14.49,6.764-28.982,13.523-43.473,20.29c-0.471,0.221-0.955,0.451-1.361,0.769
		C0.785,22.558,0.785,23.362,1.551,23.947z"/>
	<path d="M98.289,48.926c-0.266-0.186-0.566-0.326-0.861-0.465c-2.576-1.205-5.146-2.422-7.732-3.604
		c-2.27-1.037-4.562-1.041-6.83,0.017c-9.812,4.571-19.619,9.155-29.432,13.726c-2.268,1.057-4.568,1.067-6.832,0.014
		c-9.785-4.551-19.562-9.119-29.342-13.688c-2.371-1.107-4.738-1.108-7.104-0.011c-2.432,1.128-4.861,2.261-7.279,3.415
		c-0.805,0.383-1.871,0.612-1.856,1.765c0.016,1.09,1.033,1.327,1.814,1.692c14.543,6.802,29.086,13.605,43.649,20.368
		c2.264,1.054,4.643,1.116,6.91,0.06c14.652-6.802,29.281-13.648,43.916-20.485c0.326-0.151,0.658-0.302,0.953-0.503
		C99.262,50.546,99.271,49.611,98.289,48.926z"/>
</g>
</svg>
