<?xml version="1.0" encoding="utf-8"?>
<!-- Generator: Adobe Illustrator 18.1.1, SVG Export Plug-In . SVG Version: 6.00 Build 0)  -->
<svg version="1.1" id="Calque_1" xmlns="http://www.w3.org/2000/svg" xmlns:xlink="http://www.w3.org/1999/xlink" x="0px" y="0px"
	 viewBox="0 0 100 100" enable-background="new 0 0 100 100" xml:space="preserve">
<g>
	<path fill="#1D1D1B" d="M35.725,8.367c2.574,5.902,5.192,11.784,7.761,17.689c0.228,0.524,0.914,2.908,1.844,2.524
		c1.872-0.77,1.612-0.628,0.963-2.562c-0.964-2.875-2.079-5.634-3.021-8.482c-1.429-4.319-3.458-8.456-4.861-12.803
		c-0.406-1.258-1.713-5.692-3.723-4.495C31.69,2.026,34.757,6.149,35.725,8.367C36.098,9.224,35.351,7.511,35.725,8.367z"/>
	<path fill="#1D1D1B" d="M69.833,38.14c-2.092,0-3.009,3.249-1.262,4.463c0.479,0.333,1.13,0.596,1.446,0.596
		c0.945,0,2.379-1.615,2.389-2.688c0.007-0.725,0.993-2.032,3.565-4.707c1.955-2.033,5.874-6.125,8.711-9.097
		c2.837-2.972,6.927-7.234,9.078-9.474c5.083-5.294,5.141-5.371,4.496-6.568c-0.281-0.521-0.959-1.058-1.495-1.192
		c-0.195-0.049-0.361-0.081-0.539-0.061c-0.774,0.087-1.673,1.074-5.195,5.193c-1.078,1.261-2.598,3.003-3.369,3.867
		c-0.771,0.865-2.428,2.795-3.688,4.293c-1.26,1.499-3.212,3.775-4.337,5.06c-3.423,3.906-5.384,6.174-7.18,8.294
		C71.302,37.483,70.442,38.14,69.833,38.14z"/>
	<path fill="#1D1D1B" d="M69.515,57.162c5.432-2.36,12.148-7.054,14.298-9.997c0.517-0.708,1.138-1.505,1.384-1.776
		c1.764-1.933,2.814-6.638,2.12-9.511c-0.415-1.717-2.391-4.743-3.1-4.743c-0.586,0-5.581,5.296-5.795,6.142
		c-0.382,1.511,0.475,2.031,3.32,2.031c2.927,0,2.839,0.273-0.515,1.557c-4.185,1.602-4.851,2.841-3.32,6.19
		c0.43,0.941,0.729,1.769,0.662,1.836s-0.985-0.137-2.034-0.45c-2.299-0.687-3.39-0.716-4.705-0.122
		c-1.083,0.49-2.953,3.826-2.953,5.254c0,0.48-0.188,0.974-0.404,1.107c-0.451,0.277-1.164-1.369-1.164-2.676
		c0-0.486-0.606-1.57-1.335-2.408c-1.284-1.475-1.407-1.532-3.823-1.532c-1.373,0-3.195,0.149-4.055,0.329l-1.568,0.328l2.254-2.335
		c2.037-2.12,2.254-2.507,2.254-4.05c0-1.823-0.796-3.204-2.94-5.108l-1.176-1.046l1.568,0.304c5.417,1.042,7.867-0.566,8.637-5.643
		c0.138-0.91,0.36-1.654,0.502-1.654c0.143,0,0.644,0.867,1.115,1.922c1.119,2.506,1.982,2.978,3.492,1.897
		c1.188-0.85,4.529-4.548,4.778-5.291c0.316-0.94-4.616-1.477-10.095-1.496c-4.262-0.015-8.85,0.279-11.566,0.949
		c-5.959,1.469-7.347,2.017-7.032,2.749c0.151,0.353,0.527,1.333,0.833,2.189c0.915,2.558,1.468,3.697,1.801,3.697
		c0.562,0,2.242,2.04,2.242,2.724c0,0.365-0.439,1.136-0.968,1.703c-1.185,1.269-2.857,1.348-4.104,0.195
		c-0.747-0.691-0.863-1.111-0.686-2.42c0.205-1.515-0.12-2.535-2.169-6.75l-0.417-0.851l-2.793,1.386
		c-8.578,4.274-14.044,9.643-15.915,15.604c-0.286,0.911-0.449,1.731-0.355,1.824s3.294,0.286,7.118,0.438
		c5.892,0.234,7.065,0.19,7.645-0.304c1.168-0.995,2.068-1.115,3.455-0.462c1.278,0.602,1.577,1.234,1.348,2.87
		c-0.251,1.79-3.18,2.633-4.521,1.302c-0.574-0.57-1.413-0.609-7.351-0.377c-3.688,0.144-6.777,0.331-6.861,0.414
		c-0.35,0.347,1.149,2.528,2.683,3.904c2.857,2.562,7.431,4.233,13.403,4.889C50.284,62.726,61.125,60.807,69.515,57.162z"/>
	<path fill="#1D1D1B" d="M92.805,65.189c-0.24-2.14-0.69-5.556-0.992-7.589s-0.663-5.054-0.809-6.713
		c-0.173-1.968-0.424-2.995-0.662-2.968c-0.143,0.016-0.284,0.406-0.404,1.216c-0.304,2.052-2.69,13.667-2.94,14.303
		c-0.126,0.321-0.446,1.81-0.711,3.308c-0.265,1.498-0.679,3.6-0.919,4.67c-0.24,1.07-0.8,3.697-1.237,5.838
		c-0.964,4.714-1.564,6.811-1.96,6.811c-0.164,0-4.591-4.191-9.838-9.316l-9.532-9.316l-0.649,1.459
		c-0.352,0.805-0.771,2.233-0.931,3.174c-0.16,0.941-0.442,1.981-0.625,2.311c-0.183,0.329-0.872,2.61-1.544,5.072
		c-0.672,2.461-1.467,5.351-1.764,6.421c-0.297,1.07-0.84,3.128-1.213,4.573c-0.802,3.111-1.356,3.306-3.259,1.168
		c-1.765-1.984-6.781-7.578-7.265-8.1c-0.216-0.232-1.362-1.517-2.548-2.858c-1.186-1.341-2.509-2.824-2.94-3.296
		c-0.431-0.472-1.931-2.151-3.332-3.722c-1.402-1.571-2.748-3.047-2.977-3.284c-0.229-0.237-1.244-1.362-2.254-2.493
		c-2.004-2.243-2.276-1.99-1.017,0.937c0.449,1.044,1.087,2.51,1.409,3.26c0.322,0.749,0.821,1.887,1.115,2.53
		c0.504,1.099,1.15,2.573,2.72,6.227c0.368,0.856,0.907,2.082,1.201,2.724c0.469,1.023,1.502,3.374,2.561,5.838
		c1.949,4.537,2.596,5.647,4.3,7.273c2.286,2.181,5.871,3.94,9.605,4.731c5.695,1.206,13.806,0.63,20.215-1.447
		c6.547-2.122,10.636-4.523,14.677-8.611c3.261-3.299,3.407-3.48,4.496-5.68c1.308-2.64,1.535-4.994,0.968-10.034
		C93.469,71.118,93.045,67.329,92.805,65.189z"/>
	<path fill="#1D1D1B" d="M22.554,49.67c-0.887-0.176-3.94-0.259-7.437-0.268C9.289,49.389,2.226,49.588,1.91,49.901
		c-0.615,0.61-0.598,2.353,0.025,3.004c0.394,0.412,2.59,0.463,11.247,0.255c5.922-0.142,10.84-0.338,10.928-0.426
		s0.053-0.75-0.086-1.484C23.816,50.15,23.558,49.869,22.554,49.67z"/>
</g>
</svg>
