<?xml version="1.0" encoding="utf-8"?>
<!-- Generator: Adobe Illustrator 18.1.1, SVG Export Plug-In . SVG Version: 6.00 Build 0)  -->
<svg version="1.1" id="Calque_1" xmlns="http://www.w3.org/2000/svg" xmlns:xlink="http://www.w3.org/1999/xlink" x="0px" y="0px"
	 viewBox="0 0 100 100" enable-background="new 0 0 100 100" xml:space="preserve">
<path d="M89.762,29.605c0.039,0.879,0.061,1.764,0.061,2.655c0,27.111-20.637,58.375-58.374,58.375
	c-11.586,0-22.37-3.399-31.449-9.219c1.605,0.189,3.237,0.287,4.894,0.287c9.613,0,18.459-3.279,25.48-8.783
	c-8.979-0.164-16.554-6.098-19.166-14.249c1.253,0.241,2.538,0.37,3.861,0.37c1.871,0,3.684-0.252,5.405-0.721
	C11.088,56.436,4.017,48.143,4.017,38.203c0-0.087,0-0.172,0.002-0.258c2.766,1.535,5.929,2.459,9.292,2.566
	c-5.505-3.68-9.127-9.958-9.127-17.078c0-3.759,1.012-7.283,2.778-10.314c10.119,12.414,25.236,20.58,42.287,21.438
	c-0.35-1.502-0.531-3.069-0.531-4.676c0-11.331,9.185-20.516,20.516-20.516c5.902,0,11.234,2.49,14.977,6.478
	c4.672-0.919,9.063-2.627,13.027-4.978c-1.531,4.791-4.785,8.81-9.02,11.349c4.148-0.496,8.103-1.598,11.783-3.23
	C97.248,23.1,93.772,26.713,89.762,29.605z"/>
</svg>
