<?xml version="1.0" encoding="utf-8"?>
<!-- Generator: Adobe Illustrator 18.1.1, SVG Export Plug-In . SVG Version: 6.00 Build 0)  -->
<svg version="1.1" id="Calque_1" xmlns="http://www.w3.org/2000/svg" xmlns:xlink="http://www.w3.org/1999/xlink" x="0px" y="0px"
	 viewBox="0 0 100 100" enable-background="new 0 0 100 100" xml:space="preserve">
<path d="M76.173,77.777c-19.815,0-26.688-8.934-30.354-20.045l-3.666-11.455c-2.749-8.362-5.957-14.891-16.036-14.891
	c-6.988,0-14.09,5.04-14.09,19.129c0,10.997,5.613,17.87,13.518,17.87c8.934,0,14.89-6.644,14.89-6.644l3.667,9.965
	c0,0-6.187,6.071-19.129,6.071C8.936,77.777,0,68.385,0,50.974c0-18.098,8.936-28.751,25.772-28.751
	c15.235,0,22.911,5.498,27.721,20.39l3.78,11.454c2.749,8.363,7.561,14.434,19.129,14.434c7.789,0,11.913-1.719,11.913-5.956
	c0-3.322-1.946-5.728-7.788-7.103l-7.791-1.832C63.23,51.318,59.45,46.392,59.45,38.603c0-12.486,10.08-16.38,20.39-16.38
	c11.684,0,18.785,4.238,19.701,14.547l-11.453,1.375c-0.459-4.925-3.438-6.988-8.936-6.988c-5.041,0-8.133,2.291-8.133,6.186
	c0,3.437,1.489,5.498,6.528,6.644l7.331,1.604C94.729,47.881,100,52.692,100,61.971C100,73.425,90.379,77.777,76.173,77.777z"/>
</svg>
