<?xml version="1.0" encoding="utf-8"?>
<!-- Generator: Adobe Illustrator 18.1.1, SVG Export Plug-In . SVG Version: 6.00 Build 0)  -->
<svg version="1.1" id="Calque_1" xmlns="http://www.w3.org/2000/svg" xmlns:xlink="http://www.w3.org/1999/xlink" x="0px" y="0px"
	 viewBox="0 0 100 100" enable-background="new 0 0 100 100" xml:space="preserve">
<g>
	<path id="path3" inkscape:connector-curvature="0" d="M62.441,21.201v19.56l6.836,4.305c0.18,0.052,0.572,0.057,0.752,0
		l29.42-19.835c0-2.348-2.189-4.03-3.426-4.03H62.441z"/>
	<path id="path5" inkscape:connector-curvature="0" d="M62.441,48.061l6.24,4.285c0.877,0.646,1.936,0,1.936,0
		c-1.055,0.646,28.836-19.208,28.836-19.208V69.09c0,3.914-2.506,5.555-5.322,5.555H62.439V48.061H62.441z"/>
	<g id="g23" transform="matrix(3.9178712,0,0,3.9178712,-13.481395,-41.384474)">
		<path id="path25" inkscape:connector-curvature="0" d="M11.135,20.528c-0.543,0-0.975,0.255-1.295,0.764
			c-0.319,0.509-0.479,1.183-0.479,2.022c0,0.851,0.16,1.524,0.479,2.019c0.32,0.496,0.739,0.742,1.256,0.742
			c0.534,0,0.958-0.241,1.27-0.722c0.313-0.481,0.47-1.15,0.47-2.004c0-0.891-0.152-1.584-0.455-2.079
			C12.077,20.775,11.662,20.528,11.135,20.528z"/>
		<path id="path27" inkscape:connector-curvature="0" d="M3.581,13.439v19.533l14.859,3.115V10.563L3.581,13.439z M13.524,26.507
			c-0.628,0.826-1.447,1.241-2.457,1.241c-0.984,0-1.786-0.401-2.406-1.201c-0.619-0.801-0.93-1.845-0.93-3.131
			c0-1.358,0.315-2.457,0.944-3.296c0.63-0.839,1.464-1.259,2.502-1.259c0.981,0,1.775,0.401,2.379,1.204
			c0.606,0.803,0.909,1.861,0.909,3.176C14.466,24.592,14.152,25.681,13.524,26.507z"/>
	</g>
</g>
</svg>
