<?xml version="1.0" encoding="utf-8"?>
<!-- Generator: Adobe Illustrator 18.1.1, SVG Export Plug-In . SVG Version: 6.00 Build 0)  -->
<svg version="1.1" id="Calque_1" xmlns="http://www.w3.org/2000/svg" xmlns:xlink="http://www.w3.org/1999/xlink" x="0px" y="0px"
	 viewBox="0 0 100 100" enable-background="new 0 0 100 100" xml:space="preserve">
<path d="M37.415,69.157c-0.026,0.374-0.06,0.64-0.06,0.907c-0.003,5.036,0.014,10.072-0.02,15.107
	c-0.005,0.728,0.258,1.041,0.915,1.234c14.137,4.151,26.812,1.444,37.789-8.372c6.777-6.06,10.7-13.806,11.954-22.804
	c2.625-18.835-8.958-36.771-27.347-42.042c-21.119-6.054-42.791,6.672-47.839,28.088c-0.645,2.738-0.975,5.612-0.991,8.425
	c-0.091,16.342-0.045,32.686-0.045,49.029c0,1.275-0.001,1.278-1.237,1.279c-3.182,0.002-6.364-0.019-9.546,0.014
	c-0.751,0.008-1-0.196-0.999-0.985C0.011,82.169-0.13,65.299,0.06,48.433c0.101-8.929,2.734-17.276,7.531-24.837
	C15.385,11.313,26.471,3.751,40.731,0.837c4.363-0.892,8.791-1.027,13.181-0.69c11.212,0.861,21.079,5.05,29.496,12.57
	c7.039,6.29,11.86,13.982,14.585,22.998c0.992,3.282,1.582,6.64,1.862,10.066c0.564,6.917-0.12,13.691-2.437,20.23
	c-5.244,14.801-15.211,25.099-29.859,30.79c-5.718,2.221-11.678,3.24-17.822,3.215c-7.075-0.029-14.149-0.006-21.224-0.007
	c-1.351,0-1.356-0.003-1.354-1.295c0.019-16.435,0.022-32.87,0.067-49.305c0.029-10.557,8.123-20.063,18.58-21.907
	c12.52-2.207,23.958,5.462,26.69,17.895c2.714,12.351-5.979,25.101-18.442,27.113c-5.65,0.912-10.917-0.039-15.836-2.957
	C37.99,69.417,37.742,69.317,37.415,69.157z"/>
</svg>
