<?xml version="1.0" encoding="utf-8"?>
<!-- Generator: Adobe Illustrator 18.1.1, SVG Export Plug-In . SVG Version: 6.00 Build 0)  -->
<svg version="1.1" id="Calque_1" xmlns="http://www.w3.org/2000/svg" xmlns:xlink="http://www.w3.org/1999/xlink" x="0px" y="0px"
	 viewBox="0 0 100 100" enable-background="new 0 0 100 100" xml:space="preserve">
<path d="M55,100H45C22.94,100,5,82.051,5,60V10C5,4.473,9.473,0,15,0c5.519,0,10,4.473,10,10v50c0,11.024,8.976,20,20,20h10
	c11.026,0,20-7.852,20-17.5C75,52.637,69.62,45,65,45H45c-5.527,0-10-4.483-10-10c0-5.527,4.473-10,10-10h20
	c16.543,0,30,16.816,30,37.5C95,83.173,77.051,100,55,100z"/>
</svg>
