<?xml version="1.0" encoding="utf-8"?>
<!-- Generator: Adobe Illustrator 18.1.1, SVG Export Plug-In . SVG Version: 6.00 Build 0)  -->
<svg version="1.1" id="Calque_1" xmlns="http://www.w3.org/2000/svg" xmlns:xlink="http://www.w3.org/1999/xlink" x="0px" y="0px"
	 viewBox="0 0 100 100" enable-background="new 0 0 100 100" xml:space="preserve">
<path d="M97.036,31.544c-1.74,0.173-8.986,1.795-11.42,2.316c-2.607,0.695-26.426,19.097-27.992,23.617
	c-0.347,1.565-0.521,3.971-0.521,6.231l-0.175,3.65c0,2.609,0.724,6.809,1.072,9.068c1.564,0.349,12.9,0.046,14.985,0.392
	l-0.26,4.672c-2.035-0.145-16.428-0.113-24.651-0.113c-4.174,0-17.591,0.46-21.712,0.336l0.778-4.446
	c2.26-0.171,11.621,0.406,13.678-1.766c1.02-1.078,0.696-2.233,0.696-8.489v-2.956c0-1.394,0-4-0.349-6.435
	c-0.87-2.61-21.85-28.805-27.239-32.979c-1.562-0.521-11.372-1.501-13.803-2.023L0,18.615c1.215-0.607,12.121,0.147,22.702-0.243
	c6.957-0.257,22.823,0,24.783,0.232l-0.501,3.53c-2.086,0.522-12.137,0.714-14.743,1.409c6.78,10.083,17.503,23.067,20.983,28.11
	c1.909-2.782,18.719-14.348,19.24-18.345c-2.609-0.521-11.246-1.766-12.636-1.766l-0.825-4.554c2.365-0.371,14.814,0,21.001,0
	c5.342,0,16.753,0,19.997,0.266L97.036,31.544z"/>
</svg>
