<?xml version="1.0" encoding="utf-8"?>
<!-- Generator: Adobe Illustrator 18.1.1, SVG Export Plug-In . SVG Version: 6.00 Build 0)  -->
<svg version="1.1" id="Calque_1" xmlns="http://www.w3.org/2000/svg" xmlns:xlink="http://www.w3.org/1999/xlink" x="0px" y="0px"
	 viewBox="0 0 100 100" enable-background="new 0 0 100 100" xml:space="preserve">
<path fill="#1D1D1B" d="M62.045,0H26.046c-2.465,0-4.558,1.792-4.943,4.224L6.547,96.533C6.259,98.352,7.666,100,9.508,100H26.7
	c2.46,0,4.553-1.792,4.938-4.219l3.931-24.906c0.381-2.432,2.479-4.224,4.939-4.224h11.39c23.713,0,37.401-11.474,40.975-34.221
	c1.611-9.942,0.065-17.758-4.59-23.23C83.163,3.184,74.089,0,62.045,0 M66.199,33.715c-1.968,12.922-11.836,12.922-21.383,12.922
	h-5.43l3.811-24.126c0.227-1.457,1.485-2.53,2.961-2.53h2.493c6.498,0,12.634,0,15.799,3.699
	C66.343,25.895,66.914,29.181,66.199,33.715"/>
</svg>
