<?xml version="1.0" encoding="utf-8"?>
<!-- Generator: Adobe Illustrator 18.1.1, SVG Export Plug-In . SVG Version: 6.00 Build 0)  -->
<svg version="1.1" id="Calque_1" xmlns="http://www.w3.org/2000/svg" xmlns:xlink="http://www.w3.org/1999/xlink" x="0px" y="0px"
	 viewBox="0 0 100 100" enable-background="new 0 0 100 100" xml:space="preserve">
<path d="M19.389,78.178c2.372,4.29,5.57,7.599,9.601,9.935c2.687,1.553,5.565,2.54,8.6,3.057
	c25.808-10.093,22.735-59.094,22.557-61.664C59.13,26.534,54.616,13.987,46.281,0c0,0,11.822,7.836,13.854,29.381
	c0,0,0.006,0.055,0.011,0.125c0.146,0.431,0.222,0.666,0.222,0.666C75.549,70.687,42.5,91.57,42.451,91.598
	c4.746-0.031,9.113-1.183,13.088-3.485c4.032-2.336,7.23-5.645,9.602-9.935c2.366-4.287,3.553-8.914,3.553-13.874
	c0-4.027-0.723-7.734-2.147-11.141c2.374-0.494,5.245-1.467,8.262-3.324c1.796,4.389,2.704,9.147,2.704,14.277
	c0,9.587-3.289,17.962-9.861,25.126C61.076,96.412,52.623,100,42.295,100c-10.368,0-18.839-3.588-25.414-10.757
	c-6.574-7.164-9.86-15.54-9.86-25.126c0-9.505,3.11-17.744,9.331-24.721c6.844-7.695,15.494-11.545,25.943-11.545
	c4.4,0,8.469,0.692,12.23,2.053c-1.222,2.392-2.326,5.315-2.624,8.458c-2.986-1.242-6.198-1.869-9.637-1.869
	c-7.229,0-13.44,2.711-18.635,8.135c-5.192,5.423-7.792,11.981-7.792,19.676C15.838,69.264,17.022,73.891,19.389,78.178z
	 M65.771,37.968c0,0,20.121-11.026,20.87-20.36c0,0-6.178,13.89-23.079,17.735c0,0-6.166-9.542,1.662-17.412
	c0,0,2.742-3.017,10.567-5.01c0,0,7.83-1.665,12.058-10.652c0,0,8.77,12.246,3.377,28.36c0,0-2.672,7.255-8.24,10.566
	C78.789,43.698,72.427,44.48,65.771,37.968z M42.416,91.6c-0.074,0.006-0.146,0.001-0.222,0.006c0.025,0,0.046,0.003,0.07,0.003
	C42.315,91.609,42.365,91.6,42.416,91.6z"/>
</svg>
