<?xml version="1.0" encoding="utf-8"?>
<!-- Generator: Adobe Illustrator 18.1.1, SVG Export Plug-In . SVG Version: 6.00 Build 0)  -->
<svg version="1.1" id="Calque_1" xmlns="http://www.w3.org/2000/svg" xmlns:xlink="http://www.w3.org/1999/xlink" x="0px" y="0px"
	 viewBox="0 0 100 100" enable-background="new 0 0 100 100" xml:space="preserve">
<path d="M67.126,11.646H3.653C1.633,11.646,0,13.281,0,15.298v69.406c0,2.017,1.633,3.65,3.653,3.65h63.473L100,50.002
	L67.126,11.646z M40.38,73.118c-15.311,0-20.455-0.694-20.455-0.694s0.799-12.212,6.387-14.407c5.585-2.198,6.956-1.887,8.892-3.057
	c0.049-0.027,0.098-0.057,0.146-0.08v-3.287c-1.86-1.63-3.343-4.089-4.209-6.899c-1.009-1.083-1.592-2.358-1.592-3.723
	c0-0.936,0.278-1.828,0.777-2.647c0.33-6.886,4.71-11.442,10.068-11.442c5.362,0,9.742,4.556,10.069,11.442
	c0.5,0.82,0.775,1.711,0.775,2.647c0,1.365-0.582,2.639-1.591,3.723c-0.865,2.811-2.348,5.268-4.207,6.898v3.289
	c0.048,0.024,0.095,0.054,0.143,0.08c1.941,1.17,3.308,0.859,8.896,3.057c5.588,2.195,6.384,14.407,6.384,14.407
	S55.691,73.118,40.38,73.118z"/>
</svg>
