<?xml version="1.0" encoding="utf-8"?>
<!-- Generator: Adobe Illustrator 18.1.1, SVG Export Plug-In . SVG Version: 6.00 Build 0)  -->
<svg version="1.1" id="Calque_1" xmlns="http://www.w3.org/2000/svg" xmlns:xlink="http://www.w3.org/1999/xlink" x="0px" y="0px"
	 viewBox="0 0 100 100" enable-background="new 0 0 100 100" xml:space="preserve">
<path d="M93.053,38h-4.387C84.364,38,82,35.212,82,32.07v-2.806C82,14.983,66.248,0,52.826,0H31.68C13.916,0,0,13.983,0,31.741
	v37.926C0,86.342,14.285,100,29.036,100h40.155C85.571,100,100,86.192,100,69.372v-24C100,40.912,98.475,38,93.053,38z M31.68,26
	h18.145c3.202,0,5.819,2.799,5.819,5.998c0,3.186-2.629,6.002-5.819,6.002H31.68c-3.199,0-5.816-2.799-5.816-6.002
	C25.863,28.816,28.497,26,31.68,26z M67.74,74H31.68c-3.195,0-5.816-2.3-5.816-5.502c0-3.187,2.634-5.498,5.816-5.498h36.06
	c3.199,0,5.816,2.299,5.816,5.498C73.556,71.684,70.918,74,67.74,74z"/>
</svg>
