<?xml version="1.0" encoding="utf-8"?>
<!-- Generator: Adobe Illustrator 18.1.1, SVG Export Plug-In . SVG Version: 6.00 Build 0)  -->
<svg version="1.1" id="Calque_1" xmlns="http://www.w3.org/2000/svg" xmlns:xlink="http://www.w3.org/1999/xlink" x="0px" y="0px"
	 viewBox="0 0 100 100" enable-background="new 0 0 100 100" xml:space="preserve">
<path fill-rule="evenodd" clip-rule="evenodd" d="M30,34h10v34H30V34z M16,20h10v48H0V34h16V20z M16,42h-6v18h6V42z M30,30h10V20H30
	V30z M44,34h26v46H44v-8h16v-4H44V34z M54,60h6V42h-6V60z M100,34v46H74v-8h16v-4H74V34H100z M90,42h-6v18h6V42z"/>
</svg>
