<?xml version="1.0" encoding="utf-8"?>
<!-- Generator: Adobe Illustrator 18.1.1, SVG Export Plug-In . SVG Version: 6.00 Build 0)  -->
<svg version="1.1" id="Calque_1" xmlns="http://www.w3.org/2000/svg" xmlns:xlink="http://www.w3.org/1999/xlink" x="0px" y="0px"
	 viewBox="0 0 100 100" enable-background="new 0 0 100 100" xml:space="preserve">
<path d="M74.542,0.391c0,0,6.886-0.653,12.281,2.893c1.955-0.093,3.535,0.749,4.559,2.615c1.024,1.866,2.884,6.348,1.396,9.057
	c-0.464,0.559-1.489-1.683-1.489-1.683s-0.744,2.709-2.14,3.735c0.187,5.601-2.046,9.52-2.697,10.828
	c-0.28,0.747-0.093,1.402,0.184,2.149c0.28,0.747,4.003,13.909,3.816,18.297c-0.187,4.389-2.418,9.615-4.188,11.389
	c0.371,3.642-1.302,6.723-2.14,8.217c-0.837,1.492-2.697,7.094-3.164,9.707c-0.465,2.614-0.651,5.416-0.092,6.256
	c0.559,0.84,3.07,3.455,2.884,4.762c-0.187,1.307-2.884,2.799-4.188,2.799c-1.302,0-4.001-0.84-4.652-2.615
	c-0.65-1.772-0.745-4.852-0.278-6.625c0.464-1.775,3.628-14.75,1.769-22.406c-4.561,2.053-12.19,1.961-12.19,1.961
	s-1.302,6.814-2.884,10.734c-0.558,0.933-0.466,7.283-0.466,11.295c0,4.016,1.396,10.27,1.396,10.27s1.954,1.402,1.675,3.175
	C63.656,98.973,61.422,100,59.468,100c-1.953,0-4.557-1.493-4.557-3.922c0-2.426,0.37-7.934,0.185-11.949
	c-0.185-4.014-0.091-6.627-0.743-9.148c-0.652-2.521-2.512-9.149-2.698-14.284c-0.651,0-1.303-0.466-1.303-0.466
	s-3.07,3.547-5.21,5.601c0.278,1.399,1.022,3.921,1.022,4.481c0,0.56,0.56,1.026,1.49,1.399c0.93,0.376,3.813,1.962,3.721,3.548
	c-0.093,1.587-3.722,1.867-6.886,0.467c-0.743-0.373-3.442-9.427-3.814-10.643c-0.374-1.213-0.652-1.865-0.186-2.895
	c0.464-1.024,1.768-4.386,1.582-6.348c-0.187-1.959-3.815-5.041-6.235-5.041c-1.861,0-4.705,2.854-6.792,4.48
	c-2.512,1.963-5.396,4.949-6.141,5.415c-0.745,0.469-6.607,11.111-7.723,14.19c-0.465,1.213-1.394,7.283-6.325,7.094
	c-2.234-0.186-4.28-2.612,2.046-7c1.606-3.711,3.839-7.562,3.978-8.334c0.139-0.77,1.815-10.361,4.606-19.463
	c2.791-9.102,6.909-13.442,7.675-14.074c0.629-0.488,0.977-0.77,0.35-1.119c-0.628-0.35-7.257-6.022-6-18.064
	c0.208-1.399,0.837-1.05,1.255,2.17c0.419,3.221,3,10.783,8.723,13.164c0.558,0.209,4.676-2.941,25.679-4.48
	c0.14-3.711,0.699-7.633,0.699-7.633s-1.466-1.12-1.676-3.361c-0.697,1.122-1.115,1.401-2.024,1.261
	c-0.907-0.139-0.838-4.48-0.628-7.561c0.21-3.082,3.769-4.412,5.095-4.551c1.744-0.912,3.627-0.771,3.627-0.771
	S65.47-1.102,74.542,0.391z"/>
</svg>
