<?xml version="1.0" encoding="utf-8"?>
<!-- Generator: Adobe Illustrator 18.1.1, SVG Export Plug-In . SVG Version: 6.00 Build 0)  -->
<svg version="1.1" id="Calque_1" xmlns="http://www.w3.org/2000/svg" xmlns:xlink="http://www.w3.org/1999/xlink" x="0px" y="0px"
	 viewBox="0 0 100 100" enable-background="new 0 0 100 100" xml:space="preserve">
<g>
	<g>
		<path d="M91.419,79.464c-0.636,0-1.279-0.182-1.847-0.562c-1.525-1.023-1.932-3.09-0.912-4.615
			c3.069-4.581,4.693-9.944,4.693-15.511c0-5.568-1.624-10.931-4.691-15.511c-1.022-1.525-0.616-3.59,0.91-4.613
			c1.523-1.023,3.588-0.614,4.611,0.91C97.99,45.241,100,51.885,100,58.776c0,6.89-2.01,13.535-5.815,19.213
			C93.542,78.947,92.492,79.464,91.419,79.464L91.419,79.464z"/>
	</g>
	<g>
		<path d="M81.91,74.066c-0.641,0-1.29-0.186-1.861-0.573c-1.52-1.03-1.917-3.097-0.887-4.619c2.024-2.988,3.094-6.479,3.094-10.097
			c0-3.614-1.071-7.108-3.095-10.102c-1.03-1.52-0.631-3.588,0.89-4.617c1.521-1.031,3.587-0.629,4.615,0.89
			c2.773,4.098,4.239,8.88,4.239,13.829c0,4.953-1.466,9.735-4.24,13.829C84.022,73.554,82.976,74.066,81.91,74.066L81.91,74.066z"
			/>
	</g>
	<path d="M66.361,44.297c-1.312-13.319-12.588-23.761-26.26-23.761c-11.328,0-21.359,7.272-24.967,17.863
		C6.586,39.664,0,47.02,0,55.902c0,9.765,7.959,17.71,17.741,17.71h45.427c8.192,0,14.857-6.656,14.857-14.836
		C78.024,51.693,73.022,45.76,66.361,44.297z M63.168,66.962H17.741c-6.117,0-11.092-4.961-11.092-11.06
		c0-6.101,4.976-11.065,11.092-11.065c2.968,0,5.754,1.151,7.843,3.242c1.298,1.299,3.402,1.299,4.702,0
		c1.298-1.299,1.298-3.403,0-4.702c-2.287-2.288-5.099-3.853-8.161-4.627c3.155-6.937,10.156-11.562,17.977-11.562
		c10.886,0,19.741,8.841,19.741,19.708c0,2.117-0.333,4.192-0.989,6.172c-0.578,1.742,0.365,3.624,2.108,4.203
		c0.347,0.115,0.7,0.17,1.048,0.17c1.393,0,2.692-0.884,3.154-2.279c0.433-1.307,0.76-2.645,0.981-4.003
		c3.058,1.191,5.233,4.154,5.233,7.619C71.377,63.289,67.694,66.962,63.168,66.962z"/>
</g>
</svg>
