<?xml version="1.0" encoding="utf-8"?>
<!-- Generator: Adobe Illustrator 18.1.1, SVG Export Plug-In . SVG Version: 6.00 Build 0)  -->
<svg version="1.1" id="Calque_1" xmlns="http://www.w3.org/2000/svg" xmlns:xlink="http://www.w3.org/1999/xlink" x="0px" y="0px"
	 viewBox="0 0 100 100" enable-background="new 0 0 100 100" xml:space="preserve">
<g>
	<path d="M87.38,29.664c6.873,0,12.446-5.57,12.446-12.447c0-6.875-5.573-12.445-12.446-12.445c-6.876,0-12.45,5.57-12.45,12.445
		C74.93,24.094,80.504,29.664,87.38,29.664z"/>
	<path d="M87.38,37.551c-6.876,0-12.45,5.574-12.45,12.447c0,6.879,5.574,12.449,12.45,12.449c6.873,0,12.446-5.57,12.446-12.449
		C99.826,43.125,94.253,37.551,87.38,37.551z"/>
	<path d="M87.38,70.332c-6.876,0-12.45,5.576-12.45,12.449c0,6.877,5.574,12.447,12.45,12.447c6.873,0,12.446-5.57,12.446-12.447
		C99.826,75.908,94.253,70.332,87.38,70.332z"/>
	<path d="M49.619,4.772c-6.876,0-12.449,5.57-12.449,12.445c0,6.877,5.573,12.447,12.449,12.447c6.873,0,12.447-5.57,12.447-12.447
		C62.066,10.342,56.492,4.772,49.619,4.772z"/>
	<path d="M49.619,37.551c-6.876,0-12.449,5.574-12.449,12.447c0,6.879,5.573,12.449,12.449,12.449
		c6.873,0,12.447-5.57,12.447-12.449C62.066,43.125,56.492,37.551,49.619,37.551z"/>
	<path d="M12.277,4.772c-6.88,0-12.449,5.57-12.449,12.445c0,6.877,5.569,12.447,12.449,12.447c6.873,0,12.443-5.57,12.443-12.447
		C24.721,10.342,19.15,4.772,12.277,4.772z"/>
</g>
</svg>
