<?xml version="1.0" encoding="utf-8"?>
<!-- Generator: Adobe Illustrator 18.1.1, SVG Export Plug-In . SVG Version: 6.00 Build 0)  -->
<svg version="1.1" id="Calque_1" xmlns="http://www.w3.org/2000/svg" xmlns:xlink="http://www.w3.org/1999/xlink" x="0px" y="0px"
	 viewBox="0 0 100 100" enable-background="new 0 0 100 100" xml:space="preserve">
<path d="M20.521,9.92c1.005-1.609,2.934-2.248,2.934-2.248l19.697-7.318c0.841-0.125,1.711-1.055,4.648,0.727
	c1.872,1.129,2.293,5.296,2.293,5.296l0.19,33.776c0,0-0.443,4.059-3.237,4.746c-2.574,0.636-4.595-1.453-4.595-1.453L21.979,15.539
	C21.979,15.539,19.087,12.2,20.521,9.92z M10.098,67.604c-0.763-1.339-0.556-4.28-0.556-4.28l1.378-16.974
	c0.102-1.103,1.135-2.351,2.303-3.04c1.522-0.901,4.66,0.392,4.66,0.392l21.172,10.696c0,0,3.198,1.564,3.127,4.17
	c-0.092,3.445-1.777,3.504-2.737,4.149l-24.717,5.463C14.728,68.181,11.177,69.502,10.098,67.604z M48.212,99.797
	c-1.526,0.442-3.54,0.024-3.54,0.024l-16.621-5.248c-1.158-0.561-1.978-1.358-2.473-2.961c-0.525-1.712,1.54-4.497,1.54-4.497
	l16.55-18.22c0,0,2.539-2.257,4.66-1.167c1.941,1.005,2.026,3.381,2.026,3.381l-0.376,24.668
	C49.978,95.777,50.378,99.169,48.212,99.797z M58.318,49.124l13.406-21.095c0,0,1.383-2.72,3.631-2.528
	c2.038,0.169,3.021,1.858,3.021,1.858l11.338,13.355c0,0,0.987,2.116,0.534,3.869c-0.462,1.754-3.695,3.068-3.695,3.068
	l-23.725,6.934c0,0-3.356,0.601-4.573-1.462C57.134,51.226,58.318,49.124,58.318,49.124z M89.449,76.775L79.406,91.131
	c0,0-1.793,1.492-3.608,1.492c-1.808,0-3.893-2.797-3.893-2.797L59.201,68.613c0,0-1.427-3.096,0.26-4.798
	c1.551-1.566,3.88-0.948,3.88-0.948l23.778,7.637c0,0,3.401,0.618,3.365,2.873C90.46,74.964,89.449,76.775,89.449,76.775z"/>
</svg>
