<?xml version="1.0" encoding="utf-8"?>
<!-- Generator: Adobe Illustrator 18.1.1, SVG Export Plug-In . SVG Version: 6.00 Build 0)  -->
<svg version="1.1" id="Calque_1" xmlns="http://www.w3.org/2000/svg" xmlns:xlink="http://www.w3.org/1999/xlink" x="0px" y="0px"
	 viewBox="0 0 100 100" enable-background="new 0 0 100 100" xml:space="preserve">
<path d="M82.557,54.396C92.19,54.396,100,62.205,100,71.84c0,3.203,0,8.784,0,8.784H65.114c0,0,0-5.581,0-8.784
	C65.114,62.205,72.923,54.396,82.557,54.396z M66.532,35.401c0-8.851,7.174-16.025,16.025-16.025c8.85,0,16.025,7.175,16.025,16.025
	c0,8.85-7.175,16.025-16.025,16.025C73.706,51.427,66.532,44.251,66.532,35.401z M46.503,57.274c8.578,0,15.529,6.953,15.529,15.528
	c0,2.853,0,7.821,0,7.821H30.975c0,0,0-4.969,0-7.821C30.975,64.228,37.927,57.274,46.503,57.274z M32.144,39.821
	c0-7.931,6.43-14.36,14.359-14.36c7.932,0,14.36,6.429,14.36,14.36s-6.429,14.36-14.36,14.36
	C38.573,54.182,32.144,47.752,32.144,39.821z M13.946,59.654c7.703,0,13.947,6.244,13.947,13.946c0,2.562,0,7.023,0,7.023H0
	c0,0,0-4.462,0-7.023C0,65.898,6.244,59.654,13.946,59.654z M1.054,43.91c0-7.12,5.772-12.892,12.893-12.892
	c7.121,0,12.893,5.772,12.893,12.892c0,7.121-5.771,12.893-12.893,12.893C6.826,56.803,1.054,51.031,1.054,43.91z"/>
</svg>
