<?xml version="1.0" encoding="utf-8"?>
<!-- Generator: Adobe Illustrator 18.1.1, SVG Export Plug-In . SVG Version: 6.00 Build 0)  -->
<svg version="1.1" id="Calque_1" xmlns="http://www.w3.org/2000/svg" xmlns:xlink="http://www.w3.org/1999/xlink" x="0px" y="0px"
	 viewBox="0 0 100 100" enable-background="new 0 0 100 100" xml:space="preserve">
<g>
	<circle fill="none" cx="50.001" cy="25.33" r="12.451"/>
	<path fill="#1D1D1B" d="M50.001,50.64c13.978,0,25.307-11.331,25.307-25.31c0-13.978-11.33-25.309-25.307-25.309
		c-13.98,0-25.309,11.332-25.309,25.309C24.692,39.308,36.021,50.64,50.001,50.64z M50.001,12.879
		c6.875,0,12.451,5.574,12.451,12.451c0,6.877-5.576,12.451-12.451,12.451c-6.877,0-12.453-5.574-12.453-12.451
		C37.548,18.453,43.124,12.879,50.001,12.879z"/>
	<path fill="#1D1D1B" d="M79.174,53.728c-1.428-2.872-5.388-5.259-10.645-1.115c-7.11,5.603-18.528,5.603-18.528,5.603
		s-11.42,0-18.529-5.603c-5.26-4.144-9.217-1.757-10.646,1.115c-2.491,5.003,0.323,7.423,6.675,11.499
		c5.426,3.484,12.88,4.785,17.693,5.271l-4.019,4.019c-5.66,5.658-11.123,11.123-14.913,14.913c-2.267,2.265-2.267,5.942,0,8.207
		l0.684,0.683c2.267,2.267,5.942,2.267,8.207,0l14.915-14.913c5.66,5.66,11.123,11.123,14.913,14.913
		c2.267,2.267,5.941,2.267,8.208,0l0.684-0.683c2.265-2.268,2.265-5.942,0-8.207L58.957,74.515l-4.03-4.031
		c4.818-0.495,12.193-1.802,17.572-5.258C78.85,61.15,81.666,58.731,79.174,53.728z"/>
</g>
</svg>
