<?xml version="1.0" encoding="utf-8"?>
<!-- Generator: Adobe Illustrator 18.1.1, SVG Export Plug-In . SVG Version: 6.00 Build 0)  -->
<svg version="1.1" id="Calque_1" xmlns="http://www.w3.org/2000/svg" xmlns:xlink="http://www.w3.org/1999/xlink" x="0px" y="0px"
	 viewBox="0 0 100 100" enable-background="new 0 0 100 100" xml:space="preserve">
<g>
	<path fill="#1D1D1B" d="M28.16,19.775c9.18-0.14,13.579-5.535,12.993-10.439c-0.491-4.099-4.465-7.857-12.042-7.919
		c-6.242-0.05-10.317,4.573-10.929,9.19C17.566,15.251,20.452,19.892,28.16,19.775z"/>
	<path fill="#1D1D1B" d="M74.128,18.631c8.809-0.5,12.661-4.903,12.715-9.302c0.062-4.96-4.7-9.915-12.618-9.273
		c-6.35,0.516-10.066,4.897-10.629,9.277C62.97,14.205,66.243,19.077,74.128,18.631z"/>
	<path fill="#1D1D1B" d="M79.745,38.225c-21.979,2.213-23.054,2.431-63.486,3.364C-0.792,41.661,2.839,100,39.247,100
		C73.919,100,115.753,34.6,79.745,38.225z M40.157,89.579c-31.732,0-27.395-37.726-22.057-37.941
		c36.88-1.486,46.316-3.01,59.467-3.01C90.942,48.627,65.48,89.579,40.157,89.579z"/>
</g>
</svg>
