<?xml version="1.0" encoding="utf-8"?>
<!-- Generator: Adobe Illustrator 18.1.1, SVG Export Plug-In . SVG Version: 6.00 Build 0)  -->
<svg version="1.1" id="Calque_1" xmlns="http://www.w3.org/2000/svg" xmlns:xlink="http://www.w3.org/1999/xlink" x="0px" y="0px"
	 viewBox="0 0 100 100" enable-background="new 0 0 100 100" xml:space="preserve">
<linearGradient id="SVGID_1_" gradientUnits="userSpaceOnUse" x1="49.9998" y1="79.166" x2="49.9998" y2="21.179">
	<stop  offset="0" style="stop-color:#000000"/>
	<stop  offset="1" style="stop-color:#000000"/>
</linearGradient>
<path fill="url(#SVGID_1_)" d="M96.707,68.866c-2.947-3.764-5.496-6.226-9.133-9.601c-1.678-1.557-3.855-3.217-3.98-5.386
	c-0.164-2.853,2.629-5.71,3.98-7.493c0.197-0.258,0.393-0.512,0.586-0.764c0.078-0.102,0.158-0.201,0.236-0.303
	c0.107-0.14,0.217-0.279,0.326-0.418c0.111-0.143,0.225-0.285,0.336-0.426c0.061-0.078,0.123-0.155,0.184-0.233
	c0.143-0.181,0.287-0.361,0.43-0.54c2.586-3.237,5.027-6.135,7.504-10.196c0.82-1.348,3.479-6.252,2.574-8.195
	c-1.088-2.341-7.146-1.404-10.537-1.404c-4.139,0-8.646-0.835-11.473,0.233c-1.857,0.702-2.955,4.553-3.98,6.791
	c-1.514,3.306-2.848,5.953-4.381,8.47c-0.115,0.188-0.23,0.373-0.346,0.559c-0.023,0.036-0.045,0.071-0.068,0.107
	c-0.111,0.179-0.225,0.356-0.34,0.534c-0.02,0.03-0.039,0.061-0.059,0.091c-0.213,0.328-0.432,0.655-0.654,0.984
	c-0.039,0.056-0.076,0.11-0.113,0.166c-0.082,0.119-0.166,0.239-0.25,0.358c-0.084,0.121-0.168,0.241-0.254,0.361
	c-0.072,0.104-0.146,0.207-0.221,0.312c-0.107,0.147-0.217,0.297-0.326,0.446c-0.061,0.082-0.119,0.165-0.182,0.248
	c-0.174,0.235-0.352,0.473-0.533,0.711c-1.477,1.936-2.842,4.408-5.387,4.684c-0.098-0.066-0.191-0.134-0.283-0.204
	c-0.029-0.023-0.059-0.048-0.088-0.072c-0.059-0.048-0.117-0.097-0.174-0.146c-0.033-0.029-0.064-0.06-0.098-0.091
	c-0.049-0.046-0.098-0.093-0.144-0.141c-0.033-0.033-0.062-0.067-0.094-0.102c-0.045-0.048-0.088-0.096-0.129-0.145
	c-0.031-0.036-0.061-0.072-0.09-0.107c-0.039-0.051-0.078-0.102-0.115-0.152c-0.027-0.037-0.055-0.074-0.082-0.112
	c-0.037-0.054-0.072-0.108-0.107-0.163c-0.023-0.037-0.047-0.074-0.07-0.112c-0.035-0.059-0.068-0.119-0.102-0.179
	c-0.021-0.036-0.041-0.071-0.061-0.107c-0.037-0.07-0.07-0.143-0.104-0.215c-0.014-0.027-0.027-0.055-0.041-0.083
	c-0.045-0.101-0.088-0.204-0.129-0.309c-0.008-0.019-0.014-0.039-0.021-0.059c-0.033-0.086-0.064-0.173-0.094-0.261
	c-0.012-0.038-0.023-0.076-0.035-0.115c-0.021-0.07-0.045-0.143-0.064-0.215c-0.012-0.043-0.023-0.088-0.035-0.133
	c-0.018-0.068-0.035-0.137-0.053-0.206c-0.01-0.047-0.021-0.095-0.031-0.143c-0.016-0.068-0.029-0.138-0.043-0.207
	c-0.01-0.048-0.02-0.097-0.027-0.146c-0.014-0.07-0.025-0.142-0.037-0.213c-0.008-0.05-0.016-0.098-0.021-0.147
	c-0.012-0.074-0.021-0.149-0.031-0.225c-0.006-0.047-0.012-0.095-0.018-0.143c-0.01-0.082-0.018-0.165-0.025-0.248
	c-0.004-0.041-0.01-0.083-0.012-0.125c-0.01-0.104-0.018-0.211-0.025-0.317c-0.002-0.02-0.004-0.042-0.004-0.062
	c-0.01-0.13-0.016-0.26-0.021-0.392c-0.002-0.029-0.002-0.061-0.004-0.09c-0.004-0.102-0.006-0.203-0.008-0.305
	c-0.002-0.045-0.061-0.09-0.062-0.136C58.061,42.548,58,42.459,58,42.37c0-0.05,0-0.101,0-0.152c0-0.084,0-0.169,0-0.253
	c0-0.055,0.061-0.107,0.061-0.161c0.002-0.084,0.031-0.168,0.033-0.252c0.002-0.054,0.017-0.108,0.019-0.163
	c0.002-0.086,0.011-0.172,0.013-0.258c0.002-0.053,0.008-0.104,0.01-0.157c0.002-0.093,0.008-0.184,0.01-0.278
	c0.002-0.046,0.005-0.092,0.007-0.139c0.004-0.105,0.009-0.212,0.015-0.318c0-0.034,0.002-0.067,0.004-0.101
	c0.021-0.479,0.045-0.964,0.068-1.449c0.004-0.062,0.006-0.122,0.01-0.183c0.021-0.495,0.043-0.99,0.057-1.485
	c0.119-4.266,1.4-9.957-0.469-13.112c-1.836-3.1-8.404-2.576-13.111-2.576c-5.602,0-10.246,0.339-11.941,3.746
	c2.035,1.211,4.051,1.251,5.15,3.278c1.107,2.043,1.269,6.684,1.185,10.614c-0.004,0.211-0.01,0.42-0.016,0.625
	c-0.098,3.571-0.311,9.146-2.574,9.601c-2.334,0.469-4.324-3.052-5.621-4.917c-0.211-0.305-0.42-0.607-0.625-0.908
	c-0.057-0.083-0.111-0.166-0.168-0.25c-0.152-0.223-0.303-0.445-0.449-0.666c-0.061-0.088-0.119-0.177-0.178-0.265
	c-0.15-0.229-0.301-0.456-0.447-0.683c-0.047-0.072-0.094-0.144-0.141-0.215c-0.188-0.288-0.371-0.575-0.553-0.863
	c-1.832-2.9-3.453-5.844-5.166-9.497c-1.074-2.29-2.418-5.88-3.746-6.557c-2.238-1.139-7.012-0.468-10.068-0.468
	c-3.605,0-7.178-0.614-9.367,1.17c0.002,3.816,2.006,7.223,3.512,10.303c2.086,4.262,4.248,8.351,6.58,12.312
	c0.106,0.182,0.213,0.361,0.32,0.541c0.273,0.458,0.547,0.915,0.824,1.37c0.125,0.204,0.25,0.408,0.375,0.612
	c0.281,0.454,0.564,0.907,0.85,1.359c0.111,0.177,0.223,0.354,0.336,0.531c0.398,0.623,0.801,1.244,1.209,1.861
	c0.002,0.004,0.006,0.008,0.008,0.011c0.402,0.606,0.811,1.21,1.225,1.811c0.127,0.186,0.256,0.37,0.385,0.556
	c0.297,0.426,0.596,0.852,0.898,1.275c0.148,0.208,0.297,0.415,0.447,0.622c0.305,0.421,0.613,0.842,0.926,1.261
	c0.137,0.186,0.273,0.371,0.412,0.557c0.449,0.596,0.9,1.189,1.363,1.781c6.051,7.748,12.951,14.957,26.459,16.391
	c4.277,0.453,10.486,0.916,11.941-1.639c1.803-3.164-0.34-10.545,3.98-11.24c3.045-0.489,5.594,3.896,7.26,5.77
	C72.258,74.438,75.711,78,80.785,79c0.154,0,0.311,0,0.467,0c4.543-2,18.021,2.058,18.732-3.662
	C100.213,73.504,97.816,70.283,96.707,68.866z"/>
</svg>
