<?xml version="1.0" encoding="utf-8"?>
<!-- Generator: Adobe Illustrator 18.1.1, SVG Export Plug-In . SVG Version: 6.00 Build 0)  -->
<svg version="1.1" id="Calque_1" xmlns="http://www.w3.org/2000/svg" xmlns:xlink="http://www.w3.org/1999/xlink" x="0px" y="0px"
	 viewBox="0 0 100 100" enable-background="new 0 0 100 100" xml:space="preserve">
<path fill-rule="evenodd" clip-rule="evenodd" d="M62.728,30.653c3.33,17.499-7.43,28.299-20.787,24.523
	C61.469,23.184,33.048,23.102,41.737,0C28.38,9.5,14.981,36.094,15.023,55.501c0.04,27.162,14.251,44.295,33.333,44.498
	c18.555,0.162,36.54-17.499,36.621-34.917C85.058,45.106,74.217,37.312,62.728,30.653z M48.355,93.137
	c-18.921,0.366-34.551-19.853-16.931-48.68C27.73,61.145,37.637,73.568,47.178,73.69c10.76,0.08,17.134-9.988,20.178-23.184
	C84.611,63.702,76.816,92.569,48.355,93.137z"/>
</svg>
