<?xml version="1.0" encoding="utf-8"?>
<!-- Generator: Adobe Illustrator 18.1.1, SVG Export Plug-In . SVG Version: 6.00 Build 0)  -->
<svg version="1.1" id="Calque_1" xmlns="http://www.w3.org/2000/svg" xmlns:xlink="http://www.w3.org/1999/xlink" x="0px" y="0px"
	 viewBox="0 0 100 100" enable-background="new 0 0 100 100" xml:space="preserve">
<path d="M49.895,0.394c-27.57,0-49.999,22.432-49.999,49.999c0,27.572,22.429,50.001,49.999,50.001s50-22.429,50-50.001
	C99.895,22.826,77.466,0.394,49.895,0.394z M82.958,23.386c5.947,7.267,9.547,16.522,9.644,26.603
	c-1.408-0.298-15.528-3.161-29.74-1.375c-0.299-0.732-0.604-1.466-0.919-2.204c-0.886-2.083-1.84-4.151-2.834-6.185
	C74.9,33.779,82.055,24.604,82.958,23.386z M49.898,7.687c10.852,0,20.769,4.071,28.311,10.761
	c-0.768,1.095-7.196,9.736-22.383,15.427C48.828,21.018,41.07,10.454,39.89,8.873C43.102,8.1,46.451,7.687,49.898,7.687z
	 M31.742,11.744c1.125,1.546,8.758,12.12,15.833,24.699c-19.977,5.305-37.573,5.228-39.482,5.202
	C10.863,28.396,19.793,17.381,31.742,11.744z M7.19,50.394c0-0.436,0.008-0.872,0.024-1.304c1.867,0.036,22.563,0.304,43.89-6.08
	c1.223,2.395,2.391,4.823,3.463,7.248c-0.564,0.16-1.127,0.328-1.683,0.508C30.858,57.887,19.137,77.294,18.171,78.95
	C11.35,71.38,7.19,61.361,7.19,50.394z M49.898,93.104c-9.873,0-18.972-3.373-26.214-9.018c0.768-1.573,9.415-18.276,33.505-26.669
	c0.092-0.033,0.187-0.065,0.28-0.096c5.997,15.582,8.476,28.638,9.112,32.386C61.453,91.891,55.813,93.104,49.898,93.104z
	 M73.761,85.798c-0.438-2.599-2.713-15.102-8.298-30.451c13.383-2.141,25.14,1.366,26.602,1.826
	C90.161,69.056,83.342,79.318,73.761,85.798z"/>
</svg>
