<?xml version="1.0" encoding="utf-8"?>
<!-- Generator: Adobe Illustrator 18.1.1, SVG Export Plug-In . SVG Version: 6.00 Build 0)  -->
<svg version="1.1" id="Calque_1" xmlns="http://www.w3.org/2000/svg" xmlns:xlink="http://www.w3.org/1999/xlink" x="0px" y="0px"
	 viewBox="0 0 100 100" enable-background="new 0 0 100 100" xml:space="preserve">
<g>
	<path d="M88.798,74.7c-12.274,5.206-25.612,7.724-37.747,7.724c-17.988,0-35.404-4.935-49.487-13.131
		c-1.232-0.717-2.146,0.547-1.121,1.473c13.053,11.787,30.303,18.867,49.458,18.867c13.668,0,29.54-4.296,40.489-12.376
		C92.201,75.92,90.649,73.915,88.798,74.7z"/>
	<path d="M99.618,68.49c-1.194-1.474-11.462-2.745-17.73,1.657c-0.963,0.676-0.798,1.611,0.272,1.483
		c3.53-0.423,11.385-1.366,12.786,0.427c1.402,1.794-1.557,9.183-2.878,12.483c-0.401,0.998,0.459,1.401,1.362,0.645
		C99.302,80.272,100.82,69.977,99.618,68.49z"/>
	<path d="M55.434,31.612c-5.662,0.636-13.064,1.058-18.361,3.384c-6.122,2.642-10.415,8.034-10.415,15.961
		c0,10.147,6.395,15.222,14.617,15.222c6.943,0,10.739-1.639,16.101-7.1c1.771,2.567,2.352,3.812,5.598,6.508
		c0.728,0.392,1.661,0.353,2.307-0.227l0.023,0.022c1.949-1.736,5.495-4.814,7.49-6.487c0.795-0.65,0.653-1.705,0.031-2.596
		c-1.784-2.465-3.684-4.472-3.684-9.05V32.038c0-6.45,0.455-12.37-4.294-16.81c-3.746-3.596-9.958-4.862-14.709-4.862
		c-9.295,0-19.665,3.469-21.84,14.951c-0.231,1.221,0.658,1.862,1.458,2.042l9.465,1.026c0.886-0.045,1.528-0.916,1.697-1.797
		c0.811-3.956,4.125-5.864,7.85-5.864c2.008,0,4.293,0.74,5.482,2.538c1.37,2.01,1.186,4.756,1.186,7.082V31.612z M53.608,51.91
		c-1.552,2.747-4.02,4.44-6.761,4.44c-3.744,0-5.938-2.855-5.938-7.084c0-8.318,7.463-9.829,14.525-9.829v2.113
		C55.434,45.357,55.526,48.525,53.608,51.91z"/>
</g>
</svg>
