<?xml version="1.0" encoding="utf-8"?>
<!-- Generator: Adobe Illustrator 18.1.1, SVG Export Plug-In . SVG Version: 6.00 Build 0)  -->
<svg version="1.1" id="Calque_1" xmlns="http://www.w3.org/2000/svg" xmlns:xlink="http://www.w3.org/1999/xlink" x="0px" y="0px"
	 viewBox="0 0 100 100" enable-background="new 0 0 100 100" xml:space="preserve">
<path d="M100.039,49.206c0-5.43-4.402-9.832-9.832-9.832c-3.097,0-5.826,1.461-7.629,3.699c-7.783-5.529-18.805-9.08-31.104-9.381
	l7.329-21.43l18.025,4.243c0.244,0.057,0.489,0.06,0.723,0.021c0.13,4.166,3.528,7.51,7.726,7.51c4.281,0,7.75-3.47,7.75-7.75
	c0-4.28-3.47-7.75-7.75-7.75c-3.154,0-5.856,1.891-7.066,4.595c-0.165-0.101-0.334-0.198-0.532-0.244L58.016,8.26
	c-0.931-0.219-1.875,0.305-2.184,1.208l-8.289,24.235c-11.938,0.386-22.632,3.844-30.283,9.184c-1.803-2.13-4.464-3.512-7.473-3.512
	c-5.43,0-9.832,4.402-9.832,9.832c0,4.007,2.406,7.441,5.845,8.972c-0.357,1.482-0.547,3.001-0.547,4.549
	c0,16.05,19.937,29.062,44.53,29.062s44.53-13.012,44.53-29.062c0-1.493-0.174-2.959-0.506-4.391
	C97.451,56.898,100.039,53.363,100.039,49.206z M27.084,57.079c0-3.955,3.318-7.273,7.273-7.273c3.955,0,7.165,3.318,7.165,7.273
	c0,3.955-3.21,7.165-7.165,7.165C30.402,64.244,27.084,61.034,27.084,57.079z M66.198,76.926c-3.342,3.339-8.623,4.963-16.147,4.963
	c-7.636,0-12.917-1.624-16.256-4.964c-0.452-0.452-0.452-1.184,0-1.635c0.452-0.452,1.183-0.452,1.635,0
	c2.883,2.883,7.629,4.285,14.508,4.285c6.991,0,11.738-1.402,14.624-4.286c0.452-0.45,1.184-0.451,1.636,0.001
	C66.65,75.742,66.65,76.474,66.198,76.926z M65.746,64.244c-3.957,0-7.282-3.208-7.282-7.165c0-3.957,3.325-7.273,7.282-7.273
	c3.957,0,7.165,3.316,7.165,7.273C72.91,61.036,69.703,64.244,65.746,64.244z"/>
</svg>
