<?xml version="1.0" encoding="utf-8"?>
<!-- Generator: Adobe Illustrator 18.1.1, SVG Export Plug-In . SVG Version: 6.00 Build 0)  -->
<svg version="1.1" id="Calque_1" xmlns="http://www.w3.org/2000/svg" xmlns:xlink="http://www.w3.org/1999/xlink" x="0px" y="0px"
	 viewBox="0 0 100 100" enable-background="new 0 0 100 100" xml:space="preserve">
<g>
	<path fill="#1D1D1B" d="M49.592,18.751l0.04,0.025c-0.02-0.015-0.032-0.024-0.032-0.024c20.012-14.415,32.439-7.168,32.439-7.168
		C73.319,4.107,61.987-0.41,49.6-0.41c-12.387,0-23.719,4.518-32.438,11.994C17.161,11.584,29.589,4.169,49.592,18.751z"/>
	<path fill="#1D1D1B" d="M36.485,28.392c-14.697-9.045-23.422-12.906-23.422-12.906C4.729,24.397-0.371,36.369-0.371,49.533
		c0,11.785,4.088,22.614,10.924,31.148C10.553,80.682,3.698,62.309,36.485,28.392z"/>
	<path fill="#1D1D1B" d="M99.629,49.533c0-13.163-5.102-25.136-13.436-34.048c0,0-8.725,3.861-23.422,12.906
		c32.787,33.917,25.932,52.29,25.932,52.29C95.54,72.147,99.629,61.318,99.629,49.533z"/>
	<path fill="#1D1D1B" d="M49.431,39.217C21.618,59.737,13.506,83.958,13.506,83.958C22.587,93.483,35.4,99.42,49.6,99.42
		c14.228,0,27.065-5.96,36.149-15.52C85.749,83.9,80.465,62.11,49.431,39.217z"/>
</g>
</svg>
