<?xml version="1.0" encoding="utf-8"?>
<!-- Generator: Adobe Illustrator 18.1.1, SVG Export Plug-In . SVG Version: 6.00 Build 0)  -->
<svg version="1.1" id="Calque_1" xmlns="http://www.w3.org/2000/svg" xmlns:xlink="http://www.w3.org/1999/xlink" x="0px" y="0px"
	 viewBox="0 0 100 100" enable-background="new 0 0 100 100" xml:space="preserve">
<g>
	<path fill="none" d="M57.596,83.62c1.637-1.348,2.696-2.503,6.066-2.503c3.37,0,3.948,1.252,4.622,2.503
		c0.674,1.252,0.77,1.444,1.444,1.059c0.77-0.385,1.155-0.963,0.77-1.926c-0.385-0.963-1.059-2.696-2.215-3.466
		s-2.792-0.867-4.333-0.867c-1.541,0-2.407-0.096-4.044,0.578c-1.637,0.674-3.37,2.215-4.429,3.177
		c-1.059,0.963-1.252,1.733-0.674,2.503S55.959,84.968,57.596,83.62z"/>
	<path fill="none" d="M71.365,89.012c-1.926,1.444-6.259,3.177-12.421,3.177c-6.162,0-9.051-1.252-10.977-2.792
		c-0.289-0.192-0.193-0.192-0.77-0.192c-0.578,0-0.963,0.289-1.444,0.674c-0.481,0.385-0.674,1.348,0,2.022
		c4.237,3.852,11.266,3.563,16.465,3.081s9.629-3.563,10.11-4.044c0.674-0.674,0.481-1.252,0.385-1.637
		C72.617,88.916,72.232,88.338,71.365,89.012z"/>
	<path fill="none" d="M84.557,58.778c-4.526,0-13.769,9.436-18.584,9.532c-5.681,0.096-13.48-11.169-24.746-11.073
		c-8.859,0.096-15.888,7.125-15.984,14.636c-0.096,4.237,1.348,7.318,4.237,9.34c1.926,1.252,3.659,2.118,9.436,2.118
		c9.533,0,21.665-11.844,27.25-11.651c4.429,0.193,11.362,10.977,14.828,11.266c2.696,0.192,4.14-1.059,6.451-4.429
		s3.274-8.762,3.274-11.747C90.719,63.785,89.371,58.778,84.557,58.778z"/>
	<path fill="#1D1D1B" d="M71.772,18.636c-0.082-0.051-0.163-0.1-0.245-0.15c-4.383-2.734-8.692-4.036-12.928-6.491
		c-0.52-0.303-1.04-0.623-1.56-0.966c-2.985-2.022-7.125-6.836-10.592-10.977c0,0.004-0.001,0.009-0.001,0.013
		c-0.007-0.008-0.013-0.016-0.02-0.024c-0.207,2.045-0.534,3.723-0.956,5.123c-0.886,2.845-2.178,4.511-3.611,5.792
		c-0.145,0.121-0.292,0.238-0.44,0.351c-4.911,3.852-7.992,5.007-12.229,7.318c-0.359,0.194-0.881,0.487-1.525,0.879
		c-2.557,1.534-7.052,4.669-11.264,9.635C11.116,35.349,6.274,44.427,6.274,56.852c0,7.932,2.13,15.196,5.785,21.41
		c3.942,6.703,9.659,12.183,16.391,15.964c0.039,0.022,0.078,0.044,0.117,0.066c0.127,0.071,0.254,0.141,0.381,0.21
		c0.091,0.05,0.183,0.099,0.275,0.148c0.139,0.075,0.279,0.149,0.419,0.222c0.122,0.064,0.244,0.127,0.366,0.189
		c0.064,0.033,0.127,0.065,0.191,0.097c0.17,0.086,0.341,0.171,0.512,0.255c0.015,0.007,0.03,0.015,0.046,0.022
		C36.771,98.375,43.481,100,50.396,100c23.206,0,43.33-16.851,43.33-42.367C93.726,32.116,74.853,20.562,71.772,18.636z
		 M72.328,90.938c-0.481,0.481-4.911,3.563-10.11,4.044s-12.229,0.77-16.465-3.081c-0.674-0.674-0.481-1.637,0-2.022
		c0.481-0.385,0.867-0.674,1.444-0.674c0.578,0,0.481,0,0.77,0.192c1.926,1.541,4.814,2.792,10.977,2.792
		c6.162,0,10.495-1.733,12.421-3.177c0.867-0.674,1.252-0.096,1.348,0.289C72.81,89.687,73.002,90.264,72.328,90.938z
		 M55.478,82.176c1.059-0.963,2.792-2.504,4.429-3.177c1.637-0.674,2.504-0.578,4.044-0.578c1.541,0,3.178,0.096,4.333,0.867
		s1.829,2.503,2.215,3.466c0.385,0.963,0,1.541-0.77,1.926c-0.674,0.385-0.77,0.193-1.444-1.059
		c-0.674-1.251-1.252-2.503-4.622-2.503c-3.37,0-4.429,1.156-6.066,2.503c-1.637,1.348-2.215,1.83-2.792,1.059
		S54.419,83.139,55.478,82.176z M80.994,82.946c-3.466-0.289-10.399-11.073-14.828-11.266c-5.585-0.193-17.717,11.651-27.25,11.651
		c-5.777,0-7.51-0.867-9.436-2.118c-2.889-2.022-4.333-5.103-4.237-9.34c0.096-7.51,7.125-14.54,15.984-14.636
		c11.266-0.096,19.065,11.169,24.746,11.073c4.814-0.096,14.058-9.532,18.584-9.532c4.814,0,6.162,5.007,6.162,7.992
		c0,2.985-0.963,8.377-3.274,11.747S83.69,83.139,80.994,82.946z"/>
</g>
</svg>
