<?xml version="1.0" encoding="utf-8"?>
<!-- Generator: Adobe Illustrator 18.1.1, SVG Export Plug-In . SVG Version: 6.00 Build 0)  -->
<svg version="1.1" id="Calque_1" xmlns="http://www.w3.org/2000/svg" xmlns:xlink="http://www.w3.org/1999/xlink" x="0px" y="0px"
	 viewBox="0 0 100 100" enable-background="new 0 0 100 100" xml:space="preserve">
<path d="M65.966,62.898c-1.053,1.113-1.986,2.205-3.029,3.178c-1.52,1.416-3.029,2.87-4.703,4.088
	c-4.213,3.066-8.976,3.897-14.019,2.846c-4.935-1.027-8.272-4.145-10.503-8.557c-0.105-0.208-0.206-0.418-0.317-0.624
	c-0.021-0.04-0.077-0.06-0.094-0.072c-0.644,1.005-1.241,2.044-1.938,3.011c-3.29,4.564-7.799,6.799-13.393,6.931
	c-3.182,0.075-6.28-0.332-9.229-1.586C2.711,69.55,0.146,64.41,0,59.061c3.109,0,6.218,0,9.404,0c0.07,0.312,0.142,0.66,0.227,1.004
	c0.684,2.757,2.132,4.886,5.016,5.63c3.098,0.798,5.899,0.195,8.14-2.219c2.838-3.058,3.228-8.356,0.912-11.831
	c-2.422-3.635-7.923-4.582-11.494-1.962c-0.501,0.367-1.039,0.751-1.384,1.248c-0.681,0.981-1.561,1.154-2.676,1.114
	c-2.178-0.08-4.361-0.023-6.709-0.023c1.537-8.625,3.057-17.157,4.584-25.728c8.7,0,17.323,0,26.002,0c0,2.541,0,5.073,0,7.704
	c-0.329,0-0.632,0-0.936,0c-5.802,0-11.604,0.012-17.405-0.016c-0.657-0.003-0.88,0.182-0.989,0.833
	c-0.512,3.077-1.087,6.143-1.638,9.212c-0.023,0.125-0.024,0.253,0.025,0.527c3.506-3.22,7.653-3.948,12.114-3.168
	c4.632,0.809,7.733,3.694,9.913,7.803c0.249-0.512,0.456-0.949,0.673-1.381c3.142-6.243,9.136-9.337,16.053-8.412
	c4.213,0.563,7.79,2.364,10.815,5.27c1.836,1.763,3.542,3.662,5.375,5.571c0.146-0.154,0.333-0.352,0.52-0.548
	c1.848-1.938,3.62-3.956,5.563-5.793c2.527-2.388,5.516-3.993,9.009-4.478c6.35-0.882,13.852,1.228,17.064,8.522
	c2.55,5.79,2.435,11.685-0.438,17.338c-2.64,5.196-7.107,7.765-12.891,8.084c-4.505,0.249-8.569-1.021-12.048-3.856
	c-2.008-1.637-3.793-3.548-5.669-5.345C66.778,63.819,66.463,63.438,65.966,62.898z M48.085,64.075
	c1.999-0.023,3.835-0.609,5.561-1.588c2.501-1.419,4.428-3.515,6.472-5.472c0.293-0.281,0.339-0.527,0-0.841
	c-1.599-1.487-3.142-3.036-4.778-4.479c-1.412-1.245-3.021-2.21-4.84-2.767c-4.368-1.338-8.284,0.761-9.421,5.066
	c-0.165,0.623-0.252,1.276-0.298,1.922C40.431,60.716,43.508,64.145,48.085,64.075z M71.268,56.476
	c2.031,1.863,3.731,3.544,5.562,5.07c2.058,1.714,4.474,2.605,7.19,2.549c3.578-0.074,6.079-2.058,6.798-5.563
	c0.235-1.146,0.263-2.385,0.118-3.548c-0.531-4.262-3.802-6.838-8.052-6.456c-2.519,0.226-4.594,1.413-6.419,3.073
	C74.754,53.155,73.09,54.762,71.268,56.476z"/>
</svg>
