<?xml version="1.0" encoding="utf-8"?>
<!-- Generator: Adobe Illustrator 18.1.1, SVG Export Plug-In . SVG Version: 6.00 Build 0)  -->
<svg version="1.1" id="Calque_1" xmlns="http://www.w3.org/2000/svg" xmlns:xlink="http://www.w3.org/1999/xlink" x="0px" y="0px"
	 viewBox="0 0 100 100" enable-background="new 0 0 100 100" xml:space="preserve">
<path d="M50,0C22.43,0,0,22.43,0,49.999C0,77.569,22.43,100,50,100c27.569,0,50-22.431,50-50.001C100,22.43,77.569,0,50,0z
	 M5.046,49.999c0-6.518,1.399-12.704,3.893-18.295l21.444,58.753C15.387,83.171,5.046,67.791,5.046,49.999z M50,94.955
	c-4.413,0-8.671-0.646-12.7-1.832l13.488-39.191l13.818,37.856c0.092,0.222,0.201,0.427,0.321,0.619
	C60.255,94.052,55.236,94.955,50,94.955z M56.196,28.922c2.705-0.142,5.146-0.427,5.146-0.427c2.421-0.288,2.137-3.847-0.288-3.705
	c0,0-7.282,0.571-11.982,0.571c-4.417,0-11.839-0.571-11.839-0.571c-2.424-0.142-2.708,3.562-0.284,3.705
	c0,0,2.292,0.285,4.714,0.427l7.005,19.189l-9.842,29.504L22.457,28.922c2.708-0.142,5.145-0.427,5.145-0.427
	c2.421-0.288,2.134-3.847-0.288-3.705c0,0-7.28,0.571-11.981,0.571c-0.841,0-1.837-0.021-2.892-0.054
	C20.478,13.104,34.295,5.045,50,5.045c11.703,0,22.36,4.475,30.354,11.803c-0.191-0.012-0.381-0.037-0.581-0.037
	c-4.415,0-7.548,3.847-7.548,7.979c0,3.705,2.137,6.839,4.415,10.544c1.71,2.993,3.706,6.84,3.706,12.397
	c0,3.848-1.48,8.312-3.421,14.532l-4.484,14.981L56.196,28.922z M72.602,88.854l13.729-39.697
	c2.565-6.413,3.418-11.542,3.418-16.102c0-1.655-0.108-3.191-0.301-4.623c3.509,6.404,5.505,13.752,5.505,21.567
	C94.953,66.582,85.964,81.062,72.602,88.854z"/>
</svg>
