<?xml version="1.0" encoding="utf-8"?>
<!-- Generator: Adobe Illustrator 18.1.1, SVG Export Plug-In . SVG Version: 6.00 Build 0)  -->
<svg version="1.1" id="Calque_1" xmlns="http://www.w3.org/2000/svg" xmlns:xlink="http://www.w3.org/1999/xlink" x="0px" y="0px"
	 viewBox="0 0 100 100" enable-background="new 0 0 100 100" xml:space="preserve">
<path fill-rule="evenodd" clip-rule="evenodd" d="M74.73,51.269c-1.285-1.597-3.592-2.395-6.928-2.395
	c-4.255,0-7.238,1.247-8.957,3.739c-1.718,2.49-2.574,5.958-2.574,10.407v34.154c0,0.673-0.255,1.266-0.761,1.774
	c-0.508,0.508-1.122,0.762-1.847,0.762H35.823c-0.677,0-1.268-0.254-1.775-0.762c-0.508-0.508-0.763-1.101-0.763-1.774V34.228
	c0-0.677,0.255-1.269,0.763-1.778c0.508-0.506,1.099-0.76,1.775-0.76h17.333c0.625,0,1.133,0.122,1.523,0.365
	c0.386,0.237,0.639,0.687,0.763,1.337c0.114,0.655,0.189,1.089,0.217,1.306c0.019,0.217,0.035,0.762,0.035,1.634
	c4.494-4.208,10.437-6.308,17.837-6.308c8.268,0,14.747,2.062,19.436,6.198C97.651,40.354,100,46.505,100,54.674v42.499
	c0,0.673-0.255,1.266-0.76,1.774c-0.508,0.508-1.101,0.762-1.778,0.762H79.188c-0.677,0-1.271-0.254-1.777-0.762
	c-0.508-0.508-0.761-1.101-0.761-1.774V58.81C76.65,55.377,76.011,52.867,74.73,51.269z M20.67,20.956
	c-2.374,2.369-5.226,3.553-8.563,3.553c-3.336,0-6.184-1.184-8.555-3.553C1.185,18.586,0,15.736,0,12.4
	c0-3.337,1.185-6.187,3.553-8.556c2.37-2.368,5.219-3.553,8.555-3.553c3.337,0,6.189,1.185,8.563,3.553
	c2.364,2.37,3.553,5.219,3.553,8.556C24.223,15.736,23.034,18.586,20.67,20.956z M23.566,34.228v62.946
	c0,0.673-0.252,1.266-0.76,1.774c-0.508,0.508-1.102,0.762-1.777,0.762H3.188c-0.677,0-1.268-0.254-1.775-0.762
	c-0.508-0.508-0.762-1.101-0.762-1.774V34.228c0-0.677,0.254-1.269,0.762-1.778c0.508-0.506,1.099-0.76,1.775-0.76h17.842
	c0.676,0,1.269,0.254,1.777,0.76C23.315,32.959,23.566,33.551,23.566,34.228z"/>
</svg>
