<?xml version="1.0" encoding="utf-8"?>
<!-- Generator: Adobe Illustrator 18.1.1, SVG Export Plug-In . SVG Version: 6.00 Build 0)  -->
<svg version="1.1" id="Calque_1" xmlns="http://www.w3.org/2000/svg" xmlns:xlink="http://www.w3.org/1999/xlink" x="0px" y="0px"
	 viewBox="0 0 100 100" enable-background="new 0 0 100 100" xml:space="preserve">
<path fill-rule="evenodd" clip-rule="evenodd" d="M24.047,70.063H9.624c-0.867,0-1.518-0.39-1.884-0.983
	c-0.38-0.617-0.4-1.416,0-2.213l15.324-27.042c0.017-0.03,0.017-0.049,0-0.082l-9.752-16.881c-0.403-0.803-0.462-1.596-0.082-2.212
	c0.367-0.597,1.098-0.901,1.967-0.901H29.62c2.212,0,3.297,1.426,4.015,2.704c0,0,9.856,17.195,9.915,17.291
	C42.968,40.773,27.98,67.277,27.98,67.277C27.243,68.608,26.204,70.063,24.047,70.063z M92.245,3.147L60.312,59.607
	c-0.02,0.029-0.02,0.066,0,0.095L80.646,96.85c0.402,0.8,0.412,1.613,0.029,2.229C80.308,99.672,79.629,100,78.761,100H64.354
	c-2.209,0-3.313-1.469-4.028-2.747c0,0-20.439-37.499-20.492-37.597c1.021-1.809,32.093-56.91,32.093-56.91
	C72.699,1.357,73.634,0,75.787,0h14.57c0.868,0,1.55,0.328,1.917,0.921C92.655,1.537,92.645,2.35,92.245,3.147z"/>
</svg>
