<?xml version="1.0" encoding="utf-8"?>
<!-- Generator: Adobe Illustrator 18.1.1, SVG Export Plug-In . SVG Version: 6.00 Build 0)  -->
<svg version="1.1" id="Calque_1" xmlns="http://www.w3.org/2000/svg" xmlns:xlink="http://www.w3.org/1999/xlink" x="0px" y="0px"
	 viewBox="0 0 100 100" enable-background="new 0 0 100 100" xml:space="preserve">
<path id="Gears" d="M87.069,31.08c0,8.111-6.585,14.694-14.695,14.694c-8.111,0-14.697-6.583-14.697-14.694
	s6.586-14.696,14.697-14.696C80.484,16.384,87.069,22.969,87.069,31.08z M0.026,77.852l5.606,2.288
	c2.003,9.209,10.213,16.136,20.008,16.136c10.611,0,19.363-8.132,20.375-18.479l26.283-19.217c15.149,0,27.441-12.269,27.441-27.415
	c0-15.153-12.293-27.44-27.441-27.44c-15.067,0-27.304,12.149-27.44,27.186L27.76,55.413c-0.695-0.073-1.403-0.116-2.119-0.116
	c-3.821,0-7.389,1.05-10.457,2.887l-15.157-6.18V77.852z M72.299,12.767c10.15,0,18.396,8.249,18.396,18.398
	c0,10.151-8.246,18.37-18.396,18.37c-10.149,0-18.398-8.219-18.398-18.37C53.9,21.016,62.149,12.767,72.299,12.767z M25.641,60.725
	c8.351,0,15.064,6.713,15.064,15.063S33.991,90.85,25.641,90.85c-5.809,0-10.822-3.236-13.338-8.023
	c2.477,0.999,4.957,1.988,7.431,2.993c6.141,2.468,13.135-0.498,15.603-6.64c2.468-6.141-0.531-13.104-6.672-15.569l-6.274-2.518
	C23.435,60.864,24.525,60.725,25.641,60.725z"/>
</svg>
