<?xml version="1.0" encoding="utf-8"?>
<!-- Generator: Adobe Illustrator 18.1.1, SVG Export Plug-In . SVG Version: 6.00 Build 0)  -->
<svg version="1.1" id="Calque_1" xmlns="http://www.w3.org/2000/svg" xmlns:xlink="http://www.w3.org/1999/xlink" x="0px" y="0px"
	 viewBox="0 0 100 100" enable-background="new 0 0 100 100" xml:space="preserve">
<g>
	<path d="M80.284,92.179l5.314-1.015l-7.46-36.066l-3.101-1.093l-3.464,1.351l-0.879-5.617l-6.361-2.396L62.267,26.68l3.212-3.287
		l-13.303-8.59l-2.313-1.377L49,12.964v-0.005L38.831,26.403l2.541,1.864l-3.308,26.367l-0.219,1.898l-0.003,0.09l1.268,0.637
		l2.788,1.447l0.117,0.062l0.058,0.031l-0.173,1.578l0.007-0.09l0.164-1.488l-0.055-0.029l-0.119-0.064l-2.781-1.445l-0.004-0.002
		l-1.263-0.637l0.087-0.088L38,56.541v-0.006l-0.08-0.002l-0.042,0.014l-0.155,0.076l-1.946,1.138l-6.075,33.552l-0.397,2.176
		l5.31,2.298l1.153-0.326l0.307-0.089L38.273,74.9l2.011-6.584l-2.05,6.584L36,95.371v0.025l-0.065,0.906l8.608,3.613L44.54,100
		h-0.048l0,0l17.559-2.931l-0.016-0.937l0.317-0.092L65,96.407v-0.11l-0.258-0.005l9.234-1.604l-0.353-1.894l0.128,0.066
		l2.794,0.734l3.856-0.734l-0.151-0.829L80.284,92.179z M60.193,56.271l-1.858-0.636l-0.199-5.312l2.526,0.726l0.227,4.136
		l-0.722,0.389L60.193,56.271z M60.976,49.802l-2.641-0.898l-0.158-4.646l2.533,1.047L60.976,49.802z M60.601,43.702l-2.507-1.037
		l-0.186-4.545l2.405,1.13L60.601,43.702z M60.25,37.941l-2.384-1.122l-0.131-3.617l2.273,1.166L60.25,37.941z M59.95,32.949
		l-2.272-1.157l-0.035-3.362l2.178,1.165L59.95,32.949z M59.52,24.455l0.138,3.718l-2.151-1.131l-0.089-3.709L59.52,24.455z
		 M56.413,48.023l-3.031-1.051l0.004-4.804l2.86,1.17L56.413,48.023z M56.172,41.739l-2.832-1.158l-0.021-4.708l2.659,1.263
		L56.172,41.739z M55.961,35.838l-2.642-1.249l-0.017-3.669l2.503,1.266L55.961,35.838z M55.761,30.776l-2.474-1.257l0.083-3.371
		l2.349,1.246L55.761,30.776z M55.492,22.297l0.083,3.688L53.26,24.75l-0.009-3.63L55.492,22.297z M48.377,50.854h-0.034v0.016
		l-0.282-0.086l0.282,0.086v0.009l-0.317-0.106l-0.324-0.105v-0.003l0.377,0.12l-0.403-0.12l-0.004-0.015l-0.003,0.015l-0.048-0.015
		l0.017,0.001l0.064,0.014v0.003v-0.015v-0.119l0,0v0.118l-0.049-0.002l-0.035-0.116h0.084v0.059l0.4,0.163L48.377,50.854z
		 M46.96,61.327l-0.006-0.059l0.55-8.892l-0.521,8.958L46.96,61.327z M42.979,27.93l4.841-4.655l-0.061,1.081L42.815,29h-0.014
		L42.979,27.93z M42.189,34.349l0.089-0.669l5.336-5.461l-0.054,1.254l-5.464,5.5L42.189,34.349z M41.557,39.403l0.087-0.758
		l5.772-5.497l-0.059,1.2l-5.885,5.598L41.557,39.403z M40.988,43.816l6.12-4.976l0.065,0.085l-0.047,0.966l-6.068,4.935
		l-0.168-0.243L40.988,43.816z M40.099,50.853l0.145-1.16l6.675-4.677l-0.036,1.035L40.099,50.853z M48.456,50.883L48.456,50.883
		l-0.454,10.88L48.456,50.883z M53.35,48.603l3.059,1.182l0.005,5.367l-0.621-0.216l-0.058,1.977l0,0l0.058-1.977l0.055-1.821
		l-2.47-0.731L53.35,48.603z M60.92,71.892L60.92,71.892l-0.363-7.888l-2.222-0.764l-0.199-5.318l2.178,0.893l0.243,5.188
		l0.363,7.81l0.905,19.467l0.161,3.585l0.022,0.511l-0.184-3.94L60.92,71.892z M62.042,96.093l-0.004-0.075l0,0L62.042,96.093z
		 M64.328,96.299l-0.025,0.004l-0.133-4.178L64.328,96.299z"/>
	<polygon points="29.697,91.312 35.741,57.761 37.651,56.623 37.755,56.535 37.812,56.533 37.956,55.24 38.049,54.635 40.041,38.94 
		38.038,38.594 36.593,40.888 35.016,51.406 28,49.849 28,49.87 28,50 28,50 28,49.85 25.321,52.243 24.067,57.443 22.628,58.585 
		14.523,87.766 14.406,88.076 18.688,92.264 18.767,92.036 27.413,50.857 18.764,92.346 	"/>
	<polygon points="51.437,0 51.062,0 50.025,13.473 52.176,14.873 	"/>
</g>
</svg>
