<?xml version="1.0" encoding="utf-8"?>
<!-- Generator: Adobe Illustrator 18.1.1, SVG Export Plug-In . SVG Version: 6.00 Build 0)  -->
<svg version="1.1" id="Calque_1" xmlns="http://www.w3.org/2000/svg" xmlns:xlink="http://www.w3.org/1999/xlink" x="0px" y="0px"
	 viewBox="0 0 100 100" enable-background="new 0 0 100 100" xml:space="preserve">
<path fill-rule="evenodd" clip-rule="evenodd" d="M53.801,19.474c-1.656,0.279-3.128,0.55-4.607,0.772
	c-4.438,0.666-8.891,1.049-13.375,0.541c-2-0.227-3.952-0.66-5.765-1.576c-2.514-1.269-3.259-2.642-3.086-5.457
	c0.142-2.294,0.655-4.506,1.772-6.496c1.191-2.124,2.544-4.164,3.931-6.169c0.852-1.23,1.851-1.389,3.199-0.621
	c2.27,1.293,4.72,2.036,7.258,2.53c5.059,0.985,10.178,1.156,15.311,1.095c6.838-0.082,13.592-0.942,20.293-2.258
	c0.279-0.055,0.563-0.11,0.848-0.121C80.68,1.671,81.156,2.2,81.03,3.3c-0.301,2.61-0.562,5.226-0.929,7.826
	c-0.088,0.624-0.407,1.302-0.821,1.781C64.892,29.535,50.479,46.14,36.073,62.753c-1.109,1.279-1.289,1.915-1.134,3.71
	c0.915,0.053,1.847,0.058,2.766,0.166c4.356,0.515,8.22,2.328,11.93,4.557c3.053,1.834,6.094,3.697,9.208,5.423
	c2.979,1.65,6.012,3.216,9.393,3.93c3.938,0.833,7.878,1.118,11.826,0.075c1.805-0.476,3.47-1.249,4.99-2.334
	c0.182-0.13,0.375-0.243,0.785-0.506c0.096,1.747,0.273,3.316,0.249,4.882c-0.06,3.999-1.013,7.781-3.126,11.209
	c-2.039,3.308-4.856,5.546-8.822,6.04c-2.558,0.319-5.032-0.208-7.451-0.971c-5.459-1.721-10.395-4.5-15.097-7.698
	c-2.43-1.652-4.741-3.476-7.106-5.223c-4.582-3.379-9.632-5.686-15.305-6.407c-2.652-0.337-5.339-0.438-8.013-0.566
	c-1.766-0.083-3.538-0.023-5.309-0.027c-1.241-0.002-1.893-0.518-1.907-1.736c-0.04-3.2-0.078-6.405,0.049-9.601
	c0.033-0.831,0.511-1.777,1.065-2.434c12.687-15.037,25.413-30.041,38.132-45.051C53.358,19.999,53.521,19.805,53.801,19.474z"/>
</svg>
