<?xml version="1.0" encoding="utf-8"?>
<!-- Generator: Adobe Illustrator 18.1.1, SVG Export Plug-In . SVG Version: 6.00 Build 0)  -->
<svg version="1.1" id="Calque_1" xmlns="http://www.w3.org/2000/svg" xmlns:xlink="http://www.w3.org/1999/xlink" x="0px" y="0px"
	 viewBox="0 0 100 100" enable-background="new 0 0 100 100" xml:space="preserve">
<path d="M2,66H0V54h2V66z M7,70H5V51h2V70z M11,71H9V49h2V71z M15,72h-2V50h2V72z M20,72h-2V43h2V72z M24,72h-2V39h2V72z M29,72h-2
	V37h2V72z M33,72h-2V36h2V72z M38,72h-2V37h2V72z M42,72h-2V38h2V72z M46,72h-2V34h2V72z M51,72h-2V31h2V72z M87.736,71.76
	c-0.221,0-34.275-0.017-34.307-0.02C52.691,71.666,52,71.038,52,70.283V31.163c0-0.719,0.354-1.089,1.285-1.45
	c2.393-0.926,5.11-1.473,7.892-1.473c11.363,0,20.724,8.714,21.704,19.823c1.469-0.615,3.101-0.957,4.792-0.957
	c6.806,0,12.356,5.518,12.356,12.326C100.029,66.241,94.543,71.76,87.736,71.76z"/>
</svg>
