<?xml version="1.0" encoding="utf-8"?>
<!-- Generator: Adobe Illustrator 18.1.1, SVG Export Plug-In . SVG Version: 6.00 Build 0)  -->
<svg version="1.1" id="Calque_1" xmlns="http://www.w3.org/2000/svg" xmlns:xlink="http://www.w3.org/1999/xlink" x="0px" y="0px"
	 viewBox="0 0 100 100" enable-background="new 0 0 100 100" xml:space="preserve">
<path d="M71.193,15.024c-4.104,0-7.006,3.904-7.006,11.411c0,15.316,9.8,24.126,22.413,24.126c2.242,0,4.399-0.263,7.399-0.856v11.9
	c-4,0.951-8.516,1.354-12.028,1.363C73.603,80.653,58.457,95.75,53.428,98.61c-3.203,1.803-6.241,1.89-9.745-0.212
	C37.489,94.703,14.041,75,6.181,15h17.014c4.278,37,14.702,54.902,26.234,68.844c6.356-6.361,12.45-14.793,17.24-24.374
	C55.278,53.69,48.371,41.01,48.371,26.233c0-14.916,8.609-26.226,23.324-26.226c14.315,0,22.124,8.909,22.124,24.226
	c0,5.692-1.228,12.182-3.483,17.191c-10.629,2.081-14.516-4.7-14.516-4.7c0.8-2.62,1.882-7.048,1.882-11.089
	C77.702,18.528,75.099,15.024,71.193,15.024z"/>
</svg>
