<?xml version="1.0" encoding="utf-8"?>
<!-- Generator: Adobe Illustrator 18.1.1, SVG Export Plug-In . SVG Version: 6.00 Build 0)  -->
<svg version="1.1" id="Calque_1" xmlns="http://www.w3.org/2000/svg" xmlns:xlink="http://www.w3.org/1999/xlink" x="0px" y="0px"
	 viewBox="0 0 100 100" enable-background="new 0 0 100 100" xml:space="preserve">
<g>
	<path d="M51.413,38H46v24h5.413C59.318,62,65,57.91,65,50.072v-0.137C65,42.162,59.318,38,51.413,38z"/>
	<path d="M51.824,1.439C25.215,1.439,3.644,23.182,3.644,50c0,7.189,1.562,14.006,4.343,20.146L0,89.859l20.674-2.824
		c8.4,7.184,19.267,11.525,31.15,11.525C78.432,98.561,100,76.822,100,50C100,23.182,78.432,1.439,51.824,1.439z M78,49.861
		C78,63.873,68.108,74,50.938,74H33V26h18.21C68.249,26,78,35.713,78,49.727V49.861z"/>
</g>
</svg>
