<?xml version="1.0" encoding="utf-8"?>
<!-- Generator: Adobe Illustrator 18.1.1, SVG Export Plug-In . SVG Version: 6.00 Build 0)  -->
<svg version="1.1" id="Calque_1" xmlns="http://www.w3.org/2000/svg" xmlns:xlink="http://www.w3.org/1999/xlink" x="0px" y="0px"
	 viewBox="0 0 100 100" enable-background="new 0 0 100 100" xml:space="preserve">
<path d="M61,69.444v11.778c0,2.493-0.898,3.722-2.342,3.722c-0.822,0-1.658-0.394-2.658-1.229V66.891
	c1-0.82,1.836-1.214,2.658-1.214C60.102,65.677,61,66.954,61,69.444z M43.273,34.891C42.199,33.491,42,31.295,42,28.331v-9.77
	c0-2.98,0.21-5.16,1.284-6.569c1.397-1.905,3.167-2.859,5.685-2.859c2.533,0,4.27,0.954,5.669,2.859
	C55.697,13.401,56,15.581,56,18.562v9.77c0,2.964-0.353,5.16-1.412,6.559c-1.399,1.901-3.207,2.856-5.74,2.856
	C46.331,37.746,44.672,36.792,43.273,34.891z M46,29.281c0,2.58,0.87,3.872,2.502,3.872c1.629,0,2.498-1.292,2.498-3.872V17.548
	c0-2.579-0.869-3.864-2.498-3.864c-1.632,0-2.502,1.285-2.502,3.864V29.281z M64.201,37.746c1.842,0,3.799-1.121,5.799-3.43V38h5V10
	h-5v20.786c-1,1.584-2.207,2.367-3.217,2.367c-0.68,0-0.843-0.4-0.954-1.184C65.769,31.807,66,31.19,66,30.003V10h-6v21.524
	c0,1.967,0.418,3.304,0.697,4.146C61.202,37.085,62.573,37.746,64.201,37.746z M91.376,71.209c0,6.451-0.009,13.293-1.452,19.561
	c-1.01,4.401-4.612,7.646-8.943,8.129c-10.263,1.146-20.648,1.153-30.988,1.146c-10.341,0.007-20.727,0-30.987-1.146
	c-4.333-0.482-7.93-3.728-8.941-8.129C8.623,84.502,8.623,77.66,8.623,71.209c0-6.455,0.016-13.293,1.459-19.563
	c1.01-4.397,4.608-7.643,8.941-8.127c10.26-1.15,20.646-1.152,30.988-1.15c10.338-0.003,20.725,0,30.987,1.15
	c4.331,0.484,7.931,3.729,8.942,8.127C91.383,57.916,91.376,64.754,91.376,71.209z M32,52H15v5h6v32h5V57h6V52z M47,61h-5v21.605
	c-1,1.566-1.98,2.339-2.982,2.339c-0.669,0-0.974-0.394-1.094-1.169C37.876,83.615,38,83.002,38,81.832V61h-5v22.336
	c0,1.95,0.161,3.266,0.436,4.102c0.499,1.399,1.453,2.054,3.065,2.054c1.838,0,3.499-1.11,5.499-3.391V89h5V61z M66,69.837
	c0-2.611-0.071-4.436-0.403-5.546c-0.669-2.068-2.204-3.116-4.197-3.116c-1.838,0-3.4,1.006-5.4,2.994V52h-4v37h4v-2.565
	c2,2.068,3.736,3.057,5.513,3.057c1.993,0,3.383-1.048,4.051-3.102C65.896,85.22,66,83.381,66,80.829V69.837z M85,70.506
	c0-2.949-0.377-5.104-1.423-6.501c-1.399-1.89-3.313-2.83-5.822-2.83c-2.552,0-4.677,0.94-6.12,2.83
	C70.572,65.401,70,67.557,70,70.506v9.669c0,2.932,0.657,5.111,1.718,6.489c1.445,1.884,3.449,2.827,6.067,2.827
	c2.61,0,4.709-0.988,6.094-2.99c0.606-0.888,0.924-1.891,1.093-2.998C85.019,83.002,85,81.891,85,80.282V80h-4.896
	c0,2-0.067,2.893-0.113,3.164c-0.285,1.336-1.104,1.876-2.335,1.876c-1.717,0-2.656-1.37-2.656-3.925V76h10V70.506z M77.507,65.677
	c-1.671,0-2.507,1.277-2.507,3.83V72h5v-2.493C80,66.954,79.162,65.677,77.507,65.677z M29,22.203V38h5V22.203L41.335,0h-5.667
	l-3.821,14.696L27.867,0h-5.896c1.18,3,2.417,6.924,3.599,10.394C27.367,15.613,28,19.516,29,22.203z"/>
</svg>
