<?xml version="1.0" encoding="utf-8"?>
<!-- Generator: Adobe Illustrator 18.1.1, SVG Export Plug-In . SVG Version: 6.00 Build 0)  -->
<svg version="1.1" id="Calque_1" xmlns="http://www.w3.org/2000/svg" xmlns:xlink="http://www.w3.org/1999/xlink" x="0px" y="0px"
	 viewBox="0 0 100 100" enable-background="new 0 0 100 100" xml:space="preserve">
<path fill="#1D1D1B" d="M72,2v10.002C67,4.405,58.596,0.116,49.24,0.116c-18.768,0-31.256,14.416-31.256,35.871
	c0,9.296,2.583,17.821,7.162,24.005c5.371,7.252,13.164,11.085,22.947,11.085C57.898,71.078,67,66.701,72,59.696v10.431
	c0,15.212-6.983,22.297-22.502,22.297c-13.073,0-19.829-5.588-20.323-16.148L29.082,74h-6.964l0.078,2.246
	C22.587,91.267,32.582,100,49.896,100C69.411,100,80,89.466,80,70.127V2H72z M73.881,35.987c0,13.755-7.641,27.634-24.713,27.634
	c-14.109,0-23.224-10.847-23.224-27.634c0-13.103,6.364-28.405,24.3-28.405c6.122,0,11.515,2.175,15.597,6.289
	C71.022,19.096,73.953,27.154,73.881,35.987z"/>
</svg>
