<?xml version="1.0" encoding="utf-8"?>
<!-- Generator: Adobe Illustrator 18.1.1, SVG Export Plug-In . SVG Version: 6.00 Build 0)  -->
<svg version="1.1" id="Calque_1" xmlns="http://www.w3.org/2000/svg" xmlns:xlink="http://www.w3.org/1999/xlink" x="0px" y="0px"
	 viewBox="0 0 100 100" enable-background="new 0 0 100 100" xml:space="preserve">
<g>
	<path d="M48.591,11.259c-2.486-0.788-5.133,0.531-6.023,2.954c-0.019,0.065-0.056,0.366-0.111,0.525
		C42.452,14.76,42.445,15,42.438,15h-0.006C40.835,19,26.87,56,26.87,56h-0.245l-16.47-41.86c0,0-0.003-0.1-0.003-0.103l-0.23-0.637
		c-1.129-2.387-3.923-3.58-6.445-2.633c-2.585,0.972-3.917,3.788-3.067,6.39c2.018,5.118,21.035,51.306,21.035,51.306l-1.246,2.746
		c-2.097,5.675-4.44,9.502-10.727,9.502c-0.61,0-2.72-0.123-2.857-0.14c-2.027-0.106-3.917,1.214-4.468,3.25
		c-0.625,2.317,0.733,4.699,3.036,5.364c1.668,0.288,3.377,0.397,4.907,0.397c11.588,0,15.413-6.665,19.235-16.401
		c0,0,21.004-52.488,21.967-54.676c0.152-0.35,0.283-0.66,0.394-0.948L51.67,17.55c0.018-0.063,0.048-0.125,0.068-0.188
		C52.555,14.806,51.14,12.075,48.591,11.259z"/>
	<path d="M86.662,72.541c-8.177-4.479-22.174-11.145-27.22-11.145c-0.759,0-1.334,0.148-1.758,0.442
		c-0.403,0.278-0.616,0.732-0.59,1.236c0.202,3.849,21.723,18.374,23.61,19.424l0.764,0.38c0.532,0.155,1.084,0.232,1.646,0.232
		c2.014,0,3.862-1.012,4.96-2.707C89.7,77.851,89.148,74.512,86.662,72.541z"/>
	<path d="M57.684,38.157c0.424,0.298,1,0.446,1.758,0.446c5.046,0,19.042-6.669,27.352-11.244c2.357-1.873,2.906-5.212,1.276-7.773
		c-1.091-1.688-2.943-2.696-4.956-2.696c-0.558,0-1.114,0.079-1.804,0.299l-0.605,0.313c-1.887,1.042-23.401,15.556-23.61,19.421
		C57.068,37.428,57.281,37.877,57.684,38.157z"/>
	<path d="M95.37,43.966l-0.667-0.007c-2.161,0.003-27.987,2.344-30.048,5.66c-0.269,0.426-0.303,1.156-0.085,1.596
		c2.213,4.489,30.18,4.848,30.707,4.541l0,0l0,0c2.982-0.518,5.076-3.291,4.861-6.309C99.969,46.863,98.08,44.553,95.37,43.966z"/>
</g>
</svg>
