<?xml version="1.0" encoding="utf-8"?>
<!-- Generator: Adobe Illustrator 18.1.1, SVG Export Plug-In . SVG Version: 6.00 Build 0)  -->
<svg version="1.1" id="Calque_1" xmlns="http://www.w3.org/2000/svg" xmlns:xlink="http://www.w3.org/1999/xlink" x="0px" y="0px"
	 viewBox="0 0 100 100" enable-background="new 0 0 100 100" xml:space="preserve">
<path d="M67.877,93.18c2.447,0,5.123-0.216,7.123-0.605v6.902c-2,0.34-4.671,0.523-7.11,0.523c-27.57,0-49.983-22.432-49.983-49.999
	C17.907,22.428,40.28,0,67.85,0C70.289,0,73,0.184,75,0.524v6.902c-2-0.391-4.675-0.607-7.123-0.607
	c-23.81,0-43.23,19.37-43.23,43.182C24.647,73.811,44.068,93.18,67.877,93.18z M42.5,50.001c0-14.024,11.352-25.436,25.377-25.436
	c2.495,0,5.123,0.377,7.123,1.051V15.451c-2-0.482-4.662-0.737-7.123-0.737c-19.457,0-35.258,15.831-35.258,35.287
	c0,19.456,15.786,35.286,35.243,35.286c2.461,0,5.138-0.255,7.138-0.738V74.388c-2,0.673-4.628,1.048-7.123,1.048
	C53.852,75.436,42.5,64.023,42.5,50.001z M71.087,57.704c-4.775,0-7.64-3.182-7.64-7.831c0-4.647,2.865-7.828,7.64-7.828
	c1.974,0,3.756,1.018,4.711,2.354l6.303-6.622c-2.992-3.054-7.385-4.137-11.014-4.137c-9.549,0-17.189,6.366-17.189,16.232
	c0,9.869,7.641,16.235,17.189,16.235c3.629,0,8.022-1.083,11.014-4.138l-6.303-6.621C74.716,56.623,73.188,57.704,71.087,57.704z"/>
</svg>
