<?xml version="1.0" encoding="utf-8"?>
<!-- Generator: Adobe Illustrator 18.1.1, SVG Export Plug-In . SVG Version: 6.00 Build 0)  -->
<svg version="1.1" id="Calque_1" xmlns="http://www.w3.org/2000/svg" xmlns:xlink="http://www.w3.org/1999/xlink" x="0px" y="0px"
	 viewBox="0 0 100 100" enable-background="new 0 0 100 100" xml:space="preserve">
<g>
	<circle cx="25.255" cy="54.253" r="4.11"/>
	<circle cx="74.745" cy="54.253" r="4.11"/>
	<path d="M25.255,42.119c-3.242,0-6.289,1.262-8.58,3.555c-2.293,2.291-3.555,5.339-3.555,8.58c0,3.24,1.262,6.289,3.555,8.579
		c2.291,2.293,5.338,3.554,8.58,3.554c6.69,0,12.135-5.442,12.135-12.133C37.39,47.562,31.945,42.119,25.255,42.119z M25.255,62.668
		c-2.249,0-4.361-0.874-5.951-2.465c-1.59-1.588-2.465-3.701-2.465-5.949c0-2.249,0.875-4.362,2.465-5.951
		c1.59-1.59,3.702-2.465,5.951-2.465c4.64,0,8.415,3.775,8.415,8.416C33.67,58.894,29.895,62.668,25.255,62.668z"/>
	<path d="M74.745,42.119c-3.241,0-6.288,1.262-8.58,3.555c-2.291,2.291-3.555,5.339-3.555,8.58c0,3.24,1.264,6.289,3.555,8.579
		c2.292,2.293,5.339,3.554,8.58,3.554c6.691,0,12.135-5.442,12.135-12.133C86.88,47.562,81.437,42.119,74.745,42.119z
		 M74.745,62.668c-2.247,0-4.361-0.874-5.95-2.465c-1.59-1.588-2.465-3.701-2.465-5.949c0-2.249,0.875-4.362,2.465-5.951
		c1.589-1.59,3.703-2.465,5.95-2.465c4.641,0,8.416,3.775,8.416,8.416C83.161,58.894,79.386,62.668,74.745,62.668z"/>
	<path d="M94.298,38.242C95.252,35.406,96.708,32,98.72,30H82.137c-0.276,0-0.562-0.09-0.841-0.164
		c-0.901-1.412-7.069-9.399-31.725-9.399C22.515,20.437,17.721,30,17.721,30H0.423c2.207,2,3.741,6.057,4.68,9.041
		C1.915,43.268,0,48.536,0,54.228c0,13.925,11.329,25.267,25.255,25.267c7.719,0,14.632-3.482,19.268-8.959l5.733,8.031l4.949-8.339
		c4.634,5.658,11.67,9.279,19.539,9.279C88.67,79.507,100,68.152,100,54.227C100,48.178,97.857,42.596,94.298,38.242z
		 M25.255,74.549c-11.191,0-20.297-9.104-20.297-20.295c0-11.192,9.106-20.297,20.297-20.297s20.296,9.104,20.296,20.297
		C45.551,65.445,36.446,74.549,25.255,74.549z M25.597,30.406c0,0,6.508-7.406,23.804-7.406h1.712
		c17.296,0,23.805,7.406,23.805,7.406s-18.496-3.082-24.66,19.695C44.093,27.324,25.597,30.406,25.597,30.406z M74.745,74.549
		c-11.191,0-20.297-9.104-20.297-20.295c0-11.192,9.105-20.297,20.297-20.297c11.19,0,20.297,9.104,20.297,20.297
		C95.042,65.445,85.936,74.549,74.745,74.549z"/>
</g>
</svg>
