<?xml version="1.0" encoding="utf-8"?>
<!-- Generator: Adobe Illustrator 18.1.1, SVG Export Plug-In . SVG Version: 6.00 Build 0)  -->
<svg version="1.1" id="Calque_1" xmlns="http://www.w3.org/2000/svg" xmlns:xlink="http://www.w3.org/1999/xlink" x="0px" y="0px"
	 viewBox="0 0 100 100" enable-background="new 0 0 100 100" xml:space="preserve">
<path d="M90.488,33.676c-7.069,2.185-11.696,12.083-11.696,19.28c0,9.254,5.271,19.151,13.882,21.465
	c-2.442,8.226-8.998,18.509-15.039,22.879c-2.57,1.799-5.655,2.571-9.254,2.571c-2.442,0-5.142-0.514-8.74-1.928
	c-2.957-1.414-5.656-2.057-7.455-2.057c-1.543,0-4.885,1.028-9.383,2.828C40.231,99.486,38.175,100,36.761,100
	c-4.112,0-7.712-1.671-11.439-4.756C13.882,84.704,7.326,69.28,7.326,53.213c0-15.939,10.154-31.234,25.451-31.234
	c4.627,0,8.097,1.028,11.182,2.57c2.956,1.8,5.398,2.442,8.098,2.442c2.186,0,4.756-0.386,7.198-1.414
	c5.912-2.313,9.897-3.599,12.21-3.599c5.913,0,10.54,1.928,14.396,5.399C87.403,28.92,89.074,30.977,90.488,33.676z M49.486,22.622
	c0-5.526,2.185-10.282,5.912-14.91C59.255,3.47,64.268,0.9,69.795,0c0,5.655-1.929,11.311-5.784,15.81
	C59.769,20.437,55.141,22.622,49.486,22.622z"/>
</svg>
