<?xml version="1.0" encoding="utf-8"?>
<!-- Generator: Adobe Illustrator 18.1.1, SVG Export Plug-In . SVG Version: 6.00 Build 0)  -->
<svg version="1.1" id="Calque_1" xmlns="http://www.w3.org/2000/svg" xmlns:xlink="http://www.w3.org/1999/xlink" x="0px" y="0px"
	 viewBox="0 0 100 100" enable-background="new 0 0 100 100" xml:space="preserve">
<g>
	<path fill="#1D1D1B" d="M99.902,66.75c-1.049-4.72-8.586-7.277-20.188-8.129c-8.324-0.59-16.517,1.245-24.513,3.998l-1.284,0.45
		l0.038-35.258c0-3.081,6.227-2.885,6.227,0.458v27.664c12.65,3.671,19.139-1.966,19.27-15.995
		c0.131-12.062-7.931-18.944-21.105-22.485l-20.581-5.441v41.955l-6.358,2.163l6.358,1.967v10.488l-7.406,2.491l0,0l-7.603,2.557
		c-4.916,1.705-9.111-2.294-4.588-3.934l3.67-1.31l-13.83-4.393c-4.261,1.443-8.259,4.524-7.996,8.851
		c0.262,4.392,10.29,5.441,18.025,6.687c7.209,1.179,13.764,0.524,19.729-1.574v-4.524l-2.36-0.752l2.36,0.752v9.31l16.123,5.244
		l0-0.328l0.131,0.328l14.092-4.917l23.399-8.259l-15.206-4.721l-22.405,7.666l0.006-5.311l14.337-4.911l-14.327-4.449v0
		l14.327,4.449l8.389-2.819c8.783-1.638,12.323,1.246,3.867,3.934l-4.195,1.441l15.206,4.721l0.262-0.066
		C97.935,72.584,100.557,69.567,99.902,66.75z"/>
	<path fill="#1D1D1B" d="M8.009,63.995l13.83,4.393l15.928-5.703v-4.589l-6.358-1.967L8.336,63.93
		C8.271,63.93,8.14,63.995,8.009,63.995z"/>
</g>
</svg>
