<?xml version="1.0" encoding="utf-8"?>
<!-- Generator: Adobe Illustrator 18.1.1, SVG Export Plug-In . SVG Version: 6.00 Build 0)  -->
<svg version="1.1" id="Calque_1" xmlns="http://www.w3.org/2000/svg" xmlns:xlink="http://www.w3.org/1999/xlink" x="0px" y="0px"
	 viewBox="0 0 100 100" enable-background="new 0 0 100 100" xml:space="preserve">
<g>
	<path fill="#1D1D1B" d="M37.265,62.385c-4.013,6.208-7.046,12.451-9.066,17.108c-0.099,0.228-1.578,3.892-2.015,5.032
		c-0.535,1.41,0.195,3.049,1.601,3.593c1.139,0.443,4.853,1.793,5.085,1.871c4.768,1.601,11.354,3.5,18.571,4.675
		c-4.273-4.122-7.756-9.075-10.184-14.527C38.766,74.535,37.413,68.476,37.265,62.385z"/>
	<path fill="#1D1D1B" d="M51.524,36.466c0.008-0.003,0.011-0.006,0.018-0.009c-0.125-0.235-0.573-1.248-0.669-1.514
		C36.779,6.139,5.471,7.166,0.528,20.041C-3.265,29.924,13.331,53.471,51.524,36.466z"/>
	<path fill="#1D1D1B" d="M57.877,33.82c0.003-0.002,0.008-0.003,0.011-0.004C79.457,24.211,76.445,7.529,70.863,5.386
		c-7.512-2.884-21.16,8.224-13.367,27.58C57.571,33.107,57.827,33.678,57.877,33.82z"/>
	<path fill="#1D1D1B" d="M97.542,54.909c-3.266-7.338-9.26-12.599-16.228-15.105c-0.701-0.252-1.421-0.369-2.135-0.369
		c-3.619,0-7.105,3.013-7.434,6.774c-0.55,6.276,0.69,12.663,3.434,18.824c2.703,6.07,6.535,11.204,11.465,14.976
		c1.281,0.982,2.851,1.444,4.42,1.444c2.825,0,5.644-1.501,6.763-4.184C100.705,70.37,100.838,62.314,97.542,54.909z"/>
	<path fill="#1D1D1B" d="M66.954,68.698c-3.447-7.74-4.852-15.57-4.179-23.272c0.187-2.144,0.812-4.21,1.816-6.098
		c-0.179,0.043-0.561,0.138-0.575,0.142c-3.174,0.793-6.249,2.173-8.979,3.97c-3.958,2.604-7.447,6.464-8.952,11.025
		c-0.405,1.229-0.71,2.58-0.811,3.873c-0.482,6.166,0.522,12.536,3.214,18.583c2.604,5.848,6.49,10.724,11.178,14.447
		c2.859,2.269,8.01,3.7,12.22,3.7c3.955,0,7.858-1.179,11.362-2.962c1.095-0.558,3.509-2.067,3.667-2.173
		c-2.09-0.539-4.055-1.476-5.744-2.77C75.135,82.541,70.35,76.329,66.954,68.698z"/>
</g>
</svg>
