<?xml version="1.0" encoding="utf-8"?>
<!-- Generator: Adobe Illustrator 18.1.1, SVG Export Plug-In . SVG Version: 6.00 Build 0)  -->
<svg version="1.1" id="Calque_1" xmlns="http://www.w3.org/2000/svg" xmlns:xlink="http://www.w3.org/1999/xlink" x="0px" y="0px"
	 viewBox="0 0 100 100" enable-background="new 0 0 100 100" xml:space="preserve">
<path d="M80.74,81.028c-1.261,2.068-3.956,2.717-6.018,1.451C58.229,72.405,37.47,70.124,13.018,75.712
	c-2.357,0.537-4.701-0.94-5.241-3.296c-0.539-2.355,0.931-4.705,3.294-5.242c26.756-6.114,49.705-3.482,68.218,7.831
	C81.354,76.265,82.002,78.96,80.74,81.028z M89.336,61.901c-1.59,2.578-4.957,3.386-7.533,1.802
	c-18.875-11.6-47.656-14.964-69.988-8.186c-2.898,0.876-5.957-0.755-6.837-3.647c-0.869-2.897,0.763-5.949,3.655-6.831
	c25.509-7.74,57.222-3.992,78.9,9.335C90.109,55.958,90.92,59.328,89.336,61.901z M99.077,39.686c-1.85,3.125-5.885,4.151-9,2.296
	C67.436,28.537,30.091,27.304,8.479,33.863c-3.472,1.053-7.143-0.908-8.195-4.379c-1.05-3.472,0.906-7.14,4.381-8.192
	c24.81-7.533,66.055-6.076,92.119,9.394C99.906,32.54,100.93,36.57,99.077,39.686z"/>
</svg>
