<?xml version="1.0" encoding="utf-8"?>
<!-- Generator: Adobe Illustrator 18.1.1, SVG Export Plug-In . SVG Version: 6.00 Build 0)  -->
<svg version="1.1" id="Calque_1" xmlns="http://www.w3.org/2000/svg" xmlns:xlink="http://www.w3.org/1999/xlink" x="0px" y="0px"
	 viewBox="0 0 100 100" enable-background="new 0 0 100 100" xml:space="preserve">
<path d="M50,28.969c-2.923,0-5.292,2.369-5.292,5.292L44.683,66.15c-0.171,12.196-10.091,22.034-22.329,22.034
	C10.008,88.184,0,78.176,0,65.83c0-0.161,0-13.866,0-13.866h17.107v13.684c0,2.922,2.37,5.291,5.293,5.291
	c2.922,0,5.291-2.369,5.291-5.291V33.359C28.122,21.392,37.928,11.816,50,11.816c12.116,0,21.948,9.646,22.309,21.675v7.066
	l-10.185,3.041l-6.831-3.183v-6.154C55.292,31.338,52.923,28.969,50,28.969z M100,65.83c0,12.346-10.008,22.354-22.355,22.354
	c-12.278,0-22.247-9.902-22.353-22.156V52.094l6.831,3.183l10.185-3.041v14.05c0,2.922,2.369,5.291,5.292,5.291
	c2.922,0,5.292-2.369,5.292-5.291V51.964H100C100,51.964,100,65.669,100,65.83z"/>
</svg>
