<?xml version="1.0" encoding="utf-8"?>
<!-- Generator: Adobe Illustrator 18.1.1, SVG Export Plug-In . SVG Version: 6.00 Build 0)  -->
<svg version="1.1" id="Calque_1" xmlns="http://www.w3.org/2000/svg" xmlns:xlink="http://www.w3.org/1999/xlink" x="0px" y="0px"
	 viewBox="0 0 100 100" enable-background="new 0 0 100 100" xml:space="preserve">
<g>
	<path d="M27.457,45.048C12.284,45.048,0.004,57.34,0,72.495c0.004,15.161,12.284,27.452,27.457,27.452
		c15.16,0,27.423-12.291,27.43-27.452c0-7.742-0.001-4.458-0.001-7.833l0,0h-9.804c0,0,0,0.097,0,7.833
		c-0.009,4.883-1.97,9.257-5.166,12.461c-3.205,3.199-7.575,5.167-12.458,5.167c-4.889,0-9.254-1.968-12.467-5.167
		c-3.197-3.205-5.159-7.578-5.166-12.461c0.007-4.878,1.968-9.251,5.166-12.456c3.213-3.199,7.578-5.161,12.467-5.167
		c9.019,0,35.708,0,45.091,0c15.167,0,27.448-12.206,27.453-27.367C99.996,12.338,87.715,0.058,72.547,0.053
		C57.385,0.058,45.101,12.338,45.095,27.505c0,7.702-0.007,7.754-0.007,7.754h9.798c0,0,0-0.051,0-7.754
		c0.009-4.878,1.998-9.251,5.203-12.461c3.202-3.193,7.572-5.161,12.458-5.161c4.884,0,9.262,1.968,12.467,5.167
		c3.193,3.205,5.157,7.578,5.157,12.456c0,4.889-1.964,9.257-5.16,12.456c-3.201,3.199-7.58,5.082-12.464,5.088L27.457,45.048
		L27.457,45.048z"/>
</g>
</svg>
