<?xml version="1.0" encoding="utf-8"?>
<!-- Generator: Adobe Illustrator 18.1.1, SVG Export Plug-In . SVG Version: 6.00 Build 0)  -->
<svg version="1.1" id="Calque_1" xmlns="http://www.w3.org/2000/svg" xmlns:xlink="http://www.w3.org/1999/xlink" x="0px" y="0px"
	 viewBox="0 0 100 100" enable-background="new 0 0 100 100" xml:space="preserve">
<path d="M47.36,57.216l-35.487-0.457c-0.463-0.014-0.922,0.035-1.262,0.378c-0.385,0.387-0.604,0.92-0.974,1.327
	c-0.712,0.78-1.654,1.328-2.665,1.614c-1.992,0.562-4.287,0.126-5.764-1.373c-1.33-1.347-1.586-3.383-0.649-5.131
	c1.634-3.053,6.073-3.963,8.769-1.789c0.846,0.681,1.425,1.554,1.584,2.63c0.068,0.451,0.251,0.49,0.618,0.482l35.854-0.483
	c0.565-0.008,0.56-0.013,0.477,0.529c-0.094,0.598-0.102,1.203-0.035,1.799C47.872,57.157,47.732,57.22,47.36,57.216z
	 M64.623,57.182c0.935-2.633-0.119-5.539-2.406-7.095c-3.564-2.423-8.961-1.315-11.286,2.313c-1.302,2.034-1.438,4.659-0.063,6.695
	c1.339,1.986,3.606,2.892,5.918,3.009c-0.168,0.006-0.117,0.012,0.487,0.015c0.846-0.021,0.762-0.028,0.439-0.026
	C60.656,61.859,63.606,60.039,64.623,57.182z M96.156,51.262c-2.363-0.346-4.548,1.009-5.192,3.247
	c-0.095,0.332-0.214,0.471-0.583,0.454l-23.229-0.334c-0.198,0.104-0.078,0.69-0.087,0.87c-0.023,0.409-0.096,0.815-0.193,1.214
	c-0.077,0.314,0.01,0.361,0.294,0.355l23.362-0.347c0.516,0.047,0.644,1.031,0.861,1.413c0.312,0.55,0.736,1.036,1.242,1.417
	c0.976,0.738,2.227,1.052,3.438,0.873c2.216-0.328,3.936-2.307,3.93-4.524C99.994,53.559,98.356,51.584,96.156,51.262z
	 M56.404,40.338c0.342,0.106,0.442,0.245,0.414,0.604l-0.396,5.579c-0.092,0.415,0.14,0.538,0.521,0.479
	c0.593-0.095,1.201-0.122,1.796-0.021c0.385,0.064,0.47-0.062,0.454-0.428c-0.073-1.879-0.12-3.759-0.194-5.638
	c-0.025-0.652,0.793-0.685,1.256-0.923c0.536-0.276,1.021-0.649,1.427-1.096c0.808-0.891,1.286-2.062,1.304-3.268
	c0.033-2.227-1.321-4.198-3.38-4.92c-2.083-0.731-4.376-0.055-5.727,1.688C51.706,35.191,52.997,39.265,56.404,40.338z
	 M80.999,36.619c0.12,0.002,0.226,0.002,0.293,0.002C81.232,36.621,81.135,36.621,80.999,36.619z M65.041,49.894
	c0.273,0.292,0.517,0.61,0.725,0.951c0.235,0.386,0.587,0.039,0.861-0.129l11.795-7.575c0.314-0.055,0.573,0.21,0.826,0.354
	c1.255,0.713,2.851,0.553,3.984-0.323c2.715-2.098,1.166-6.548-2.239-6.552c-2.352,0-4.085,2.09-3.6,4.377
	c0.075,0.363-0.006,0.508-0.312,0.675c-4.221,2.3-8.29,4.854-12.362,7.403C64.266,49.358,64.811,49.648,65.041,49.894z
	 M37.899,65.704C37.946,64.225,37.869,66.118,37.899,65.704L37.899,65.704z M49.992,61.252c-0.312-0.299-0.589-0.635-0.822-0.998
	c-0.169-0.262-0.305-0.252-0.538-0.101c-1.399,0.899-2.81,1.782-4.206,2.685c-0.248,0.161-0.395,0.205-0.668-0.006
	c-1.182-0.906-2.49-1.045-3.819-0.389c-1.331,0.655-1.992,1.781-2.039,3.261c-0.187,2.385,2.395,4.134,4.571,3.586
	c1.831-0.461,3.042-2.28,2.703-4.106c-0.052-0.281,0.039-0.377,0.253-0.493c1.627-0.878,3.207-1.834,4.791-2.784
	C50.622,61.664,50.224,61.475,49.992,61.252z M38.802,44.803c0.214-0.088,0.487-0.34,0.726-0.322
	c0.235,0.018,0.482,0.302,0.653,0.434l8.507,6.6c0.262,0.203,0.379,0.191,0.55-0.092c0.305-0.502,0.684-0.954,1.113-1.356
	c0.392-0.368-0.406-0.736-0.67-0.938l-8.147-5.804c-0.509-0.324-1.186-0.536-0.818-1.259c-0.012-0.147-0.016-0.179-0.018-0.21
	c-0.218-2.861-4.161-3.698-5.504-1.139c-0.606,1.155-0.369,2.604,0.571,3.482C36.58,44.96,37.756,45.229,38.802,44.803z
	 M67.401,61.759c-0.835,0.19-1.283-0.068-1.779-0.599c-0.095-0.102-0.208-0.17-0.295-0.275c-0.295-0.354-0.532-0.376-0.853,0.005
	c-0.262,0.316-0.602,0.567-0.929,0.824c-0.21,0.165-0.196,0.253,0.031,0.387c0.544,0.319,1.072,0.669,1.616,0.987
	c0.396,0.231,0.203,0.606,0.201,0.987c0,0.377,0.09,0.755,0.262,1.091c0.37,0.719,1.032,1.203,1.837,1.271
	c1.39,0.116,2.507-0.96,2.507-2.354c0-0.001,0-0.002,0-0.002v-0.002C70,62.613,68.832,61.436,67.401,61.759z"/>
</svg>
