<?xml version="1.0" encoding="utf-8"?>
<!-- Generator: Adobe Illustrator 18.1.1, SVG Export Plug-In . SVG Version: 6.00 Build 0)  -->
<svg version="1.1" id="Calque_1" xmlns="http://www.w3.org/2000/svg" xmlns:xlink="http://www.w3.org/1999/xlink" x="0px" y="0px"
	 viewBox="0 0 100 100" enable-background="new 0 0 100 100" xml:space="preserve">
<g>
	<path d="M36.926,30.405c-6.475,0-11.744,4.92-11.744,10.992c0,6.075,5.27,10.993,11.744,10.993c6.477,0,11.746-4.918,11.746-10.993
		C48.672,35.325,43.402,30.405,36.926,30.405z"/>
	<path d="M64.709,30.203c-6.524,0-11.819,4.97-11.819,11.07c0,6.122,5.295,11.066,11.819,11.066c6.527,0,11.822-4.944,11.822-11.066
		C76.531,35.173,71.236,30.203,64.709,30.203z"/>
	<path d="M95.427,47.622C95.041,47.897,95,48.158,94,48.419V9.725C94,4.352,90.508,0,85.538,0h-70.1C10.469,0,6,4.352,6,9.725v38.73
		c0-0.271-0.588-0.545-0.991-0.833c-2.985-2.084-4.837,0.753-3.005,3.464c3.564,4.367,10.394,9.789,20.784,14.055
		c-10.992,37.447,26.857,43.395,26.28,24.195c0,0.357,0.034-10.897,0.049-18.879c0.992,0.232,1.863,0.462,2.672,0.661
		c0.016,7.927,0.038,18.565,0.038,18.218C51.25,108.535,89.1,102.588,78.082,65.141c10.391-4.266,17.03-9.688,20.594-14.055
		C100.507,48.375,98.414,45.538,95.427,47.622z M89,51.343c-13,7.285-24.703,6.016-30.996,5.817
		c-4.627-0.231-6.153,1.758-6.381,4.823c-1.113-0.792-2.158-1.733-3.324-2.815c-0.195-0.182-0.332-0.344-0.51-0.493
		c-1.016-1.069-2.556-1.645-5.156-1.515C36.433,57.355,24,58.583,12,51.658V14.116C12,7.314,13.507,5,19.731,5h62.042
		C87.672,5,89,7.717,89,14.116V51.343z"/>
</g>
</svg>
