<?xml version="1.0" encoding="utf-8"?>
<!-- Generator: Adobe Illustrator 18.1.1, SVG Export Plug-In . SVG Version: 6.00 Build 0)  -->
<svg version="1.1" id="Calque_1" xmlns="http://www.w3.org/2000/svg" xmlns:xlink="http://www.w3.org/1999/xlink" x="0px" y="0px"
	 viewBox="0 0 100 100" enable-background="new 0 0 100 100" xml:space="preserve">
<path d="M55.255,7H32.51c-3.019,0-6.248,0.214-9.697,0.915c-3.486,0.814-6.846,2.483-10.084,5.145
	c-4.706,4.549-7.059,9.581-7.059,15.16c0,4.623,1.66,8.656,4.983,12.132c3.176,3.735,7.789,5.631,13.841,5.705
	c1.146,0,2.363-0.079,3.655-0.226c-0.21,0.596-0.442,1.241-0.691,1.948c-0.288,0.671-0.432,1.507-0.432,2.509
	c0,1.673,0.377,3.106,1.123,4.292c0.643,1.226,1.373,2.381,2.192,3.459c-2.653,0.073-5.985,0.406-10.004,0.997
	c-4.049,0.698-7.918,2.102-11.601,4.207C5.455,65.2,3.189,67.47,1.935,70.052c-1.288,2.587-1.933,4.929-1.933,7.032
	c0,4.322,1.985,8.029,5.951,11.132c3.924,3.319,9.873,5.021,17.839,5.095c9.514-0.149,16.799-2.424,21.844-6.823
	c4.866-4.253,7.299-9.134,7.299-14.646c-0.07-3.883-0.958-7.027-2.659-9.431c-1.805-2.366-3.911-4.529-6.31-6.49l-3.854-3.161
	c-0.56-0.554-1.133-1.202-1.722-1.941c-0.697-0.776-1.044-1.757-1.044-2.94c0-1.221,0.339-2.293,1.018-3.218
	c0.578-0.887,1.201-1.683,1.882-2.385c1.182-1.035,2.301-2.053,3.352-3.051c0.946-0.999,1.847-2.089,2.694-3.273
	c1.727-2.44,2.624-5.695,2.694-9.764c0-2.219-0.249-4.161-0.749-5.824c-0.611-1.665-1.302-3.107-2.089-4.326
	c-0.823-1.296-1.665-2.299-2.52-3.185C42.736,12.002,41.932,11,41.22,11h7.013L55.255,7z M42.787,68.742
	c1.882,2.144,2.826,4.659,2.826,7.549c0,3.549-1.38,6.452-4.13,8.708c-2.824,2.295-6.917,3.478-12.274,3.551
	c-5.977-0.074-10.682-1.405-14.122-3.996c-3.623-2.588-5.432-5.878-5.432-9.873c0-2.039,0.415-3.775,1.248-5.219
	c0.724-1.368,1.613-2.514,2.664-3.438c1.086-0.888,2.153-1.572,3.203-2.054c1.049-0.443,1.863-0.776,2.445-0.999
	c2.459-0.739,4.868-1.275,7.219-1.608c2.392-0.223,3.878-0.296,4.456-0.223c0.977,0,1.826,0.039,2.552,0.112
	C37.685,64.21,40.794,66.706,42.787,68.742z M39.098,35.281c-0.276,1.517-0.897,3-1.857,4.447c-1.998,2.04-4.49,3.11-7.486,3.223
	c-2.369,0-4.473-0.722-6.318-2.169c-1.839-1.441-3.346-3.203-4.512-5.278c-2.409-4.448-3.61-8.728-3.61-12.843
	c-0.074-3.11,0.749-5.926,2.472-8.446c2.045-2.408,4.605-3.651,7.688-3.726c2.33,0.074,4.387,0.758,6.18,2.058
	c1.758,1.368,3.171,3.148,4.248,5.334c2.294,4.559,3.441,9.079,3.441,13.563C39.345,32.485,39.26,33.761,39.098,35.281z M100,26v7
	H81v19h-6V33H56v-7h19V7h6v19H100z"/>
</svg>
