<?xml version="1.0" encoding="utf-8"?>
<!-- Generator: Adobe Illustrator 18.1.1, SVG Export Plug-In . SVG Version: 6.00 Build 0)  -->
<svg version="1.1" id="Calque_1" xmlns="http://www.w3.org/2000/svg" xmlns:xlink="http://www.w3.org/1999/xlink" x="0px" y="0px"
	 viewBox="0 0 100 100" enable-background="new 0 0 100 100" xml:space="preserve">
<path d="M53.449,85.592l8.716-6.318c-0.026-0.277-0.05-0.555-0.05-0.842c0-3.91,3.172-7.078,7.085-7.078
	c3.906,0,7.079,3.168,7.079,7.078c0,3.912-3.173,7.084-7.079,7.084c-1.401,0-2.699-0.414-3.796-1.105l-11.955,8.652V100h-0.271
	h-6.057h-0.57V78.945l-12.229-8.85c-1.038,0.594-2.238,0.943-3.524,0.943c-3.909,0-7.077-3.172-7.077-7.082
	c0-3.91,3.168-7.084,7.077-7.084c3.91,0,7.087,3.174,7.087,7.084c0,0.396-0.041,0.783-0.102,1.164l8.768,6.352v-21.02l-12.253-8.867
	c-1.03,0.586-2.225,0.926-3.5,0.926c-3.909,0-7.077-3.172-7.077-7.078c0-3.922,3.168-7.09,7.077-7.09c3.91,0,7.087,3.168,7.087,7.09
	c0,0.402-0.041,0.803-0.11,1.189l8.776,6.354V23.266l-12.344-8.934c-1.012,0.553-2.173,0.873-3.409,0.873
	c-3.909,0-7.077-3.176-7.077-7.086c0-3.91,3.168-7.082,7.077-7.082c3.91,0,7.087,3.172,7.087,7.082c0,0.451-0.045,0.883-0.123,1.309
	l8.789,6.361V0h6.898v29.912l8.741-6.336c-0.05-0.316-0.075-0.649-0.075-0.977c0-3.91,3.172-7.088,7.085-7.088
	c3.906,0,7.079,3.178,7.079,7.088c0,3.91-3.173,7.082-7.079,7.082c-1.352,0-2.602-0.387-3.683-1.041l-12.068,8.746v19.709
	l8.72-6.316c-0.03-0.293-0.054-0.582-0.054-0.877c0-3.91,3.172-7.082,7.085-7.082c3.906,0,7.079,3.172,7.079,7.082
	c0,3.918-3.173,7.09-7.079,7.09c-1.391,0-2.678-0.408-3.773-1.1l-11.978,8.682V85.592z"/>
</svg>
