<?xml version="1.0" encoding="utf-8"?>
<!-- Generator: Adobe Illustrator 18.1.1, SVG Export Plug-In . SVG Version: 6.00 Build 0)  -->
<svg version="1.1" id="Calque_1" xmlns="http://www.w3.org/2000/svg" xmlns:xlink="http://www.w3.org/1999/xlink" x="0px" y="0px"
	 viewBox="0 0 100 100" enable-background="new 0 0 100 100" xml:space="preserve">
<path fill-rule="evenodd" clip-rule="evenodd" d="M53.27,72.644c0.792,0.461,1.615-0.158,2.418-0.401
	c8.578-2.556,17.66-5.568,27.094-8.544c3.654-1.15,7.214-2.509,9.009-1.387c1.346,0.838,1.928,2.785,2.453,4.315
	c0.285,0.843,0.27,1.695,0.495,2.749c0.141,0.612,0.578,1.154,0.624,1.978c0.02,0.193-0.213,0.47-0.222,0.44
	c0.41,1.971,1.015,2.851,1.13,4.724c0.016,0.323-0.09,1.1-0.144,1.87c-0.042,0.638-0.36,2.115-0.923,2.822
	c-0.088,0.125-0.603,0.073-0.664,0.21c-0.018,0.048,0.147,0.304,0.106,0.34c-0.099,0.095-0.609,0.085-0.656,0.206
	c-0.748,1.867-10.103,3.908-13.016,4.825L49.92,96.583c-6.309,1.989-11.929,4.176-14.623,3.159
	c-4.113-1.546-6.824-13.563-9.191-21.077c-3.802-12.057-6.326-21.778-10.314-32.715c-0.189-0.523-0.261-1.16-0.521-1.648
	c-0.159-0.301-0.467-0.406-0.641-0.891c-1.168-3.162-1.621-7.324-3.334-10.572c-0.157-0.299-0.467-0.402-0.651-0.885
	c-0.6-1.635-1.171-3.882-1.878-5.951c-1.322-3.931-2.622-6.604-3.971-11.461c-0.647-2.31-1.277-4.443-1.004-5.495
	c0.124-0.485,1.037-1.823,1.795-2.378C6.291,6.138,7.397,5.917,8.78,5.29c3.788-1.703,16.874-6.678,20.247-4.92
	c3.288,1.709,4.946,9.934,7.067,16.656c1.997,6.336,3.642,12.699,5.401,18.273L53.27,72.644z"/>
</svg>
