<?xml version="1.0" encoding="utf-8"?>
<!-- Generator: Adobe Illustrator 18.1.1, SVG Export Plug-In . SVG Version: 6.00 Build 0)  -->
<svg version="1.1" id="Calque_1" xmlns="http://www.w3.org/2000/svg" xmlns:xlink="http://www.w3.org/1999/xlink" x="0px" y="0px"
	 viewBox="0 0 100 100" enable-background="new 0 0 100 100" xml:space="preserve">
<g>
	<polygon points="68,92 18.105,92 18.369,58.43 10.844,58.32 10.803,100 76,100 76,58 68,58 	"/>
	<rect x="23" y="78" width="39" height="8"/>
	<rect x="23.53" y="64.95" transform="matrix(0.9954 0.0961 -0.0961 0.9954 6.8521 -3.8352)" width="39.432" height="8.552"/>
	<rect x="25.721" y="51.285" transform="matrix(0.9624 0.2716 -0.2716 0.9624 16.8006 -10.253)" width="39.432" height="8.553"/>
	<rect x="31.771" y="36.471" transform="matrix(0.856 0.517 -0.517 0.856 28.4831 -20.7507)" width="39.431" height="8.555"/>
	<rect x="44.312" y="22.956" transform="matrix(-0.5825 -0.8129 0.8129 -0.5825 79.1841 95.1402)" width="39.431" height="8.554"/>
	<rect x="77.454" y="0.436" transform="matrix(0.9863 -0.1648 0.1648 0.9863 -2.2037 13.749)" width="8.555" height="39.431"/>
</g>
</svg>
