<?xml version="1.0" encoding="utf-8"?>
<!-- Generator: Adobe Illustrator 18.1.1, SVG Export Plug-In . SVG Version: 6.00 Build 0)  -->
<svg version="1.1" id="Calque_1" xmlns="http://www.w3.org/2000/svg" xmlns:xlink="http://www.w3.org/1999/xlink" x="0px" y="0px"
	 viewBox="0 0 100 100" enable-background="new 0 0 100 100" xml:space="preserve">
<path fill-rule="evenodd" clip-rule="evenodd" d="M19.198,40.975V26.823c3.928-1.277,7.295-3.105,10.092-5.49
	c2.805-2.382,5.05-5.244,6.744-8.585C37.73,9.409,38.896,5.157,39.535,0h14.222v25.276h23.73v15.699h-23.73v25.644
	c0,5.795,0.307,9.517,0.922,11.165c0.613,1.644,1.757,2.957,3.424,3.941c2.215,1.326,4.744,1.991,7.594,1.991
	c5.06,0,10.096-1.648,15.106-4.939v15.77c-4.275,2.013-8.145,3.43-11.604,4.238C65.731,99.596,61.984,100,57.958,100
	c-4.569,0-8.609-0.578-12.123-1.732c-3.512-1.156-6.506-2.802-8.99-4.937c-2.481-2.137-4.2-4.41-5.159-6.818
	c-0.958-2.404-1.436-5.896-1.436-10.464V40.975H19.198z"/>
</svg>
