<?xml version="1.0" encoding="utf-8"?>
<!-- Generator: Adobe Illustrator 18.1.1, SVG Export Plug-In . SVG Version: 6.00 Build 0)  -->
<svg version="1.1" id="Calque_1" xmlns="http://www.w3.org/2000/svg" xmlns:xlink="http://www.w3.org/1999/xlink" x="0px" y="0px"
	 viewBox="0 0 100 100" enable-background="new 0 0 100 100" xml:space="preserve">
<path d="M96.463,60.615c0.711-3.251,1.089-6.626,1.089-10.091c0-25.972-21.054-47.027-47.027-47.027
	c-2.742,0-5.43,0.237-8.042,0.687C38.279,1.537,33.307,0,27.972,0C12.909,0,0.699,12.211,0.699,27.272
	c0,5.034,1.37,9.747,3.749,13.795c-0.624,3.055-0.952,6.217-0.952,9.457c0,25.973,21.055,47.028,47.028,47.028
	c2.942,0,5.819-0.273,8.611-0.789C62.975,98.826,67.364,100,72.028,100c15.062,0,27.272-12.21,27.272-27.272
	C99.301,68.376,98.276,64.266,96.463,60.615z M74.275,72.866c-2.175,3.078-5.39,5.518-9.554,7.249
	c-4.124,1.715-9.069,2.584-14.696,2.584c-6.754,0-12.418-1.189-16.838-3.533c-3.159-1.707-5.765-4.019-7.742-6.871
	c-1.998-2.881-3.012-5.74-3.012-8.497c0-1.724,0.66-3.218,1.962-4.441c1.289-1.212,2.939-1.826,4.908-1.826
	c1.616,0,3.01,0.485,4.143,1.442c1.083,0.918,2.012,2.275,2.757,4.028c0.834,1.908,1.743,3.52,2.703,4.789
	c0.922,1.222,2.248,2.248,3.943,3.049c1.705,0.808,4.003,1.217,6.83,1.217c3.889,0,7.075-0.83,9.473-2.467
	c2.343-1.6,3.48-3.52,3.48-5.869c0-1.855-0.594-3.315-1.816-4.461c-1.279-1.196-2.968-2.127-5.018-2.767
	c-2.138-0.667-5.039-1.386-8.628-2.136c-4.881-1.046-9.026-2.287-12.325-3.689c-3.372-1.435-6.09-3.424-8.079-5.913
	c-2.019-2.526-3.043-5.697-3.043-9.425c0-3.552,1.074-6.754,3.194-9.517c2.103-2.743,5.174-4.875,9.128-6.337
	c3.903-1.443,8.546-2.176,13.798-2.176c4.201,0,7.893,0.485,10.975,1.443c3.1,0.967,5.714,2.27,7.767,3.874
	c2.067,1.615,3.606,3.345,4.572,5.141c0.976,1.813,1.471,3.618,1.471,5.364c0,1.681-0.649,3.207-1.93,4.538
	c-1.287,1.34-2.912,2.018-4.829,2.018c-1.741,0-3.104-0.424-4.051-1.262c-0.88-0.778-1.794-1.991-2.807-3.736
	c-1.173-2.228-2.593-3.984-4.221-5.222c-1.58-1.203-4.222-1.812-7.852-1.812c-3.371,0-6.112,0.677-8.148,2.012
	c-1.961,1.285-2.914,2.76-2.914,4.508c0,1.07,0.307,1.967,0.938,2.736c0.669,0.817,1.611,1.533,2.803,2.13
	c1.235,0.622,2.51,1.114,3.785,1.468c1.308,0.362,3.501,0.899,6.507,1.595c3.807,0.817,7.304,1.731,10.397,2.721
	c3.131,1.002,5.838,2.238,8.044,3.675c2.253,1.467,4.037,3.351,5.303,5.6c1.269,2.257,1.912,5.043,1.912,8.281
	C77.566,66.244,76.459,69.775,74.275,72.866z"/>
</svg>
