<?xml version="1.0" encoding="utf-8"?>
<!-- Generator: Adobe Illustrator 18.1.1, SVG Export Plug-In . SVG Version: 6.00 Build 0)  -->
<svg version="1.1" id="Calque_1" xmlns="http://www.w3.org/2000/svg" xmlns:xlink="http://www.w3.org/1999/xlink" x="0px" y="0px"
	 viewBox="0 0 100 100" enable-background="new 0 0 100 100" xml:space="preserve">
<path d="M9.363,29.303c-2.241-3.77-6.115-7.494-8.912-8.568L0,20.56v-1.814v-1.814l0.288-0.039l25.396-0.04
	c0.016,0.691,0.03,2.131,0.01,3.482c-3.358,0.417-7.406,2.059-6.285,5.823c6.403,14.146,12.229,28.548,18.551,42.73L48.809,48.6
	c-4.199-8.6-7.257-17.299-11.854-25.735c-1.498-2.43-5.55-2.497-8.42-2.591l0.01-3.358l24.005,0.083l0.069,3.242
	c-2.164,0.3-4.715,0.813-4.426,3.437l6.812,15.067c2.242-4.782,4.734-9.465,6.712-14.367c0.897-3.881-3.469-4.074-6.254-4.183
	l-0.049-3.197l21.45-0.082v3.27c-3.135,0.222-6.101,1.126-7.831,3.444c-4.203,6.499-7.321,13.872-10.596,20.931
	c3.235,7.65,6.606,15.29,9.913,22.305l18.283-42.17c-1.234-2.78-4.027-3.762-6.769-4.398l-0.14-3.401L100,17.059v3.308
	c-0.904,0.141-1.769,0.419-2.605,0.784c-1.585,0.735-3.082,2.195-4.087,3.985l-25.2,57.979l-4.223,0.032L51.896,54.913
	L37.345,83.146l-4.369,0.001C24.474,65.436,18.322,46.799,9.363,29.303z"/>
</svg>
