<?xml version="1.0" encoding="utf-8"?>
<!-- Generator: Adobe Illustrator 18.1.1, SVG Export Plug-In . SVG Version: 6.00 Build 0)  -->
<svg version="1.1" id="Calque_1" xmlns="http://www.w3.org/2000/svg" xmlns:xlink="http://www.w3.org/1999/xlink" x="0px" y="0px"
	 viewBox="0 0 100 100" enable-background="new 0 0 100 100" xml:space="preserve">
<path fill-rule="evenodd" clip-rule="evenodd" d="M99.864,10.418c-0.621-5.957-5.557-10.415-11.55-10.416
	C62.714-0.002,37.115-0.001,11.516,0.008c-0.699,0.001-1.359,0.054-2.045,0.185C3.807,1.274,0,5.959,0,11.733
	c0,12.761,0,25.522,0,38.281c0,12.735-0.053,25.47-0.046,38.204c0.001,0.648,0.02,1.303,0.106,1.945
	c0.745,5.537,5.646,9.834,11.243,9.834c25.742,0.004,51.479,0.002,77.221-0.002c0.441,0,0.882-0.025,1.32-0.078
	c5.651-0.666,10.053-5.607,10.054-11.297c0.003-25.742,0-51.485,0-77.228C99.897,11.068,99.897,10.741,99.864,10.418z
	 M69.144,15.416c0.012-2.216,1.7-3.862,3.909-3.865c3.801-0.005,7.603-0.005,11.404,0c2.229,0.003,3.912,1.668,3.919,3.898
	c0.011,3.815,0.011,7.629,0,11.443c-0.007,2.206-1.694,3.877-3.893,3.884c-1.914,0.006-3.828,0.001-5.741,0.001
	c-1.888,0-3.775,0.003-5.663,0c-2.234-0.004-3.925-1.646-3.936-3.879C69.124,23.071,69.122,19.244,69.144,15.416z M49.904,30.778
	c10.625-0.002,19.224,8.596,19.231,19.227c0.007,10.632-8.587,19.231-19.22,19.229c-10.63,0-19.237-8.598-19.239-19.219
	C30.674,39.397,39.288,30.78,49.904,30.778z M88,42.761c0,13.905,0.19,27.81,0.188,41.716c-0.001,2.33-1.557,3.992-3.891,3.992
	c-22.993,0.004-46.161,0.004-69.154,0c-2.331,0-4.143-1.666-4.143-4.006c0-13.893,0-27.785,0-41.677C11,42.646,11,43,11,42
	c3,0,6.225,0,9.126,0c-1.91,8-1.082,15.248,2.604,22.258c2.738,5.207,6.705,9.367,11.795,12.318
	c10.117,5.867,22.77,5.498,32.468-1.02c5.41-3.637,9.314-8.646,11.65-14.736C80.978,54.729,81.292,49,79.681,42
	C82.598,42,85,42,88,42C88,43,88,42.623,88,42.761z"/>
</svg>
