<?xml version="1.0" encoding="utf-8"?>
<!-- Generator: Adobe Illustrator 18.1.1, SVG Export Plug-In . SVG Version: 6.00 Build 0)  -->
<svg version="1.1" id="Calque_1" xmlns="http://www.w3.org/2000/svg" xmlns:xlink="http://www.w3.org/1999/xlink" x="0px" y="0px"
	 viewBox="0 0 100 100" enable-background="new 0 0 100 100" xml:space="preserve">
<path d="M94.366,53.492c-4.641-5.565-10.631-9.221-17.258-11.914c-8.471-3.441-17.579-4.929-26.692-5.016
	C49.728,36.556,49,36.562,48,36.562c0-3.128,0-6.115,0-9.38c-4,0.43-8,0.846-13,1.27c0,0.581,0,0.909,0,1.236
	c0,2.433-0.008,4.866,0.047,7.298c0.017,0.798-0.232,1.058-1.001,1.219c-6.629,1.387-12.934,3.635-18.75,7.16
	c-4.494,2.723-8.454,5.993-11.398,10.401C0.376,61.036-0.886,67,0.631,73C16.629,73,32,73,48,73c0-10,0-19.076,0-28.621
	c2,0,4.217-0.09,6.134,0.017c5.05,0.278,10.132,1.102,14.804,3.153c6.253,2.747,10.587,7.275,12.307,13.999
	C81.363,62.009,81.502,63,81.6,63C75.994,63,71,63,65,63c0,0,0-0.849,0-1.209c0-3.866-0.047-7.731-0.004-11.596
	c0.009-0.79-0.245-1.133-1.011-1.264c-2.459-0.421-4.68-0.96-7.147-1.311C55.178,47.385,53,47.392,52,47.287C52,56.02,52,65,52,73
	c16,0,31.401,0,47.466,0c0.178-2,0.457-2.827,0.514-4.274C100.208,62.868,98.052,57.912,94.366,53.492z M35,63
	c-6,0-11.044,0-16.528,0C18.918,56,27,47.183,35,46.203C35,51.759,35,57,35,63z"/>
</svg>
