<?xml version="1.0" encoding="utf-8"?>
<!-- Generator: Adobe Illustrator 18.1.1, SVG Export Plug-In . SVG Version: 6.00 Build 0)  -->
<svg version="1.1" id="Calque_1" xmlns="http://www.w3.org/2000/svg" xmlns:xlink="http://www.w3.org/1999/xlink" x="0px" y="0px"
	 viewBox="0 0 100 100" enable-background="new 0 0 100 100" xml:space="preserve">
<g>
	<path fill-rule="evenodd" clip-rule="evenodd" d="M75.553,2.477c-0.78,0.071-1.534,0.781-2.269,0.781
		c-2.289,0-4.28,1.995-6.265,1.665C65.105,4.594,63.216,8,60.973,8h-0.625c-0.58,0-1.109-3.734-1.36-3.882
		C48.637,18.092,45.085,36.256,40.432,55.387c-2.598-4.532-4.963-9.551-7.303-14.309c-4.157-8.36-8.437-17.125-13.29-24.021
		c-1.36-0.103-2.694-0.219-3.957-0.219c-5.562,0-10.597,0.966-15.36,2.352L0.296,32.008c-0.529,22.055-0.98,41.078,4.583,59.055
		c1.031,0.173,2.088,0.27,3.126,0.27c6.671,0,12.563-3.276,15.102-4.559c0.432-5.64-0.277-10.05-1.006-14.73
		c-0.38-2.396-0.78-4.814,0.477-7.934c3.88,5.008,7.277,10.499,10.654,15.991c2.165,3.499,4.305,6.948,5.962,9.945
		c1.109,0.122,2.166,0.149,3.178,0.149c2.591,0,4.906-0.304,7.2-0.632c2.391-0.303,4.731-0.625,7.451-0.625l1.533,0.58
		c3.049-6.8,3.223-16.797,3.378-26.491c0.148-8.888,0.303-18.053,4.254-24.873c4.305,19.839,10.171,39.124,17.899,58.885
		c2.72-0.373,5.717-1.309,8.514-2.158c2.062-0.632,3.951-1.264,5.434-1.264c0.761,0,1.412,0.354,1.965,0.734
		c-4.608-12.69-7.579-27.044-10.448-41.115C85.853,35.156,82.024,16.8,75.553,2.477z"/>
</g>
</svg>
