<?xml version="1.0" encoding="utf-8"?>
<!-- Generator: Adobe Illustrator 18.1.1, SVG Export Plug-In . SVG Version: 6.00 Build 0)  -->
<svg version="1.1" id="Calque_1" xmlns="http://www.w3.org/2000/svg" xmlns:xlink="http://www.w3.org/1999/xlink" x="0px" y="0px"
	 viewBox="0 0 100 100" enable-background="new 0 0 100 100" xml:space="preserve">
<g>
	<g id="lines__x003C_Group_x003E_">
		<path id="circle" d="M26.748,86.611c0,7.332-5.945,13.275-13.276,13.275c-7.328,0-13.275-5.943-13.275-13.275
			c0-7.333,5.947-13.275,13.275-13.275C20.803,73.336,26.748,79.278,26.748,86.611z"/>
		<g>
			<path d="M0.213,53.143c12.44,0,24.131,4.863,32.919,13.693c8.801,8.842,13.647,20.612,13.647,33.144h19.167
				c0-36.394-29.488-66.003-65.733-66.003V53.143z"/>
		</g>
		<g>
			<path d="M0.241,19.166c44.33,0,80.396,36.263,80.396,80.834h19.167C99.804,44.859,55.14,0,0.241,0V19.166z"/>
		</g>
	</g>
</g>
</svg>
