<?xml version="1.0" encoding="utf-8"?>
<!-- Generator: Adobe Illustrator 18.1.1, SVG Export Plug-In . SVG Version: 6.00 Build 0)  -->
<svg version="1.1" id="Calque_1" xmlns="http://www.w3.org/2000/svg" xmlns:xlink="http://www.w3.org/1999/xlink" x="0px" y="0px"
	 viewBox="0 0 100 100" enable-background="new 0 0 100 100" xml:space="preserve">
<path id="Identi.ca" d="M0,47.289C-0.027,71.86,20.366,91.761,45.563,91.747c7.208-0.006,14.025-1.66,20.087-4.568L100,97.223
	L88.79,61.478c1.559-4.478,2.435-9.26,2.443-14.244C91.255,22.663,70.86,2.762,45.663,2.777C20.475,2.796,0.03,22.719,0,47.289z
	 M76.562,47.24c-0.008,3.764-0.748,7.35-2.047,10.675l5.776,16.124l0,0l0.009,0.022l0.509,1.436c0.007-0.007,0.014-0.018,0.02-0.025
	l1.994,5.271l-7.287-1.816l0,0l-15.64-4.934c-4.289,2.188-9.152,3.443-14.32,3.447c-17.086,0.008-30.922-13.49-30.905-30.158
	c0.019-16.667,13.889-30.186,30.98-30.197C62.744,17.072,76.581,30.573,76.562,47.24z"/>
</svg>
