<?xml version="1.0" encoding="utf-8"?>
<!-- Generator: Adobe Illustrator 18.1.1, SVG Export Plug-In . SVG Version: 6.00 Build 0)  -->
<svg version="1.1" id="Calque_1" xmlns="http://www.w3.org/2000/svg" xmlns:xlink="http://www.w3.org/1999/xlink" x="0px" y="0px"
	 viewBox="0 0 100 100" enable-background="new 0 0 100 100" xml:space="preserve">
<path fill-rule="evenodd" clip-rule="evenodd" d="M33.125,38.358c0-4.321,1.106-7.953,3.32-10.899
	c2.214-2.941,4.909-4.414,8.086-4.414c2.55,0,4.519,0.848,5.898,2.539c1.379,1.694,2.071,3.816,2.071,6.367
	c0,1.615-0.287,3.556-0.86,5.821c-0.573,2.265-1.341,4.921-2.305,7.97c-0.964,3.045-1.654,5.455-2.07,7.226
	c-0.73,3.125-0.13,5.821,1.796,8.086c1.927,2.265,4.453,3.397,7.579,3.397c5.519,0,10.04-3.07,13.554-9.218
	c3.516-6.144,5.273-13.592,5.273-22.343c0-6.72-2.174-12.188-6.523-16.406c-4.349-4.22-10.404-6.329-18.164-6.329
	c-8.7,0-15.743,2.773-21.133,8.321c-5.391,5.546-8.087,12.226-8.087,20.038c0,4.583,1.303,8.488,3.907,11.719
	c0.885,0.992,1.172,2.085,0.86,3.283c-0.261,0.885-0.651,2.473-1.172,4.766c-0.209,0.729-0.586,1.223-1.133,1.484
	c-0.547,0.261-1.159,0.261-1.836,0c-4.011-1.666-7.044-4.533-9.102-8.594C11.028,47.108,10,42.422,10,37.109
	c0-3.438,0.56-6.888,1.679-10.351c1.12-3.463,2.853-6.797,5.195-10.002c2.344-3.202,5.143-6.054,8.399-8.555
	c3.254-2.5,7.239-4.493,11.953-5.976C41.94,0.741,47.005,0,52.422,0c5.521,0,10.65,0.949,15.39,2.85
	c4.74,1.903,8.711,4.43,11.915,7.58c3.203,3.151,5.715,6.77,7.54,10.86C89.088,25.378,90,29.608,90,33.984
	c0,11.772-2.981,21.497-8.945,29.179c-5.965,7.683-13.659,11.524-23.087,11.524c-3.125,0-6.054-0.727-8.788-2.187
	c-2.735-1.458-4.649-3.203-5.742-5.235c-2.292,9.116-3.672,14.559-4.14,16.328c-1.201,4.586-4.012,10.053-8.439,16.408h-4.062
	c-0.887-8.022-0.702-14.637,0.547-19.844l7.657-32.344C33.75,45.261,33.125,42.109,33.125,38.358z"/>
</svg>
