<?xml version="1.0" encoding="utf-8"?>
<!-- Generator: Adobe Illustrator 18.1.1, SVG Export Plug-In . SVG Version: 6.00 Build 0)  -->
<svg version="1.1" id="Calque_1" xmlns="http://www.w3.org/2000/svg" xmlns:xlink="http://www.w3.org/1999/xlink" x="0px" y="0px"
	 viewBox="0 0 100 100" enable-background="new 0 0 100 100" xml:space="preserve">
<path d="M94.616,34.822c0-7.092-2.52-12.886-6.685-17.435c0.674-1.637,2.898-8.243-0.638-17.191c0,0-5.447-1.745-17.845,6.659
	c-5.191-1.44-10.753-2.161-16.273-2.187c-5.52,0.025-11.077,0.747-16.259,2.187C24.504-1.549,19.049,0.196,19.049,0.196
	c-3.527,8.948-1.304,15.554-0.629,17.191c-4.156,4.549-6.694,10.344-6.694,17.435c0,24.89,15.168,30.46,29.596,32.102
	c-1.858,1.622-3.541,4.489-4.124,8.686c-3.707,1.66-13.11,4.531-18.903-5.399c0,0-3.435-6.237-9.957-6.695
	c0,0-6.338-0.083-0.444,3.949c0,0,4.257,1.997,7.212,9.505c0,0,3.813,11.594,21.884,7.664c0.028,5.428,0.088,13.773,0.088,15.321
	h32.208c0-2.14,0.075-12.362,0.075-21.053c0-6.06-2.076-10.013-4.406-12.029C79.42,65.264,94.616,59.771,94.616,34.822z
	 M12.821,66.522c-0.143,0.324-0.651,0.42-1.113,0.198c-0.472-0.212-0.735-0.652-0.583-0.976c0.14-0.332,0.648-0.424,1.119-0.203
	C12.715,65.754,12.984,66.198,12.821,66.522z M15.452,69.457c-0.31,0.287-0.916,0.153-1.327-0.3c-0.425-0.453-0.504-1.059-0.19-1.35
	c0.319-0.287,0.907-0.152,1.332,0.3C15.693,68.565,15.776,69.166,15.452,69.457z M18.013,73.197
	c-0.398,0.277-1.049,0.018-1.452-0.56c-0.398-0.578-0.398-1.271,0.009-1.548c0.402-0.277,1.044-0.027,1.452,0.545
	C18.42,72.221,18.42,72.915,18.013,73.197z M21.522,76.812c-0.356,0.393-1.115,0.287-1.669-0.249
	c-0.568-0.523-0.726-1.267-0.37-1.66c0.361-0.393,1.124-0.283,1.683,0.249C21.73,75.675,21.901,76.423,21.522,76.812z
	 M26.362,78.911c-0.158,0.508-0.888,0.74-1.623,0.523c-0.735-0.223-1.215-0.818-1.067-1.332c0.152-0.513,0.887-0.753,1.627-0.522
	C26.034,77.802,26.515,78.393,26.362,78.911z M30.301,80.289c-0.776,0.018-1.406-0.416-1.414-0.943c0-0.541,0.61-0.98,1.387-0.994
	c0.772-0.015,1.406,0.416,1.406,0.948C31.697,79.835,31.073,80.28,30.301,80.289z M35.414,79.66
	c-0.754,0.139-1.452-0.185-1.548-0.703c-0.093-0.536,0.453-1.073,1.206-1.211c0.768-0.133,1.456,0.181,1.554,0.712
	C36.718,78.98,36.181,79.517,35.414,79.66z"/>
</svg>
