<?xml version="1.0" encoding="utf-8"?>
<!-- Generator: Adobe Illustrator 18.1.1, SVG Export Plug-In . SVG Version: 6.00 Build 0)  -->
<svg version="1.1" id="Calque_1" xmlns="http://www.w3.org/2000/svg" xmlns:xlink="http://www.w3.org/1999/xlink" x="0px" y="0px"
	 viewBox="0 0 100 100" enable-background="new 0 0 100 100" xml:space="preserve">
<path d="M50,0C22.386,0,0,22.385,0,50s22.386,50,50,50c27.615,0,50-22.385,50-50S77.615,0,50,0z M79.383,59.979
	c-3.737-1.576-6.853-4.782-9.176-8.027c-2.665-3.726-5.394-7.388-8.383-10.862c-2.809-3.263-5.795-6.389-9.04-9.212
	c-3.236-2.822-6.76-5.506-10.641-7.368c-2.602-1.257-5.282-2.201-8.054-2.994c-0.314-0.085-1.162-0.471-1.413-0.085
	c-0.153,0.239-0.035,0.685-0.002,0.95c0.067,0.576,0.135,1.15,0.208,1.722c0.829,6.882,1.143,14.146-0.993,20.829
	c-1.147,3.602-3.238,6.894-6.025,9.443c-2.312,2.112-5.61,4.253-8.887,4.1c-0.605-0.025-1.211-0.128-1.812-0.328
	c-3.509-1.183-3.713-4.972-3.73-8.087c-0.029-3.348,0.379-6.692,1.208-9.937c0.251-1,0.565-1.98,0.896-2.959
	c3.834-11.116,12.703-20.167,23.844-24.115c4.174-1.479,8.591-2.222,13.015-2.222c13.027,0,25.42,6.614,32.58,17.496
	c1.794,2.726,3.231,5.68,4.288,8.68h-0.014c0.336,1,0.65,2.039,0.908,3.04c0.822,3.244,1.229,6.63,1.207,9.978
	C89.317,56.321,87.294,63.315,79.383,59.979z"/>
</svg>
