<?xml version="1.0" encoding="utf-8"?>
<!-- Generator: Adobe Illustrator 18.1.1, SVG Export Plug-In . SVG Version: 6.00 Build 0)  -->
<svg version="1.1" id="Calque_1" xmlns="http://www.w3.org/2000/svg" xmlns:xlink="http://www.w3.org/1999/xlink" x="0px" y="0px"
	 viewBox="0 0 100 100" enable-background="new 0 0 100 100" xml:space="preserve">
<path d="M64.661,28.591c-2.395,0-4.862,0.552-7.402,1.641C62.174,14.129,71.564,6.308,85.423,6.752
	c10.276,0.304,15.119,6.969,14.529,20.004c-0.447,9.736-7.246,23.07-20.396,39.992C65.96,84.427,54.458,93.266,45.048,93.266
	c-5.826,0-10.762-5.381-14.79-16.148c-2.691-9.869-5.382-19.739-8.071-29.607c-2.992-10.762-6.202-16.15-9.633-16.15
	c-0.747,0-3.366,1.576-7.848,4.712L0,30.01c4.935-4.338,9.804-8.676,14.595-13.02c6.581-5.689,11.523-8.682,14.816-8.982
	c7.782-0.75,12.572,4.573,14.372,15.965c1.941,12.291,3.287,19.934,4.041,22.926c2.243,10.197,4.711,15.289,7.408,15.289
	c2.092,0,5.236-3.307,9.429-9.92c4.186-6.614,6.432-11.648,6.732-15.105C71.992,31.453,69.747,28.591,64.661,28.591z"/>
</svg>
