<?xml version="1.0" encoding="utf-8"?>
<!-- Generator: Adobe Illustrator 18.1.1, SVG Export Plug-In . SVG Version: 6.00 Build 0)  -->
<svg version="1.1" id="Calque_1" xmlns="http://www.w3.org/2000/svg" xmlns:xlink="http://www.w3.org/1999/xlink" x="0px" y="0px"
	 viewBox="0 0 100 100" enable-background="new 0 0 100 100" xml:space="preserve">
<path d="M100,0v69.059C83,79.53,62.734,81.684,43.915,78.131c-9.316,4.842-17.734,11.723-26.834,16.986
	c0.504-7.181,1.516-14.297,2.259-21.455c0.104-2.882,1.194-6.625-1.877-8.377C5.835,56.054-1.902,41.056-0.154,26.004
	C0.693,16.238,5.883,8,11.867,0H100z M82.661,12.667C74.911,6.971,65.118,4.5,55.576,4.87C45.005,5.029,34.273,9.027,26.963,16.819
	c-4.19,4.341-7.169,10.103-7.216,16.232c-0.465,8.334,4.184,16.267,10.68,21.212c13.758,10.449,33.778,11.273,48.729,2.885
	c8.254-4.588,15.01-13.077,15.136-22.832C94.605,25.672,89.581,17.542,82.661,12.667z"/>
</svg>
