<?xml version="1.0" encoding="utf-8"?>
<!-- Generator: Adobe Illustrator 18.1.1, SVG Export Plug-In . SVG Version: 6.00 Build 0)  -->
<svg version="1.1" id="Calque_1" xmlns="http://www.w3.org/2000/svg" xmlns:xlink="http://www.w3.org/1999/xlink" x="0px" y="0px"
	 viewBox="0 0 100 100" enable-background="new 0 0 100 100" xml:space="preserve">
<path d="M90,29H65v-6h25V29z M48.72,52.474c1.867,2.747,2.784,6.019,2.784,9.869c0,3.117-0.599,5.784-1.793,8.043
	c-1.205,2.286-2.843,4.103-4.865,5.532c-2.04,1.441-4.38,2.469-6.999,3.157C35.254,79.764,32.563,80,29.807,80H0V18h28.99
	c2.942,0,5.599,0.605,8.026,1.13c2.415,0.511,4.476,1.637,6.215,2.809c1.715,1.174,3.057,2.768,4.016,4.734
	c0.94,1.93,1.41,4.373,1.41,7.238c0,3.094-0.703,5.691-2.108,7.762c-1.419,2.062-3.5,3.761-6.279,5.079
	C44.057,47.838,46.859,49.75,48.72,52.474z M13,43h14.237c2.401,0,4.39-0.291,5.964-1.451c1.556-1.135,2.313-2.767,2.313-5.345
	c0-1.433-0.251-2.606-0.757-3.523c-0.521-0.916-1.214-1.641-2.085-2.143c-0.868-0.525-1.849-0.954-2.985-1.149
	C28.575,29.169,27.402,29,26.207,29H13V43z M37.988,61.586c0-3.171-0.889-5.299-2.665-6.667C33.544,53.573,31.176,53,28.259,53H13
	v17h14.986c1.337,0,2.605-0.246,3.8-0.515c1.21-0.265,2.287-0.688,3.191-1.309c0.908-0.593,1.656-1.477,2.204-2.517
	C37.729,64.629,37.988,63.206,37.988,61.586z M99.932,61H67.785c0,3,1.191,6.74,3.03,8.53c1.83,1.789,4.481,2.649,7.913,2.649
	c2.469,0,4.599-0.743,6.388-1.987C86.89,68.95,87.968,68,88.387,66H99.16c-1.729,6-4.358,9.397-7.944,11.701
	c-3.54,2.314-7.862,3.7-12.899,3.7c-3.508,0-6.666-0.578-9.5-1.7c-2.834-1.133-5.202-2.727-7.196-4.794
	c-1.939-2.081-3.45-4.543-4.521-7.428c-1.064-2.875-1.602-6.052-1.602-9.497c0-3.332,0.557-6.445,1.647-9.324
	c1.109-2.884,2.647-5.377,4.663-7.467c2.027-2.1,4.426-3.759,7.219-4.968c2.797-1.208,5.877-1.822,9.29-1.822
	c3.769,0,7.073,0.714,9.902,2.192c2.819,1.456,5.129,3.408,6.944,5.882c1.817,2.469,3.107,5.389,3.915,8.556
	C99.882,54.188,100.16,58,99.932,61z M87.693,53c-0.292-3-1.36-5.337-2.819-6.957c-1.455-1.611-3.92-2.42-6.923-2.42
	c-1.957,0-3.573,0.336-4.869,1.007c-1.268,0.662-2.304,1.484-3.099,2.452c-0.79,0.986-1.328,1.958-1.643,3.071
	C68.027,51.234,67.84,52,67.785,53H87.693z"/>
</svg>
