<?xml version="1.0" encoding="utf-8"?>
<!-- Generator: Adobe Illustrator 18.1.1, SVG Export Plug-In . SVG Version: 6.00 Build 0)  -->
<svg version="1.1" id="Calque_1" xmlns="http://www.w3.org/2000/svg" xmlns:xlink="http://www.w3.org/1999/xlink" x="0px" y="0px"
	 viewBox="0 0 100 100" enable-background="new 0 0 100 100" xml:space="preserve">
<path d="M50,0C22.385,0,0,22.386,0,50s22.385,50,50,50c27.613,0,50-22.386,50-50S77.613,0,50,0z M79.018,57.499
	C75.601,70.748,63.669,80,50,80s-25.603-9.252-29.02-22.501c-0.394-1.527,0.526-3.086,2.052-3.48c1.53-0.395,3.086,0.526,3.48,2.054
	C29.28,66.796,38.937,74.287,50,74.287c11.062,0,20.72-7.491,23.485-18.214c0.394-1.528,1.948-2.451,3.48-2.054
	C78.494,54.413,79.413,55.972,79.018,57.499z"/>
</svg>
